%TF.GenerationSoftware,KiCad,Pcbnew,9.0.5*%
%TF.CreationDate,2025-10-26T01:34:21+08:00*%
%TF.ProjectId,KiCAD_Proj (ESP32),4b694341-445f-4507-926f-6a2028455350,rev?*%
%TF.SameCoordinates,Original*%
%TF.FileFunction,Copper,L4,Bot*%
%TF.FilePolarity,Positive*%
%FSLAX46Y46*%
G04 Gerber Fmt 4.6, Leading zero omitted, Abs format (unit mm)*
G04 Created by KiCad (PCBNEW 9.0.5) date 2025-10-26 01:34:21*
%MOMM*%
%LPD*%
G01*
G04 APERTURE LIST*
G04 Aperture macros list*
%AMRoundRect*
0 Rectangle with rounded corners*
0 $1 Rounding radius*
0 $2 $3 $4 $5 $6 $7 $8 $9 X,Y pos of 4 corners*
0 Add a 4 corners polygon primitive as box body*
4,1,4,$2,$3,$4,$5,$6,$7,$8,$9,$2,$3,0*
0 Add four circle primitives for the rounded corners*
1,1,$1+$1,$2,$3*
1,1,$1+$1,$4,$5*
1,1,$1+$1,$6,$7*
1,1,$1+$1,$8,$9*
0 Add four rect primitives between the rounded corners*
20,1,$1+$1,$2,$3,$4,$5,0*
20,1,$1+$1,$4,$5,$6,$7,0*
20,1,$1+$1,$6,$7,$8,$9,0*
20,1,$1+$1,$8,$9,$2,$3,0*%
G04 Aperture macros list end*
%TA.AperFunction,ComponentPad*%
%ADD10R,1.700000X1.700000*%
%TD*%
%TA.AperFunction,ComponentPad*%
%ADD11C,1.700000*%
%TD*%
%TA.AperFunction,HeatsinkPad*%
%ADD12O,1.000000X1.900000*%
%TD*%
%TA.AperFunction,HeatsinkPad*%
%ADD13O,1.050000X1.250000*%
%TD*%
%TA.AperFunction,SMDPad,CuDef*%
%ADD14RoundRect,0.375000X0.625000X0.375000X-0.625000X0.375000X-0.625000X-0.375000X0.625000X-0.375000X0*%
%TD*%
%TA.AperFunction,SMDPad,CuDef*%
%ADD15RoundRect,0.500000X0.500000X1.400000X-0.500000X1.400000X-0.500000X-1.400000X0.500000X-1.400000X0*%
%TD*%
%TA.AperFunction,SMDPad,CuDef*%
%ADD16RoundRect,0.100000X0.100000X-0.130000X0.100000X0.130000X-0.100000X0.130000X-0.100000X-0.130000X0*%
%TD*%
%TA.AperFunction,SMDPad,CuDef*%
%ADD17RoundRect,0.067500X0.437500X0.067500X-0.437500X0.067500X-0.437500X-0.067500X0.437500X-0.067500X0*%
%TD*%
%TA.AperFunction,SMDPad,CuDef*%
%ADD18RoundRect,0.067500X0.067500X0.437500X-0.067500X0.437500X-0.067500X-0.437500X0.067500X-0.437500X0*%
%TD*%
%TA.AperFunction,SMDPad,CuDef*%
%ADD19R,3.250000X3.250000*%
%TD*%
%TA.AperFunction,ViaPad*%
%ADD20C,0.600000*%
%TD*%
%TA.AperFunction,Conductor*%
%ADD21C,0.150000*%
%TD*%
%TA.AperFunction,Conductor*%
%ADD22C,0.200000*%
%TD*%
%TA.AperFunction,Conductor*%
%ADD23C,0.100000*%
%TD*%
G04 APERTURE END LIST*
D10*
%TO.P,J2,1,Pin_1*%
%TO.N,/VDD33*%
X133837000Y-74930000D03*
D11*
%TO.P,J2,2,Pin_2*%
%TO.N,/EN*%
X133837000Y-77470000D03*
%TO.P,J2,3,Pin_3*%
%TO.N,/SENSOR_VP*%
X133837000Y-80010000D03*
%TO.P,J2,4,Pin_4*%
%TO.N,/SENSOR_VN*%
X133837000Y-82550000D03*
%TO.P,J2,5,Pin_5*%
%TO.N,/IO34*%
X133837000Y-85090000D03*
%TO.P,J2,6,Pin_6*%
%TO.N,/IO35*%
X133837000Y-87630000D03*
%TO.P,J2,7,Pin_7*%
%TO.N,/IO32*%
X133837000Y-90170000D03*
%TO.P,J2,8,Pin_8*%
%TO.N,/IO33*%
X133837000Y-92710000D03*
%TO.P,J2,9,Pin_9*%
%TO.N,/IO25*%
X133837000Y-95250000D03*
%TO.P,J2,10,Pin_10*%
%TO.N,/IO26*%
X133837000Y-97790000D03*
%TO.P,J2,11,Pin_11*%
%TO.N,/IO27*%
X133837000Y-100330000D03*
%TO.P,J2,12,Pin_12*%
%TO.N,/IO14*%
X133837000Y-102870000D03*
%TO.P,J2,13,Pin_13*%
%TO.N,/IO12*%
X133837000Y-105410000D03*
%TO.P,J2,14,Pin_14*%
%TO.N,GND*%
X133837000Y-107950000D03*
%TO.P,J2,15,Pin_15*%
%TO.N,/IO13*%
X133837000Y-110490000D03*
%TO.P,J2,16,Pin_16*%
%TO.N,/SD2*%
X133837000Y-113030000D03*
%TO.P,J2,17,Pin_17*%
%TO.N,/SD3*%
X133837000Y-115570000D03*
%TO.P,J2,18,Pin_18*%
%TO.N,/CMD*%
X133837000Y-118110000D03*
%TO.P,J2,19,Pin_19*%
%TO.N,/EXT_5V*%
X133837000Y-120650000D03*
%TD*%
D10*
%TO.P,J3,1,Pin_1*%
%TO.N,GND*%
X160761000Y-74930000D03*
D11*
%TO.P,J3,2,Pin_2*%
%TO.N,/IO23*%
X160761000Y-77470000D03*
%TO.P,J3,3,Pin_3*%
%TO.N,/IO22*%
X160761000Y-80010000D03*
%TO.P,J3,4,Pin_4*%
%TO.N,/TXD0*%
X160761000Y-82550000D03*
%TO.P,J3,5,Pin_5*%
%TO.N,/RXD0*%
X160761000Y-85090000D03*
%TO.P,J3,6,Pin_6*%
%TO.N,/IO21*%
X160761000Y-87630000D03*
%TO.P,J3,7,Pin_7*%
%TO.N,GND*%
X160761000Y-90170000D03*
%TO.P,J3,8,Pin_8*%
%TO.N,/IO19*%
X160761000Y-92710000D03*
%TO.P,J3,9,Pin_9*%
%TO.N,/IO18*%
X160761000Y-95250000D03*
%TO.P,J3,10,Pin_10*%
%TO.N,/IO5*%
X160761000Y-97790000D03*
%TO.P,J3,11,Pin_11*%
%TO.N,/IO17*%
X160761000Y-100330000D03*
%TO.P,J3,12,Pin_12*%
%TO.N,/IO16*%
X160761000Y-102870000D03*
%TO.P,J3,13,Pin_13*%
%TO.N,/IO4*%
X160761000Y-105410000D03*
%TO.P,J3,14,Pin_14*%
%TO.N,/IO0*%
X160761000Y-107950000D03*
%TO.P,J3,15,Pin_15*%
%TO.N,/IO2*%
X160761000Y-110490000D03*
%TO.P,J3,16,Pin_16*%
%TO.N,/IO15*%
X160761000Y-113030000D03*
%TO.P,J3,17,Pin_17*%
%TO.N,/SD1*%
X160761000Y-115570000D03*
%TO.P,J3,18,Pin_18*%
%TO.N,/SD0*%
X160761000Y-118110000D03*
%TO.P,J3,19,Pin_19*%
%TO.N,/CLK*%
X160761000Y-120650000D03*
%TD*%
D12*
%TO.P,J1,6,Shield*%
%TO.N,GND*%
X143124000Y-119078000D03*
D13*
X145074000Y-116078000D03*
X149524000Y-116078000D03*
D12*
X151474000Y-119078000D03*
%TD*%
D14*
%TO.P,U2,1,GND*%
%TO.N,GND*%
X150449000Y-96760000D03*
%TO.P,U2,2,VO*%
%TO.N,/VDD33*%
X150449000Y-99060000D03*
D15*
X144149000Y-99060000D03*
D14*
%TO.P,U2,3,VI*%
%TO.N,/EXT_5V*%
X150449000Y-101360000D03*
%TD*%
D16*
%TO.P,C1,1*%
%TO.N,/EXT_5V*%
X153663116Y-101412000D03*
%TO.P,C1,2*%
%TO.N,GND*%
X153663116Y-100772000D03*
%TD*%
D17*
%TO.P,U1,1,DCD*%
%TO.N,/CDC*%
X149659000Y-107212000D03*
%TO.P,U1,2,RI/CLK*%
%TO.N,/RI*%
X149659000Y-107712000D03*
%TO.P,U1,3,GND*%
%TO.N,GND*%
X149659000Y-108212000D03*
%TO.P,U1,4,D+*%
%TO.N,/USB_DP*%
X149659000Y-108712000D03*
%TO.P,U1,5,D-*%
%TO.N,/USB_DN*%
X149659000Y-109212000D03*
%TO.P,U1,6,VDD*%
%TO.N,/VDD33*%
X149659000Y-109712000D03*
%TO.P,U1,7,VREGIN*%
X149659000Y-110212000D03*
D18*
%TO.P,U1,8,VBUS*%
%TO.N,Net-(U1-VBUS)*%
X148799000Y-111072000D03*
%TO.P,U1,9,~{RST}*%
%TO.N,Net-(U1-~{RST})*%
X148299000Y-111072000D03*
%TO.P,U1,10,NC*%
%TO.N,unconnected-(U1-NC-Pad10)*%
X147799000Y-111072000D03*
%TO.P,U1,11,~{SUSPENDB}*%
%TO.N,Net-(U1-~{SUSPENDB})*%
X147299000Y-111072000D03*
%TO.P,U1,12,SUSPEND*%
%TO.N,unconnected-(U1-SUSPEND-Pad12)*%
X146799000Y-111072000D03*
%TO.P,U1,13,CHREN*%
%TO.N,unconnected-(U1-CHREN-Pad13)*%
X146299000Y-111072000D03*
%TO.P,U1,14,CHR1*%
%TO.N,unconnected-(U1-CHR1-Pad14)*%
X145799000Y-111072000D03*
D17*
%TO.P,U1,15,CHR0*%
%TO.N,unconnected-(U1-CHR0-Pad15)*%
X144939000Y-110212000D03*
%TO.P,U1,16,GPIO.3/WAKEUP*%
%TO.N,unconnected-(U1-GPIO.3{slash}WAKEUP-Pad16)*%
X144939000Y-109712000D03*
%TO.P,U1,17,GPIO.2/RS485*%
%TO.N,unconnected-(U1-GPIO.2{slash}RS485-Pad17)*%
X144939000Y-109212000D03*
%TO.P,U1,18,GPIO.1/RXT*%
%TO.N,unconnected-(U1-GPIO.1{slash}RXT-Pad18)*%
X144939000Y-108712000D03*
%TO.P,U1,19,GPIO.0/TXT*%
%TO.N,unconnected-(U1-GPIO.0{slash}TXT-Pad19)*%
X144939000Y-108212000D03*
%TO.P,U1,20,GPIO.6*%
%TO.N,unconnected-(U1-GPIO.6-Pad20)*%
X144939000Y-107712000D03*
%TO.P,U1,21,GPIO.5*%
%TO.N,unconnected-(U1-GPIO.5-Pad21)*%
X144939000Y-107212000D03*
D18*
%TO.P,U1,22,GPIO.4*%
%TO.N,unconnected-(U1-GPIO.4-Pad22)*%
X145799000Y-106352000D03*
%TO.P,U1,23,CTS*%
%TO.N,/CTS*%
X146299000Y-106352000D03*
%TO.P,U1,24,RTS*%
%TO.N,/DSR*%
X146799000Y-106352000D03*
%TO.P,U1,25,RXD*%
%TO.N,/RTS*%
X147299000Y-106352000D03*
%TO.P,U1,26,TXD*%
%TO.N,/RXD*%
X147799000Y-106352000D03*
%TO.P,U1,27,DSR*%
%TO.N,/TXD*%
X148299000Y-106352000D03*
%TO.P,U1,28,DTR*%
%TO.N,/DTR*%
X148799000Y-106352000D03*
D19*
%TO.P,U1,29,GND*%
%TO.N,GND*%
X147299000Y-108712000D03*
%TD*%
D16*
%TO.P,C2,1*%
%TO.N,/VDD33*%
X153663116Y-97983000D03*
%TO.P,C2,2*%
%TO.N,GND*%
X153663116Y-97343000D03*
%TD*%
D20*
%TO.N,/EXT_5V*%
X154618000Y-101405000D03*
X147845000Y-101710000D03*
X136017000Y-119380000D03*
%TO.N,GND*%
X153162000Y-100076000D03*
X149479000Y-95377000D03*
X138684000Y-104267000D03*
X151265000Y-108212000D03*
%TO.N,/EN*%
X147828000Y-114300000D03*
X141605000Y-116713000D03*
X146177000Y-97155000D03*
X156337000Y-100076000D03*
%TO.N,/IO0*%
X154559000Y-118364000D03*
%TO.N,/VDD33*%
X154051000Y-98679000D03*
X143891000Y-101600000D03*
X150876000Y-106299000D03*
X149860000Y-110871000D03*
X135890000Y-75438000D03*
X142367000Y-96774000D03*
%TO.N,/VBUS*%
X149606000Y-114935000D03*
X145224500Y-104457500D03*
X143891000Y-106045000D03*
X155575000Y-97536000D03*
%TO.N,/USB_DN*%
X152146000Y-96774000D03*
X150876000Y-107315000D03*
X148336000Y-114935000D03*
%TO.N,/USB_DP*%
X151892000Y-108839000D03*
X149860000Y-112141000D03*
X147299000Y-114956000D03*
X145542000Y-95377000D03*
%TO.N,/TXD0*%
X152692000Y-97828000D03*
%TO.N,/RXD0*%
X157289500Y-97853500D03*
%TO.N,/IO4*%
X157935000Y-89101000D03*
%TO.N,/RTS*%
X142240000Y-115189000D03*
%TO.N,/DTR*%
X141605000Y-115824000D03*
X155702000Y-116078000D03*
%TO.N,/RXD*%
X147574000Y-104521000D03*
%TO.N,/TXD*%
X148336000Y-104521000D03*
X155575000Y-100838000D03*
%TO.N,Net-(U1-~{SUSPENDB})*%
X151892000Y-100076000D03*
X147320000Y-112141000D03*
%TO.N,Net-(U1-~{RST})*%
X148463000Y-112141000D03*
X151511000Y-97917000D03*
%TO.N,Net-(U1-VBUS)*%
X150241000Y-104394000D03*
X149479000Y-111506000D03*
%TO.N,Net-(U3-3V3)*%
X138049000Y-97790000D03*
X136652000Y-75438000D03*
%TD*%
D21*
%TO.N,/EXT_5V*%
X138557000Y-121765000D02*
X136172000Y-119380000D01*
X153670116Y-101405000D02*
X153663116Y-101412000D01*
X154618000Y-101405000D02*
X153670116Y-101405000D01*
X156210000Y-120523000D02*
X154968000Y-121765000D01*
X154618000Y-101405000D02*
X156210000Y-102997000D01*
X156210000Y-102997000D02*
X156210000Y-120523000D01*
X149970000Y-101710000D02*
X147845000Y-101710000D01*
X136172000Y-119380000D02*
X136017000Y-119380000D01*
X150501000Y-101412000D02*
X150449000Y-101360000D01*
X150320000Y-101360000D02*
X149970000Y-101710000D01*
X153663116Y-101412000D02*
X150501000Y-101412000D01*
X154611000Y-101412000D02*
X154618000Y-101405000D01*
X150449000Y-101360000D02*
X150320000Y-101360000D01*
X154968000Y-121765000D02*
X138557000Y-121765000D01*
%TO.N,GND*%
X153663116Y-100772000D02*
X153663116Y-100209884D01*
X147799000Y-108212000D02*
X147299000Y-108712000D01*
X153663116Y-100209884D02*
X154559000Y-99314000D01*
X154559000Y-99314000D02*
X154559000Y-98238884D01*
X153663116Y-100577116D02*
X153162000Y-100076000D01*
X150449000Y-96760000D02*
X149479000Y-95790000D01*
X153647116Y-97327000D02*
X151016000Y-97327000D01*
X149659000Y-108212000D02*
X147799000Y-108212000D01*
X149479000Y-95790000D02*
X149479000Y-95377000D01*
X154559000Y-98238884D02*
X153663116Y-97343000D01*
X151265000Y-108212000D02*
X149659000Y-108212000D01*
X153663116Y-100772000D02*
X153663116Y-100577116D01*
X151016000Y-97327000D02*
X150449000Y-96760000D01*
X137520000Y-104267000D02*
X138684000Y-104267000D01*
X153663116Y-97343000D02*
X153647116Y-97327000D01*
X133837000Y-107950000D02*
X137520000Y-104267000D01*
X153475000Y-97275000D02*
X153543000Y-97343000D01*
%TO.N,/VDD33*%
X150449000Y-99060000D02*
X151892000Y-99060000D01*
X153543000Y-97983000D02*
X153543000Y-98171000D01*
X144149000Y-99060000D02*
X144018000Y-98929000D01*
X144018000Y-98929000D02*
X144018000Y-96774000D01*
X144149000Y-99060000D02*
X144149000Y-101342000D01*
X154051000Y-98679000D02*
X154051000Y-98370884D01*
X151892000Y-99060000D02*
X152527000Y-98425000D01*
X150876000Y-105787000D02*
X150876000Y-106299000D01*
X154051000Y-98370884D02*
X153663116Y-97983000D01*
X144018000Y-96774000D02*
X144018000Y-83566000D01*
X144018000Y-96774000D02*
X142367000Y-96774000D01*
X144149000Y-101342000D02*
X143891000Y-101600000D01*
X149659000Y-110212000D02*
X149659000Y-110670000D01*
X144018000Y-83566000D02*
X135890000Y-75438000D01*
X149659000Y-110670000D02*
X149860000Y-110871000D01*
X144149000Y-99060000D02*
X150876000Y-105787000D01*
X144149000Y-99060000D02*
X150449000Y-99060000D01*
X153221116Y-98425000D02*
X153663116Y-97983000D01*
X152527000Y-98425000D02*
X153221116Y-98425000D01*
X149659000Y-109712000D02*
X149659000Y-110212000D01*
%TO.N,/VBUS*%
X149606000Y-114935000D02*
X149098000Y-114935000D01*
X148576000Y-115457000D02*
X146191000Y-115457000D01*
X149098000Y-114935000D02*
X148576000Y-115457000D01*
X143891000Y-113157000D02*
X143891000Y-106045000D01*
X145923000Y-115189000D02*
X143891000Y-113157000D01*
X146191000Y-115457000D02*
X145923000Y-115189000D01*
D22*
%TO.N,/USB_DN*%
X148336000Y-114935000D02*
X150741000Y-112530000D01*
X153035000Y-108712000D02*
X153035000Y-107696000D01*
X151003000Y-109474000D02*
X152273000Y-109474000D01*
X149659000Y-109212000D02*
X150741000Y-109212000D01*
X152654000Y-107315000D02*
X150876000Y-107315000D01*
X152273000Y-109474000D02*
X153035000Y-108712000D01*
X150741000Y-109212000D02*
X151003000Y-109474000D01*
X150741000Y-112530000D02*
X150741000Y-109212000D01*
X153035000Y-107696000D02*
X152654000Y-107315000D01*
%TO.N,/USB_DP*%
X149659000Y-108712000D02*
X150749000Y-108712000D01*
X148227123Y-113157000D02*
X149479000Y-113157000D01*
X147299000Y-114956000D02*
X147299000Y-114085123D01*
X147299000Y-114085123D02*
X148227123Y-113157000D01*
X149479000Y-113157000D02*
X149860000Y-112776000D01*
X149860000Y-112776000D02*
X149860000Y-112141000D01*
X150876000Y-108839000D02*
X151892000Y-108839000D01*
X150749000Y-108712000D02*
X150876000Y-108839000D01*
D21*
%TO.N,/RTS*%
X147299000Y-105262000D02*
X145796000Y-103759000D01*
X147299000Y-106352000D02*
X147299000Y-105262000D01*
X145796000Y-103759000D02*
X144018000Y-103759000D01*
X144018000Y-103759000D02*
X142240000Y-105537000D01*
X142240000Y-105537000D02*
X142240000Y-115189000D01*
D23*
%TO.N,/DTR*%
X148934000Y-104357000D02*
X148110000Y-103533000D01*
X148799000Y-106352000D02*
X148934000Y-106217000D01*
X148110000Y-103533000D02*
X143924388Y-103533000D01*
X143924388Y-103533000D02*
X142014000Y-105443388D01*
X142014000Y-114554000D02*
X141605000Y-114963000D01*
X148799000Y-106352000D02*
X149286000Y-106839000D01*
X141605000Y-114963000D02*
X141605000Y-115824000D01*
X153289000Y-107595032D02*
X153289000Y-113665000D01*
X148934000Y-106217000D02*
X148934000Y-104357000D01*
X142014000Y-105443388D02*
X142014000Y-114554000D01*
X153289000Y-113665000D02*
X155702000Y-116078000D01*
X149286000Y-106839000D02*
X152532968Y-106839000D01*
X152532968Y-106839000D02*
X153289000Y-107595032D01*
D21*
%TO.N,/RXD*%
X147799000Y-104746000D02*
X147574000Y-104521000D01*
X147799000Y-106352000D02*
X147799000Y-104746000D01*
%TO.N,/TXD*%
X148299000Y-106352000D02*
X148299000Y-104558000D01*
X148299000Y-104558000D02*
X148336000Y-104521000D01*
%TO.N,Net-(U1-~{SUSPENDB})*%
X147299000Y-112120000D02*
X147320000Y-112141000D01*
X147299000Y-111072000D02*
X147299000Y-112120000D01*
%TO.N,Net-(U1-~{RST})*%
X148299000Y-111977000D02*
X148463000Y-112141000D01*
X148299000Y-111072000D02*
X148299000Y-111977000D01*
%TO.N,Net-(U1-VBUS)*%
X148799000Y-111072000D02*
X149233000Y-111506000D01*
X149233000Y-111506000D02*
X149479000Y-111506000D01*
%TD*%
%TA.AperFunction,Conductor*%
%TO.N,GND*%
G36*
X135325015Y-76016408D02*
G01*
X135374603Y-76065996D01*
X135374609Y-76066001D01*
X135374611Y-76066003D01*
X135507032Y-76154483D01*
X135654169Y-76215430D01*
X135810370Y-76246500D01*
X135821116Y-76246500D01*
X135889237Y-76266502D01*
X135910211Y-76283405D01*
X143397595Y-83770788D01*
X143431621Y-83833100D01*
X143434500Y-83859883D01*
X143434500Y-96064500D01*
X143414498Y-96132621D01*
X143360842Y-96179114D01*
X143308500Y-96190500D01*
X142979083Y-96190500D01*
X142910962Y-96170498D01*
X142889988Y-96153595D01*
X142882396Y-96146003D01*
X142882390Y-96145998D01*
X142882389Y-96145997D01*
X142749968Y-96057517D01*
X142602831Y-95996570D01*
X142516576Y-95979413D01*
X142446632Y-95965500D01*
X142446630Y-95965500D01*
X142287370Y-95965500D01*
X142287367Y-95965500D01*
X142170219Y-95988802D01*
X142131169Y-95996570D01*
X142098747Y-96010000D01*
X141984032Y-96057517D01*
X141851609Y-96145998D01*
X141851603Y-96146003D01*
X141739003Y-96258603D01*
X141738998Y-96258609D01*
X141650517Y-96391032D01*
X141589571Y-96538167D01*
X141589570Y-96538170D01*
X141558500Y-96694367D01*
X141558500Y-96853632D01*
X141568992Y-96906378D01*
X141589570Y-97009831D01*
X141650517Y-97156968D01*
X141738735Y-97288997D01*
X141738998Y-97289390D01*
X141739003Y-97289396D01*
X141851603Y-97401996D01*
X141851609Y-97402001D01*
X141851611Y-97402003D01*
X141984032Y-97490483D01*
X142131169Y-97551430D01*
X142287370Y-97582500D01*
X142287371Y-97582500D01*
X142446629Y-97582500D01*
X142446630Y-97582500D01*
X142489919Y-97573889D01*
X142560631Y-97580216D01*
X142616699Y-97623770D01*
X142640319Y-97690722D01*
X142640500Y-97697468D01*
X142640500Y-100509534D01*
X142640501Y-100509554D01*
X142655090Y-100657694D01*
X142655091Y-100657700D01*
X142655092Y-100657701D01*
X142712759Y-100847804D01*
X142806405Y-101023004D01*
X142854819Y-101081997D01*
X142932434Y-101176570D01*
X143061850Y-101282779D01*
X143101819Y-101341456D01*
X143105496Y-101404759D01*
X143082500Y-101520364D01*
X143082500Y-101679632D01*
X143093017Y-101732503D01*
X143113570Y-101835831D01*
X143174517Y-101982968D01*
X143228859Y-102064297D01*
X143262998Y-102115390D01*
X143263003Y-102115396D01*
X143375603Y-102227996D01*
X143375609Y-102228001D01*
X143375611Y-102228003D01*
X143508032Y-102316483D01*
X143655169Y-102377430D01*
X143811370Y-102408500D01*
X143811371Y-102408500D01*
X143970629Y-102408500D01*
X143970630Y-102408500D01*
X144126831Y-102377430D01*
X144273968Y-102316483D01*
X144406389Y-102228003D01*
X144519003Y-102115389D01*
X144607483Y-101982968D01*
X144668430Y-101835831D01*
X144699500Y-101679630D01*
X144699500Y-101582605D01*
X144719502Y-101514484D01*
X144773158Y-101467991D01*
X144813148Y-101457212D01*
X144846701Y-101453908D01*
X145036804Y-101396241D01*
X145212004Y-101302595D01*
X145318378Y-101215295D01*
X145383724Y-101187542D01*
X145453702Y-101199523D01*
X145487406Y-101223600D01*
X146317168Y-102053362D01*
X147023212Y-102759405D01*
X147057237Y-102821717D01*
X147052173Y-102892532D01*
X147009626Y-102949368D01*
X146943106Y-102974179D01*
X146934117Y-102974500D01*
X143997916Y-102974500D01*
X143850860Y-102974500D01*
X143763925Y-102997794D01*
X143708810Y-103012562D01*
X143581464Y-103086085D01*
X143581458Y-103086090D01*
X143254659Y-103412890D01*
X141671073Y-104996477D01*
X141632242Y-105035308D01*
X141567090Y-105100459D01*
X141567086Y-105100464D01*
X141493563Y-105227810D01*
X141493560Y-105227817D01*
X141482908Y-105267571D01*
X141459642Y-105354404D01*
X141455500Y-105369861D01*
X141455500Y-114270472D01*
X141435498Y-114338593D01*
X141418595Y-114359567D01*
X141262073Y-114516089D01*
X141226130Y-114552032D01*
X141158090Y-114620071D01*
X141158086Y-114620076D01*
X141084563Y-114747422D01*
X141084560Y-114747429D01*
X141068858Y-114806032D01*
X141049499Y-114878282D01*
X141046500Y-114889473D01*
X141046500Y-115186917D01*
X141026498Y-115255038D01*
X141009595Y-115276012D01*
X140977003Y-115308603D01*
X140976998Y-115308609D01*
X140888517Y-115441032D01*
X140827571Y-115588167D01*
X140827570Y-115588170D01*
X140796500Y-115744367D01*
X140796500Y-115903632D01*
X140809348Y-115968224D01*
X140827570Y-116059831D01*
X140840682Y-116091485D01*
X140888518Y-116206971D01*
X140889662Y-116209111D01*
X140889921Y-116210359D01*
X140890886Y-116212687D01*
X140890444Y-116212869D01*
X140904129Y-116278618D01*
X140890730Y-116324248D01*
X140890886Y-116324313D01*
X140890288Y-116325755D01*
X140889662Y-116327889D01*
X140888518Y-116330028D01*
X140827571Y-116477167D01*
X140827570Y-116477170D01*
X140796500Y-116633367D01*
X140796500Y-116792632D01*
X140811322Y-116867148D01*
X140827570Y-116948831D01*
X140888517Y-117095968D01*
X140973726Y-117223493D01*
X140976998Y-117228390D01*
X140977003Y-117228396D01*
X141089603Y-117340996D01*
X141089609Y-117341001D01*
X141089611Y-117341003D01*
X141222032Y-117429483D01*
X141369169Y-117490430D01*
X141525370Y-117521500D01*
X141525371Y-117521500D01*
X141684629Y-117521500D01*
X141684630Y-117521500D01*
X141840831Y-117490430D01*
X141987968Y-117429483D01*
X142120389Y-117341003D01*
X142233003Y-117228389D01*
X142256674Y-117192962D01*
X152898500Y-117192962D01*
X152991567Y-117286029D01*
X152995831Y-117290507D01*
X153020941Y-117318211D01*
X153024976Y-117322888D01*
X153045797Y-117348256D01*
X153101712Y-117264574D01*
X153105270Y-117259521D01*
X153127543Y-117229487D01*
X153131346Y-117224613D01*
X153162932Y-117186121D01*
X153166974Y-117181435D01*
X153192112Y-117153698D01*
X153196379Y-117149217D01*
X153344217Y-117001379D01*
X153348698Y-116997112D01*
X153376435Y-116971974D01*
X153381121Y-116967932D01*
X153419613Y-116936346D01*
X153424487Y-116932543D01*
X153454521Y-116910270D01*
X153459574Y-116906712D01*
X153633384Y-116790577D01*
X153638605Y-116787270D01*
X153670688Y-116768039D01*
X153676071Y-116764989D01*
X153719983Y-116741517D01*
X153725507Y-116738737D01*
X153759331Y-116722739D01*
X153764986Y-116720232D01*
X153958128Y-116640230D01*
X153963500Y-116638157D01*
X153963400Y-116637877D01*
X153961459Y-116632002D01*
X153947005Y-116584353D01*
X153945356Y-116578394D01*
X153936266Y-116542105D01*
X153934911Y-116536071D01*
X153934585Y-116534434D01*
X153730151Y-116330000D01*
X152898500Y-116330000D01*
X152898500Y-117192962D01*
X142256674Y-117192962D01*
X142321483Y-117095968D01*
X142382430Y-116948831D01*
X142413500Y-116792630D01*
X142413500Y-116633370D01*
X142382430Y-116477169D01*
X142321483Y-116330032D01*
X142321480Y-116330028D01*
X142320343Y-116327900D01*
X142320083Y-116326653D01*
X142319114Y-116324313D01*
X142319557Y-116324129D01*
X142305869Y-116258395D01*
X142319271Y-116212750D01*
X142319115Y-116212686D01*
X142319716Y-116211234D01*
X142320343Y-116209100D01*
X142321481Y-116206971D01*
X142321483Y-116206968D01*
X142360452Y-116112890D01*
X142382429Y-116059835D01*
X142384224Y-116053917D01*
X142386652Y-116054653D01*
X142414404Y-116001594D01*
X142470370Y-115969720D01*
X142469917Y-115968224D01*
X142475835Y-115966429D01*
X142622963Y-115905485D01*
X142622962Y-115905485D01*
X142622968Y-115905483D01*
X142755389Y-115817003D01*
X142868003Y-115704389D01*
X142956483Y-115571968D01*
X143017430Y-115424831D01*
X143048500Y-115268630D01*
X143048500Y-115109370D01*
X143017430Y-114953169D01*
X142956483Y-114806032D01*
X142868003Y-114673611D01*
X142868001Y-114673609D01*
X142867996Y-114673603D01*
X142860405Y-114666012D01*
X142826379Y-114603700D01*
X142823500Y-114576917D01*
X142823500Y-105830883D01*
X142843502Y-105762762D01*
X142860398Y-105741794D01*
X142899457Y-105702735D01*
X142961765Y-105668712D01*
X143032581Y-105673776D01*
X143089417Y-105716322D01*
X143114229Y-105782842D01*
X143112129Y-105816413D01*
X143082500Y-105965364D01*
X143082500Y-106124632D01*
X143093331Y-106179081D01*
X143113570Y-106280831D01*
X143174517Y-106427968D01*
X143262997Y-106560389D01*
X143270593Y-106567985D01*
X143304619Y-106630294D01*
X143307500Y-106657082D01*
X143307500Y-113233817D01*
X143307499Y-113233817D01*
X143347266Y-113382227D01*
X143385674Y-113448750D01*
X143424081Y-113515274D01*
X143424089Y-113515284D01*
X144724775Y-114815970D01*
X144758801Y-114878282D01*
X144753736Y-114949097D01*
X144711189Y-115005933D01*
X144683898Y-115021474D01*
X144584691Y-115062567D01*
X144415501Y-115175616D01*
X144415495Y-115175621D01*
X144271621Y-115319495D01*
X144271616Y-115319501D01*
X144158567Y-115488691D01*
X144080700Y-115676679D01*
X144080698Y-115676684D01*
X144051395Y-115824000D01*
X144787635Y-115824000D01*
X144771149Y-115852555D01*
X144749000Y-115935213D01*
X144749000Y-116220787D01*
X144771149Y-116303445D01*
X144787635Y-116332000D01*
X144051395Y-116332000D01*
X144080698Y-116479315D01*
X144080700Y-116479320D01*
X144158567Y-116667308D01*
X144271616Y-116836498D01*
X144271621Y-116836504D01*
X144415495Y-116980378D01*
X144415501Y-116980383D01*
X144584691Y-117093432D01*
X144772683Y-117171301D01*
X144772690Y-117171303D01*
X144819999Y-117180713D01*
X144820000Y-117180713D01*
X144820000Y-116383618D01*
X144874446Y-116438064D01*
X144948555Y-116480851D01*
X145031213Y-116503000D01*
X145116787Y-116503000D01*
X145199445Y-116480851D01*
X145273554Y-116438064D01*
X145328000Y-116383618D01*
X145328000Y-117180713D01*
X145375309Y-117171303D01*
X145375316Y-117171301D01*
X145563308Y-117093432D01*
X145732498Y-116980383D01*
X145732504Y-116980378D01*
X145876378Y-116836504D01*
X145876383Y-116836498D01*
X145989432Y-116667308D01*
X146067299Y-116479320D01*
X146067301Y-116479315D01*
X146096605Y-116332000D01*
X145360365Y-116332000D01*
X145376851Y-116303445D01*
X145399000Y-116220787D01*
X145399000Y-115935213D01*
X145376851Y-115852555D01*
X145360365Y-115824000D01*
X145680616Y-115824000D01*
X145748737Y-115844002D01*
X145769706Y-115860900D01*
X145832722Y-115923916D01*
X145852905Y-115935568D01*
X145852907Y-115935570D01*
X145852908Y-115935570D01*
X145965777Y-116000735D01*
X146114181Y-116040500D01*
X146114183Y-116040500D01*
X148652817Y-116040500D01*
X148652819Y-116040500D01*
X148801223Y-116000735D01*
X148914092Y-115935570D01*
X148934278Y-115923916D01*
X148997289Y-115860904D01*
X149059600Y-115826880D01*
X149086384Y-115824000D01*
X149237635Y-115824000D01*
X149221149Y-115852555D01*
X149199000Y-115935213D01*
X149199000Y-116220787D01*
X149221149Y-116303445D01*
X149237635Y-116332000D01*
X148501395Y-116332000D01*
X148530698Y-116479315D01*
X148530700Y-116479320D01*
X148608567Y-116667308D01*
X148721616Y-116836498D01*
X148721621Y-116836504D01*
X148865495Y-116980378D01*
X148865501Y-116980383D01*
X149034691Y-117093432D01*
X149222683Y-117171301D01*
X149222690Y-117171303D01*
X149269999Y-117180713D01*
X149270000Y-117180713D01*
X149270000Y-116383618D01*
X149324446Y-116438064D01*
X149398555Y-116480851D01*
X149481213Y-116503000D01*
X149566787Y-116503000D01*
X149649445Y-116480851D01*
X149723554Y-116438064D01*
X149778000Y-116383618D01*
X149778000Y-117180713D01*
X149825309Y-117171303D01*
X149825316Y-117171301D01*
X150013308Y-117093432D01*
X150182498Y-116980383D01*
X150182504Y-116980378D01*
X150326378Y-116836504D01*
X150326383Y-116836498D01*
X150439432Y-116667308D01*
X150517299Y-116479320D01*
X150517301Y-116479315D01*
X150546605Y-116332000D01*
X149810365Y-116332000D01*
X149826851Y-116303445D01*
X149849000Y-116220787D01*
X149849000Y-115935213D01*
X149826851Y-115852555D01*
X149810365Y-115824000D01*
X150546604Y-115824000D01*
X150517301Y-115676684D01*
X150517299Y-115676679D01*
X150439432Y-115488691D01*
X150361000Y-115371309D01*
X150339785Y-115303557D01*
X150349356Y-115253090D01*
X150383430Y-115170831D01*
X150414500Y-115014630D01*
X150414500Y-114855370D01*
X150383430Y-114699169D01*
X150322483Y-114552032D01*
X150234003Y-114419611D01*
X150234001Y-114419609D01*
X150233996Y-114419603D01*
X150121394Y-114307001D01*
X150121390Y-114306998D01*
X150121389Y-114306997D01*
X150071101Y-114273396D01*
X150063743Y-114264591D01*
X151300967Y-114264591D01*
X151329770Y-114334128D01*
X151331995Y-114339896D01*
X151344600Y-114375123D01*
X151346541Y-114380998D01*
X151360995Y-114428647D01*
X151362644Y-114434606D01*
X151371734Y-114470895D01*
X151373089Y-114476929D01*
X151413875Y-114681970D01*
X151414933Y-114688066D01*
X151420424Y-114725087D01*
X151421181Y-114731227D01*
X151426060Y-114780780D01*
X151426514Y-114786947D01*
X151428348Y-114824301D01*
X151428500Y-114830480D01*
X151428500Y-115039520D01*
X151428348Y-115045699D01*
X151426514Y-115083053D01*
X151426060Y-115089220D01*
X151421181Y-115138773D01*
X151420424Y-115144913D01*
X151414933Y-115181934D01*
X151413874Y-115188033D01*
X151413409Y-115190369D01*
X151463648Y-115311657D01*
X151465323Y-115316000D01*
X151884500Y-115316000D01*
X151884500Y-114377333D01*
X151873810Y-114358818D01*
X151869923Y-114351547D01*
X151847858Y-114306804D01*
X151844455Y-114299293D01*
X151819042Y-114237941D01*
X151816138Y-114230225D01*
X151800100Y-114182980D01*
X151797706Y-114175089D01*
X151742458Y-113968901D01*
X151740586Y-113960873D01*
X151730853Y-113911945D01*
X151729510Y-113903809D01*
X151721627Y-113843933D01*
X151300967Y-114264591D01*
X150063743Y-114264591D01*
X150025575Y-114218919D01*
X150016728Y-114148476D01*
X150047369Y-114084432D01*
X150051971Y-114079576D01*
X151227922Y-112903627D01*
X151308032Y-112764872D01*
X151322230Y-112711884D01*
X151349500Y-112610111D01*
X151349500Y-110208500D01*
X151369502Y-110140379D01*
X151423158Y-110093886D01*
X151475500Y-110082500D01*
X152353109Y-110082500D01*
X152353110Y-110082500D01*
X152353111Y-110082500D01*
X152442677Y-110058501D01*
X152507873Y-110041032D01*
X152541501Y-110021616D01*
X152610495Y-110004879D01*
X152677587Y-110028099D01*
X152721474Y-110083906D01*
X152730500Y-110130736D01*
X152730500Y-113738526D01*
X152730499Y-113738526D01*
X152768560Y-113880570D01*
X152768563Y-113880577D01*
X152842086Y-114007923D01*
X152842094Y-114007933D01*
X154856595Y-116022433D01*
X154890620Y-116084745D01*
X154893500Y-116111528D01*
X154893500Y-116157632D01*
X154906063Y-116220787D01*
X154924570Y-116313831D01*
X154985517Y-116460968D01*
X155073997Y-116593389D01*
X155073998Y-116593390D01*
X155074003Y-116593396D01*
X155186603Y-116705996D01*
X155186609Y-116706001D01*
X155186611Y-116706003D01*
X155319032Y-116794483D01*
X155466169Y-116855430D01*
X155525083Y-116867148D01*
X155587991Y-116900056D01*
X155623123Y-116961751D01*
X155626500Y-116990727D01*
X155626500Y-120229116D01*
X155606498Y-120297237D01*
X155589595Y-120318211D01*
X154763211Y-121144595D01*
X154700899Y-121178621D01*
X154674116Y-121181500D01*
X138850884Y-121181500D01*
X138782763Y-121161498D01*
X138761789Y-121144595D01*
X137784694Y-120167500D01*
X140198500Y-120167500D01*
X141201235Y-120167500D01*
X141193554Y-120146031D01*
X141191614Y-120140157D01*
X141177163Y-120092509D01*
X141175515Y-120086553D01*
X141166431Y-120050285D01*
X141165076Y-120044254D01*
X141116625Y-119800679D01*
X141115567Y-119794583D01*
X141110076Y-119757562D01*
X141109319Y-119751422D01*
X141104440Y-119701869D01*
X141103986Y-119695702D01*
X141102152Y-119658348D01*
X141102000Y-119652169D01*
X141102000Y-119128238D01*
X141111591Y-119080020D01*
X141112427Y-119078000D01*
X141111591Y-119075980D01*
X141102000Y-119027762D01*
X141102000Y-118870000D01*
X140198500Y-118870000D01*
X140198500Y-120167500D01*
X137784694Y-120167500D01*
X136829668Y-119212474D01*
X136795642Y-119150162D01*
X136795182Y-119147952D01*
X136794430Y-119144169D01*
X136733483Y-118997032D01*
X136648604Y-118870000D01*
X137921204Y-118870000D01*
X139184500Y-120133296D01*
X139184500Y-118870000D01*
X137921204Y-118870000D01*
X136648604Y-118870000D01*
X136645003Y-118864611D01*
X136645001Y-118864609D01*
X136644996Y-118864603D01*
X136532396Y-118752003D01*
X136532390Y-118751998D01*
X136524862Y-118746968D01*
X136399968Y-118663517D01*
X136252831Y-118602570D01*
X136174730Y-118587035D01*
X136096632Y-118571500D01*
X136096630Y-118571500D01*
X135937370Y-118571500D01*
X135937367Y-118571500D01*
X135820219Y-118594802D01*
X135781169Y-118602570D01*
X135634032Y-118663517D01*
X135501609Y-118751998D01*
X135501603Y-118752003D01*
X135389003Y-118864603D01*
X135388998Y-118864609D01*
X135379122Y-118879390D01*
X135300517Y-118997032D01*
X135239570Y-119144169D01*
X135239165Y-119146206D01*
X135208500Y-119300367D01*
X135208500Y-119459632D01*
X135224035Y-119537730D01*
X135239570Y-119615831D01*
X135300517Y-119762968D01*
X135388997Y-119895389D01*
X135388998Y-119895390D01*
X135389003Y-119895396D01*
X135501603Y-120007996D01*
X135501609Y-120008001D01*
X135501611Y-120008003D01*
X135634032Y-120096483D01*
X135781169Y-120157430D01*
X135937370Y-120188500D01*
X135937371Y-120188500D01*
X136102820Y-120188500D01*
X136102820Y-120191414D01*
X136160283Y-120202202D01*
X136192184Y-120225378D01*
X137933211Y-121966405D01*
X137967237Y-122028717D01*
X137962172Y-122099532D01*
X137919625Y-122156368D01*
X137853105Y-122181179D01*
X137844116Y-122181500D01*
X134315259Y-122181500D01*
X134247138Y-122161498D01*
X134200645Y-122107842D01*
X134190541Y-122037568D01*
X134220035Y-121972988D01*
X134276323Y-121935667D01*
X134358483Y-121908972D01*
X134549009Y-121811894D01*
X134722004Y-121686206D01*
X134873206Y-121535004D01*
X134998894Y-121362009D01*
X135095972Y-121171483D01*
X135162049Y-120968116D01*
X135195500Y-120756916D01*
X135195500Y-120543084D01*
X135162049Y-120331884D01*
X135095972Y-120128517D01*
X134998894Y-119937991D01*
X134873206Y-119764996D01*
X134873203Y-119764993D01*
X134873201Y-119764990D01*
X134722009Y-119613798D01*
X134722006Y-119613796D01*
X134722004Y-119613794D01*
X134549009Y-119488106D01*
X134549007Y-119488105D01*
X134547920Y-119487439D01*
X134547591Y-119487075D01*
X134545004Y-119485196D01*
X134545398Y-119484652D01*
X134500283Y-119434796D01*
X134488670Y-119364756D01*
X134516766Y-119299555D01*
X134545130Y-119274978D01*
X134545004Y-119274804D01*
X134547030Y-119273331D01*
X134547920Y-119272561D01*
X134548997Y-119271899D01*
X134549009Y-119271894D01*
X134722004Y-119146206D01*
X134873206Y-118995004D01*
X134998894Y-118822009D01*
X135095972Y-118631483D01*
X135129362Y-118528718D01*
X142116000Y-118528718D01*
X142116000Y-118824000D01*
X142824000Y-118824000D01*
X142824000Y-119332000D01*
X142116000Y-119332000D01*
X142116000Y-119627281D01*
X142154737Y-119822023D01*
X142154739Y-119822028D01*
X142230722Y-120005466D01*
X142341032Y-120170557D01*
X142341037Y-120170564D01*
X142481435Y-120310962D01*
X142481442Y-120310967D01*
X142646533Y-120421277D01*
X142829971Y-120497260D01*
X142829976Y-120497262D01*
X142869999Y-120505223D01*
X142870000Y-120505223D01*
X142870000Y-119588060D01*
X142883940Y-119612205D01*
X142939795Y-119668060D01*
X143008204Y-119707556D01*
X143084504Y-119728000D01*
X143163496Y-119728000D01*
X143239796Y-119707556D01*
X143308205Y-119668060D01*
X143364060Y-119612205D01*
X143378000Y-119588060D01*
X143378000Y-120505223D01*
X143418023Y-120497262D01*
X143418028Y-120497260D01*
X143601466Y-120421277D01*
X143766557Y-120310967D01*
X143766564Y-120310962D01*
X143906962Y-120170564D01*
X143906967Y-120170557D01*
X143909010Y-120167500D01*
X145278500Y-120167500D01*
X146804500Y-120167500D01*
X147818500Y-120167500D01*
X149344500Y-120167500D01*
X149344500Y-118870000D01*
X147818500Y-118870000D01*
X147818500Y-120167500D01*
X146804500Y-120167500D01*
X146804500Y-118870000D01*
X145278500Y-118870000D01*
X145278500Y-120167500D01*
X143909010Y-120167500D01*
X144017277Y-120005466D01*
X144093260Y-119822028D01*
X144093262Y-119822023D01*
X144131999Y-119627281D01*
X144132000Y-119627277D01*
X144132000Y-119332000D01*
X143424000Y-119332000D01*
X143424000Y-118824000D01*
X144132000Y-118824000D01*
X144132000Y-118528722D01*
X144131999Y-118528718D01*
X150466000Y-118528718D01*
X150466000Y-118824000D01*
X151174000Y-118824000D01*
X151174000Y-119332000D01*
X150466000Y-119332000D01*
X150466000Y-119627281D01*
X150504737Y-119822023D01*
X150504739Y-119822028D01*
X150580722Y-120005466D01*
X150691032Y-120170557D01*
X150691037Y-120170564D01*
X150831435Y-120310962D01*
X150831442Y-120310967D01*
X150996533Y-120421277D01*
X151179971Y-120497260D01*
X151179976Y-120497262D01*
X151219999Y-120505223D01*
X151220000Y-120505223D01*
X151220000Y-119588060D01*
X151233940Y-119612205D01*
X151289795Y-119668060D01*
X151358204Y-119707556D01*
X151434504Y-119728000D01*
X151513496Y-119728000D01*
X151589796Y-119707556D01*
X151658205Y-119668060D01*
X151714060Y-119612205D01*
X151728000Y-119588060D01*
X151728000Y-120505223D01*
X151768023Y-120497262D01*
X151768028Y-120497260D01*
X151951466Y-120421277D01*
X152116557Y-120310967D01*
X152116564Y-120310962D01*
X152256962Y-120170564D01*
X152256967Y-120170557D01*
X152367277Y-120005466D01*
X152443260Y-119822028D01*
X152443262Y-119822023D01*
X152481999Y-119627281D01*
X152482000Y-119627277D01*
X152482000Y-119332000D01*
X151774000Y-119332000D01*
X151774000Y-118824000D01*
X152482000Y-118824000D01*
X152482000Y-118528722D01*
X152481999Y-118528718D01*
X152443262Y-118333976D01*
X152443260Y-118333971D01*
X152422713Y-118284367D01*
X153750500Y-118284367D01*
X153750500Y-118443632D01*
X153753470Y-118458561D01*
X153781570Y-118599831D01*
X153842517Y-118746968D01*
X153921123Y-118864611D01*
X153930998Y-118879390D01*
X153931003Y-118879396D01*
X154043603Y-118991996D01*
X154043609Y-118992001D01*
X154043611Y-118992003D01*
X154176032Y-119080483D01*
X154323169Y-119141430D01*
X154479370Y-119172500D01*
X154479371Y-119172500D01*
X154638629Y-119172500D01*
X154638630Y-119172500D01*
X154794831Y-119141430D01*
X154941968Y-119080483D01*
X155074389Y-118992003D01*
X155187003Y-118879389D01*
X155275483Y-118746968D01*
X155336430Y-118599831D01*
X155367500Y-118443630D01*
X155367500Y-118284370D01*
X155336430Y-118128169D01*
X155275483Y-117981032D01*
X155187003Y-117848611D01*
X155187001Y-117848609D01*
X155186996Y-117848603D01*
X155074396Y-117736003D01*
X155074390Y-117735998D01*
X155074389Y-117735997D01*
X154941968Y-117647517D01*
X154794831Y-117586570D01*
X154696993Y-117567109D01*
X154638632Y-117555500D01*
X154638630Y-117555500D01*
X154479370Y-117555500D01*
X154479367Y-117555500D01*
X154362219Y-117578802D01*
X154323169Y-117586570D01*
X154190800Y-117641400D01*
X154176032Y-117647517D01*
X154043609Y-117735998D01*
X154043603Y-117736003D01*
X153931003Y-117848603D01*
X153930998Y-117848609D01*
X153842517Y-117981032D01*
X153781571Y-118128167D01*
X153781570Y-118128170D01*
X153750500Y-118284367D01*
X152422713Y-118284367D01*
X152367277Y-118150533D01*
X152256967Y-117985442D01*
X152256962Y-117985435D01*
X152116564Y-117845037D01*
X152116557Y-117845032D01*
X151951467Y-117734722D01*
X151768020Y-117658736D01*
X151768015Y-117658735D01*
X151728000Y-117650774D01*
X151728000Y-118567939D01*
X151714060Y-118543795D01*
X151658205Y-118487940D01*
X151589796Y-118448444D01*
X151513496Y-118428000D01*
X151434504Y-118428000D01*
X151358204Y-118448444D01*
X151289795Y-118487940D01*
X151233940Y-118543795D01*
X151220000Y-118567939D01*
X151220000Y-117650775D01*
X151219999Y-117650774D01*
X151179984Y-117658735D01*
X151179979Y-117658736D01*
X150996532Y-117734722D01*
X150831442Y-117845032D01*
X150831435Y-117845037D01*
X150691037Y-117985435D01*
X150691032Y-117985442D01*
X150580722Y-118150533D01*
X150504739Y-118333971D01*
X150504737Y-118333976D01*
X150466000Y-118528718D01*
X144131999Y-118528718D01*
X144093262Y-118333976D01*
X144093260Y-118333971D01*
X144017277Y-118150533D01*
X143906967Y-117985442D01*
X143906962Y-117985435D01*
X143766564Y-117845037D01*
X143766557Y-117845032D01*
X143601467Y-117734722D01*
X143418020Y-117658736D01*
X143418015Y-117658735D01*
X143378000Y-117650774D01*
X143378000Y-118567939D01*
X143364060Y-118543795D01*
X143308205Y-118487940D01*
X143239796Y-118448444D01*
X143163496Y-118428000D01*
X143084504Y-118428000D01*
X143008204Y-118448444D01*
X142939795Y-118487940D01*
X142883940Y-118543795D01*
X142870000Y-118567939D01*
X142870000Y-117650775D01*
X142869999Y-117650774D01*
X142829984Y-117658735D01*
X142829979Y-117658736D01*
X142646532Y-117734722D01*
X142481442Y-117845032D01*
X142481435Y-117845037D01*
X142341037Y-117985435D01*
X142341032Y-117985442D01*
X142230722Y-118150533D01*
X142154739Y-118333971D01*
X142154737Y-118333976D01*
X142116000Y-118528718D01*
X135129362Y-118528718D01*
X135162049Y-118428116D01*
X135195500Y-118216916D01*
X135195500Y-118003084D01*
X135172204Y-117856000D01*
X137658500Y-117856000D01*
X139184500Y-117856000D01*
X139184500Y-116330000D01*
X137658500Y-116330000D01*
X137658500Y-117856000D01*
X135172204Y-117856000D01*
X135162049Y-117791884D01*
X135095972Y-117588517D01*
X134998894Y-117397991D01*
X134873206Y-117224996D01*
X134873203Y-117224993D01*
X134873201Y-117224990D01*
X134722009Y-117073798D01*
X134722006Y-117073796D01*
X134722004Y-117073794D01*
X134549009Y-116948106D01*
X134549007Y-116948105D01*
X134547920Y-116947439D01*
X134547591Y-116947075D01*
X134545004Y-116945196D01*
X134545398Y-116944652D01*
X134500283Y-116894796D01*
X134491198Y-116840000D01*
X135845700Y-116840000D01*
X135850406Y-116847043D01*
X135853074Y-116851210D01*
X135873884Y-116885170D01*
X135876386Y-116889440D01*
X135891004Y-116915544D01*
X135893335Y-116919904D01*
X136008495Y-117145917D01*
X136010654Y-117150369D01*
X136023187Y-117177555D01*
X136025171Y-117182091D01*
X136040412Y-117218889D01*
X136042214Y-117223493D01*
X136052570Y-117251564D01*
X136054191Y-117256239D01*
X136132577Y-117497490D01*
X136134014Y-117502226D01*
X136142142Y-117531047D01*
X136143392Y-117535838D01*
X136148877Y-117558691D01*
X136165053Y-117559486D01*
X136171220Y-117559940D01*
X136220773Y-117564819D01*
X136226913Y-117565576D01*
X136263934Y-117571067D01*
X136270030Y-117572125D01*
X136475071Y-117612911D01*
X136481105Y-117614266D01*
X136517394Y-117623356D01*
X136523353Y-117625005D01*
X136571002Y-117639459D01*
X136576877Y-117641400D01*
X136612104Y-117654005D01*
X136617872Y-117656230D01*
X136644500Y-117667259D01*
X136644500Y-116330000D01*
X136084655Y-116330000D01*
X136054191Y-116423761D01*
X136052570Y-116428436D01*
X136042214Y-116456507D01*
X136040412Y-116461111D01*
X136025171Y-116497909D01*
X136023187Y-116502445D01*
X136010654Y-116529631D01*
X136008495Y-116534083D01*
X135893335Y-116760096D01*
X135891004Y-116764456D01*
X135876386Y-116790560D01*
X135873884Y-116794830D01*
X135853074Y-116828790D01*
X135850406Y-116832957D01*
X135845700Y-116840000D01*
X134491198Y-116840000D01*
X134488670Y-116824756D01*
X134516766Y-116759555D01*
X134545130Y-116734978D01*
X134545004Y-116734804D01*
X134547030Y-116733331D01*
X134547920Y-116732561D01*
X134548997Y-116731899D01*
X134549009Y-116731894D01*
X134722004Y-116606206D01*
X134873206Y-116455004D01*
X134998894Y-116282009D01*
X135095972Y-116091483D01*
X135162049Y-115888116D01*
X135195500Y-115676916D01*
X135195500Y-115463084D01*
X135162049Y-115251884D01*
X135095972Y-115048517D01*
X134998894Y-114857991D01*
X134873206Y-114684996D01*
X134873203Y-114684993D01*
X134873201Y-114684990D01*
X134722009Y-114533798D01*
X134722006Y-114533796D01*
X134722004Y-114533794D01*
X134549009Y-114408106D01*
X134549007Y-114408105D01*
X134547920Y-114407439D01*
X134547591Y-114407075D01*
X134545004Y-114405196D01*
X134545398Y-114404652D01*
X134500283Y-114354796D01*
X134491198Y-114300000D01*
X135845700Y-114300000D01*
X135850406Y-114307043D01*
X135853074Y-114311210D01*
X135873884Y-114345170D01*
X135876386Y-114349440D01*
X135891004Y-114375544D01*
X135893335Y-114379904D01*
X136008495Y-114605917D01*
X136010654Y-114610369D01*
X136023187Y-114637555D01*
X136025171Y-114642091D01*
X136040412Y-114678889D01*
X136042214Y-114683493D01*
X136052570Y-114711564D01*
X136054191Y-114716239D01*
X136132577Y-114957490D01*
X136134014Y-114962226D01*
X136142142Y-114991047D01*
X136143392Y-114995838D01*
X136152688Y-115034566D01*
X136153748Y-115039397D01*
X136159582Y-115068731D01*
X136160451Y-115073598D01*
X136198844Y-115316000D01*
X136644500Y-115316000D01*
X137658500Y-115316000D01*
X139184500Y-115316000D01*
X139184500Y-113790000D01*
X137658500Y-113790000D01*
X137658500Y-115316000D01*
X136644500Y-115316000D01*
X136644500Y-113790000D01*
X136084655Y-113790000D01*
X136054191Y-113883761D01*
X136052570Y-113888436D01*
X136042214Y-113916507D01*
X136040412Y-113921111D01*
X136025171Y-113957909D01*
X136023187Y-113962445D01*
X136010654Y-113989631D01*
X136008495Y-113994083D01*
X135893335Y-114220096D01*
X135891004Y-114224456D01*
X135876386Y-114250560D01*
X135873884Y-114254830D01*
X135853074Y-114288790D01*
X135850406Y-114292957D01*
X135845700Y-114300000D01*
X134491198Y-114300000D01*
X134488670Y-114284756D01*
X134516766Y-114219555D01*
X134545130Y-114194978D01*
X134545004Y-114194804D01*
X134547030Y-114193331D01*
X134547920Y-114192561D01*
X134548997Y-114191899D01*
X134549009Y-114191894D01*
X134722004Y-114066206D01*
X134873206Y-113915004D01*
X134998894Y-113742009D01*
X135095972Y-113551483D01*
X135162049Y-113348116D01*
X135195500Y-113136916D01*
X135195500Y-112923084D01*
X135162049Y-112711884D01*
X135095972Y-112508517D01*
X134998894Y-112317991D01*
X134873206Y-112144996D01*
X134873203Y-112144993D01*
X134873201Y-112144990D01*
X134722009Y-111993798D01*
X134722006Y-111993796D01*
X134722004Y-111993794D01*
X134549009Y-111868106D01*
X134549007Y-111868105D01*
X134547920Y-111867439D01*
X134547591Y-111867075D01*
X134545004Y-111865196D01*
X134545398Y-111864652D01*
X134500283Y-111814796D01*
X134491198Y-111760000D01*
X135845700Y-111760000D01*
X135850406Y-111767043D01*
X135853074Y-111771210D01*
X135873884Y-111805170D01*
X135876386Y-111809440D01*
X135891004Y-111835544D01*
X135893335Y-111839904D01*
X136008495Y-112065917D01*
X136010654Y-112070369D01*
X136023187Y-112097555D01*
X136025171Y-112102091D01*
X136040412Y-112138889D01*
X136042214Y-112143493D01*
X136052570Y-112171564D01*
X136054191Y-112176239D01*
X136132577Y-112417490D01*
X136134014Y-112422226D01*
X136142142Y-112451047D01*
X136143392Y-112455838D01*
X136152688Y-112494566D01*
X136153748Y-112499397D01*
X136159582Y-112528731D01*
X136160451Y-112533598D01*
X136198844Y-112776000D01*
X136644500Y-112776000D01*
X137658500Y-112776000D01*
X139184500Y-112776000D01*
X139184500Y-111250000D01*
X137658500Y-111250000D01*
X137658500Y-112776000D01*
X136644500Y-112776000D01*
X136644500Y-111250000D01*
X136084655Y-111250000D01*
X136054191Y-111343761D01*
X136052570Y-111348436D01*
X136042214Y-111376507D01*
X136040412Y-111381111D01*
X136025171Y-111417909D01*
X136023187Y-111422445D01*
X136010654Y-111449631D01*
X136008495Y-111454083D01*
X135893335Y-111680096D01*
X135891004Y-111684456D01*
X135876386Y-111710560D01*
X135873884Y-111714830D01*
X135853074Y-111748790D01*
X135850406Y-111752957D01*
X135845700Y-111760000D01*
X134491198Y-111760000D01*
X134488670Y-111744756D01*
X134516766Y-111679555D01*
X134545130Y-111654978D01*
X134545004Y-111654804D01*
X134547030Y-111653331D01*
X134547920Y-111652561D01*
X134548997Y-111651899D01*
X134549009Y-111651894D01*
X134722004Y-111526206D01*
X134873206Y-111375004D01*
X134998894Y-111202009D01*
X135095972Y-111011483D01*
X135162049Y-110808116D01*
X135195500Y-110596916D01*
X135195500Y-110383084D01*
X135162049Y-110171884D01*
X135095972Y-109968517D01*
X134998894Y-109777991D01*
X134873206Y-109604996D01*
X134873203Y-109604993D01*
X134873201Y-109604990D01*
X134722009Y-109453798D01*
X134722006Y-109453796D01*
X134722004Y-109453794D01*
X134652806Y-109403518D01*
X134549006Y-109328103D01*
X134547427Y-109327136D01*
X134546952Y-109326611D01*
X134545004Y-109325196D01*
X134545301Y-109324786D01*
X134499797Y-109274488D01*
X134490694Y-109219550D01*
X135845399Y-109219550D01*
X135850406Y-109227043D01*
X135853074Y-109231210D01*
X135873884Y-109265170D01*
X135876386Y-109269440D01*
X135891004Y-109295544D01*
X135893335Y-109299904D01*
X136008495Y-109525917D01*
X136010654Y-109530369D01*
X136023187Y-109557555D01*
X136025171Y-109562091D01*
X136040412Y-109598889D01*
X136042214Y-109603493D01*
X136052570Y-109631564D01*
X136054191Y-109636239D01*
X136132577Y-109877490D01*
X136134014Y-109882226D01*
X136142142Y-109911047D01*
X136143392Y-109915838D01*
X136152688Y-109954566D01*
X136153748Y-109959397D01*
X136159582Y-109988731D01*
X136160451Y-109993598D01*
X136198844Y-110236000D01*
X136644500Y-110236000D01*
X137658500Y-110236000D01*
X139184500Y-110236000D01*
X139184500Y-108710000D01*
X137658500Y-108710000D01*
X137658500Y-110236000D01*
X136644500Y-110236000D01*
X136644500Y-108710000D01*
X136084129Y-108710000D01*
X136053726Y-108803570D01*
X136052106Y-108808240D01*
X136041751Y-108836311D01*
X136039948Y-108840920D01*
X136024707Y-108877717D01*
X136022723Y-108882252D01*
X136010190Y-108909438D01*
X136008031Y-108913890D01*
X135892909Y-109139830D01*
X135890578Y-109144191D01*
X135875963Y-109170289D01*
X135873464Y-109174553D01*
X135852652Y-109208520D01*
X135849980Y-109212695D01*
X135845399Y-109219550D01*
X134490694Y-109219550D01*
X134488191Y-109204446D01*
X134516296Y-109139249D01*
X134544843Y-109114517D01*
X134544741Y-109114377D01*
X134546384Y-109113182D01*
X134547451Y-109112259D01*
X134548756Y-109111459D01*
X134601167Y-109073378D01*
X134601167Y-109073376D01*
X133961948Y-108434157D01*
X134029993Y-108415925D01*
X134144007Y-108350099D01*
X134237099Y-108257007D01*
X134302925Y-108142993D01*
X134321157Y-108074948D01*
X134960376Y-108714167D01*
X134960378Y-108714167D01*
X134998463Y-108661750D01*
X135095506Y-108471292D01*
X135095509Y-108471286D01*
X135161559Y-108268003D01*
X135195000Y-108056873D01*
X135195000Y-107843126D01*
X135161559Y-107631996D01*
X135095509Y-107428713D01*
X135095506Y-107428707D01*
X134998464Y-107238251D01*
X134998463Y-107238249D01*
X134960378Y-107185831D01*
X134321157Y-107825051D01*
X134302925Y-107757007D01*
X134237099Y-107642993D01*
X134144007Y-107549901D01*
X134029993Y-107484075D01*
X133961947Y-107465841D01*
X134601168Y-106826621D01*
X134601167Y-106826620D01*
X134548750Y-106788536D01*
X134547428Y-106787726D01*
X134547030Y-106787286D01*
X134544742Y-106785624D01*
X134545091Y-106785143D01*
X134499797Y-106735078D01*
X134490745Y-106680450D01*
X135845398Y-106680450D01*
X135849963Y-106687281D01*
X135852633Y-106691452D01*
X135873445Y-106725415D01*
X135875945Y-106729680D01*
X135890571Y-106755795D01*
X135892905Y-106760161D01*
X136008031Y-106986110D01*
X136010190Y-106990562D01*
X136022723Y-107017748D01*
X136024707Y-107022283D01*
X136039948Y-107059080D01*
X136041751Y-107063689D01*
X136052106Y-107091760D01*
X136053726Y-107096431D01*
X136132088Y-107337602D01*
X136133525Y-107342340D01*
X136141650Y-107371152D01*
X136142899Y-107375938D01*
X136152196Y-107414666D01*
X136153256Y-107419499D01*
X136159092Y-107448841D01*
X136159962Y-107453709D01*
X136198338Y-107696000D01*
X136644500Y-107696000D01*
X137658500Y-107696000D01*
X139184500Y-107696000D01*
X139184500Y-106170000D01*
X137658500Y-106170000D01*
X137658500Y-107696000D01*
X136644500Y-107696000D01*
X136644500Y-106170000D01*
X136084655Y-106170000D01*
X136054191Y-106263761D01*
X136052570Y-106268436D01*
X136042214Y-106296507D01*
X136040412Y-106301111D01*
X136025171Y-106337909D01*
X136023187Y-106342445D01*
X136010654Y-106369631D01*
X136008495Y-106374083D01*
X135893335Y-106600096D01*
X135891004Y-106604456D01*
X135876386Y-106630560D01*
X135873884Y-106634830D01*
X135853074Y-106668790D01*
X135850406Y-106672957D01*
X135845398Y-106680450D01*
X134490745Y-106680450D01*
X134488191Y-106665036D01*
X134516295Y-106599839D01*
X134545075Y-106574903D01*
X134545004Y-106574804D01*
X134546158Y-106573965D01*
X134547441Y-106572854D01*
X134548992Y-106571902D01*
X134549009Y-106571894D01*
X134722004Y-106446206D01*
X134873206Y-106295004D01*
X134998894Y-106122009D01*
X135095972Y-105931483D01*
X135162049Y-105728116D01*
X135195500Y-105516916D01*
X135195500Y-105303084D01*
X135162049Y-105091884D01*
X135095972Y-104888517D01*
X134998894Y-104697991D01*
X134873206Y-104524996D01*
X134873203Y-104524993D01*
X134873201Y-104524990D01*
X134722009Y-104373798D01*
X134722006Y-104373796D01*
X134722004Y-104373794D01*
X134549009Y-104248106D01*
X134549007Y-104248105D01*
X134547920Y-104247439D01*
X134547591Y-104247075D01*
X134545004Y-104245196D01*
X134545398Y-104244652D01*
X134500283Y-104194796D01*
X134491198Y-104140000D01*
X135845700Y-104140000D01*
X135850406Y-104147043D01*
X135853074Y-104151210D01*
X135873884Y-104185170D01*
X135876386Y-104189440D01*
X135891004Y-104215544D01*
X135893335Y-104219904D01*
X136008495Y-104445917D01*
X136010654Y-104450369D01*
X136023187Y-104477555D01*
X136025171Y-104482091D01*
X136040412Y-104518889D01*
X136042214Y-104523493D01*
X136052570Y-104551564D01*
X136054191Y-104556239D01*
X136132577Y-104797490D01*
X136134014Y-104802226D01*
X136142142Y-104831047D01*
X136143392Y-104835838D01*
X136152688Y-104874566D01*
X136153748Y-104879397D01*
X136159582Y-104908731D01*
X136160451Y-104913598D01*
X136198844Y-105156000D01*
X136644500Y-105156000D01*
X140198500Y-105156000D01*
X140463898Y-105156000D01*
X140465586Y-105147515D01*
X140467458Y-105139487D01*
X140522706Y-104933299D01*
X140525100Y-104925408D01*
X140541138Y-104878163D01*
X140544042Y-104870447D01*
X140569455Y-104809095D01*
X140572858Y-104801584D01*
X140594923Y-104756841D01*
X140598810Y-104749570D01*
X140705541Y-104564707D01*
X140709894Y-104557706D01*
X140737611Y-104516224D01*
X140742414Y-104509522D01*
X140782841Y-104456836D01*
X140788072Y-104450462D01*
X140820969Y-104412950D01*
X140826606Y-104406931D01*
X140954070Y-104279468D01*
X141603537Y-103630000D01*
X140198500Y-103630000D01*
X140198500Y-105156000D01*
X136644500Y-105156000D01*
X136644500Y-103630000D01*
X136084655Y-103630000D01*
X136054191Y-103723761D01*
X136052570Y-103728436D01*
X136042214Y-103756507D01*
X136040412Y-103761111D01*
X136025171Y-103797909D01*
X136023187Y-103802445D01*
X136010654Y-103829631D01*
X136008495Y-103834083D01*
X135893335Y-104060096D01*
X135891004Y-104064456D01*
X135876386Y-104090560D01*
X135873884Y-104094830D01*
X135853074Y-104128790D01*
X135850406Y-104132957D01*
X135845700Y-104140000D01*
X134491198Y-104140000D01*
X134488670Y-104124756D01*
X134516766Y-104059555D01*
X134545130Y-104034978D01*
X134545004Y-104034804D01*
X134547030Y-104033331D01*
X134547920Y-104032561D01*
X134548997Y-104031899D01*
X134549009Y-104031894D01*
X134722004Y-103906206D01*
X134873206Y-103755004D01*
X134998894Y-103582009D01*
X135095972Y-103391483D01*
X135162049Y-103188116D01*
X135195500Y-102976916D01*
X135195500Y-102763084D01*
X135162049Y-102551884D01*
X135095972Y-102348517D01*
X134998894Y-102157991D01*
X134873206Y-101984996D01*
X134873203Y-101984993D01*
X134873201Y-101984990D01*
X134722009Y-101833798D01*
X134722006Y-101833796D01*
X134722004Y-101833794D01*
X134549009Y-101708106D01*
X134549007Y-101708105D01*
X134547920Y-101707439D01*
X134547591Y-101707075D01*
X134545004Y-101705196D01*
X134545398Y-101704652D01*
X134500283Y-101654796D01*
X134491198Y-101600000D01*
X135845700Y-101600000D01*
X135850406Y-101607043D01*
X135853074Y-101611210D01*
X135873884Y-101645170D01*
X135876386Y-101649440D01*
X135891004Y-101675544D01*
X135893335Y-101679904D01*
X136008495Y-101905917D01*
X136010654Y-101910369D01*
X136023187Y-101937555D01*
X136025171Y-101942091D01*
X136040412Y-101978889D01*
X136042214Y-101983493D01*
X136052570Y-102011564D01*
X136054191Y-102016239D01*
X136132577Y-102257490D01*
X136134014Y-102262226D01*
X136142142Y-102291047D01*
X136143392Y-102295838D01*
X136152688Y-102334566D01*
X136153748Y-102339397D01*
X136159582Y-102368731D01*
X136160451Y-102373598D01*
X136198844Y-102616000D01*
X136644500Y-102616000D01*
X137658500Y-102616000D01*
X139184500Y-102616000D01*
X140198500Y-102616000D01*
X141724500Y-102616000D01*
X141724500Y-101090000D01*
X140198500Y-101090000D01*
X140198500Y-102616000D01*
X139184500Y-102616000D01*
X139184500Y-101090000D01*
X137658500Y-101090000D01*
X137658500Y-102616000D01*
X136644500Y-102616000D01*
X136644500Y-101090000D01*
X136084655Y-101090000D01*
X136054191Y-101183761D01*
X136052570Y-101188436D01*
X136042214Y-101216507D01*
X136040412Y-101221111D01*
X136025171Y-101257909D01*
X136023187Y-101262445D01*
X136010654Y-101289631D01*
X136008495Y-101294083D01*
X135893335Y-101520096D01*
X135891004Y-101524456D01*
X135876386Y-101550560D01*
X135873884Y-101554830D01*
X135853074Y-101588790D01*
X135850406Y-101592957D01*
X135845700Y-101600000D01*
X134491198Y-101600000D01*
X134488670Y-101584756D01*
X134516766Y-101519555D01*
X134545130Y-101494978D01*
X134545004Y-101494804D01*
X134547030Y-101493331D01*
X134547920Y-101492561D01*
X134548997Y-101491899D01*
X134549009Y-101491894D01*
X134722004Y-101366206D01*
X134873206Y-101215004D01*
X134998894Y-101042009D01*
X135095972Y-100851483D01*
X135162049Y-100648116D01*
X135195500Y-100436916D01*
X135195500Y-100223084D01*
X135162049Y-100011884D01*
X135095972Y-99808517D01*
X134998894Y-99617991D01*
X134873206Y-99444996D01*
X134873203Y-99444993D01*
X134873201Y-99444990D01*
X134722009Y-99293798D01*
X134722006Y-99293796D01*
X134722004Y-99293794D01*
X134549009Y-99168106D01*
X134549007Y-99168105D01*
X134547920Y-99167439D01*
X134547591Y-99167075D01*
X134545004Y-99165196D01*
X134545398Y-99164652D01*
X134500283Y-99114796D01*
X134491198Y-99060000D01*
X135845700Y-99060000D01*
X135850406Y-99067043D01*
X135853074Y-99071210D01*
X135873884Y-99105170D01*
X135876386Y-99109440D01*
X135891004Y-99135544D01*
X135893335Y-99139904D01*
X136008495Y-99365917D01*
X136010654Y-99370369D01*
X136023187Y-99397555D01*
X136025171Y-99402091D01*
X136040412Y-99438889D01*
X136042214Y-99443493D01*
X136052570Y-99471564D01*
X136054191Y-99476239D01*
X136132577Y-99717490D01*
X136134014Y-99722226D01*
X136142142Y-99751047D01*
X136143392Y-99755838D01*
X136152688Y-99794566D01*
X136153748Y-99799397D01*
X136159582Y-99828731D01*
X136160451Y-99833598D01*
X136198844Y-100076000D01*
X136644500Y-100076000D01*
X136644500Y-99570529D01*
X137658500Y-99570529D01*
X137658500Y-100076000D01*
X139184500Y-100076000D01*
X140198500Y-100076000D01*
X141626501Y-100076000D01*
X141626500Y-98550000D01*
X140198500Y-98550000D01*
X140198500Y-100076000D01*
X139184500Y-100076000D01*
X139184500Y-99220686D01*
X139183513Y-99221457D01*
X139153479Y-99243730D01*
X139148426Y-99247288D01*
X138974616Y-99363423D01*
X138969395Y-99366730D01*
X138937312Y-99385961D01*
X138931929Y-99389011D01*
X138888017Y-99412483D01*
X138882493Y-99415263D01*
X138848669Y-99431261D01*
X138843014Y-99433768D01*
X138649872Y-99513770D01*
X138644104Y-99515995D01*
X138608877Y-99528600D01*
X138603002Y-99530541D01*
X138555353Y-99544995D01*
X138549394Y-99546644D01*
X138513105Y-99555734D01*
X138507071Y-99557089D01*
X138302030Y-99597875D01*
X138295934Y-99598933D01*
X138258913Y-99604424D01*
X138252773Y-99605181D01*
X138203220Y-99610060D01*
X138197053Y-99610514D01*
X138159699Y-99612348D01*
X138153520Y-99612500D01*
X137944480Y-99612500D01*
X137938301Y-99612348D01*
X137900947Y-99610514D01*
X137894780Y-99610060D01*
X137845227Y-99605181D01*
X137839087Y-99604424D01*
X137802066Y-99598933D01*
X137795970Y-99597875D01*
X137658500Y-99570529D01*
X136644500Y-99570529D01*
X136644500Y-98957603D01*
X136621346Y-98929387D01*
X136617543Y-98924513D01*
X136595270Y-98894479D01*
X136591712Y-98889426D01*
X136475577Y-98715616D01*
X136472270Y-98710395D01*
X136453039Y-98678312D01*
X136449989Y-98672929D01*
X136426517Y-98629017D01*
X136423737Y-98623493D01*
X136407739Y-98589669D01*
X136405232Y-98584014D01*
X136391143Y-98550000D01*
X136084655Y-98550000D01*
X136054191Y-98643761D01*
X136052570Y-98648436D01*
X136042214Y-98676507D01*
X136040412Y-98681111D01*
X136025171Y-98717909D01*
X136023187Y-98722445D01*
X136010654Y-98749631D01*
X136008495Y-98754083D01*
X135893335Y-98980096D01*
X135891004Y-98984456D01*
X135876386Y-99010560D01*
X135873884Y-99014830D01*
X135853074Y-99048790D01*
X135850406Y-99052957D01*
X135845700Y-99060000D01*
X134491198Y-99060000D01*
X134488670Y-99044756D01*
X134516766Y-98979555D01*
X134545130Y-98954978D01*
X134545004Y-98954804D01*
X134547030Y-98953331D01*
X134547920Y-98952561D01*
X134548997Y-98951899D01*
X134549009Y-98951894D01*
X134722004Y-98826206D01*
X134873206Y-98675004D01*
X134998894Y-98502009D01*
X135095972Y-98311483D01*
X135162049Y-98108116D01*
X135195500Y-97896916D01*
X135195500Y-97710367D01*
X137240500Y-97710367D01*
X137240500Y-97869632D01*
X137253073Y-97932840D01*
X137271570Y-98025831D01*
X137332517Y-98172968D01*
X137385646Y-98252482D01*
X137420998Y-98305390D01*
X137421003Y-98305396D01*
X137533603Y-98417996D01*
X137533609Y-98418001D01*
X137533611Y-98418003D01*
X137666032Y-98506483D01*
X137813169Y-98567430D01*
X137969370Y-98598500D01*
X137969371Y-98598500D01*
X138128629Y-98598500D01*
X138128630Y-98598500D01*
X138284831Y-98567430D01*
X138431968Y-98506483D01*
X138564389Y-98418003D01*
X138677003Y-98305389D01*
X138765483Y-98172968D01*
X138826430Y-98025831D01*
X138857500Y-97869630D01*
X138857500Y-97710370D01*
X138826430Y-97554169D01*
X138818904Y-97536000D01*
X140198500Y-97536000D01*
X140709971Y-97536000D01*
X140643230Y-97374872D01*
X140641005Y-97369104D01*
X140628400Y-97333877D01*
X140626459Y-97328002D01*
X140612005Y-97280353D01*
X140610356Y-97274394D01*
X140601266Y-97238105D01*
X140599911Y-97232071D01*
X140559125Y-97027030D01*
X140558067Y-97020934D01*
X140552576Y-96983913D01*
X140551819Y-96977773D01*
X140546940Y-96928220D01*
X140546486Y-96922053D01*
X140544652Y-96884699D01*
X140544500Y-96878520D01*
X140544500Y-96669480D01*
X140544652Y-96663301D01*
X140546486Y-96625947D01*
X140546940Y-96619780D01*
X140551819Y-96570227D01*
X140552576Y-96564087D01*
X140558067Y-96527066D01*
X140559125Y-96520970D01*
X140599911Y-96315929D01*
X140601266Y-96309895D01*
X140610356Y-96273606D01*
X140612005Y-96267647D01*
X140626459Y-96219998D01*
X140628400Y-96214123D01*
X140641005Y-96178896D01*
X140643230Y-96173128D01*
X140710800Y-96010000D01*
X140198500Y-96010000D01*
X140198500Y-97536000D01*
X138818904Y-97536000D01*
X138765483Y-97407032D01*
X138677003Y-97274611D01*
X138677001Y-97274609D01*
X138676996Y-97274603D01*
X138564396Y-97162003D01*
X138564390Y-97161998D01*
X138556862Y-97156968D01*
X138431968Y-97073517D01*
X138284831Y-97012570D01*
X138201457Y-96995986D01*
X138128632Y-96981500D01*
X138128630Y-96981500D01*
X137969370Y-96981500D01*
X137969367Y-96981500D01*
X137852219Y-97004802D01*
X137813169Y-97012570D01*
X137793757Y-97020611D01*
X137666032Y-97073517D01*
X137533609Y-97161998D01*
X137533603Y-97162003D01*
X137421003Y-97274603D01*
X137420998Y-97274609D01*
X137357954Y-97368962D01*
X137332517Y-97407032D01*
X137271570Y-97554169D01*
X137266389Y-97580216D01*
X137240500Y-97710367D01*
X135195500Y-97710367D01*
X135195500Y-97683084D01*
X135162049Y-97471884D01*
X135095972Y-97268517D01*
X134998894Y-97077991D01*
X134873206Y-96904996D01*
X134873203Y-96904993D01*
X134873201Y-96904990D01*
X134722009Y-96753798D01*
X134722006Y-96753796D01*
X134722004Y-96753794D01*
X134564833Y-96639603D01*
X134549012Y-96628108D01*
X134547920Y-96627439D01*
X134547591Y-96627075D01*
X134545004Y-96625196D01*
X134545398Y-96624652D01*
X134500283Y-96574796D01*
X134491198Y-96520000D01*
X135845700Y-96520000D01*
X135850406Y-96527043D01*
X135853074Y-96531210D01*
X135873884Y-96565170D01*
X135876386Y-96569440D01*
X135891004Y-96595544D01*
X135893335Y-96599904D01*
X136008495Y-96825917D01*
X136010654Y-96830369D01*
X136023187Y-96857555D01*
X136025171Y-96862091D01*
X136040412Y-96898889D01*
X136042214Y-96903493D01*
X136052570Y-96931564D01*
X136054191Y-96936239D01*
X136132577Y-97177490D01*
X136134014Y-97182226D01*
X136142142Y-97211047D01*
X136143392Y-97215838D01*
X136152688Y-97254566D01*
X136153748Y-97259397D01*
X136159582Y-97288731D01*
X136160451Y-97293598D01*
X136198844Y-97536000D01*
X136241318Y-97536000D01*
X136281911Y-97331929D01*
X136283266Y-97325895D01*
X136292356Y-97289606D01*
X136294005Y-97283647D01*
X136308459Y-97235998D01*
X136310400Y-97230123D01*
X136323005Y-97194896D01*
X136325230Y-97189128D01*
X136405232Y-96995986D01*
X136407739Y-96990331D01*
X136423737Y-96956507D01*
X136426517Y-96950983D01*
X136449989Y-96907071D01*
X136453039Y-96901688D01*
X136472270Y-96869605D01*
X136475577Y-96864384D01*
X136591712Y-96690574D01*
X136595270Y-96685521D01*
X136617543Y-96655487D01*
X136621346Y-96650613D01*
X136644500Y-96622396D01*
X136644500Y-96010000D01*
X136084655Y-96010000D01*
X136054191Y-96103761D01*
X136052570Y-96108436D01*
X136042214Y-96136507D01*
X136040412Y-96141111D01*
X136025171Y-96177909D01*
X136023187Y-96182445D01*
X136010654Y-96209631D01*
X136008495Y-96214083D01*
X135893335Y-96440096D01*
X135891004Y-96444456D01*
X135876386Y-96470560D01*
X135873884Y-96474830D01*
X135853074Y-96508790D01*
X135850406Y-96512957D01*
X135845700Y-96520000D01*
X134491198Y-96520000D01*
X134488670Y-96504756D01*
X134516766Y-96439555D01*
X134545130Y-96414978D01*
X134545004Y-96414804D01*
X134547030Y-96413331D01*
X134547920Y-96412561D01*
X134548997Y-96411899D01*
X134549009Y-96411894D01*
X134722004Y-96286206D01*
X134873206Y-96135004D01*
X134998894Y-95962009D01*
X135095972Y-95771483D01*
X135162049Y-95568116D01*
X135195500Y-95356916D01*
X135195500Y-95143084D01*
X135162049Y-94931884D01*
X135095972Y-94728517D01*
X134998894Y-94537991D01*
X134873206Y-94364996D01*
X134873203Y-94364993D01*
X134873201Y-94364990D01*
X134722009Y-94213798D01*
X134722006Y-94213796D01*
X134722004Y-94213794D01*
X134591781Y-94119182D01*
X134549012Y-94088108D01*
X134547920Y-94087439D01*
X134547591Y-94087075D01*
X134545004Y-94085196D01*
X134545398Y-94084652D01*
X134500283Y-94034796D01*
X134491198Y-93980000D01*
X135845700Y-93980000D01*
X135850406Y-93987043D01*
X135853074Y-93991210D01*
X135873884Y-94025170D01*
X135876386Y-94029440D01*
X135891004Y-94055544D01*
X135893335Y-94059904D01*
X136008495Y-94285917D01*
X136010654Y-94290369D01*
X136023187Y-94317555D01*
X136025171Y-94322091D01*
X136040412Y-94358889D01*
X136042214Y-94363493D01*
X136052570Y-94391564D01*
X136054191Y-94396239D01*
X136132577Y-94637490D01*
X136134014Y-94642226D01*
X136142142Y-94671047D01*
X136143392Y-94675838D01*
X136152688Y-94714566D01*
X136153748Y-94719397D01*
X136159582Y-94748731D01*
X136160451Y-94753598D01*
X136198844Y-94996000D01*
X136644500Y-94996000D01*
X137658500Y-94996000D01*
X139184500Y-94996000D01*
X140198500Y-94996000D01*
X141724500Y-94996000D01*
X141724500Y-93470000D01*
X140198500Y-93470000D01*
X140198500Y-94996000D01*
X139184500Y-94996000D01*
X139184500Y-93470000D01*
X137658500Y-93470000D01*
X137658500Y-94996000D01*
X136644500Y-94996000D01*
X136644500Y-93470000D01*
X136084655Y-93470000D01*
X136054191Y-93563761D01*
X136052570Y-93568436D01*
X136042214Y-93596507D01*
X136040412Y-93601111D01*
X136025171Y-93637909D01*
X136023187Y-93642445D01*
X136010654Y-93669631D01*
X136008495Y-93674083D01*
X135893335Y-93900096D01*
X135891004Y-93904456D01*
X135876386Y-93930560D01*
X135873884Y-93934830D01*
X135853074Y-93968790D01*
X135850406Y-93972957D01*
X135845700Y-93980000D01*
X134491198Y-93980000D01*
X134488670Y-93964756D01*
X134516766Y-93899555D01*
X134545130Y-93874978D01*
X134545004Y-93874804D01*
X134547030Y-93873331D01*
X134547920Y-93872561D01*
X134548997Y-93871899D01*
X134549009Y-93871894D01*
X134722004Y-93746206D01*
X134873206Y-93595004D01*
X134998894Y-93422009D01*
X135095972Y-93231483D01*
X135162049Y-93028116D01*
X135195500Y-92816916D01*
X135195500Y-92603084D01*
X135162049Y-92391884D01*
X135095972Y-92188517D01*
X134998894Y-91997991D01*
X134873206Y-91824996D01*
X134873203Y-91824993D01*
X134873201Y-91824990D01*
X134722009Y-91673798D01*
X134722006Y-91673796D01*
X134722004Y-91673794D01*
X134549009Y-91548106D01*
X134549007Y-91548105D01*
X134547920Y-91547439D01*
X134547591Y-91547075D01*
X134545004Y-91545196D01*
X134545398Y-91544652D01*
X134500283Y-91494796D01*
X134491198Y-91440000D01*
X135845700Y-91440000D01*
X135850406Y-91447043D01*
X135853074Y-91451210D01*
X135873884Y-91485170D01*
X135876386Y-91489440D01*
X135891004Y-91515544D01*
X135893335Y-91519904D01*
X136008495Y-91745917D01*
X136010654Y-91750369D01*
X136023187Y-91777555D01*
X136025171Y-91782091D01*
X136040412Y-91818889D01*
X136042214Y-91823493D01*
X136052570Y-91851564D01*
X136054191Y-91856239D01*
X136132577Y-92097490D01*
X136134014Y-92102226D01*
X136142142Y-92131047D01*
X136143392Y-92135838D01*
X136152688Y-92174566D01*
X136153748Y-92179397D01*
X136159582Y-92208731D01*
X136160451Y-92213598D01*
X136198844Y-92456000D01*
X136644500Y-92456000D01*
X137658500Y-92456000D01*
X139184500Y-92456000D01*
X140198500Y-92456000D01*
X141724500Y-92456000D01*
X141724500Y-90930000D01*
X140198500Y-90930000D01*
X140198500Y-92456000D01*
X139184500Y-92456000D01*
X139184500Y-90930000D01*
X137658500Y-90930000D01*
X137658500Y-92456000D01*
X136644500Y-92456000D01*
X136644500Y-90930000D01*
X136084655Y-90930000D01*
X136054191Y-91023761D01*
X136052570Y-91028436D01*
X136042214Y-91056507D01*
X136040412Y-91061111D01*
X136025171Y-91097909D01*
X136023187Y-91102445D01*
X136010654Y-91129631D01*
X136008495Y-91134083D01*
X135893335Y-91360096D01*
X135891004Y-91364456D01*
X135876386Y-91390560D01*
X135873884Y-91394830D01*
X135853074Y-91428790D01*
X135850406Y-91432957D01*
X135845700Y-91440000D01*
X134491198Y-91440000D01*
X134488670Y-91424756D01*
X134516766Y-91359555D01*
X134545130Y-91334978D01*
X134545004Y-91334804D01*
X134547030Y-91333331D01*
X134547920Y-91332561D01*
X134548997Y-91331899D01*
X134549009Y-91331894D01*
X134722004Y-91206206D01*
X134873206Y-91055004D01*
X134998894Y-90882009D01*
X135095972Y-90691483D01*
X135162049Y-90488116D01*
X135195500Y-90276916D01*
X135195500Y-90063084D01*
X135162049Y-89851884D01*
X135095972Y-89648517D01*
X134998894Y-89457991D01*
X134873206Y-89284996D01*
X134873203Y-89284993D01*
X134873201Y-89284990D01*
X134722009Y-89133798D01*
X134722006Y-89133796D01*
X134722004Y-89133794D01*
X134567267Y-89021371D01*
X134549012Y-89008108D01*
X134547920Y-89007439D01*
X134547591Y-89007075D01*
X134545004Y-89005196D01*
X134545398Y-89004652D01*
X134500283Y-88954796D01*
X134491198Y-88900000D01*
X135845700Y-88900000D01*
X135850406Y-88907043D01*
X135853074Y-88911210D01*
X135873884Y-88945170D01*
X135876386Y-88949440D01*
X135891004Y-88975544D01*
X135893335Y-88979904D01*
X136008495Y-89205917D01*
X136010654Y-89210369D01*
X136023187Y-89237555D01*
X136025171Y-89242091D01*
X136040412Y-89278889D01*
X136042214Y-89283493D01*
X136052570Y-89311564D01*
X136054191Y-89316239D01*
X136132577Y-89557490D01*
X136134014Y-89562226D01*
X136142142Y-89591047D01*
X136143392Y-89595838D01*
X136152688Y-89634566D01*
X136153748Y-89639397D01*
X136159582Y-89668731D01*
X136160451Y-89673598D01*
X136198844Y-89916000D01*
X136644500Y-89916000D01*
X137658500Y-89916000D01*
X139184500Y-89916000D01*
X140198500Y-89916000D01*
X141724500Y-89916000D01*
X141724500Y-88390000D01*
X140198500Y-88390000D01*
X140198500Y-89916000D01*
X139184500Y-89916000D01*
X139184500Y-88390000D01*
X137658500Y-88390000D01*
X137658500Y-89916000D01*
X136644500Y-89916000D01*
X136644500Y-88390000D01*
X136084655Y-88390000D01*
X136054191Y-88483761D01*
X136052570Y-88488436D01*
X136042214Y-88516507D01*
X136040412Y-88521111D01*
X136025171Y-88557909D01*
X136023187Y-88562445D01*
X136010654Y-88589631D01*
X136008495Y-88594083D01*
X135893335Y-88820096D01*
X135891004Y-88824456D01*
X135876386Y-88850560D01*
X135873884Y-88854830D01*
X135853074Y-88888790D01*
X135850406Y-88892957D01*
X135845700Y-88900000D01*
X134491198Y-88900000D01*
X134488670Y-88884756D01*
X134516766Y-88819555D01*
X134545130Y-88794978D01*
X134545004Y-88794804D01*
X134547030Y-88793331D01*
X134547920Y-88792561D01*
X134548997Y-88791899D01*
X134549009Y-88791894D01*
X134722004Y-88666206D01*
X134873206Y-88515004D01*
X134998894Y-88342009D01*
X135095972Y-88151483D01*
X135162049Y-87948116D01*
X135195500Y-87736916D01*
X135195500Y-87523084D01*
X135162049Y-87311884D01*
X135095972Y-87108517D01*
X134998894Y-86917991D01*
X134873206Y-86744996D01*
X134873203Y-86744993D01*
X134873201Y-86744990D01*
X134722009Y-86593798D01*
X134722006Y-86593796D01*
X134722004Y-86593794D01*
X134549009Y-86468106D01*
X134549007Y-86468105D01*
X134547920Y-86467439D01*
X134547591Y-86467075D01*
X134545004Y-86465196D01*
X134545398Y-86464652D01*
X134500283Y-86414796D01*
X134491198Y-86360000D01*
X135845700Y-86360000D01*
X135850406Y-86367043D01*
X135853074Y-86371210D01*
X135873884Y-86405170D01*
X135876386Y-86409440D01*
X135891004Y-86435544D01*
X135893335Y-86439904D01*
X136008495Y-86665917D01*
X136010654Y-86670369D01*
X136023187Y-86697555D01*
X136025171Y-86702091D01*
X136040412Y-86738889D01*
X136042214Y-86743493D01*
X136052570Y-86771564D01*
X136054191Y-86776239D01*
X136132577Y-87017490D01*
X136134014Y-87022226D01*
X136142142Y-87051047D01*
X136143392Y-87055838D01*
X136152688Y-87094566D01*
X136153748Y-87099397D01*
X136159582Y-87128731D01*
X136160451Y-87133598D01*
X136198844Y-87376000D01*
X136644500Y-87376000D01*
X137658500Y-87376000D01*
X139184500Y-87376000D01*
X140198500Y-87376000D01*
X141724500Y-87376000D01*
X141724500Y-85850000D01*
X140198500Y-85850000D01*
X140198500Y-87376000D01*
X139184500Y-87376000D01*
X139184500Y-85850000D01*
X137658500Y-85850000D01*
X137658500Y-87376000D01*
X136644500Y-87376000D01*
X136644500Y-85850000D01*
X136084655Y-85850000D01*
X136054191Y-85943761D01*
X136052570Y-85948436D01*
X136042214Y-85976507D01*
X136040412Y-85981111D01*
X136025171Y-86017909D01*
X136023187Y-86022445D01*
X136010654Y-86049631D01*
X136008495Y-86054083D01*
X135893335Y-86280096D01*
X135891004Y-86284456D01*
X135876386Y-86310560D01*
X135873884Y-86314830D01*
X135853074Y-86348790D01*
X135850406Y-86352957D01*
X135845700Y-86360000D01*
X134491198Y-86360000D01*
X134488670Y-86344756D01*
X134516766Y-86279555D01*
X134545130Y-86254978D01*
X134545004Y-86254804D01*
X134547030Y-86253331D01*
X134547920Y-86252561D01*
X134548997Y-86251899D01*
X134549009Y-86251894D01*
X134722004Y-86126206D01*
X134873206Y-85975004D01*
X134998894Y-85802009D01*
X135095972Y-85611483D01*
X135162049Y-85408116D01*
X135195500Y-85196916D01*
X135195500Y-84983084D01*
X135162049Y-84771884D01*
X135095972Y-84568517D01*
X134998894Y-84377991D01*
X134873206Y-84204996D01*
X134873203Y-84204993D01*
X134873201Y-84204990D01*
X134722009Y-84053798D01*
X134722006Y-84053796D01*
X134722004Y-84053794D01*
X134549009Y-83928106D01*
X134549007Y-83928105D01*
X134547920Y-83927439D01*
X134547591Y-83927075D01*
X134545004Y-83925196D01*
X134545398Y-83924652D01*
X134500283Y-83874796D01*
X134491198Y-83820000D01*
X135845700Y-83820000D01*
X135850406Y-83827043D01*
X135853074Y-83831210D01*
X135873884Y-83865170D01*
X135876386Y-83869440D01*
X135891004Y-83895544D01*
X135893335Y-83899904D01*
X136008495Y-84125917D01*
X136010654Y-84130369D01*
X136023187Y-84157555D01*
X136025171Y-84162091D01*
X136040412Y-84198889D01*
X136042214Y-84203493D01*
X136052570Y-84231564D01*
X136054191Y-84236239D01*
X136132577Y-84477490D01*
X136134014Y-84482226D01*
X136142142Y-84511047D01*
X136143392Y-84515838D01*
X136152688Y-84554566D01*
X136153748Y-84559397D01*
X136159582Y-84588731D01*
X136160451Y-84593598D01*
X136198844Y-84836000D01*
X136644500Y-84836000D01*
X137658500Y-84836000D01*
X139184500Y-84836000D01*
X140198500Y-84836000D01*
X141724500Y-84836000D01*
X141724500Y-83531703D01*
X141502797Y-83310000D01*
X140198500Y-83310000D01*
X140198500Y-84836000D01*
X139184500Y-84836000D01*
X139184500Y-83310000D01*
X137658500Y-83310000D01*
X137658500Y-84836000D01*
X136644500Y-84836000D01*
X136644500Y-83310000D01*
X136084655Y-83310000D01*
X136054191Y-83403761D01*
X136052570Y-83408436D01*
X136042214Y-83436507D01*
X136040412Y-83441111D01*
X136025171Y-83477909D01*
X136023187Y-83482445D01*
X136010654Y-83509631D01*
X136008495Y-83514083D01*
X135893335Y-83740096D01*
X135891004Y-83744456D01*
X135876386Y-83770560D01*
X135873884Y-83774830D01*
X135853074Y-83808790D01*
X135850406Y-83812957D01*
X135845700Y-83820000D01*
X134491198Y-83820000D01*
X134488670Y-83804756D01*
X134516766Y-83739555D01*
X134545130Y-83714978D01*
X134545004Y-83714804D01*
X134547030Y-83713331D01*
X134547920Y-83712561D01*
X134548997Y-83711899D01*
X134549009Y-83711894D01*
X134722004Y-83586206D01*
X134873206Y-83435004D01*
X134998894Y-83262009D01*
X135095972Y-83071483D01*
X135162049Y-82868116D01*
X135195500Y-82656916D01*
X135195500Y-82443084D01*
X135162049Y-82231884D01*
X135095972Y-82028517D01*
X134998894Y-81837991D01*
X134873206Y-81664996D01*
X134873203Y-81664993D01*
X134873201Y-81664990D01*
X134722009Y-81513798D01*
X134722006Y-81513796D01*
X134722004Y-81513794D01*
X134549009Y-81388106D01*
X134549007Y-81388105D01*
X134547920Y-81387439D01*
X134547591Y-81387075D01*
X134545004Y-81385196D01*
X134545398Y-81384652D01*
X134500283Y-81334796D01*
X134491198Y-81280000D01*
X135845700Y-81280000D01*
X135850406Y-81287043D01*
X135853074Y-81291210D01*
X135873884Y-81325170D01*
X135876386Y-81329440D01*
X135891004Y-81355544D01*
X135893335Y-81359904D01*
X136008495Y-81585917D01*
X136010654Y-81590369D01*
X136023187Y-81617555D01*
X136025171Y-81622091D01*
X136040412Y-81658889D01*
X136042214Y-81663493D01*
X136052570Y-81691564D01*
X136054191Y-81696239D01*
X136132577Y-81937490D01*
X136134014Y-81942226D01*
X136142142Y-81971047D01*
X136143392Y-81975838D01*
X136152688Y-82014566D01*
X136153748Y-82019397D01*
X136159582Y-82048731D01*
X136160451Y-82053598D01*
X136198844Y-82296000D01*
X136644500Y-82296000D01*
X137658500Y-82296000D01*
X139184500Y-82296000D01*
X139184500Y-80991704D01*
X138962795Y-80770000D01*
X137658500Y-80770000D01*
X137658500Y-82296000D01*
X136644500Y-82296000D01*
X136644500Y-80770000D01*
X136084655Y-80770000D01*
X136054191Y-80863761D01*
X136052570Y-80868436D01*
X136042214Y-80896507D01*
X136040412Y-80901111D01*
X136025171Y-80937909D01*
X136023187Y-80942445D01*
X136010654Y-80969631D01*
X136008495Y-80974083D01*
X135893335Y-81200096D01*
X135891004Y-81204456D01*
X135876386Y-81230560D01*
X135873884Y-81234830D01*
X135853074Y-81268790D01*
X135850406Y-81272957D01*
X135845700Y-81280000D01*
X134491198Y-81280000D01*
X134488670Y-81264756D01*
X134516766Y-81199555D01*
X134545130Y-81174978D01*
X134545004Y-81174804D01*
X134547030Y-81173331D01*
X134547920Y-81172561D01*
X134548997Y-81171899D01*
X134549009Y-81171894D01*
X134722004Y-81046206D01*
X134873206Y-80895004D01*
X134998894Y-80722009D01*
X135095972Y-80531483D01*
X135162049Y-80328116D01*
X135195500Y-80116916D01*
X135195500Y-79903084D01*
X135162049Y-79691884D01*
X135095972Y-79488517D01*
X134998894Y-79297991D01*
X134873206Y-79124996D01*
X134873203Y-79124993D01*
X134873201Y-79124990D01*
X134722009Y-78973798D01*
X134722006Y-78973796D01*
X134722004Y-78973794D01*
X134549009Y-78848106D01*
X134549007Y-78848105D01*
X134547920Y-78847439D01*
X134547591Y-78847075D01*
X134545004Y-78845196D01*
X134545398Y-78844652D01*
X134500283Y-78794796D01*
X134491198Y-78740000D01*
X135845700Y-78740000D01*
X135850406Y-78747043D01*
X135853074Y-78751210D01*
X135873884Y-78785170D01*
X135876386Y-78789440D01*
X135891004Y-78815544D01*
X135893335Y-78819904D01*
X136008495Y-79045917D01*
X136010654Y-79050369D01*
X136023187Y-79077555D01*
X136025171Y-79082091D01*
X136040412Y-79118889D01*
X136042214Y-79123493D01*
X136052570Y-79151564D01*
X136054191Y-79156239D01*
X136132577Y-79397490D01*
X136134014Y-79402226D01*
X136142142Y-79431047D01*
X136143392Y-79435838D01*
X136152688Y-79474566D01*
X136153748Y-79479397D01*
X136159582Y-79508731D01*
X136160451Y-79513598D01*
X136198844Y-79756000D01*
X136644500Y-79756000D01*
X136644500Y-78451704D01*
X136422795Y-78230000D01*
X136084655Y-78230000D01*
X136054191Y-78323761D01*
X136052570Y-78328436D01*
X136042214Y-78356507D01*
X136040412Y-78361111D01*
X136025171Y-78397909D01*
X136023187Y-78402445D01*
X136010654Y-78429631D01*
X136008495Y-78434083D01*
X135893335Y-78660096D01*
X135891004Y-78664456D01*
X135876386Y-78690560D01*
X135873884Y-78694830D01*
X135853074Y-78728790D01*
X135850406Y-78732957D01*
X135845700Y-78740000D01*
X134491198Y-78740000D01*
X134488670Y-78724756D01*
X134516766Y-78659555D01*
X134545130Y-78634978D01*
X134545004Y-78634804D01*
X134547030Y-78633331D01*
X134547920Y-78632561D01*
X134548997Y-78631899D01*
X134549009Y-78631894D01*
X134722004Y-78506206D01*
X134873206Y-78355004D01*
X134998894Y-78182009D01*
X135095972Y-77991483D01*
X135162049Y-77788116D01*
X135195500Y-77576916D01*
X135195500Y-77363084D01*
X135162049Y-77151884D01*
X135095972Y-76948517D01*
X134998894Y-76757991D01*
X134873206Y-76584996D01*
X134873203Y-76584993D01*
X134873201Y-76584990D01*
X134770229Y-76482018D01*
X134736203Y-76419706D01*
X134741268Y-76348891D01*
X134783815Y-76292055D01*
X134815284Y-76274871D01*
X134933204Y-76230889D01*
X134933799Y-76230444D01*
X135050261Y-76143261D01*
X135135052Y-76029994D01*
X135191888Y-75987447D01*
X135262703Y-75982383D01*
X135325015Y-76016408D01*
G37*
%TD.AperFunction*%
%TA.AperFunction,Conductor*%
G36*
X156728654Y-72918002D02*
G01*
X156769652Y-72960999D01*
X156775231Y-72970662D01*
X156888661Y-73105842D01*
X157023841Y-73219271D01*
X157176665Y-73307503D01*
X157176668Y-73307504D01*
X157176672Y-73307506D01*
X157266247Y-73340108D01*
X157342487Y-73367857D01*
X157516272Y-73398499D01*
X157538608Y-73398499D01*
X159595121Y-73398499D01*
X159663242Y-73418501D01*
X159709735Y-73472157D01*
X159719839Y-73542431D01*
X159690345Y-73607011D01*
X159670630Y-73625367D01*
X159548095Y-73717095D01*
X159460555Y-73834034D01*
X159460555Y-73834035D01*
X159409505Y-73970906D01*
X159403000Y-74031402D01*
X159403000Y-74676000D01*
X160330297Y-74676000D01*
X160295075Y-74737007D01*
X160261000Y-74864174D01*
X160261000Y-74995826D01*
X160295075Y-75122993D01*
X160330297Y-75184000D01*
X159403000Y-75184000D01*
X159403000Y-75828597D01*
X159409505Y-75889093D01*
X159460555Y-76025964D01*
X159460555Y-76025965D01*
X159548095Y-76142904D01*
X159665034Y-76230444D01*
X159783096Y-76274478D01*
X159839932Y-76317024D01*
X159864743Y-76383545D01*
X159849652Y-76452919D01*
X159828160Y-76481629D01*
X159724794Y-76584995D01*
X159599108Y-76757987D01*
X159502029Y-76948515D01*
X159502026Y-76948521D01*
X159435952Y-77151878D01*
X159435951Y-77151883D01*
X159435951Y-77151884D01*
X159402500Y-77363084D01*
X159402500Y-77576916D01*
X159435951Y-77788116D01*
X159435952Y-77788121D01*
X159502026Y-77991478D01*
X159502028Y-77991483D01*
X159599106Y-78182009D01*
X159724794Y-78355004D01*
X159724796Y-78355006D01*
X159724798Y-78355009D01*
X159875990Y-78506201D01*
X159875993Y-78506203D01*
X159875996Y-78506206D01*
X160048991Y-78631894D01*
X160048996Y-78631896D01*
X160050088Y-78632566D01*
X160050418Y-78632931D01*
X160052996Y-78634804D01*
X160052602Y-78635345D01*
X160097721Y-78685213D01*
X160109328Y-78755255D01*
X160081226Y-78820453D01*
X160052870Y-78845023D01*
X160052996Y-78845196D01*
X160050982Y-78846658D01*
X160050088Y-78847434D01*
X160048987Y-78848108D01*
X159875993Y-78973796D01*
X159875990Y-78973798D01*
X159724798Y-79124990D01*
X159724796Y-79124993D01*
X159599108Y-79297987D01*
X159502029Y-79488515D01*
X159502026Y-79488521D01*
X159435952Y-79691878D01*
X159435951Y-79691883D01*
X159435951Y-79691884D01*
X159402500Y-79903084D01*
X159402500Y-80116916D01*
X159435951Y-80328116D01*
X159435952Y-80328121D01*
X159502026Y-80531478D01*
X159502028Y-80531483D01*
X159599106Y-80722009D01*
X159724794Y-80895004D01*
X159724796Y-80895006D01*
X159724798Y-80895009D01*
X159875990Y-81046201D01*
X159875993Y-81046203D01*
X159875996Y-81046206D01*
X160048991Y-81171894D01*
X160048996Y-81171896D01*
X160050088Y-81172566D01*
X160050418Y-81172931D01*
X160052996Y-81174804D01*
X160052602Y-81175345D01*
X160097721Y-81225213D01*
X160109328Y-81295255D01*
X160081226Y-81360453D01*
X160052870Y-81385023D01*
X160052996Y-81385196D01*
X160050982Y-81386658D01*
X160050088Y-81387434D01*
X160048987Y-81388108D01*
X159875993Y-81513796D01*
X159875990Y-81513798D01*
X159724798Y-81664990D01*
X159724796Y-81664993D01*
X159599108Y-81837987D01*
X159502029Y-82028515D01*
X159502026Y-82028521D01*
X159435952Y-82231878D01*
X159435951Y-82231883D01*
X159435951Y-82231884D01*
X159402500Y-82443084D01*
X159402500Y-82656916D01*
X159435951Y-82868116D01*
X159435952Y-82868121D01*
X159502026Y-83071478D01*
X159502028Y-83071483D01*
X159599106Y-83262009D01*
X159599108Y-83262012D01*
X159724795Y-83435005D01*
X159724798Y-83435009D01*
X159875990Y-83586201D01*
X159875993Y-83586203D01*
X159875996Y-83586206D01*
X160048991Y-83711894D01*
X160048996Y-83711896D01*
X160050088Y-83712566D01*
X160050418Y-83712931D01*
X160052996Y-83714804D01*
X160052602Y-83715345D01*
X160097721Y-83765213D01*
X160109328Y-83835255D01*
X160081226Y-83900453D01*
X160052870Y-83925023D01*
X160052996Y-83925196D01*
X160050982Y-83926658D01*
X160050088Y-83927434D01*
X160048987Y-83928108D01*
X159875993Y-84053796D01*
X159875990Y-84053798D01*
X159724798Y-84204990D01*
X159724796Y-84204993D01*
X159599108Y-84377987D01*
X159502029Y-84568515D01*
X159502026Y-84568521D01*
X159435952Y-84771878D01*
X159435951Y-84771883D01*
X159435951Y-84771884D01*
X159402500Y-84983084D01*
X159402500Y-85196916D01*
X159435951Y-85408116D01*
X159435952Y-85408121D01*
X159502026Y-85611478D01*
X159502028Y-85611483D01*
X159599106Y-85802009D01*
X159724794Y-85975004D01*
X159724796Y-85975006D01*
X159724798Y-85975009D01*
X159875990Y-86126201D01*
X159875993Y-86126203D01*
X159875996Y-86126206D01*
X160048991Y-86251894D01*
X160048996Y-86251896D01*
X160050088Y-86252566D01*
X160050418Y-86252931D01*
X160052996Y-86254804D01*
X160052602Y-86255345D01*
X160097721Y-86305213D01*
X160109328Y-86375255D01*
X160081226Y-86440453D01*
X160052870Y-86465023D01*
X160052996Y-86465196D01*
X160050982Y-86466658D01*
X160050088Y-86467434D01*
X160048987Y-86468108D01*
X159875993Y-86593796D01*
X159875990Y-86593798D01*
X159724798Y-86744990D01*
X159724796Y-86744993D01*
X159599108Y-86917987D01*
X159502029Y-87108515D01*
X159502026Y-87108521D01*
X159435952Y-87311878D01*
X159435951Y-87311883D01*
X159435951Y-87311884D01*
X159402500Y-87523084D01*
X159402500Y-87736916D01*
X159435951Y-87948116D01*
X159435952Y-87948121D01*
X159502026Y-88151478D01*
X159502028Y-88151483D01*
X159599106Y-88342009D01*
X159724794Y-88515004D01*
X159724796Y-88515006D01*
X159724798Y-88515009D01*
X159875990Y-88666201D01*
X159875993Y-88666203D01*
X159875996Y-88666206D01*
X160048991Y-88791894D01*
X160049001Y-88791899D01*
X160050567Y-88792859D01*
X160051042Y-88793384D01*
X160052996Y-88794804D01*
X160052697Y-88795214D01*
X160098200Y-88845505D01*
X160109808Y-88915546D01*
X160081707Y-88980745D01*
X160053157Y-89005484D01*
X160053259Y-89005624D01*
X160051639Y-89006800D01*
X160050574Y-89007724D01*
X160049261Y-89008528D01*
X159996831Y-89046621D01*
X159996831Y-89046622D01*
X160636051Y-89685842D01*
X160568007Y-89704075D01*
X160453993Y-89769901D01*
X160360901Y-89862993D01*
X160295075Y-89977007D01*
X160276842Y-90045051D01*
X159637622Y-89405831D01*
X159637621Y-89405831D01*
X159599534Y-89458253D01*
X159502493Y-89648707D01*
X159502490Y-89648713D01*
X159436440Y-89851996D01*
X159403000Y-90063126D01*
X159403000Y-90276873D01*
X159436440Y-90488003D01*
X159502490Y-90691286D01*
X159502493Y-90691292D01*
X159599535Y-90881748D01*
X159599536Y-90881750D01*
X159637620Y-90934167D01*
X159637621Y-90934168D01*
X160276841Y-90294947D01*
X160295075Y-90362993D01*
X160360901Y-90477007D01*
X160453993Y-90570099D01*
X160568007Y-90635925D01*
X160636051Y-90654157D01*
X159996831Y-91293378D01*
X160049247Y-91331461D01*
X160050566Y-91332270D01*
X160050962Y-91332708D01*
X160053258Y-91334376D01*
X160052907Y-91334858D01*
X160098199Y-91384915D01*
X160109809Y-91454956D01*
X160081708Y-91520155D01*
X160052925Y-91545098D01*
X160052996Y-91545196D01*
X160051862Y-91546019D01*
X160050580Y-91547131D01*
X160048998Y-91548100D01*
X159875993Y-91673796D01*
X159875990Y-91673798D01*
X159724798Y-91824990D01*
X159724796Y-91824993D01*
X159599108Y-91997987D01*
X159502029Y-92188515D01*
X159502026Y-92188521D01*
X159435952Y-92391878D01*
X159435951Y-92391883D01*
X159435951Y-92391884D01*
X159402500Y-92603084D01*
X159402500Y-92816916D01*
X159435951Y-93028116D01*
X159435952Y-93028121D01*
X159502026Y-93231478D01*
X159502028Y-93231483D01*
X159599106Y-93422009D01*
X159724794Y-93595004D01*
X159724796Y-93595006D01*
X159724798Y-93595009D01*
X159875990Y-93746201D01*
X159875993Y-93746203D01*
X159875996Y-93746206D01*
X160048991Y-93871894D01*
X160048996Y-93871896D01*
X160050088Y-93872566D01*
X160050418Y-93872931D01*
X160052996Y-93874804D01*
X160052602Y-93875345D01*
X160097721Y-93925213D01*
X160109328Y-93995255D01*
X160081226Y-94060453D01*
X160052870Y-94085023D01*
X160052996Y-94085196D01*
X160050982Y-94086658D01*
X160050088Y-94087434D01*
X160048987Y-94088108D01*
X159875993Y-94213796D01*
X159875990Y-94213798D01*
X159724798Y-94364990D01*
X159724796Y-94364993D01*
X159599108Y-94537987D01*
X159502029Y-94728515D01*
X159502026Y-94728521D01*
X159435952Y-94931878D01*
X159435951Y-94931883D01*
X159435951Y-94931884D01*
X159402500Y-95143084D01*
X159402500Y-95356916D01*
X159435951Y-95568116D01*
X159435952Y-95568121D01*
X159501568Y-95770067D01*
X159502028Y-95771483D01*
X159599106Y-95962009D01*
X159724794Y-96135004D01*
X159724796Y-96135006D01*
X159724798Y-96135009D01*
X159875990Y-96286201D01*
X159875993Y-96286203D01*
X159875996Y-96286206D01*
X160048991Y-96411894D01*
X160048996Y-96411896D01*
X160050088Y-96412566D01*
X160050418Y-96412931D01*
X160052996Y-96414804D01*
X160052602Y-96415345D01*
X160097721Y-96465213D01*
X160109328Y-96535255D01*
X160081226Y-96600453D01*
X160052870Y-96625023D01*
X160052996Y-96625196D01*
X160050982Y-96626658D01*
X160050088Y-96627434D01*
X160048987Y-96628108D01*
X159875993Y-96753796D01*
X159875990Y-96753798D01*
X159724798Y-96904990D01*
X159724796Y-96904993D01*
X159599108Y-97077987D01*
X159502029Y-97268515D01*
X159502026Y-97268521D01*
X159435952Y-97471878D01*
X159435951Y-97471883D01*
X159435951Y-97471884D01*
X159402500Y-97683084D01*
X159402500Y-97896916D01*
X159435951Y-98108116D01*
X159435952Y-98108121D01*
X159500048Y-98305389D01*
X159502028Y-98311483D01*
X159588657Y-98481501D01*
X159599108Y-98502012D01*
X159630182Y-98544781D01*
X159724794Y-98675004D01*
X159724796Y-98675006D01*
X159724798Y-98675009D01*
X159875990Y-98826201D01*
X159875993Y-98826203D01*
X159875996Y-98826206D01*
X160048991Y-98951894D01*
X160048996Y-98951896D01*
X160050088Y-98952566D01*
X160050418Y-98952931D01*
X160052996Y-98954804D01*
X160052602Y-98955345D01*
X160097721Y-99005213D01*
X160109328Y-99075255D01*
X160081226Y-99140453D01*
X160052870Y-99165023D01*
X160052996Y-99165196D01*
X160050982Y-99166658D01*
X160050088Y-99167434D01*
X160048987Y-99168108D01*
X159875993Y-99293796D01*
X159875990Y-99293798D01*
X159724798Y-99444990D01*
X159724796Y-99444993D01*
X159599108Y-99617987D01*
X159502029Y-99808515D01*
X159502026Y-99808521D01*
X159435952Y-100011878D01*
X159435951Y-100011883D01*
X159435951Y-100011884D01*
X159402500Y-100223084D01*
X159402500Y-100436916D01*
X159435951Y-100648116D01*
X159435952Y-100648121D01*
X159502026Y-100851478D01*
X159502028Y-100851483D01*
X159599106Y-101042009D01*
X159724794Y-101215004D01*
X159724796Y-101215006D01*
X159724798Y-101215009D01*
X159875990Y-101366201D01*
X159875993Y-101366203D01*
X159875996Y-101366206D01*
X160048991Y-101491894D01*
X160048996Y-101491896D01*
X160050088Y-101492566D01*
X160050418Y-101492931D01*
X160052996Y-101494804D01*
X160052602Y-101495345D01*
X160097721Y-101545213D01*
X160109328Y-101615255D01*
X160081226Y-101680453D01*
X160052870Y-101705023D01*
X160052996Y-101705196D01*
X160050982Y-101706658D01*
X160050088Y-101707434D01*
X160048987Y-101708108D01*
X159875993Y-101833796D01*
X159875990Y-101833798D01*
X159724798Y-101984990D01*
X159724796Y-101984993D01*
X159599108Y-102157987D01*
X159502029Y-102348515D01*
X159502026Y-102348521D01*
X159435952Y-102551878D01*
X159435951Y-102551883D01*
X159435951Y-102551884D01*
X159402500Y-102763084D01*
X159402500Y-102976916D01*
X159435951Y-103188116D01*
X159435952Y-103188121D01*
X159502026Y-103391478D01*
X159502028Y-103391483D01*
X159599106Y-103582009D01*
X159724794Y-103755004D01*
X159724796Y-103755006D01*
X159724798Y-103755009D01*
X159875990Y-103906201D01*
X159875993Y-103906203D01*
X159875996Y-103906206D01*
X160048991Y-104031894D01*
X160048996Y-104031896D01*
X160050088Y-104032566D01*
X160050418Y-104032931D01*
X160052996Y-104034804D01*
X160052602Y-104035345D01*
X160097721Y-104085213D01*
X160109328Y-104155255D01*
X160081226Y-104220453D01*
X160052870Y-104245023D01*
X160052996Y-104245196D01*
X160050982Y-104246658D01*
X160050088Y-104247434D01*
X160048987Y-104248108D01*
X159875993Y-104373796D01*
X159875990Y-104373798D01*
X159724798Y-104524990D01*
X159724796Y-104524993D01*
X159599108Y-104697987D01*
X159502029Y-104888515D01*
X159502026Y-104888521D01*
X159435952Y-105091878D01*
X159435951Y-105091883D01*
X159435951Y-105091884D01*
X159402500Y-105303084D01*
X159402500Y-105516916D01*
X159435951Y-105728116D01*
X159435952Y-105728121D01*
X159502026Y-105931478D01*
X159502028Y-105931483D01*
X159599106Y-106122009D01*
X159724794Y-106295004D01*
X159724796Y-106295006D01*
X159724798Y-106295009D01*
X159875990Y-106446201D01*
X159875993Y-106446203D01*
X159875996Y-106446206D01*
X160048991Y-106571894D01*
X160048996Y-106571896D01*
X160050088Y-106572566D01*
X160050418Y-106572931D01*
X160052996Y-106574804D01*
X160052602Y-106575345D01*
X160097721Y-106625213D01*
X160109328Y-106695255D01*
X160081226Y-106760453D01*
X160052870Y-106785023D01*
X160052996Y-106785196D01*
X160050982Y-106786658D01*
X160050088Y-106787434D01*
X160048987Y-106788108D01*
X159875993Y-106913796D01*
X159875990Y-106913798D01*
X159724798Y-107064990D01*
X159724796Y-107064993D01*
X159599108Y-107237987D01*
X159502029Y-107428515D01*
X159502026Y-107428521D01*
X159435952Y-107631878D01*
X159435951Y-107631883D01*
X159435951Y-107631884D01*
X159402500Y-107843084D01*
X159402500Y-108056916D01*
X159435933Y-108268003D01*
X159435952Y-108268121D01*
X159501963Y-108471283D01*
X159502028Y-108471483D01*
X159599106Y-108662009D01*
X159724794Y-108835004D01*
X159724796Y-108835006D01*
X159724798Y-108835009D01*
X159875990Y-108986201D01*
X159875993Y-108986203D01*
X159875996Y-108986206D01*
X160048991Y-109111894D01*
X160048996Y-109111896D01*
X160050088Y-109112566D01*
X160050418Y-109112931D01*
X160052996Y-109114804D01*
X160052602Y-109115345D01*
X160097721Y-109165213D01*
X160109328Y-109235255D01*
X160081226Y-109300453D01*
X160052870Y-109325023D01*
X160052996Y-109325196D01*
X160050982Y-109326658D01*
X160050088Y-109327434D01*
X160048987Y-109328108D01*
X159875993Y-109453796D01*
X159875990Y-109453798D01*
X159724798Y-109604990D01*
X159724796Y-109604993D01*
X159599108Y-109777987D01*
X159502029Y-109968515D01*
X159502026Y-109968521D01*
X159435952Y-110171878D01*
X159435951Y-110171883D01*
X159435951Y-110171884D01*
X159402500Y-110383084D01*
X159402500Y-110596916D01*
X159435951Y-110808116D01*
X159435952Y-110808121D01*
X159502026Y-111011478D01*
X159502028Y-111011483D01*
X159599106Y-111202009D01*
X159724794Y-111375004D01*
X159724796Y-111375006D01*
X159724798Y-111375009D01*
X159875990Y-111526201D01*
X159875993Y-111526203D01*
X159875996Y-111526206D01*
X160048991Y-111651894D01*
X160048996Y-111651896D01*
X160050088Y-111652566D01*
X160050418Y-111652931D01*
X160052996Y-111654804D01*
X160052602Y-111655345D01*
X160097721Y-111705213D01*
X160109328Y-111775255D01*
X160081226Y-111840453D01*
X160052870Y-111865023D01*
X160052996Y-111865196D01*
X160050982Y-111866658D01*
X160050088Y-111867434D01*
X160048987Y-111868108D01*
X159875993Y-111993796D01*
X159875990Y-111993798D01*
X159724798Y-112144990D01*
X159724796Y-112144993D01*
X159599108Y-112317987D01*
X159502029Y-112508515D01*
X159502026Y-112508521D01*
X159435952Y-112711878D01*
X159435951Y-112711883D01*
X159435951Y-112711884D01*
X159402500Y-112923084D01*
X159402500Y-113136916D01*
X159435951Y-113348116D01*
X159435952Y-113348121D01*
X159502026Y-113551478D01*
X159502028Y-113551483D01*
X159599106Y-113742009D01*
X159724794Y-113915004D01*
X159724796Y-113915006D01*
X159724798Y-113915009D01*
X159875990Y-114066201D01*
X159875993Y-114066203D01*
X159875996Y-114066206D01*
X160048991Y-114191894D01*
X160048996Y-114191896D01*
X160050088Y-114192566D01*
X160050418Y-114192931D01*
X160052996Y-114194804D01*
X160052602Y-114195345D01*
X160097721Y-114245213D01*
X160109328Y-114315255D01*
X160081226Y-114380453D01*
X160052870Y-114405023D01*
X160052996Y-114405196D01*
X160050982Y-114406658D01*
X160050088Y-114407434D01*
X160048987Y-114408108D01*
X159875993Y-114533796D01*
X159875990Y-114533798D01*
X159724798Y-114684990D01*
X159724796Y-114684993D01*
X159599108Y-114857987D01*
X159502029Y-115048515D01*
X159502026Y-115048521D01*
X159435952Y-115251878D01*
X159435951Y-115251883D01*
X159435951Y-115251884D01*
X159402500Y-115463084D01*
X159402500Y-115676916D01*
X159435951Y-115888116D01*
X159435952Y-115888121D01*
X159502026Y-116091478D01*
X159502028Y-116091483D01*
X159599106Y-116282009D01*
X159599108Y-116282012D01*
X159622226Y-116313831D01*
X159724794Y-116455004D01*
X159724796Y-116455006D01*
X159724798Y-116455009D01*
X159875990Y-116606201D01*
X159875993Y-116606203D01*
X159875996Y-116606206D01*
X160048991Y-116731894D01*
X160048996Y-116731896D01*
X160050088Y-116732566D01*
X160050418Y-116732931D01*
X160052996Y-116734804D01*
X160052602Y-116735345D01*
X160097721Y-116785213D01*
X160109328Y-116855255D01*
X160081226Y-116920453D01*
X160052870Y-116945023D01*
X160052996Y-116945196D01*
X160050982Y-116946658D01*
X160050088Y-116947434D01*
X160048987Y-116948108D01*
X159875993Y-117073796D01*
X159875990Y-117073798D01*
X159724798Y-117224990D01*
X159724796Y-117224993D01*
X159599108Y-117397987D01*
X159502029Y-117588515D01*
X159502026Y-117588521D01*
X159435952Y-117791878D01*
X159435951Y-117791883D01*
X159435951Y-117791884D01*
X159402500Y-118003084D01*
X159402500Y-118216916D01*
X159435933Y-118428000D01*
X159435952Y-118428121D01*
X159502026Y-118631478D01*
X159502028Y-118631483D01*
X159599106Y-118822009D01*
X159599108Y-118822012D01*
X159630052Y-118864603D01*
X159724794Y-118995004D01*
X159724796Y-118995006D01*
X159724798Y-118995009D01*
X159875990Y-119146201D01*
X159875993Y-119146203D01*
X159875996Y-119146206D01*
X160048991Y-119271894D01*
X160048996Y-119271896D01*
X160050088Y-119272566D01*
X160050418Y-119272931D01*
X160052996Y-119274804D01*
X160052602Y-119275345D01*
X160097721Y-119325213D01*
X160109328Y-119395255D01*
X160081226Y-119460453D01*
X160052870Y-119485023D01*
X160052996Y-119485196D01*
X160050982Y-119486658D01*
X160050088Y-119487434D01*
X160048987Y-119488108D01*
X159875993Y-119613796D01*
X159875990Y-119613798D01*
X159724798Y-119764990D01*
X159724796Y-119764993D01*
X159599108Y-119937987D01*
X159502029Y-120128515D01*
X159502026Y-120128521D01*
X159435952Y-120331878D01*
X159435951Y-120331883D01*
X159435951Y-120331884D01*
X159402500Y-120543084D01*
X159402500Y-120756916D01*
X159435951Y-120968116D01*
X159435952Y-120968121D01*
X159502026Y-121171478D01*
X159502028Y-121171483D01*
X159599106Y-121362009D01*
X159724794Y-121535004D01*
X159724796Y-121535006D01*
X159724798Y-121535009D01*
X159875990Y-121686201D01*
X159875993Y-121686203D01*
X159875996Y-121686206D01*
X160048991Y-121811894D01*
X160239517Y-121908972D01*
X160321677Y-121935667D01*
X160380283Y-121975740D01*
X160407920Y-122041137D01*
X160395813Y-122111094D01*
X160347807Y-122163400D01*
X160282741Y-122181500D01*
X155680884Y-122181500D01*
X155612763Y-122161498D01*
X155566270Y-122107842D01*
X155556166Y-122037568D01*
X155585660Y-121972988D01*
X155591789Y-121966405D01*
X156676910Y-120881284D01*
X156676916Y-120881278D01*
X156753096Y-120749329D01*
X156753735Y-120748223D01*
X156793500Y-120599819D01*
X156793500Y-120396000D01*
X157978500Y-120396000D01*
X158399156Y-120396000D01*
X158437549Y-120153598D01*
X158438418Y-120148731D01*
X158444252Y-120119397D01*
X158445312Y-120114566D01*
X158454608Y-120075838D01*
X158455858Y-120071047D01*
X158463986Y-120042226D01*
X158465423Y-120037490D01*
X158543809Y-119796239D01*
X158545430Y-119791564D01*
X158555786Y-119763493D01*
X158557588Y-119758889D01*
X158572829Y-119722091D01*
X158574813Y-119717555D01*
X158587346Y-119690369D01*
X158589505Y-119685917D01*
X158704665Y-119459904D01*
X158706996Y-119455544D01*
X158721614Y-119429440D01*
X158724116Y-119425170D01*
X158744926Y-119391210D01*
X158747594Y-119387043D01*
X158752299Y-119380000D01*
X158747594Y-119372957D01*
X158744926Y-119368790D01*
X158724116Y-119334830D01*
X158721614Y-119330560D01*
X158706996Y-119304456D01*
X158704665Y-119300096D01*
X158589505Y-119074083D01*
X158587346Y-119069631D01*
X158574813Y-119042445D01*
X158572829Y-119037909D01*
X158557588Y-119001111D01*
X158555786Y-118996507D01*
X158545430Y-118968436D01*
X158543809Y-118963761D01*
X158513345Y-118870000D01*
X157978500Y-118870000D01*
X157978500Y-120396000D01*
X156793500Y-120396000D01*
X156793500Y-117856000D01*
X157978500Y-117856000D01*
X158399156Y-117856000D01*
X158437549Y-117613598D01*
X158438418Y-117608731D01*
X158444252Y-117579397D01*
X158445312Y-117574566D01*
X158454608Y-117535838D01*
X158455858Y-117531047D01*
X158463986Y-117502226D01*
X158465423Y-117497490D01*
X158543809Y-117256239D01*
X158545430Y-117251564D01*
X158555786Y-117223493D01*
X158557588Y-117218889D01*
X158572829Y-117182091D01*
X158574813Y-117177555D01*
X158587346Y-117150369D01*
X158589505Y-117145917D01*
X158704665Y-116919904D01*
X158706996Y-116915544D01*
X158721614Y-116889440D01*
X158724116Y-116885170D01*
X158744926Y-116851210D01*
X158747594Y-116847043D01*
X158752299Y-116840000D01*
X158747594Y-116832957D01*
X158744926Y-116828790D01*
X158724116Y-116794830D01*
X158721614Y-116790560D01*
X158706996Y-116764456D01*
X158704665Y-116760096D01*
X158589505Y-116534083D01*
X158587346Y-116529631D01*
X158574813Y-116502445D01*
X158572829Y-116497909D01*
X158557588Y-116461111D01*
X158555786Y-116456507D01*
X158545430Y-116428436D01*
X158543809Y-116423761D01*
X158513345Y-116330000D01*
X157978500Y-116330000D01*
X157978500Y-117856000D01*
X156793500Y-117856000D01*
X156793500Y-115316000D01*
X157978500Y-115316000D01*
X158399156Y-115316000D01*
X158437549Y-115073598D01*
X158438418Y-115068731D01*
X158444252Y-115039397D01*
X158445312Y-115034566D01*
X158454608Y-114995838D01*
X158455858Y-114991047D01*
X158463986Y-114962226D01*
X158465423Y-114957490D01*
X158543809Y-114716239D01*
X158545430Y-114711564D01*
X158555786Y-114683493D01*
X158557588Y-114678889D01*
X158572829Y-114642091D01*
X158574813Y-114637555D01*
X158587346Y-114610369D01*
X158589505Y-114605917D01*
X158704665Y-114379904D01*
X158706996Y-114375544D01*
X158721614Y-114349440D01*
X158724116Y-114345170D01*
X158744926Y-114311210D01*
X158747594Y-114307043D01*
X158752299Y-114300000D01*
X158747594Y-114292957D01*
X158744926Y-114288790D01*
X158724116Y-114254830D01*
X158721614Y-114250560D01*
X158706996Y-114224456D01*
X158704665Y-114220096D01*
X158589505Y-113994083D01*
X158587346Y-113989631D01*
X158574813Y-113962445D01*
X158572829Y-113957909D01*
X158557588Y-113921111D01*
X158555786Y-113916507D01*
X158545430Y-113888436D01*
X158543809Y-113883761D01*
X158513345Y-113790000D01*
X157978500Y-113790000D01*
X157978500Y-115316000D01*
X156793500Y-115316000D01*
X156793500Y-112776000D01*
X157978500Y-112776000D01*
X158399156Y-112776000D01*
X158437549Y-112533598D01*
X158438418Y-112528731D01*
X158444252Y-112499397D01*
X158445312Y-112494566D01*
X158454608Y-112455838D01*
X158455858Y-112451047D01*
X158463986Y-112422226D01*
X158465423Y-112417490D01*
X158543809Y-112176239D01*
X158545430Y-112171564D01*
X158555786Y-112143493D01*
X158557588Y-112138889D01*
X158572829Y-112102091D01*
X158574813Y-112097555D01*
X158587346Y-112070369D01*
X158589505Y-112065917D01*
X158704665Y-111839904D01*
X158706996Y-111835544D01*
X158721614Y-111809440D01*
X158724116Y-111805170D01*
X158744926Y-111771210D01*
X158747594Y-111767043D01*
X158752299Y-111760000D01*
X158747594Y-111752957D01*
X158744926Y-111748790D01*
X158724116Y-111714830D01*
X158721614Y-111710560D01*
X158706996Y-111684456D01*
X158704665Y-111680096D01*
X158589505Y-111454083D01*
X158587346Y-111449631D01*
X158574813Y-111422445D01*
X158572829Y-111417909D01*
X158557588Y-111381111D01*
X158555786Y-111376507D01*
X158545430Y-111348436D01*
X158543809Y-111343761D01*
X158513345Y-111250000D01*
X157978500Y-111250000D01*
X157978500Y-112776000D01*
X156793500Y-112776000D01*
X156793500Y-110236000D01*
X157978500Y-110236000D01*
X158399156Y-110236000D01*
X158437549Y-109993598D01*
X158438418Y-109988731D01*
X158444252Y-109959397D01*
X158445312Y-109954566D01*
X158454608Y-109915838D01*
X158455858Y-109911047D01*
X158463986Y-109882226D01*
X158465423Y-109877490D01*
X158543809Y-109636239D01*
X158545430Y-109631564D01*
X158555786Y-109603493D01*
X158557588Y-109598889D01*
X158572829Y-109562091D01*
X158574813Y-109557555D01*
X158587346Y-109530369D01*
X158589505Y-109525917D01*
X158704665Y-109299904D01*
X158706996Y-109295544D01*
X158721614Y-109269440D01*
X158724116Y-109265170D01*
X158744926Y-109231210D01*
X158747594Y-109227043D01*
X158752299Y-109220000D01*
X158747594Y-109212957D01*
X158744926Y-109208790D01*
X158724116Y-109174830D01*
X158721614Y-109170560D01*
X158706996Y-109144456D01*
X158704665Y-109140096D01*
X158589505Y-108914083D01*
X158587346Y-108909631D01*
X158574813Y-108882445D01*
X158572829Y-108877909D01*
X158557588Y-108841111D01*
X158555786Y-108836507D01*
X158545430Y-108808436D01*
X158543809Y-108803761D01*
X158513345Y-108710000D01*
X157978500Y-108710000D01*
X157978500Y-110236000D01*
X156793500Y-110236000D01*
X156793500Y-107696000D01*
X157978500Y-107696000D01*
X158399156Y-107696000D01*
X158437549Y-107453598D01*
X158438418Y-107448731D01*
X158444252Y-107419397D01*
X158445312Y-107414566D01*
X158454608Y-107375838D01*
X158455858Y-107371047D01*
X158463986Y-107342226D01*
X158465423Y-107337490D01*
X158543809Y-107096239D01*
X158545430Y-107091564D01*
X158555786Y-107063493D01*
X158557588Y-107058889D01*
X158572829Y-107022091D01*
X158574813Y-107017555D01*
X158587346Y-106990369D01*
X158589505Y-106985917D01*
X158704665Y-106759904D01*
X158706996Y-106755544D01*
X158721614Y-106729440D01*
X158724116Y-106725170D01*
X158744926Y-106691210D01*
X158747594Y-106687043D01*
X158752299Y-106680000D01*
X158747594Y-106672957D01*
X158744926Y-106668790D01*
X158724116Y-106634830D01*
X158721614Y-106630560D01*
X158706996Y-106604456D01*
X158704665Y-106600096D01*
X158589505Y-106374083D01*
X158587346Y-106369631D01*
X158574813Y-106342445D01*
X158572829Y-106337909D01*
X158557588Y-106301111D01*
X158555786Y-106296507D01*
X158545430Y-106268436D01*
X158543809Y-106263761D01*
X158513345Y-106170000D01*
X157978500Y-106170000D01*
X157978500Y-107696000D01*
X156793500Y-107696000D01*
X156793500Y-105156000D01*
X157978500Y-105156000D01*
X158399156Y-105156000D01*
X158437549Y-104913598D01*
X158438418Y-104908731D01*
X158444252Y-104879397D01*
X158445312Y-104874566D01*
X158454608Y-104835838D01*
X158455858Y-104831047D01*
X158463986Y-104802226D01*
X158465423Y-104797490D01*
X158543809Y-104556239D01*
X158545430Y-104551564D01*
X158555786Y-104523493D01*
X158557588Y-104518889D01*
X158572829Y-104482091D01*
X158574813Y-104477555D01*
X158587346Y-104450369D01*
X158589505Y-104445917D01*
X158704665Y-104219904D01*
X158706996Y-104215544D01*
X158721614Y-104189440D01*
X158724116Y-104185170D01*
X158744926Y-104151210D01*
X158747594Y-104147043D01*
X158752299Y-104140000D01*
X158747594Y-104132957D01*
X158744926Y-104128790D01*
X158724116Y-104094830D01*
X158721614Y-104090560D01*
X158706996Y-104064456D01*
X158704665Y-104060096D01*
X158589505Y-103834083D01*
X158587346Y-103829631D01*
X158574813Y-103802445D01*
X158572829Y-103797909D01*
X158557588Y-103761111D01*
X158555786Y-103756507D01*
X158545430Y-103728436D01*
X158543809Y-103723761D01*
X158513345Y-103630000D01*
X157978500Y-103630000D01*
X157978500Y-105156000D01*
X156793500Y-105156000D01*
X156793500Y-102920181D01*
X156753735Y-102771777D01*
X156746592Y-102759405D01*
X156715325Y-102705249D01*
X156715324Y-102705248D01*
X156707208Y-102691191D01*
X156676916Y-102638722D01*
X156654194Y-102616000D01*
X157978500Y-102616000D01*
X158399156Y-102616000D01*
X158437549Y-102373598D01*
X158438418Y-102368731D01*
X158444252Y-102339397D01*
X158445312Y-102334566D01*
X158454608Y-102295838D01*
X158455858Y-102291047D01*
X158463986Y-102262226D01*
X158465423Y-102257490D01*
X158543809Y-102016239D01*
X158545430Y-102011564D01*
X158555786Y-101983493D01*
X158557588Y-101978889D01*
X158572829Y-101942091D01*
X158574813Y-101937555D01*
X158587346Y-101910369D01*
X158589505Y-101905917D01*
X158704665Y-101679904D01*
X158706996Y-101675544D01*
X158721614Y-101649440D01*
X158724116Y-101645170D01*
X158744926Y-101611210D01*
X158747594Y-101607043D01*
X158752299Y-101600000D01*
X158747594Y-101592957D01*
X158744926Y-101588790D01*
X158724116Y-101554830D01*
X158721614Y-101550560D01*
X158706996Y-101524456D01*
X158704665Y-101520096D01*
X158589505Y-101294083D01*
X158587346Y-101289631D01*
X158574813Y-101262445D01*
X158572829Y-101257909D01*
X158557588Y-101221111D01*
X158555786Y-101216507D01*
X158545430Y-101188436D01*
X158543809Y-101183761D01*
X158513345Y-101090000D01*
X157978500Y-101090000D01*
X157978500Y-102616000D01*
X156654194Y-102616000D01*
X155833007Y-101794813D01*
X155798984Y-101732503D01*
X155804048Y-101661688D01*
X155846595Y-101604852D01*
X155873883Y-101589312D01*
X155957968Y-101554483D01*
X156090389Y-101466003D01*
X156203003Y-101353389D01*
X156291483Y-101220968D01*
X156352430Y-101073831D01*
X156372572Y-100972567D01*
X156405478Y-100909660D01*
X156467173Y-100874527D01*
X156471523Y-100873581D01*
X156572831Y-100853430D01*
X156719968Y-100792483D01*
X156852389Y-100704003D01*
X156965003Y-100591389D01*
X157053483Y-100458968D01*
X157114430Y-100311831D01*
X157145500Y-100155630D01*
X157145500Y-99996370D01*
X157114430Y-99840169D01*
X157053483Y-99693032D01*
X156965003Y-99560611D01*
X156965001Y-99560609D01*
X156964996Y-99560603D01*
X156852396Y-99448003D01*
X156852390Y-99447998D01*
X156852389Y-99447997D01*
X156719968Y-99359517D01*
X156572831Y-99298570D01*
X156494730Y-99283035D01*
X156416632Y-99267500D01*
X156416630Y-99267500D01*
X156257370Y-99267500D01*
X156257367Y-99267500D01*
X156140219Y-99290802D01*
X156101169Y-99298570D01*
X156049904Y-99319805D01*
X155954032Y-99359517D01*
X155821609Y-99447998D01*
X155821603Y-99448003D01*
X155709003Y-99560603D01*
X155708998Y-99560609D01*
X155675653Y-99610514D01*
X155620517Y-99693032D01*
X155559570Y-99840169D01*
X155543922Y-99918837D01*
X155539428Y-99941431D01*
X155506520Y-100004340D01*
X155444825Y-100039472D01*
X155440434Y-100040427D01*
X155339169Y-100060570D01*
X155217634Y-100110912D01*
X155192032Y-100121517D01*
X155059609Y-100209998D01*
X155059603Y-100210003D01*
X154947003Y-100322603D01*
X154946998Y-100322609D01*
X154858516Y-100455032D01*
X154858516Y-100455033D01*
X154831669Y-100519846D01*
X154787120Y-100575126D01*
X154719757Y-100597546D01*
X154702920Y-100597020D01*
X154697636Y-100596500D01*
X154697630Y-100596500D01*
X154538370Y-100596500D01*
X154538369Y-100596500D01*
X154538359Y-100596501D01*
X154506600Y-100602818D01*
X154435886Y-100596489D01*
X154379820Y-100552934D01*
X154357099Y-100495685D01*
X154355466Y-100483281D01*
X154355465Y-100483280D01*
X154294203Y-100335378D01*
X154294198Y-100335370D01*
X154196746Y-100208369D01*
X154069745Y-100110917D01*
X154069737Y-100110912D01*
X153921834Y-100049649D01*
X153863116Y-100041919D01*
X153863116Y-100547500D01*
X153843114Y-100615621D01*
X153789458Y-100662114D01*
X153737116Y-100673500D01*
X153589116Y-100673500D01*
X153520995Y-100653498D01*
X153474502Y-100599842D01*
X153463116Y-100547500D01*
X153463116Y-100041919D01*
X153463115Y-100041919D01*
X153404397Y-100049649D01*
X153256494Y-100110912D01*
X153256486Y-100110917D01*
X153129485Y-100208369D01*
X153032033Y-100335370D01*
X153032028Y-100335378D01*
X152970765Y-100483281D01*
X152959085Y-100571999D01*
X152959086Y-100572000D01*
X153117651Y-100572000D01*
X153185772Y-100592002D01*
X153232265Y-100645658D01*
X153242369Y-100715932D01*
X153212875Y-100780512D01*
X153194359Y-100797959D01*
X153188495Y-100802459D01*
X153122276Y-100828063D01*
X153111787Y-100828500D01*
X152587083Y-100828500D01*
X152518962Y-100808498D01*
X152472469Y-100754842D01*
X152462365Y-100684568D01*
X152491859Y-100619988D01*
X152497988Y-100613405D01*
X152519996Y-100591396D01*
X152520003Y-100591389D01*
X152608483Y-100458968D01*
X152669430Y-100311831D01*
X152700500Y-100155630D01*
X152700500Y-99996370D01*
X152669430Y-99840169D01*
X152608483Y-99693032D01*
X152520003Y-99560611D01*
X152520001Y-99560609D01*
X152519996Y-99560603D01*
X152457388Y-99497995D01*
X152423362Y-99435683D01*
X152428427Y-99364868D01*
X152457388Y-99319805D01*
X152731788Y-99045405D01*
X152794100Y-99011379D01*
X152820883Y-99008500D01*
X153231443Y-99008500D01*
X153299564Y-99028502D01*
X153336208Y-99064499D01*
X153422994Y-99194385D01*
X153423003Y-99194396D01*
X153535603Y-99306996D01*
X153535609Y-99307001D01*
X153535611Y-99307003D01*
X153668032Y-99395483D01*
X153815169Y-99456430D01*
X153971370Y-99487500D01*
X153971371Y-99487500D01*
X154130629Y-99487500D01*
X154130630Y-99487500D01*
X154286831Y-99456430D01*
X154433968Y-99395483D01*
X154566389Y-99307003D01*
X154679003Y-99194389D01*
X154767483Y-99061968D01*
X154828430Y-98914831D01*
X154859500Y-98758630D01*
X154859500Y-98599370D01*
X154828430Y-98443169D01*
X154767483Y-98296032D01*
X154679003Y-98163611D01*
X154679001Y-98163609D01*
X154678996Y-98163603D01*
X154566393Y-98051000D01*
X154566389Y-98050997D01*
X154544664Y-98036481D01*
X154524556Y-98017646D01*
X154523756Y-98018447D01*
X154408519Y-97903209D01*
X154374494Y-97840897D01*
X154371948Y-97817219D01*
X154371884Y-97817224D01*
X154371782Y-97815669D01*
X154371615Y-97814114D01*
X154371615Y-97813116D01*
X154371614Y-97813107D01*
X154354876Y-97685963D01*
X154356085Y-97685803D01*
X154356086Y-97640132D01*
X154354388Y-97639909D01*
X154367146Y-97543000D01*
X154354379Y-97543000D01*
X154286258Y-97522998D01*
X154254417Y-97493705D01*
X154225766Y-97456367D01*
X154766500Y-97456367D01*
X154766500Y-97615632D01*
X154779536Y-97681169D01*
X154797570Y-97771831D01*
X154858517Y-97918968D01*
X154921084Y-98012607D01*
X154946998Y-98051390D01*
X154947003Y-98051396D01*
X155059603Y-98163996D01*
X155059609Y-98164001D01*
X155059611Y-98164003D01*
X155192032Y-98252483D01*
X155339169Y-98313430D01*
X155495370Y-98344500D01*
X155495371Y-98344500D01*
X155654629Y-98344500D01*
X155654630Y-98344500D01*
X155810831Y-98313430D01*
X155957968Y-98252483D01*
X156090389Y-98164003D01*
X156203003Y-98051389D01*
X156266356Y-97956573D01*
X156320830Y-97911048D01*
X156391273Y-97902199D01*
X156455317Y-97932840D01*
X156492629Y-97993241D01*
X156494697Y-98001994D01*
X156512070Y-98089331D01*
X156573017Y-98236468D01*
X156645201Y-98344500D01*
X156661498Y-98368890D01*
X156661503Y-98368896D01*
X156774103Y-98481496D01*
X156774109Y-98481501D01*
X156774111Y-98481503D01*
X156906532Y-98569983D01*
X157053669Y-98630930D01*
X157209870Y-98662000D01*
X157209871Y-98662000D01*
X157369129Y-98662000D01*
X157369130Y-98662000D01*
X157525331Y-98630930D01*
X157672468Y-98569983D01*
X157804889Y-98481503D01*
X157917503Y-98368889D01*
X158005983Y-98236468D01*
X158066930Y-98089331D01*
X158098000Y-97933130D01*
X158098000Y-97773870D01*
X158066930Y-97617669D01*
X158005983Y-97470532D01*
X157917503Y-97338111D01*
X157917501Y-97338109D01*
X157917496Y-97338103D01*
X157804896Y-97225503D01*
X157804890Y-97225498D01*
X157804889Y-97225497D01*
X157672468Y-97137017D01*
X157525331Y-97076070D01*
X157447230Y-97060535D01*
X157369132Y-97045000D01*
X157369130Y-97045000D01*
X157209870Y-97045000D01*
X157209867Y-97045000D01*
X157092719Y-97068302D01*
X157053669Y-97076070D01*
X156951235Y-97118500D01*
X156906532Y-97137017D01*
X156774109Y-97225498D01*
X156774103Y-97225503D01*
X156661503Y-97338103D01*
X156661499Y-97338109D01*
X156661497Y-97338111D01*
X156640883Y-97368962D01*
X156598145Y-97432924D01*
X156543668Y-97478452D01*
X156473225Y-97487299D01*
X156409181Y-97456658D01*
X156371869Y-97396256D01*
X156369805Y-97387520D01*
X156352430Y-97300169D01*
X156291483Y-97153032D01*
X156203003Y-97020611D01*
X156203001Y-97020609D01*
X156202996Y-97020603D01*
X156090396Y-96908003D01*
X156090390Y-96907998D01*
X156089003Y-96907071D01*
X155957968Y-96819517D01*
X155810831Y-96758570D01*
X155732730Y-96743035D01*
X155654632Y-96727500D01*
X155654630Y-96727500D01*
X155495370Y-96727500D01*
X155495367Y-96727500D01*
X155378219Y-96750802D01*
X155339169Y-96758570D01*
X155270884Y-96786855D01*
X155192032Y-96819517D01*
X155059609Y-96907998D01*
X155059603Y-96908003D01*
X154947003Y-97020603D01*
X154946998Y-97020609D01*
X154910408Y-97075371D01*
X154858517Y-97153032D01*
X154797570Y-97300169D01*
X154795182Y-97312175D01*
X154766500Y-97456367D01*
X154225766Y-97456367D01*
X154223321Y-97453181D01*
X154197103Y-97419013D01*
X154131875Y-97368961D01*
X154090009Y-97311624D01*
X154085788Y-97240753D01*
X154120553Y-97178850D01*
X154183266Y-97145569D01*
X154208581Y-97143000D01*
X154367145Y-97143000D01*
X154367145Y-97142999D01*
X154355466Y-97054281D01*
X154355465Y-97054280D01*
X154294203Y-96906378D01*
X154294198Y-96906370D01*
X154196746Y-96779369D01*
X154069745Y-96681917D01*
X154069737Y-96681912D01*
X153921834Y-96620649D01*
X153863116Y-96612919D01*
X153863116Y-97118500D01*
X153843114Y-97186621D01*
X153789458Y-97233114D01*
X153737116Y-97244500D01*
X153589116Y-97244500D01*
X153520995Y-97224498D01*
X153474502Y-97170842D01*
X153463116Y-97118500D01*
X153463116Y-96612919D01*
X153463115Y-96612919D01*
X153404397Y-96620649D01*
X153256494Y-96681912D01*
X153256491Y-96681914D01*
X153153093Y-96761255D01*
X153086873Y-96786855D01*
X153017324Y-96772590D01*
X152966528Y-96722989D01*
X152952810Y-96685874D01*
X152948320Y-96663301D01*
X152923430Y-96538169D01*
X152862483Y-96391032D01*
X152774003Y-96258611D01*
X152774001Y-96258609D01*
X152773996Y-96258603D01*
X152661396Y-96146003D01*
X152661390Y-96145998D01*
X152661389Y-96145997D01*
X152528968Y-96057517D01*
X152381831Y-95996570D01*
X152295576Y-95979413D01*
X152225632Y-95965500D01*
X152225630Y-95965500D01*
X152066370Y-95965500D01*
X152066364Y-95965500D01*
X151964608Y-95985741D01*
X151893894Y-95979413D01*
X151837827Y-95935858D01*
X151827760Y-95919364D01*
X151818627Y-95901440D01*
X151818623Y-95901434D01*
X151701814Y-95757185D01*
X151557565Y-95640376D01*
X151557562Y-95640374D01*
X151392181Y-95556107D01*
X151212901Y-95508068D01*
X151135801Y-95502000D01*
X150703000Y-95502000D01*
X150703000Y-96634000D01*
X150682998Y-96702121D01*
X150629342Y-96748614D01*
X150577000Y-96760000D01*
X150449000Y-96760000D01*
X150449000Y-96888000D01*
X150428998Y-96956121D01*
X150375342Y-97002614D01*
X150323000Y-97014000D01*
X148941000Y-97014000D01*
X148941000Y-97196800D01*
X148947068Y-97273901D01*
X148995107Y-97453181D01*
X149079374Y-97618562D01*
X149079376Y-97618565D01*
X149196185Y-97762814D01*
X149256624Y-97811757D01*
X149296976Y-97870172D01*
X149299342Y-97941129D01*
X149262969Y-98002101D01*
X149256625Y-98007598D01*
X149195827Y-98056831D01*
X149078957Y-98201153D01*
X149078952Y-98201162D01*
X149005918Y-98344499D01*
X148994638Y-98366638D01*
X148990223Y-98383112D01*
X148953274Y-98443733D01*
X148889413Y-98474755D01*
X148868518Y-98476500D01*
X145783499Y-98476500D01*
X145715378Y-98456498D01*
X145668885Y-98402842D01*
X145657499Y-98350500D01*
X145657499Y-98003501D01*
X145677501Y-97935380D01*
X145731157Y-97888887D01*
X145801431Y-97878783D01*
X145831716Y-97887092D01*
X145941169Y-97932430D01*
X146097370Y-97963500D01*
X146097371Y-97963500D01*
X146256629Y-97963500D01*
X146256630Y-97963500D01*
X146412831Y-97932430D01*
X146559968Y-97871483D01*
X146692389Y-97783003D01*
X146805003Y-97670389D01*
X146893483Y-97537968D01*
X146954430Y-97390831D01*
X146985500Y-97234630D01*
X146985500Y-97075370D01*
X146954430Y-96919169D01*
X146893483Y-96772032D01*
X146805003Y-96639611D01*
X146805001Y-96639609D01*
X146804996Y-96639603D01*
X146692396Y-96527003D01*
X146692390Y-96526998D01*
X146692389Y-96526997D01*
X146559968Y-96438517D01*
X146412831Y-96377570D01*
X146334730Y-96362035D01*
X146256632Y-96346500D01*
X146256630Y-96346500D01*
X146097370Y-96346500D01*
X146097367Y-96346500D01*
X145980219Y-96369802D01*
X145941169Y-96377570D01*
X145794032Y-96438517D01*
X145661609Y-96526998D01*
X145661603Y-96527003D01*
X145549003Y-96639603D01*
X145548998Y-96639609D01*
X145460516Y-96772032D01*
X145460514Y-96772036D01*
X145448456Y-96801146D01*
X145403906Y-96856425D01*
X145336542Y-96878844D01*
X145267751Y-96861284D01*
X145252116Y-96850324D01*
X145212004Y-96817405D01*
X145036804Y-96723759D01*
X144927407Y-96690574D01*
X144846701Y-96666092D01*
X144846700Y-96666091D01*
X144846694Y-96666090D01*
X144715150Y-96653135D01*
X144649318Y-96626553D01*
X144608308Y-96568598D01*
X144601500Y-96527742D01*
X144601500Y-96323199D01*
X148941000Y-96323199D01*
X148941000Y-96506000D01*
X150195000Y-96506000D01*
X150195000Y-95502000D01*
X149762199Y-95502000D01*
X149685098Y-95508068D01*
X149505818Y-95556107D01*
X149340437Y-95640374D01*
X149340434Y-95640376D01*
X149196185Y-95757185D01*
X149079376Y-95901434D01*
X149079374Y-95901437D01*
X148995107Y-96066818D01*
X148947068Y-96246098D01*
X148941000Y-96323199D01*
X144601500Y-96323199D01*
X144601500Y-95840068D01*
X144621502Y-95771947D01*
X144675158Y-95725454D01*
X144745432Y-95715350D01*
X144810012Y-95744844D01*
X144832261Y-95770061D01*
X144913997Y-95892389D01*
X144914000Y-95892392D01*
X144914003Y-95892396D01*
X145026603Y-96004996D01*
X145026609Y-96005001D01*
X145026611Y-96005003D01*
X145159032Y-96093483D01*
X145306169Y-96154430D01*
X145462370Y-96185500D01*
X145462371Y-96185500D01*
X145621629Y-96185500D01*
X145621630Y-96185500D01*
X145777831Y-96154430D01*
X145924968Y-96093483D01*
X146057389Y-96005003D01*
X146170003Y-95892389D01*
X146258483Y-95759968D01*
X146319430Y-95612831D01*
X146350500Y-95456630D01*
X146350500Y-95297370D01*
X146319430Y-95141169D01*
X146259298Y-94996000D01*
X147818500Y-94996000D01*
X148218019Y-94996000D01*
X152898500Y-94996000D01*
X154424500Y-94996000D01*
X155438500Y-94996000D01*
X156964500Y-94996000D01*
X157978500Y-94996000D01*
X158399156Y-94996000D01*
X158437549Y-94753598D01*
X158438418Y-94748731D01*
X158444252Y-94719397D01*
X158445312Y-94714566D01*
X158454608Y-94675838D01*
X158455858Y-94671047D01*
X158463986Y-94642226D01*
X158465423Y-94637490D01*
X158543809Y-94396239D01*
X158545430Y-94391564D01*
X158555786Y-94363493D01*
X158557588Y-94358889D01*
X158572829Y-94322091D01*
X158574813Y-94317555D01*
X158587346Y-94290369D01*
X158589505Y-94285917D01*
X158704665Y-94059904D01*
X158706996Y-94055544D01*
X158721614Y-94029440D01*
X158724116Y-94025170D01*
X158744926Y-93991210D01*
X158747594Y-93987043D01*
X158752299Y-93980000D01*
X158747594Y-93972957D01*
X158744926Y-93968790D01*
X158724116Y-93934830D01*
X158721614Y-93930560D01*
X158706996Y-93904456D01*
X158704665Y-93900096D01*
X158589505Y-93674083D01*
X158587346Y-93669631D01*
X158574813Y-93642445D01*
X158572829Y-93637909D01*
X158557588Y-93601111D01*
X158555786Y-93596507D01*
X158545430Y-93568436D01*
X158543809Y-93563761D01*
X158513345Y-93470000D01*
X157978500Y-93470000D01*
X157978500Y-94996000D01*
X156964500Y-94996000D01*
X156964500Y-93470000D01*
X155438500Y-93470000D01*
X155438500Y-94996000D01*
X154424500Y-94996000D01*
X154424500Y-93470000D01*
X152898500Y-93470000D01*
X152898500Y-94996000D01*
X148218019Y-94996000D01*
X148255424Y-94880879D01*
X148262990Y-94862613D01*
X148348098Y-94695578D01*
X148358429Y-94678719D01*
X148468620Y-94527054D01*
X148481461Y-94512020D01*
X148599500Y-94393981D01*
X150358500Y-94393981D01*
X150460270Y-94495751D01*
X150499238Y-94488000D01*
X151153219Y-94488000D01*
X151158157Y-94488097D01*
X151193009Y-94489464D01*
X151197958Y-94489755D01*
X151315609Y-94499015D01*
X151321350Y-94499600D01*
X151355974Y-94503928D01*
X151361676Y-94504774D01*
X151407476Y-94512641D01*
X151413145Y-94513749D01*
X151447274Y-94521236D01*
X151452887Y-94522603D01*
X151680273Y-94583533D01*
X151686595Y-94585405D01*
X151724530Y-94597730D01*
X151730744Y-94599930D01*
X151780330Y-94618961D01*
X151786430Y-94621488D01*
X151822904Y-94637727D01*
X151828859Y-94640567D01*
X151884500Y-94668917D01*
X151884500Y-93470000D01*
X150358500Y-93470000D01*
X150358500Y-94393981D01*
X148599500Y-94393981D01*
X148614020Y-94379461D01*
X148629054Y-94366620D01*
X148780719Y-94256429D01*
X148797578Y-94246098D01*
X148964613Y-94160990D01*
X148982879Y-94153424D01*
X149161171Y-94095493D01*
X149180396Y-94090877D01*
X149344500Y-94064885D01*
X149344500Y-93470000D01*
X147818500Y-93470000D01*
X147818500Y-94996000D01*
X146259298Y-94996000D01*
X146258483Y-94994032D01*
X146170003Y-94861611D01*
X146170001Y-94861609D01*
X146169996Y-94861603D01*
X146057396Y-94749003D01*
X146057390Y-94748998D01*
X146057389Y-94748997D01*
X145924968Y-94660517D01*
X145777831Y-94599570D01*
X145697207Y-94583533D01*
X145621632Y-94568500D01*
X145621630Y-94568500D01*
X145462370Y-94568500D01*
X145462367Y-94568500D01*
X145345219Y-94591802D01*
X145306169Y-94599570D01*
X145306167Y-94599571D01*
X145159032Y-94660517D01*
X145026609Y-94748998D01*
X145026603Y-94749003D01*
X144914003Y-94861603D01*
X144913998Y-94861609D01*
X144832265Y-94983933D01*
X144777788Y-95029461D01*
X144707345Y-95038309D01*
X144643301Y-95007668D01*
X144605990Y-94947266D01*
X144601500Y-94913931D01*
X144601500Y-92456000D01*
X145615500Y-92456000D01*
X146804500Y-92456000D01*
X147818500Y-92456000D01*
X149344500Y-92456000D01*
X150358500Y-92456000D01*
X151884500Y-92456000D01*
X152898500Y-92456000D01*
X154424500Y-92456000D01*
X155438500Y-92456000D01*
X156964500Y-92456000D01*
X157978500Y-92456000D01*
X158399156Y-92456000D01*
X158437549Y-92213598D01*
X158438418Y-92208731D01*
X158444252Y-92179397D01*
X158445312Y-92174566D01*
X158454608Y-92135838D01*
X158455858Y-92131047D01*
X158463986Y-92102226D01*
X158465423Y-92097490D01*
X158543809Y-91856239D01*
X158545430Y-91851564D01*
X158555786Y-91823493D01*
X158557588Y-91818889D01*
X158572829Y-91782091D01*
X158574813Y-91777555D01*
X158587346Y-91750369D01*
X158589505Y-91745917D01*
X158704665Y-91519904D01*
X158706996Y-91515544D01*
X158721614Y-91489440D01*
X158724116Y-91485170D01*
X158744926Y-91451210D01*
X158747594Y-91447043D01*
X158752601Y-91439548D01*
X158748035Y-91432715D01*
X158745367Y-91428548D01*
X158724555Y-91394586D01*
X158722055Y-91390320D01*
X158707429Y-91364205D01*
X158705095Y-91359839D01*
X158589969Y-91133890D01*
X158587810Y-91129438D01*
X158575277Y-91102252D01*
X158573293Y-91097717D01*
X158558052Y-91060920D01*
X158556249Y-91056311D01*
X158545894Y-91028240D01*
X158544274Y-91023570D01*
X158513871Y-90930000D01*
X157978500Y-90930000D01*
X157978500Y-92456000D01*
X156964500Y-92456000D01*
X156964500Y-90930000D01*
X155438500Y-90930000D01*
X155438500Y-92456000D01*
X154424500Y-92456000D01*
X154424500Y-90930000D01*
X152898500Y-90930000D01*
X152898500Y-92456000D01*
X151884500Y-92456000D01*
X151884500Y-90930000D01*
X150358500Y-90930000D01*
X150358500Y-92456000D01*
X149344500Y-92456000D01*
X149344500Y-90930000D01*
X147818500Y-90930000D01*
X147818500Y-92456000D01*
X146804500Y-92456000D01*
X146804500Y-90930000D01*
X145615500Y-90930000D01*
X145615500Y-92456000D01*
X144601500Y-92456000D01*
X144601500Y-89916000D01*
X145615500Y-89916000D01*
X146804500Y-89916000D01*
X147818500Y-89916000D01*
X149344500Y-89916000D01*
X150358500Y-89916000D01*
X151884500Y-89916000D01*
X152898500Y-89916000D01*
X154424500Y-89916000D01*
X155438500Y-89916000D01*
X156300990Y-89916000D01*
X156293739Y-89900669D01*
X156291232Y-89895014D01*
X156211230Y-89701872D01*
X156209005Y-89696104D01*
X156196400Y-89660877D01*
X156194459Y-89655002D01*
X156180005Y-89607353D01*
X156178356Y-89601394D01*
X156169266Y-89565105D01*
X156167911Y-89559071D01*
X156127125Y-89354030D01*
X156126067Y-89347934D01*
X156120576Y-89310913D01*
X156119819Y-89304773D01*
X156114940Y-89255220D01*
X156114486Y-89249053D01*
X156112652Y-89211699D01*
X156112500Y-89205520D01*
X156112500Y-89021367D01*
X157126500Y-89021367D01*
X157126500Y-89021370D01*
X157126500Y-89180630D01*
X157157570Y-89336831D01*
X157218517Y-89483968D01*
X157306997Y-89616389D01*
X157306998Y-89616390D01*
X157307003Y-89616396D01*
X157419603Y-89728996D01*
X157419609Y-89729001D01*
X157419611Y-89729003D01*
X157552032Y-89817483D01*
X157699169Y-89878430D01*
X157855370Y-89909500D01*
X157855371Y-89909500D01*
X158014629Y-89909500D01*
X158014630Y-89909500D01*
X158170831Y-89878430D01*
X158317968Y-89817483D01*
X158450389Y-89729003D01*
X158563003Y-89616389D01*
X158651483Y-89483968D01*
X158712430Y-89336831D01*
X158743500Y-89180630D01*
X158743500Y-89021370D01*
X158712430Y-88865169D01*
X158651483Y-88718032D01*
X158563003Y-88585611D01*
X158563001Y-88585609D01*
X158562996Y-88585603D01*
X158450396Y-88473003D01*
X158450390Y-88472998D01*
X158450389Y-88472997D01*
X158317968Y-88384517D01*
X158170831Y-88323570D01*
X158092730Y-88308035D01*
X158014632Y-88292500D01*
X158014630Y-88292500D01*
X157855370Y-88292500D01*
X157855367Y-88292500D01*
X157738219Y-88315802D01*
X157699169Y-88323570D01*
X157699167Y-88323571D01*
X157552032Y-88384517D01*
X157419609Y-88472998D01*
X157419603Y-88473003D01*
X157307003Y-88585603D01*
X157306998Y-88585609D01*
X157272730Y-88636895D01*
X157218517Y-88718032D01*
X157186493Y-88795345D01*
X157157571Y-88865167D01*
X157157570Y-88865170D01*
X157126500Y-89021367D01*
X156112500Y-89021367D01*
X156112500Y-88996480D01*
X156112652Y-88990301D01*
X156114486Y-88952947D01*
X156114940Y-88946780D01*
X156119819Y-88897227D01*
X156120576Y-88891087D01*
X156126067Y-88854066D01*
X156127125Y-88847970D01*
X156167911Y-88642929D01*
X156169266Y-88636895D01*
X156178356Y-88600606D01*
X156180005Y-88594647D01*
X156194459Y-88546998D01*
X156196400Y-88541123D01*
X156209005Y-88505896D01*
X156211230Y-88500128D01*
X156256846Y-88390000D01*
X155438500Y-88390000D01*
X155438500Y-89916000D01*
X154424500Y-89916000D01*
X154424500Y-88390000D01*
X152898500Y-88390000D01*
X152898500Y-89916000D01*
X151884500Y-89916000D01*
X151884500Y-88390000D01*
X150358500Y-88390000D01*
X150358500Y-89916000D01*
X149344500Y-89916000D01*
X149344500Y-88390000D01*
X147818500Y-88390000D01*
X147818500Y-89916000D01*
X146804500Y-89916000D01*
X146804500Y-88390000D01*
X145615500Y-88390000D01*
X145615500Y-89916000D01*
X144601500Y-89916000D01*
X144601500Y-87376000D01*
X145615500Y-87376000D01*
X146804500Y-87376000D01*
X147818500Y-87376000D01*
X149344500Y-87376000D01*
X150358500Y-87376000D01*
X151884500Y-87376000D01*
X152898500Y-87376000D01*
X154424500Y-87376000D01*
X155438500Y-87376000D01*
X156964500Y-87376000D01*
X156964500Y-87278500D01*
X157978500Y-87278500D01*
X158039520Y-87278500D01*
X158045699Y-87278652D01*
X158083053Y-87280486D01*
X158089220Y-87280940D01*
X158138773Y-87285819D01*
X158144913Y-87286576D01*
X158181934Y-87292067D01*
X158188030Y-87293125D01*
X158393071Y-87333911D01*
X158399105Y-87335266D01*
X158405359Y-87336832D01*
X158437549Y-87133598D01*
X158438418Y-87128731D01*
X158444252Y-87099397D01*
X158445312Y-87094566D01*
X158454608Y-87055838D01*
X158455858Y-87051047D01*
X158463986Y-87022226D01*
X158465423Y-87017490D01*
X158543809Y-86776239D01*
X158545430Y-86771564D01*
X158555786Y-86743493D01*
X158557588Y-86738889D01*
X158572829Y-86702091D01*
X158574813Y-86697555D01*
X158587346Y-86670369D01*
X158589505Y-86665917D01*
X158704665Y-86439904D01*
X158706996Y-86435544D01*
X158721614Y-86409440D01*
X158724116Y-86405170D01*
X158744926Y-86371210D01*
X158747594Y-86367043D01*
X158752299Y-86360000D01*
X158747594Y-86352957D01*
X158744926Y-86348790D01*
X158724116Y-86314830D01*
X158721614Y-86310560D01*
X158706996Y-86284456D01*
X158704665Y-86280096D01*
X158589505Y-86054083D01*
X158587346Y-86049631D01*
X158574813Y-86022445D01*
X158572829Y-86017909D01*
X158557588Y-85981111D01*
X158555786Y-85976507D01*
X158545430Y-85948436D01*
X158543809Y-85943761D01*
X158513345Y-85850000D01*
X157978500Y-85850000D01*
X157978500Y-87278500D01*
X156964500Y-87278500D01*
X156964500Y-85850000D01*
X155438500Y-85850000D01*
X155438500Y-87376000D01*
X154424500Y-87376000D01*
X154424500Y-85850000D01*
X152898500Y-85850000D01*
X152898500Y-87376000D01*
X151884500Y-87376000D01*
X151884500Y-85850000D01*
X150358500Y-85850000D01*
X150358500Y-87376000D01*
X149344500Y-87376000D01*
X149344500Y-85850000D01*
X147818500Y-85850000D01*
X147818500Y-87376000D01*
X146804500Y-87376000D01*
X146804500Y-85850000D01*
X145615500Y-85850000D01*
X145615500Y-87376000D01*
X144601500Y-87376000D01*
X144601500Y-83489181D01*
X144601499Y-83489179D01*
X144598479Y-83477909D01*
X144586983Y-83435004D01*
X144561736Y-83340778D01*
X144543966Y-83310000D01*
X145600000Y-83310000D01*
X145601147Y-83315768D01*
X145602490Y-83323901D01*
X145611159Y-83389743D01*
X145611967Y-83397950D01*
X145615230Y-83447735D01*
X145615500Y-83455976D01*
X145615500Y-84836000D01*
X146804500Y-84836000D01*
X147818500Y-84836000D01*
X149344500Y-84836000D01*
X150358500Y-84836000D01*
X151884500Y-84836000D01*
X152898500Y-84836000D01*
X154424500Y-84836000D01*
X155438500Y-84836000D01*
X156964500Y-84836000D01*
X157978500Y-84836000D01*
X158399156Y-84836000D01*
X158437549Y-84593598D01*
X158438418Y-84588731D01*
X158444252Y-84559397D01*
X158445312Y-84554566D01*
X158454608Y-84515838D01*
X158455858Y-84511047D01*
X158463986Y-84482226D01*
X158465423Y-84477490D01*
X158543809Y-84236239D01*
X158545430Y-84231564D01*
X158555786Y-84203493D01*
X158557588Y-84198889D01*
X158572829Y-84162091D01*
X158574813Y-84157555D01*
X158587346Y-84130369D01*
X158589505Y-84125917D01*
X158704665Y-83899904D01*
X158706996Y-83895544D01*
X158721614Y-83869440D01*
X158724116Y-83865170D01*
X158744926Y-83831210D01*
X158747594Y-83827043D01*
X158752299Y-83820000D01*
X158747594Y-83812957D01*
X158744926Y-83808790D01*
X158724116Y-83774830D01*
X158721614Y-83770560D01*
X158706996Y-83744456D01*
X158704665Y-83740096D01*
X158589505Y-83514083D01*
X158587346Y-83509631D01*
X158574813Y-83482445D01*
X158572829Y-83477909D01*
X158557588Y-83441111D01*
X158555786Y-83436507D01*
X158545430Y-83408436D01*
X158543809Y-83403761D01*
X158513345Y-83310000D01*
X157978500Y-83310000D01*
X157978500Y-84836000D01*
X156964500Y-84836000D01*
X156964500Y-83310000D01*
X155438500Y-83310000D01*
X155438500Y-84836000D01*
X154424500Y-84836000D01*
X154424500Y-83310000D01*
X152898500Y-83310000D01*
X152898500Y-84836000D01*
X151884500Y-84836000D01*
X151884500Y-83310000D01*
X150358500Y-83310000D01*
X150358500Y-84836000D01*
X149344500Y-84836000D01*
X149344500Y-83310000D01*
X147818500Y-83310000D01*
X147818500Y-84836000D01*
X146804500Y-84836000D01*
X146804500Y-83310000D01*
X145600000Y-83310000D01*
X144543966Y-83310000D01*
X144484916Y-83207723D01*
X144484914Y-83207721D01*
X144484910Y-83207716D01*
X143573194Y-82296000D01*
X145278500Y-82296000D01*
X146804500Y-82296000D01*
X147818500Y-82296000D01*
X149344500Y-82296000D01*
X150358500Y-82296000D01*
X151884500Y-82296000D01*
X152898500Y-82296000D01*
X154424500Y-82296000D01*
X155438500Y-82296000D01*
X156964500Y-82296000D01*
X157978500Y-82296000D01*
X158399156Y-82296000D01*
X158437549Y-82053598D01*
X158438418Y-82048731D01*
X158444252Y-82019397D01*
X158445312Y-82014566D01*
X158454608Y-81975838D01*
X158455858Y-81971047D01*
X158463986Y-81942226D01*
X158465423Y-81937490D01*
X158543809Y-81696239D01*
X158545430Y-81691564D01*
X158555786Y-81663493D01*
X158557588Y-81658889D01*
X158572829Y-81622091D01*
X158574813Y-81617555D01*
X158587346Y-81590369D01*
X158589505Y-81585917D01*
X158704665Y-81359904D01*
X158706996Y-81355544D01*
X158721614Y-81329440D01*
X158724116Y-81325170D01*
X158744926Y-81291210D01*
X158747594Y-81287043D01*
X158752299Y-81280000D01*
X158747594Y-81272957D01*
X158744926Y-81268790D01*
X158724116Y-81234830D01*
X158721614Y-81230560D01*
X158706996Y-81204456D01*
X158704665Y-81200096D01*
X158589505Y-80974083D01*
X158587346Y-80969631D01*
X158574813Y-80942445D01*
X158572829Y-80937909D01*
X158557588Y-80901111D01*
X158555786Y-80896507D01*
X158545430Y-80868436D01*
X158543809Y-80863761D01*
X158513345Y-80770000D01*
X157978500Y-80770000D01*
X157978500Y-82296000D01*
X156964500Y-82296000D01*
X156964500Y-80770000D01*
X155438500Y-80770000D01*
X155438500Y-82296000D01*
X154424500Y-82296000D01*
X154424500Y-80770000D01*
X152898500Y-80770000D01*
X152898500Y-82296000D01*
X151884500Y-82296000D01*
X151884500Y-80770000D01*
X150358500Y-80770000D01*
X150358500Y-82296000D01*
X149344500Y-82296000D01*
X149344500Y-80770000D01*
X147818500Y-80770000D01*
X147818500Y-82296000D01*
X146804500Y-82296000D01*
X146804500Y-80770000D01*
X145278500Y-80770000D01*
X145278500Y-82296000D01*
X143573194Y-82296000D01*
X141033193Y-79756000D01*
X142738500Y-79756000D01*
X144264500Y-79756000D01*
X145278500Y-79756000D01*
X146804500Y-79756000D01*
X147818500Y-79756000D01*
X149344500Y-79756000D01*
X150358500Y-79756000D01*
X151884500Y-79756000D01*
X152898500Y-79756000D01*
X154424500Y-79756000D01*
X155438500Y-79756000D01*
X156964500Y-79756000D01*
X157978500Y-79756000D01*
X158399156Y-79756000D01*
X158437549Y-79513598D01*
X158438418Y-79508731D01*
X158444252Y-79479397D01*
X158445312Y-79474566D01*
X158454608Y-79435838D01*
X158455858Y-79431047D01*
X158463986Y-79402226D01*
X158465423Y-79397490D01*
X158543809Y-79156239D01*
X158545430Y-79151564D01*
X158555786Y-79123493D01*
X158557588Y-79118889D01*
X158572829Y-79082091D01*
X158574813Y-79077555D01*
X158587346Y-79050369D01*
X158589505Y-79045917D01*
X158704665Y-78819904D01*
X158706996Y-78815544D01*
X158721614Y-78789440D01*
X158724116Y-78785170D01*
X158744926Y-78751210D01*
X158747594Y-78747043D01*
X158752299Y-78740000D01*
X158747594Y-78732957D01*
X158744926Y-78728790D01*
X158724116Y-78694830D01*
X158721614Y-78690560D01*
X158706996Y-78664456D01*
X158704665Y-78660096D01*
X158589505Y-78434083D01*
X158587346Y-78429631D01*
X158574813Y-78402445D01*
X158572829Y-78397909D01*
X158557588Y-78361111D01*
X158555786Y-78356507D01*
X158545430Y-78328436D01*
X158543809Y-78323761D01*
X158513345Y-78230000D01*
X157978500Y-78230000D01*
X157978500Y-79756000D01*
X156964500Y-79756000D01*
X156964500Y-78230000D01*
X155438500Y-78230000D01*
X155438500Y-79756000D01*
X154424500Y-79756000D01*
X154424500Y-78230000D01*
X152898500Y-78230000D01*
X152898500Y-79756000D01*
X151884500Y-79756000D01*
X151884500Y-78230000D01*
X150358500Y-78230000D01*
X150358500Y-79756000D01*
X149344500Y-79756000D01*
X149344500Y-78230000D01*
X147818500Y-78230000D01*
X147818500Y-79756000D01*
X146804500Y-79756000D01*
X146804500Y-78230000D01*
X145278500Y-78230000D01*
X145278500Y-79756000D01*
X144264500Y-79756000D01*
X144264500Y-78230000D01*
X142738500Y-78230000D01*
X142738500Y-79756000D01*
X141033193Y-79756000D01*
X138493193Y-77216000D01*
X140198500Y-77216000D01*
X141724500Y-77216000D01*
X142738500Y-77216000D01*
X144264500Y-77216000D01*
X145278500Y-77216000D01*
X146804500Y-77216000D01*
X147818500Y-77216000D01*
X149344500Y-77216000D01*
X150358500Y-77216000D01*
X151884500Y-77216000D01*
X152898500Y-77216000D01*
X154424500Y-77216000D01*
X155438500Y-77216000D01*
X156964500Y-77216000D01*
X157978500Y-77216000D01*
X158399156Y-77216000D01*
X158437549Y-76973598D01*
X158438418Y-76968731D01*
X158444252Y-76939397D01*
X158445312Y-76934566D01*
X158454608Y-76895838D01*
X158455858Y-76891047D01*
X158463986Y-76862226D01*
X158465423Y-76857490D01*
X158543809Y-76616239D01*
X158545430Y-76611564D01*
X158555786Y-76583493D01*
X158557588Y-76578889D01*
X158572829Y-76542091D01*
X158574813Y-76537555D01*
X158579286Y-76527852D01*
X158553214Y-76480100D01*
X158549190Y-76472059D01*
X158526586Y-76422561D01*
X158523144Y-76414253D01*
X158448362Y-76213753D01*
X158445844Y-76206298D01*
X158432019Y-76160724D01*
X158429970Y-76153123D01*
X158415394Y-76091439D01*
X158413824Y-76083726D01*
X158405789Y-76036796D01*
X158404704Y-76029004D01*
X158393358Y-75923486D01*
X158393042Y-75920122D01*
X158391404Y-75899768D01*
X158391178Y-75896398D01*
X158389726Y-75869282D01*
X158389591Y-75865919D01*
X158389045Y-75845535D01*
X158389000Y-75842161D01*
X158389000Y-75690000D01*
X157978500Y-75690000D01*
X157978500Y-77216000D01*
X156964500Y-77216000D01*
X156964500Y-75690000D01*
X155438500Y-75690000D01*
X155438500Y-77216000D01*
X154424500Y-77216000D01*
X154424500Y-75690000D01*
X152898500Y-75690000D01*
X152898500Y-77216000D01*
X151884500Y-77216000D01*
X151884500Y-75690000D01*
X150358500Y-75690000D01*
X150358500Y-77216000D01*
X149344500Y-77216000D01*
X149344500Y-75690000D01*
X147818500Y-75690000D01*
X147818500Y-77216000D01*
X146804500Y-77216000D01*
X146804500Y-75690000D01*
X145278500Y-75690000D01*
X145278500Y-77216000D01*
X144264500Y-77216000D01*
X144264500Y-75690000D01*
X142738500Y-75690000D01*
X142738500Y-77216000D01*
X141724500Y-77216000D01*
X141724500Y-75690000D01*
X140198500Y-75690000D01*
X140198500Y-77216000D01*
X138493193Y-77216000D01*
X137333326Y-76056133D01*
X137299300Y-75993821D01*
X137304365Y-75923006D01*
X137317656Y-75897036D01*
X137368483Y-75820968D01*
X137429430Y-75673831D01*
X137460500Y-75517630D01*
X137460500Y-75358370D01*
X137429430Y-75202169D01*
X137368483Y-75055032D01*
X137280003Y-74922611D01*
X137280001Y-74922609D01*
X137279996Y-74922603D01*
X137167396Y-74810003D01*
X137167390Y-74809998D01*
X137167389Y-74809997D01*
X137034968Y-74721517D01*
X136887831Y-74660570D01*
X136804457Y-74643986D01*
X136731632Y-74629500D01*
X136731630Y-74629500D01*
X136572370Y-74629500D01*
X136572367Y-74629500D01*
X136416168Y-74660570D01*
X136416163Y-74660572D01*
X136319218Y-74700728D01*
X136248628Y-74708317D01*
X136222782Y-74700728D01*
X136125836Y-74660572D01*
X136125831Y-74660570D01*
X135969632Y-74629500D01*
X135969630Y-74629500D01*
X135810370Y-74629500D01*
X135810367Y-74629500D01*
X135693219Y-74652802D01*
X135654169Y-74660570D01*
X135616918Y-74676000D01*
X135507031Y-74721517D01*
X135507027Y-74721519D01*
X135391501Y-74798711D01*
X135323748Y-74819926D01*
X135255282Y-74801143D01*
X135207839Y-74748325D01*
X135195500Y-74693946D01*
X135195500Y-74299710D01*
X138080509Y-74299710D01*
X138083457Y-74303487D01*
X138105730Y-74333521D01*
X138109288Y-74338574D01*
X138225423Y-74512384D01*
X138228730Y-74517605D01*
X138247961Y-74549688D01*
X138251011Y-74555071D01*
X138274483Y-74598983D01*
X138277263Y-74604507D01*
X138293261Y-74638331D01*
X138295768Y-74643986D01*
X138309029Y-74676000D01*
X139184500Y-74676000D01*
X140198500Y-74676000D01*
X141724500Y-74676000D01*
X142738500Y-74676000D01*
X144264500Y-74676000D01*
X145278500Y-74676000D01*
X146804500Y-74676000D01*
X147818500Y-74676000D01*
X149344500Y-74676000D01*
X150358500Y-74676000D01*
X151884500Y-74676000D01*
X152898500Y-74676000D01*
X154424500Y-74676000D01*
X155438500Y-74676000D01*
X156964500Y-74676000D01*
X156964500Y-74309356D01*
X156809058Y-74252781D01*
X156803932Y-74250788D01*
X156773196Y-74238056D01*
X156768163Y-74235841D01*
X156728055Y-74217137D01*
X156723124Y-74214706D01*
X156693643Y-74199358D01*
X156688828Y-74196716D01*
X156497682Y-74086360D01*
X156492982Y-74083508D01*
X156464933Y-74065639D01*
X156460360Y-74062583D01*
X156428109Y-74040000D01*
X155438500Y-74040000D01*
X155438500Y-74676000D01*
X154424500Y-74676000D01*
X154424500Y-74040000D01*
X152898500Y-74040000D01*
X152898500Y-74676000D01*
X151884500Y-74676000D01*
X151884500Y-74040000D01*
X150358500Y-74040000D01*
X150358500Y-74676000D01*
X149344500Y-74676000D01*
X149344500Y-74040000D01*
X147818500Y-74040000D01*
X147818500Y-74676000D01*
X146804500Y-74676000D01*
X146804500Y-74040000D01*
X145278500Y-74040000D01*
X145278500Y-74676000D01*
X144264500Y-74676000D01*
X144264500Y-74040000D01*
X142738500Y-74040000D01*
X142738500Y-74676000D01*
X141724500Y-74676000D01*
X141724500Y-74040000D01*
X140198500Y-74040000D01*
X140198500Y-74676000D01*
X139184500Y-74676000D01*
X139184500Y-74040000D01*
X138590395Y-74040000D01*
X138558102Y-74062609D01*
X138553532Y-74065662D01*
X138525510Y-74083512D01*
X138520816Y-74086360D01*
X138329679Y-74196714D01*
X138324862Y-74199357D01*
X138295363Y-74214714D01*
X138290428Y-74217147D01*
X138250318Y-74235850D01*
X138245288Y-74238064D01*
X138214567Y-74250789D01*
X138209444Y-74252781D01*
X138080509Y-74299710D01*
X135195500Y-74299710D01*
X135195500Y-74031367D01*
X135195499Y-74031350D01*
X135188990Y-73970803D01*
X135188988Y-73970795D01*
X135137978Y-73834035D01*
X135137889Y-73833796D01*
X135137888Y-73833794D01*
X135137887Y-73833792D01*
X135050261Y-73716738D01*
X134928207Y-73625370D01*
X134885660Y-73568534D01*
X134880596Y-73497719D01*
X134914621Y-73435406D01*
X134976933Y-73401381D01*
X135003716Y-73398502D01*
X137488659Y-73398502D01*
X137488687Y-73398500D01*
X137502232Y-73398500D01*
X137502234Y-73398500D01*
X137676018Y-73367857D01*
X137841840Y-73307502D01*
X137994662Y-73219270D01*
X138129842Y-73105840D01*
X138243271Y-72970661D01*
X138248848Y-72961000D01*
X138300229Y-72912008D01*
X138357967Y-72898000D01*
X156660533Y-72898000D01*
X156728654Y-72918002D01*
G37*
%TD.AperFunction*%
%TA.AperFunction,Conductor*%
G36*
X133371075Y-108142993D02*
G01*
X133436901Y-108257007D01*
X133529993Y-108350099D01*
X133644007Y-108415925D01*
X133712051Y-108434157D01*
X133072831Y-109073378D01*
X133125247Y-109111461D01*
X133126566Y-109112270D01*
X133126962Y-109112708D01*
X133129258Y-109114376D01*
X133128907Y-109114858D01*
X133174199Y-109164915D01*
X133185809Y-109234956D01*
X133157708Y-109300155D01*
X133128925Y-109325098D01*
X133128996Y-109325196D01*
X133127862Y-109326019D01*
X133126580Y-109327131D01*
X133124998Y-109328100D01*
X132951993Y-109453796D01*
X132951990Y-109453798D01*
X132800798Y-109604990D01*
X132800796Y-109604993D01*
X132675108Y-109777987D01*
X132578029Y-109968515D01*
X132578028Y-109968517D01*
X132572333Y-109986046D01*
X132532259Y-110044651D01*
X132466862Y-110072288D01*
X132396906Y-110060181D01*
X132344600Y-110012175D01*
X132326500Y-109947109D01*
X132326500Y-108491270D01*
X132346502Y-108423149D01*
X132400158Y-108376656D01*
X132470432Y-108366552D01*
X132535012Y-108396046D01*
X132572333Y-108452335D01*
X132578489Y-108471283D01*
X132578493Y-108471292D01*
X132675535Y-108661748D01*
X132675536Y-108661750D01*
X132713620Y-108714167D01*
X132713621Y-108714168D01*
X133352841Y-108074947D01*
X133371075Y-108142993D01*
G37*
%TD.AperFunction*%
%TA.AperFunction,Conductor*%
G36*
X132535012Y-105857666D02*
G01*
X132572331Y-105913951D01*
X132578028Y-105931483D01*
X132675106Y-106122009D01*
X132800794Y-106295004D01*
X132800796Y-106295006D01*
X132800798Y-106295009D01*
X132951990Y-106446201D01*
X132951993Y-106446203D01*
X132951996Y-106446206D01*
X133124991Y-106571894D01*
X133125001Y-106571899D01*
X133126567Y-106572859D01*
X133127042Y-106573384D01*
X133128996Y-106574804D01*
X133128697Y-106575214D01*
X133174200Y-106625505D01*
X133185808Y-106695546D01*
X133157707Y-106760745D01*
X133129157Y-106785484D01*
X133129259Y-106785624D01*
X133127639Y-106786800D01*
X133126574Y-106787724D01*
X133125261Y-106788528D01*
X133072831Y-106826621D01*
X133072831Y-106826622D01*
X133712051Y-107465842D01*
X133644007Y-107484075D01*
X133529993Y-107549901D01*
X133436901Y-107642993D01*
X133371075Y-107757007D01*
X133352842Y-107825051D01*
X132713622Y-107185831D01*
X132713621Y-107185831D01*
X132675534Y-107238253D01*
X132578493Y-107428707D01*
X132578492Y-107428709D01*
X132572333Y-107447666D01*
X132532259Y-107506271D01*
X132466862Y-107533908D01*
X132396906Y-107521801D01*
X132344600Y-107473795D01*
X132326500Y-107408729D01*
X132326500Y-105952890D01*
X132346502Y-105884769D01*
X132400158Y-105838276D01*
X132470432Y-105828172D01*
X132535012Y-105857666D01*
G37*
%TD.AperFunction*%
%TA.AperFunction,Conductor*%
G36*
X161884376Y-90934167D02*
G01*
X161884378Y-90934167D01*
X161922463Y-90881750D01*
X162019506Y-90691292D01*
X162019509Y-90691286D01*
X162067667Y-90543071D01*
X162107740Y-90484465D01*
X162173137Y-90456828D01*
X162243094Y-90468935D01*
X162295400Y-90516941D01*
X162313500Y-90582007D01*
X162313500Y-92296372D01*
X162293498Y-92364493D01*
X162239842Y-92410986D01*
X162169568Y-92421090D01*
X162104988Y-92391596D01*
X162067667Y-92335308D01*
X162019973Y-92188521D01*
X162019972Y-92188517D01*
X161922894Y-91997991D01*
X161797206Y-91824996D01*
X161797203Y-91824993D01*
X161797201Y-91824990D01*
X161646009Y-91673798D01*
X161646006Y-91673796D01*
X161646004Y-91673794D01*
X161576806Y-91623518D01*
X161473006Y-91548103D01*
X161471427Y-91547136D01*
X161470952Y-91546611D01*
X161469004Y-91545196D01*
X161469301Y-91544786D01*
X161423797Y-91494488D01*
X161412191Y-91424446D01*
X161440296Y-91359249D01*
X161468843Y-91334517D01*
X161468741Y-91334377D01*
X161470384Y-91333182D01*
X161471451Y-91332259D01*
X161472756Y-91331459D01*
X161525167Y-91293378D01*
X161525167Y-91293376D01*
X160885948Y-90654157D01*
X160953993Y-90635925D01*
X161068007Y-90570099D01*
X161161099Y-90477007D01*
X161226925Y-90362993D01*
X161245157Y-90294948D01*
X161884376Y-90934167D01*
G37*
%TD.AperFunction*%
%TA.AperFunction,Conductor*%
G36*
X162243094Y-87930555D02*
G01*
X162295400Y-87978561D01*
X162313500Y-88043627D01*
X162313500Y-89757992D01*
X162293498Y-89826113D01*
X162239842Y-89872606D01*
X162169568Y-89882710D01*
X162104988Y-89853216D01*
X162067667Y-89796928D01*
X162019509Y-89648713D01*
X162019506Y-89648707D01*
X161922464Y-89458251D01*
X161922463Y-89458249D01*
X161884378Y-89405831D01*
X161245157Y-90045051D01*
X161226925Y-89977007D01*
X161161099Y-89862993D01*
X161068007Y-89769901D01*
X160953993Y-89704075D01*
X160885947Y-89685841D01*
X161525168Y-89046621D01*
X161525167Y-89046620D01*
X161472750Y-89008536D01*
X161471428Y-89007726D01*
X161471030Y-89007286D01*
X161468742Y-89005624D01*
X161469091Y-89005143D01*
X161423797Y-88955078D01*
X161412191Y-88885036D01*
X161440295Y-88819839D01*
X161469075Y-88794903D01*
X161469004Y-88794804D01*
X161470158Y-88793965D01*
X161471441Y-88792854D01*
X161472992Y-88791902D01*
X161473009Y-88791894D01*
X161646004Y-88666206D01*
X161797206Y-88515004D01*
X161922894Y-88342009D01*
X162019972Y-88151483D01*
X162067667Y-88004691D01*
X162107740Y-87946085D01*
X162173137Y-87918448D01*
X162243094Y-87930555D01*
G37*
%TD.AperFunction*%
%TD*%
M02*
