%TF.GenerationSoftware,KiCad,Pcbnew,9.0.5*%
%TF.CreationDate,2025-10-26T01:34:21+08:00*%
%TF.ProjectId,KiCAD_Proj (ESP32),4b694341-445f-4507-926f-6a2028455350,rev?*%
%TF.SameCoordinates,Original*%
%TF.FileFunction,Paste,Top*%
%TF.FilePolarity,Positive*%
%FSLAX46Y46*%
G04 Gerber Fmt 4.6, Leading zero omitted, Abs format (unit mm)*
G04 Created by KiCad (PCBNEW 9.0.5) date 2025-10-26 01:34:21*
%MOMM*%
%LPD*%
G01*
G04 APERTURE LIST*
G04 Aperture macros list*
%AMRoundRect*
0 Rectangle with rounded corners*
0 $1 Rounding radius*
0 $2 $3 $4 $5 $6 $7 $8 $9 X,Y pos of 4 corners*
0 Add a 4 corners polygon primitive as box body*
4,1,4,$2,$3,$4,$5,$6,$7,$8,$9,$2,$3,0*
0 Add four circle primitives for the rounded corners*
1,1,$1+$1,$2,$3*
1,1,$1+$1,$4,$5*
1,1,$1+$1,$6,$7*
1,1,$1+$1,$8,$9*
0 Add four rect primitives between the rounded corners*
20,1,$1+$1,$2,$3,$4,$5,0*
20,1,$1+$1,$4,$5,$6,$7,0*
20,1,$1+$1,$6,$7,$8,$9,0*
20,1,$1+$1,$8,$9,$2,$3,0*%
G04 Aperture macros list end*
%ADD10RoundRect,0.067500X0.067500X0.067500X-0.067500X0.067500X-0.067500X-0.067500X0.067500X-0.067500X0*%
%ADD11RoundRect,0.112500X-0.187500X-0.112500X0.187500X-0.112500X0.187500X0.112500X-0.187500X0.112500X0*%
%ADD12RoundRect,0.067500X-0.067500X-0.067500X0.067500X-0.067500X0.067500X0.067500X-0.067500X0.067500X0*%
%ADD13R,1.550000X1.300000*%
%ADD14R,0.900000X0.800000*%
%ADD15RoundRect,0.079500X-0.079500X-0.100500X0.079500X-0.100500X0.079500X0.100500X-0.079500X0.100500X0*%
%ADD16R,2.000000X0.900000*%
%ADD17R,0.900000X2.000000*%
%ADD18R,5.000000X5.000000*%
%ADD19R,0.300000X0.850000*%
%ADD20RoundRect,0.100000X-0.100000X-0.575000X0.100000X-0.575000X0.100000X0.575000X-0.100000X0.575000X0*%
%ADD21RoundRect,0.250000X-1.200000X-0.700000X1.200000X-0.700000X1.200000X0.700000X-1.200000X0.700000X0*%
%ADD22RoundRect,0.218750X-0.218750X-0.256250X0.218750X-0.256250X0.218750X0.256250X-0.218750X0.256250X0*%
G04 APERTURE END LIST*
D10*
%TO.C,C19*%
X143425000Y-100838000D03*
X142875000Y-100838000D03*
%TD*%
D11*
%TO.C,D3*%
X154618000Y-95377000D03*
X156718000Y-95377000D03*
%TD*%
D12*
%TO.C,R23*%
X151871000Y-100838000D03*
X152421000Y-100838000D03*
%TD*%
%TO.C,R22*%
X155427000Y-121920000D03*
X155977000Y-121920000D03*
%TD*%
%TO.C,C9*%
X145445000Y-98552000D03*
X145995000Y-98552000D03*
%TD*%
D13*
%TO.C,SW1*%
X137990000Y-108748000D03*
X145940000Y-108748000D03*
X137990000Y-113248000D03*
X145940000Y-113248000D03*
%TD*%
D14*
%TO.C,Q2*%
X154686000Y-117414000D03*
X154686000Y-119314000D03*
X156686000Y-118364000D03*
%TD*%
D11*
%TO.C,D4*%
X150554000Y-95377000D03*
X152654000Y-95377000D03*
%TD*%
D10*
%TO.C,R2*%
X147870000Y-100838000D03*
X147320000Y-100838000D03*
%TD*%
D12*
%TO.C,C22*%
X138223000Y-98552000D03*
X138773000Y-98552000D03*
%TD*%
D15*
%TO.C,C21*%
X138253000Y-100838000D03*
X138943000Y-100838000D03*
%TD*%
D10*
%TO.C,R21*%
X139213000Y-121920000D03*
X138663000Y-121920000D03*
%TD*%
D16*
%TO.C,MOD1*%
X139011500Y-73861000D03*
X139011500Y-75131000D03*
X139011500Y-76401000D03*
X139011500Y-77671000D03*
X139011500Y-78941000D03*
X139011500Y-80211000D03*
X139011500Y-81481000D03*
X139011500Y-82751000D03*
X139011500Y-84021000D03*
X139011500Y-85291000D03*
X139011500Y-86561000D03*
X139011500Y-87831000D03*
X139011500Y-89101000D03*
X139011500Y-90371000D03*
D17*
X141796500Y-91371000D03*
X143066500Y-91371000D03*
X144336500Y-91371000D03*
X145606500Y-91371000D03*
X146876500Y-91371000D03*
X148146500Y-91371000D03*
X149416500Y-91371000D03*
X150686500Y-91371000D03*
X151956500Y-91371000D03*
X153226500Y-91371000D03*
D16*
X156011500Y-90371000D03*
X156011500Y-89101000D03*
X156011500Y-87831000D03*
X156011500Y-86561000D03*
X156011500Y-85291000D03*
X156011500Y-84021000D03*
X156011500Y-82751000D03*
X156011500Y-81481000D03*
X156011500Y-80211000D03*
X156011500Y-78941000D03*
X156011500Y-77671000D03*
X156011500Y-76401000D03*
X156011500Y-75131000D03*
X156011500Y-73861000D03*
D18*
X146511500Y-81361000D03*
%TD*%
D12*
%TO.C,R11*%
X156278000Y-100838000D03*
X156828000Y-100838000D03*
%TD*%
D10*
%TO.C,R18*%
X156828000Y-98552000D03*
X156278000Y-98552000D03*
%TD*%
D12*
%TO.C,R25*%
X144145000Y-105156000D03*
X144695000Y-105156000D03*
%TD*%
D10*
%TO.C,C20*%
X142384000Y-98552000D03*
X141834000Y-98552000D03*
%TD*%
%TO.C,C15*%
X138176000Y-105156000D03*
X137626000Y-105156000D03*
%TD*%
D19*
%TO.C,J1*%
X143799000Y-119078000D03*
X150799000Y-119078000D03*
D20*
X148599000Y-116403000D03*
X147949000Y-116403000D03*
X147299000Y-116403000D03*
X146649000Y-116403000D03*
X145999000Y-116403000D03*
D21*
X147299000Y-119078000D03*
%TD*%
D14*
%TO.C,Q1*%
X137938000Y-117414000D03*
X137938000Y-119314000D03*
X139938000Y-118364000D03*
%TD*%
D12*
%TO.C,C14*%
X156951000Y-105156000D03*
X157501000Y-105156000D03*
%TD*%
%TO.C,R24*%
X149056000Y-98552000D03*
X149606000Y-98552000D03*
%TD*%
D22*
%TO.C,D1*%
X146761000Y-95377000D03*
X148336000Y-95377000D03*
%TD*%
D11*
%TO.C,D5*%
X142460000Y-95377000D03*
X144560000Y-95377000D03*
%TD*%
%TO.C,D6*%
X138362000Y-95377000D03*
X140462000Y-95377000D03*
%TD*%
D12*
%TO.C,R17*%
X152667000Y-98552000D03*
X153217000Y-98552000D03*
%TD*%
%TO.C,R26*%
X150580000Y-105156000D03*
X151130000Y-105156000D03*
%TD*%
D13*
%TO.C,SW2*%
X148658000Y-108748000D03*
X156608000Y-108748000D03*
X148658000Y-113248000D03*
X156608000Y-113248000D03*
%TD*%
M02*
