%TF.GenerationSoftware,KiCad,Pcbnew,9.0.5*%
%TF.CreationDate,2025-10-26T01:34:21+08:00*%
%TF.ProjectId,KiCAD_Proj (ESP32),4b694341-445f-4507-926f-6a2028455350,rev?*%
%TF.SameCoordinates,Original*%
%TF.FileFunction,Copper,L3,Inr*%
%TF.FilePolarity,Positive*%
%FSLAX46Y46*%
G04 Gerber Fmt 4.6, Leading zero omitted, Abs format (unit mm)*
G04 Created by KiCad (PCBNEW 9.0.5) date 2025-10-26 01:34:21*
%MOMM*%
%LPD*%
G01*
G04 APERTURE LIST*
%TA.AperFunction,ComponentPad*%
%ADD10R,1.700000X1.700000*%
%TD*%
%TA.AperFunction,ComponentPad*%
%ADD11C,1.700000*%
%TD*%
%TA.AperFunction,HeatsinkPad*%
%ADD12O,1.000000X1.900000*%
%TD*%
%TA.AperFunction,HeatsinkPad*%
%ADD13O,1.050000X1.250000*%
%TD*%
%TA.AperFunction,ViaPad*%
%ADD14C,0.600000*%
%TD*%
%TA.AperFunction,Conductor*%
%ADD15C,0.150000*%
%TD*%
%TA.AperFunction,Conductor*%
%ADD16C,0.200000*%
%TD*%
%TA.AperFunction,Conductor*%
%ADD17C,0.100000*%
%TD*%
G04 APERTURE END LIST*
D10*
%TO.N,/VDD33*%
%TO.C,J2*%
X133837000Y-74930000D03*
D11*
%TO.N,/EN*%
X133837000Y-77470000D03*
%TO.N,/SENSOR_VP*%
X133837000Y-80010000D03*
%TO.N,/SENSOR_VN*%
X133837000Y-82550000D03*
%TO.N,/IO34*%
X133837000Y-85090000D03*
%TO.N,/IO35*%
X133837000Y-87630000D03*
%TO.N,/IO32*%
X133837000Y-90170000D03*
%TO.N,/IO33*%
X133837000Y-92710000D03*
%TO.N,/IO25*%
X133837000Y-95250000D03*
%TO.N,/IO26*%
X133837000Y-97790000D03*
%TO.N,/IO27*%
X133837000Y-100330000D03*
%TO.N,/IO14*%
X133837000Y-102870000D03*
%TO.N,/IO12*%
X133837000Y-105410000D03*
%TO.N,GND*%
X133837000Y-107950000D03*
%TO.N,/IO13*%
X133837000Y-110490000D03*
%TO.N,/SD2*%
X133837000Y-113030000D03*
%TO.N,/SD3*%
X133837000Y-115570000D03*
%TO.N,/CMD*%
X133837000Y-118110000D03*
%TO.N,/EXT_5V*%
X133837000Y-120650000D03*
%TD*%
D10*
%TO.N,GND*%
%TO.C,J3*%
X160761000Y-74930000D03*
D11*
%TO.N,/IO23*%
X160761000Y-77470000D03*
%TO.N,/IO22*%
X160761000Y-80010000D03*
%TO.N,/TXD0*%
X160761000Y-82550000D03*
%TO.N,/RXD0*%
X160761000Y-85090000D03*
%TO.N,/IO21*%
X160761000Y-87630000D03*
%TO.N,GND*%
X160761000Y-90170000D03*
%TO.N,/IO19*%
X160761000Y-92710000D03*
%TO.N,/IO18*%
X160761000Y-95250000D03*
%TO.N,/IO5*%
X160761000Y-97790000D03*
%TO.N,/IO17*%
X160761000Y-100330000D03*
%TO.N,/IO16*%
X160761000Y-102870000D03*
%TO.N,/IO4*%
X160761000Y-105410000D03*
%TO.N,/IO0*%
X160761000Y-107950000D03*
%TO.N,/IO2*%
X160761000Y-110490000D03*
%TO.N,/IO15*%
X160761000Y-113030000D03*
%TO.N,/SD1*%
X160761000Y-115570000D03*
%TO.N,/SD0*%
X160761000Y-118110000D03*
%TO.N,/CLK*%
X160761000Y-120650000D03*
%TD*%
D12*
%TO.N,GND*%
%TO.C,J1*%
X143124000Y-119078000D03*
D13*
X145074000Y-116078000D03*
X149524000Y-116078000D03*
D12*
X151474000Y-119078000D03*
%TD*%
D14*
%TO.N,/EXT_5V*%
X154618000Y-101405000D03*
X147845000Y-101710000D03*
X136017000Y-119380000D03*
%TO.N,GND*%
X153162000Y-100076000D03*
X149479000Y-95377000D03*
X138684000Y-104267000D03*
X151265000Y-108212000D03*
%TO.N,/EN*%
X147828000Y-114300000D03*
X141605000Y-116713000D03*
X146177000Y-97155000D03*
X156337000Y-100076000D03*
%TO.N,/IO0*%
X154559000Y-118364000D03*
%TO.N,/VDD33*%
X154051000Y-98679000D03*
X143891000Y-101600000D03*
X150876000Y-106299000D03*
X149860000Y-110871000D03*
X135890000Y-75438000D03*
X142367000Y-96774000D03*
%TO.N,/VBUS*%
X149606000Y-114935000D03*
X145224500Y-104457500D03*
X143891000Y-106045000D03*
X155575000Y-97536000D03*
%TO.N,/USB_DN*%
X152146000Y-96774000D03*
X150876000Y-107315000D03*
X148336000Y-114935000D03*
%TO.N,/USB_DP*%
X151892000Y-108839000D03*
X149860000Y-112141000D03*
X147299000Y-114956000D03*
X145542000Y-95377000D03*
%TO.N,/TXD0*%
X152692000Y-97828000D03*
%TO.N,/RXD0*%
X157289500Y-97853500D03*
%TO.N,/IO4*%
X157935000Y-89101000D03*
%TO.N,/RTS*%
X142240000Y-115189000D03*
%TO.N,/DTR*%
X141605000Y-115824000D03*
X155702000Y-116078000D03*
%TO.N,/RXD*%
X147574000Y-104521000D03*
%TO.N,/TXD*%
X148336000Y-104521000D03*
X155575000Y-100838000D03*
%TO.N,Net-(U1-~{SUSPENDB})*%
X151892000Y-100076000D03*
X147320000Y-112141000D03*
%TO.N,Net-(U1-~{RST})*%
X148463000Y-112141000D03*
X151511000Y-97917000D03*
%TO.N,Net-(U1-VBUS)*%
X150241000Y-104394000D03*
X149479000Y-111506000D03*
%TO.N,Net-(U3-3V3)*%
X138049000Y-97790000D03*
X136652000Y-75438000D03*
%TD*%
D15*
%TO.N,/VBUS*%
X143891000Y-112522000D02*
X144653000Y-113284000D01*
X156210000Y-107442000D02*
X156210000Y-100657521D01*
X150368000Y-113284000D02*
X156210000Y-107442000D01*
X145224500Y-104457500D02*
X145224500Y-105727500D01*
X145224500Y-105727500D02*
X143891000Y-107061000D01*
X144653000Y-113284000D02*
X150368000Y-113284000D01*
X155575000Y-100022521D02*
X155575000Y-97536000D01*
X143891000Y-107061000D02*
X143891000Y-112522000D01*
X156210000Y-100657521D02*
X155575000Y-100022521D01*
D16*
%TO.N,/USB_DN*%
X149715000Y-98443000D02*
X151384000Y-96774000D01*
X150876000Y-107315000D02*
X149715000Y-106154000D01*
X151384000Y-96774000D02*
X152146000Y-96774000D01*
X149715000Y-106154000D02*
X149715000Y-98443000D01*
%TO.N,/USB_DP*%
X149414000Y-99630000D02*
X145542000Y-95758000D01*
X151148123Y-108839000D02*
X149414000Y-107104877D01*
X149414000Y-107104877D02*
X149414000Y-99630000D01*
X145542000Y-95758000D02*
X145542000Y-95377000D01*
X151892000Y-108839000D02*
X151148123Y-108839000D01*
D17*
%TO.N,/IO4*%
X159512000Y-104161000D02*
X159512000Y-89916000D01*
X158697000Y-89101000D02*
X157935000Y-89101000D01*
X160761000Y-105410000D02*
X159512000Y-104161000D01*
X159512000Y-89916000D02*
X158697000Y-89101000D01*
D15*
%TO.N,Net-(U1-~{SUSPENDB})*%
X152393000Y-109100000D02*
X152393000Y-100577000D01*
X147320000Y-112141000D02*
X149098000Y-110363000D01*
X151130000Y-110363000D02*
X152393000Y-109100000D01*
X149098000Y-110363000D02*
X151130000Y-110363000D01*
X152393000Y-100577000D02*
X151892000Y-100076000D01*
%TO.N,Net-(U1-~{RST})*%
X148964000Y-112642000D02*
X148463000Y-112141000D01*
X152644000Y-99050000D02*
X152644000Y-110065521D01*
X150067521Y-112642000D02*
X148964000Y-112642000D01*
X151511000Y-97917000D02*
X152644000Y-99050000D01*
X152644000Y-110065521D02*
X150067521Y-112642000D01*
%TD*%
M02*
