%TF.GenerationSoftware,KiCad,Pcbnew,9.0.5*%
%TF.CreationDate,2025-10-26T01:34:21+08:00*%
%TF.ProjectId,KiCAD_Proj (ESP32),4b694341-445f-4507-926f-6a2028455350,rev?*%
%TF.SameCoordinates,Original*%
%TF.FileFunction,Copper,L1,Top*%
%TF.FilePolarity,Positive*%
%FSLAX46Y46*%
G04 Gerber Fmt 4.6, Leading zero omitted, Abs format (unit mm)*
G04 Created by KiCad (PCBNEW 9.0.5) date 2025-10-26 01:34:21*
%MOMM*%
%LPD*%
G01*
G04 APERTURE LIST*
G04 Aperture macros list*
%AMRoundRect*
0 Rectangle with rounded corners*
0 $1 Rounding radius*
0 $2 $3 $4 $5 $6 $7 $8 $9 X,Y pos of 4 corners*
0 Add a 4 corners polygon primitive as box body*
4,1,4,$2,$3,$4,$5,$6,$7,$8,$9,$2,$3,0*
0 Add four circle primitives for the rounded corners*
1,1,$1+$1,$2,$3*
1,1,$1+$1,$4,$5*
1,1,$1+$1,$6,$7*
1,1,$1+$1,$8,$9*
0 Add four rect primitives between the rounded corners*
20,1,$1+$1,$2,$3,$4,$5,0*
20,1,$1+$1,$4,$5,$6,$7,0*
20,1,$1+$1,$6,$7,$8,$9,0*
20,1,$1+$1,$8,$9,$2,$3,0*%
G04 Aperture macros list end*
%TA.AperFunction,SMDPad,CuDef*%
%ADD10RoundRect,0.075000X0.125000X0.075000X-0.125000X0.075000X-0.125000X-0.075000X0.125000X-0.075000X0*%
%TD*%
%TA.AperFunction,ComponentPad*%
%ADD11R,1.700000X1.700000*%
%TD*%
%TA.AperFunction,ComponentPad*%
%ADD12C,1.700000*%
%TD*%
%TA.AperFunction,SMDPad,CuDef*%
%ADD13RoundRect,0.112500X-0.187500X-0.112500X0.187500X-0.112500X0.187500X0.112500X-0.187500X0.112500X0*%
%TD*%
%TA.AperFunction,SMDPad,CuDef*%
%ADD14RoundRect,0.075000X-0.125000X-0.075000X0.125000X-0.075000X0.125000X0.075000X-0.125000X0.075000X0*%
%TD*%
%TA.AperFunction,SMDPad,CuDef*%
%ADD15R,1.550000X1.300000*%
%TD*%
%TA.AperFunction,SMDPad,CuDef*%
%ADD16R,0.900000X0.800000*%
%TD*%
%TA.AperFunction,SMDPad,CuDef*%
%ADD17RoundRect,0.100000X-0.130000X-0.100000X0.130000X-0.100000X0.130000X0.100000X-0.130000X0.100000X0*%
%TD*%
%TA.AperFunction,SMDPad,CuDef*%
%ADD18R,2.000000X0.900000*%
%TD*%
%TA.AperFunction,SMDPad,CuDef*%
%ADD19R,0.900000X2.000000*%
%TD*%
%TA.AperFunction,SMDPad,CuDef*%
%ADD20R,5.000000X5.000000*%
%TD*%
%TA.AperFunction,SMDPad,CuDef*%
%ADD21RoundRect,0.100000X-0.100000X-0.575000X0.100000X-0.575000X0.100000X0.575000X-0.100000X0.575000X0*%
%TD*%
%TA.AperFunction,HeatsinkPad*%
%ADD22O,1.000000X1.900000*%
%TD*%
%TA.AperFunction,SMDPad,CuDef*%
%ADD23R,0.875000X1.900000*%
%TD*%
%TA.AperFunction,HeatsinkPad*%
%ADD24O,1.050000X1.250000*%
%TD*%
%TA.AperFunction,SMDPad,CuDef*%
%ADD25RoundRect,0.250000X-1.200000X-0.700000X1.200000X-0.700000X1.200000X0.700000X-1.200000X0.700000X0*%
%TD*%
%TA.AperFunction,SMDPad,CuDef*%
%ADD26RoundRect,0.218750X-0.218750X-0.256250X0.218750X-0.256250X0.218750X0.256250X-0.218750X0.256250X0*%
%TD*%
%TA.AperFunction,ViaPad*%
%ADD27C,0.600000*%
%TD*%
%TA.AperFunction,Conductor*%
%ADD28C,0.150000*%
%TD*%
%TA.AperFunction,Conductor*%
%ADD29C,0.100000*%
%TD*%
%TA.AperFunction,Conductor*%
%ADD30C,0.200000*%
%TD*%
G04 APERTURE END LIST*
D10*
%TO.P,C19,1*%
%TO.N,/VDD33*%
X143400000Y-100838000D03*
%TO.P,C19,2*%
%TO.N,GND*%
X142900000Y-100838000D03*
%TD*%
D11*
%TO.P,J2,1,Pin_1*%
%TO.N,/VDD33*%
X133837000Y-74930000D03*
D12*
%TO.P,J2,2,Pin_2*%
%TO.N,/EN*%
X133837000Y-77470000D03*
%TO.P,J2,3,Pin_3*%
%TO.N,/SENSOR_VP*%
X133837000Y-80010000D03*
%TO.P,J2,4,Pin_4*%
%TO.N,/SENSOR_VN*%
X133837000Y-82550000D03*
%TO.P,J2,5,Pin_5*%
%TO.N,/IO34*%
X133837000Y-85090000D03*
%TO.P,J2,6,Pin_6*%
%TO.N,/IO35*%
X133837000Y-87630000D03*
%TO.P,J2,7,Pin_7*%
%TO.N,/IO32*%
X133837000Y-90170000D03*
%TO.P,J2,8,Pin_8*%
%TO.N,/IO33*%
X133837000Y-92710000D03*
%TO.P,J2,9,Pin_9*%
%TO.N,/IO25*%
X133837000Y-95250000D03*
%TO.P,J2,10,Pin_10*%
%TO.N,/IO26*%
X133837000Y-97790000D03*
%TO.P,J2,11,Pin_11*%
%TO.N,/IO27*%
X133837000Y-100330000D03*
%TO.P,J2,12,Pin_12*%
%TO.N,/IO14*%
X133837000Y-102870000D03*
%TO.P,J2,13,Pin_13*%
%TO.N,/IO12*%
X133837000Y-105410000D03*
%TO.P,J2,14,Pin_14*%
%TO.N,GND*%
X133837000Y-107950000D03*
%TO.P,J2,15,Pin_15*%
%TO.N,/IO13*%
X133837000Y-110490000D03*
%TO.P,J2,16,Pin_16*%
%TO.N,/SD2*%
X133837000Y-113030000D03*
%TO.P,J2,17,Pin_17*%
%TO.N,/SD3*%
X133837000Y-115570000D03*
%TO.P,J2,18,Pin_18*%
%TO.N,/CMD*%
X133837000Y-118110000D03*
%TO.P,J2,19,Pin_19*%
%TO.N,/EXT_5V*%
X133837000Y-120650000D03*
%TD*%
D13*
%TO.P,D3,1,K*%
%TO.N,/EXT_5V*%
X154618000Y-95377000D03*
%TO.P,D3,2,A*%
%TO.N,/VBUS*%
X156718000Y-95377000D03*
%TD*%
D14*
%TO.P,R23,1*%
%TO.N,Net-(U1-~{SUSPENDB})*%
X151896000Y-100838000D03*
%TO.P,R23,2*%
%TO.N,GND*%
X152396000Y-100838000D03*
%TD*%
%TO.P,R22,1*%
%TO.N,/RTS*%
X155452000Y-121920000D03*
%TO.P,R22,2*%
%TO.N,Net-(Q2-Pad1)*%
X155952000Y-121920000D03*
%TD*%
%TO.P,C9,1*%
%TO.N,/EN*%
X145470000Y-98552000D03*
%TO.P,C9,2*%
%TO.N,GND*%
X145970000Y-98552000D03*
%TD*%
D15*
%TO.P,SW1,1,1*%
%TO.N,GND*%
X137990000Y-108748000D03*
X145940000Y-108748000D03*
%TO.P,SW1,2,2*%
%TO.N,/IO0*%
X137990000Y-113248000D03*
X145940000Y-113248000D03*
%TD*%
D11*
%TO.P,J3,1,Pin_1*%
%TO.N,GND*%
X160761000Y-74930000D03*
D12*
%TO.P,J3,2,Pin_2*%
%TO.N,/IO23*%
X160761000Y-77470000D03*
%TO.P,J3,3,Pin_3*%
%TO.N,/IO22*%
X160761000Y-80010000D03*
%TO.P,J3,4,Pin_4*%
%TO.N,/TXD0*%
X160761000Y-82550000D03*
%TO.P,J3,5,Pin_5*%
%TO.N,/RXD0*%
X160761000Y-85090000D03*
%TO.P,J3,6,Pin_6*%
%TO.N,/IO21*%
X160761000Y-87630000D03*
%TO.P,J3,7,Pin_7*%
%TO.N,GND*%
X160761000Y-90170000D03*
%TO.P,J3,8,Pin_8*%
%TO.N,/IO19*%
X160761000Y-92710000D03*
%TO.P,J3,9,Pin_9*%
%TO.N,/IO18*%
X160761000Y-95250000D03*
%TO.P,J3,10,Pin_10*%
%TO.N,/IO5*%
X160761000Y-97790000D03*
%TO.P,J3,11,Pin_11*%
%TO.N,/IO17*%
X160761000Y-100330000D03*
%TO.P,J3,12,Pin_12*%
%TO.N,/IO16*%
X160761000Y-102870000D03*
%TO.P,J3,13,Pin_13*%
%TO.N,/IO4*%
X160761000Y-105410000D03*
%TO.P,J3,14,Pin_14*%
%TO.N,/IO0*%
X160761000Y-107950000D03*
%TO.P,J3,15,Pin_15*%
%TO.N,/IO2*%
X160761000Y-110490000D03*
%TO.P,J3,16,Pin_16*%
%TO.N,/IO15*%
X160761000Y-113030000D03*
%TO.P,J3,17,Pin_17*%
%TO.N,/SD1*%
X160761000Y-115570000D03*
%TO.P,J3,18,Pin_18*%
%TO.N,/SD0*%
X160761000Y-118110000D03*
%TO.P,J3,19,Pin_19*%
%TO.N,/CLK*%
X160761000Y-120650000D03*
%TD*%
D16*
%TO.P,Q2,1*%
%TO.N,Net-(Q2-Pad1)*%
X154686000Y-117414000D03*
%TO.P,Q2,2*%
%TO.N,/IO0*%
X154686000Y-119314000D03*
%TO.P,Q2,3*%
%TO.N,/DTR*%
X156686000Y-118364000D03*
%TD*%
D13*
%TO.P,D4,1,A1*%
%TO.N,GND*%
X150554000Y-95377000D03*
%TO.P,D4,2,A2*%
%TO.N,/USB_DN*%
X152654000Y-95377000D03*
%TD*%
D10*
%TO.P,R2,1*%
%TO.N,/EXT_5V*%
X147845000Y-100838000D03*
%TO.P,R2,2*%
%TO.N,Net-(D1-A)*%
X147345000Y-100838000D03*
%TD*%
D14*
%TO.P,C22,1*%
%TO.N,Net-(U3-3V3)*%
X138248000Y-98552000D03*
%TO.P,C22,2*%
%TO.N,GND*%
X138748000Y-98552000D03*
%TD*%
D17*
%TO.P,C21,1*%
%TO.N,Net-(U3-3V3)*%
X138278000Y-100838000D03*
%TO.P,C21,2*%
%TO.N,GND*%
X138918000Y-100838000D03*
%TD*%
D10*
%TO.P,R21,1*%
%TO.N,/DTR*%
X139188000Y-121920000D03*
%TO.P,R21,2*%
%TO.N,Net-(Q1-Pad1)*%
X138688000Y-121920000D03*
%TD*%
D18*
%TO.P,MOD1,1,GND*%
%TO.N,GND*%
X139011500Y-73861000D03*
%TO.P,MOD1,2,3V3*%
%TO.N,Net-(U3-3V3)*%
X139011500Y-75131000D03*
%TO.P,MOD1,3,EN*%
%TO.N,/EN*%
X139011500Y-76401000D03*
%TO.P,MOD1,4,SENSOR_VP*%
%TO.N,/SENSOR_VP*%
X139011500Y-77671000D03*
%TO.P,MOD1,5,SENSOR_VN*%
%TO.N,/SENSOR_VN*%
X139011500Y-78941000D03*
%TO.P,MOD1,6,IO34*%
%TO.N,/IO34*%
X139011500Y-80211000D03*
%TO.P,MOD1,7,IO35*%
%TO.N,/IO35*%
X139011500Y-81481000D03*
%TO.P,MOD1,8,IO32*%
%TO.N,/IO32*%
X139011500Y-82751000D03*
%TO.P,MOD1,9,IO33*%
%TO.N,/IO33*%
X139011500Y-84021000D03*
%TO.P,MOD1,10,IO25*%
%TO.N,/IO25*%
X139011500Y-85291000D03*
%TO.P,MOD1,11,IO26*%
%TO.N,/IO26*%
X139011500Y-86561000D03*
%TO.P,MOD1,12,IO27*%
%TO.N,/IO27*%
X139011500Y-87831000D03*
%TO.P,MOD1,13,IO14*%
%TO.N,/IO14*%
X139011500Y-89101000D03*
%TO.P,MOD1,14,IO12*%
%TO.N,/IO12*%
X139011500Y-90371000D03*
D19*
%TO.P,MOD1,15,GND*%
%TO.N,GND*%
X141796500Y-91371000D03*
%TO.P,MOD1,16,IO13*%
%TO.N,/IO13*%
X143066500Y-91371000D03*
%TO.P,MOD1,17,SHD/SD2*%
%TO.N,/SD2*%
X144336500Y-91371000D03*
%TO.P,MOD1,18,SWP/SD3*%
%TO.N,/SD3*%
X145606500Y-91371000D03*
%TO.P,MOD1,19,SCS/CMD*%
%TO.N,/CMD*%
X146876500Y-91371000D03*
%TO.P,MOD1,20,SCK/CLK*%
%TO.N,/CLK*%
X148146500Y-91371000D03*
%TO.P,MOD1,21,SDO/SD0*%
%TO.N,/SD0*%
X149416500Y-91371000D03*
%TO.P,MOD1,22,SDI/SD1*%
%TO.N,/SD1*%
X150686500Y-91371000D03*
%TO.P,MOD1,23,IO15*%
%TO.N,/IO15*%
X151956500Y-91371000D03*
%TO.P,MOD1,24,IO2*%
%TO.N,/IO2*%
X153226500Y-91371000D03*
D18*
%TO.P,MOD1,25,IO0*%
%TO.N,/IO0*%
X156011500Y-90371000D03*
%TO.P,MOD1,26,IO4*%
%TO.N,/IO4*%
X156011500Y-89101000D03*
%TO.P,MOD1,27,IO16*%
%TO.N,/IO16*%
X156011500Y-87831000D03*
%TO.P,MOD1,28,IO17*%
%TO.N,/IO17*%
X156011500Y-86561000D03*
%TO.P,MOD1,29,IO5*%
%TO.N,/IO5*%
X156011500Y-85291000D03*
%TO.P,MOD1,30,IO18*%
%TO.N,/IO18*%
X156011500Y-84021000D03*
%TO.P,MOD1,31,IO19*%
%TO.N,/IO19*%
X156011500Y-82751000D03*
%TO.P,MOD1,32*%
%TO.N,N/C*%
X156011500Y-81481000D03*
%TO.P,MOD1,33,IO21*%
%TO.N,/IO21*%
X156011500Y-80211000D03*
%TO.P,MOD1,34,RXD0*%
%TO.N,/RXD0*%
X156011500Y-78941000D03*
%TO.P,MOD1,35,TXD0*%
%TO.N,/TXD0*%
X156011500Y-77671000D03*
%TO.P,MOD1,36,IO22*%
%TO.N,/IO22*%
X156011500Y-76401000D03*
%TO.P,MOD1,37,IO23*%
%TO.N,/IO23*%
X156011500Y-75131000D03*
%TO.P,MOD1,38,GND*%
%TO.N,GND*%
X156011500Y-73861000D03*
D20*
%TO.P,MOD1,39,GND*%
X146511500Y-81361000D03*
%TD*%
D14*
%TO.P,R11,1*%
%TO.N,/VDD33*%
X156303000Y-100838000D03*
%TO.P,R11,2*%
%TO.N,/EN*%
X156803000Y-100838000D03*
%TD*%
D10*
%TO.P,R18,1*%
%TO.N,/RXD0*%
X156803000Y-98552000D03*
%TO.P,R18,2*%
%TO.N,/TXD*%
X156303000Y-98552000D03*
%TD*%
D14*
%TO.P,R25,1*%
%TO.N,Net-(U1-VBUS)*%
X144170000Y-105156000D03*
%TO.P,R25,2*%
%TO.N,/VBUS*%
X144670000Y-105156000D03*
%TD*%
D10*
%TO.P,C20,1*%
%TO.N,/VDD33*%
X142359000Y-98552000D03*
%TO.P,C20,2*%
%TO.N,GND*%
X141859000Y-98552000D03*
%TD*%
%TO.P,C15,1*%
%TO.N,GND*%
X138151000Y-105156000D03*
%TO.P,C15,2*%
%TO.N,/IO0*%
X137651000Y-105156000D03*
%TD*%
D21*
%TO.P,J1,1,VBUS*%
%TO.N,/VBUS*%
X148599000Y-116403000D03*
%TO.P,J1,2,D-*%
%TO.N,/USB_DN*%
X147949000Y-116403000D03*
%TO.P,J1,3,D+*%
%TO.N,/USB_DP*%
X147299000Y-116403000D03*
%TO.P,J1,4,ID*%
%TO.N,unconnected-(J1-ID-Pad4)*%
X146649000Y-116403000D03*
%TO.P,J1,5,GND*%
%TO.N,GND*%
X145999000Y-116403000D03*
D22*
%TO.P,J1,6,Shield*%
X143124000Y-119078000D03*
D23*
X143561500Y-119078000D03*
D24*
X145074000Y-116078000D03*
D25*
X147299000Y-119078000D03*
D24*
X149524000Y-116078000D03*
D23*
X151036500Y-119078000D03*
D22*
X151474000Y-119078000D03*
%TD*%
D16*
%TO.P,Q1,1*%
%TO.N,Net-(Q1-Pad1)*%
X137938000Y-117414000D03*
%TO.P,Q1,2*%
%TO.N,/RTS*%
X137938000Y-119314000D03*
%TO.P,Q1,3*%
%TO.N,/EN*%
X139938000Y-118364000D03*
%TD*%
D14*
%TO.P,C14,1*%
%TO.N,GND*%
X156976000Y-105156000D03*
%TO.P,C14,2*%
%TO.N,/EN*%
X157476000Y-105156000D03*
%TD*%
%TO.P,R24,1*%
%TO.N,/VDD33*%
X149081000Y-98552000D03*
%TO.P,R24,2*%
%TO.N,Net-(U1-~{RST})*%
X149581000Y-98552000D03*
%TD*%
D26*
%TO.P,D1,1,K*%
%TO.N,GND*%
X146761000Y-95377000D03*
%TO.P,D1,2,A*%
%TO.N,Net-(D1-A)*%
X148336000Y-95377000D03*
%TD*%
D13*
%TO.P,D5,1,A1*%
%TO.N,GND*%
X142460000Y-95377000D03*
%TO.P,D5,2,A2*%
%TO.N,/USB_DP*%
X144560000Y-95377000D03*
%TD*%
%TO.P,D6,1,A1*%
%TO.N,GND*%
X138362000Y-95377000D03*
%TO.P,D6,2,A2*%
%TO.N,/VBUS*%
X140462000Y-95377000D03*
%TD*%
D14*
%TO.P,R17,1*%
%TO.N,/TXD0*%
X152692000Y-98552000D03*
%TO.P,R17,2*%
%TO.N,/RXD*%
X153192000Y-98552000D03*
%TD*%
%TO.P,R26,1*%
%TO.N,Net-(U1-VBUS)*%
X150605000Y-105156000D03*
%TO.P,R26,2*%
%TO.N,GND*%
X151105000Y-105156000D03*
%TD*%
D15*
%TO.P,SW2,1,1*%
%TO.N,GND*%
X148658000Y-108748000D03*
X156608000Y-108748000D03*
%TO.P,SW2,2,2*%
%TO.N,/EN*%
X148658000Y-113248000D03*
X156608000Y-113248000D03*
%TD*%
D27*
%TO.N,/EXT_5V*%
X154618000Y-101405000D03*
X147845000Y-101710000D03*
X136017000Y-119380000D03*
%TO.N,GND*%
X153162000Y-100076000D03*
X149479000Y-95377000D03*
X138684000Y-104267000D03*
X151265000Y-108212000D03*
%TO.N,/EN*%
X147828000Y-114300000D03*
X141605000Y-116713000D03*
X146177000Y-97155000D03*
X156337000Y-100076000D03*
%TO.N,/IO0*%
X154559000Y-118364000D03*
%TO.N,/VDD33*%
X154051000Y-98679000D03*
X143891000Y-101600000D03*
X150876000Y-106299000D03*
X149860000Y-110871000D03*
X135890000Y-75438000D03*
X142367000Y-96774000D03*
%TO.N,/VBUS*%
X149606000Y-114935000D03*
X145224500Y-104457500D03*
X143891000Y-106045000D03*
X155575000Y-97536000D03*
%TO.N,/USB_DN*%
X152146000Y-96774000D03*
X150876000Y-107315000D03*
X148336000Y-114935000D03*
%TO.N,/USB_DP*%
X151892000Y-108839000D03*
X149860000Y-112141000D03*
X147299000Y-114956000D03*
X145542000Y-95377000D03*
%TO.N,/TXD0*%
X152692000Y-97828000D03*
%TO.N,/RXD0*%
X157289500Y-97853500D03*
%TO.N,/IO4*%
X157935000Y-89101000D03*
%TO.N,/RTS*%
X142240000Y-115189000D03*
%TO.N,/DTR*%
X141605000Y-115824000D03*
X155702000Y-116078000D03*
%TO.N,/RXD*%
X147574000Y-104521000D03*
%TO.N,/TXD*%
X148336000Y-104521000D03*
X155575000Y-100838000D03*
%TO.N,Net-(U1-~{SUSPENDB})*%
X151892000Y-100076000D03*
X147320000Y-112141000D03*
%TO.N,Net-(U1-~{RST})*%
X148463000Y-112141000D03*
X151511000Y-97917000D03*
%TO.N,Net-(U1-VBUS)*%
X150241000Y-104394000D03*
X149479000Y-111506000D03*
%TO.N,Net-(U3-3V3)*%
X138049000Y-97790000D03*
X136652000Y-75438000D03*
%TD*%
D28*
%TO.N,/EXT_5V*%
X154618000Y-95377000D02*
X154618000Y-101405000D01*
X133837000Y-120650000D02*
X134874000Y-120650000D01*
X147845000Y-100838000D02*
X147845000Y-101710000D01*
X136017000Y-119507000D02*
X136017000Y-119380000D01*
X134874000Y-120650000D02*
X136017000Y-119507000D01*
%TO.N,GND*%
X142473000Y-95779000D02*
X141732000Y-96520000D01*
X146511500Y-78990250D02*
X146511500Y-81361000D01*
X149987000Y-94107000D02*
X150554000Y-94674000D01*
X142062000Y-100000000D02*
X141859000Y-99797000D01*
X145970000Y-98552000D02*
X145970000Y-99140000D01*
X151105000Y-105308000D02*
X151105000Y-105156000D01*
X138151000Y-105156000D02*
X138176000Y-105156000D01*
X147299000Y-119078000D02*
X143561500Y-119078000D01*
X147510500Y-110172500D02*
X147955000Y-110617000D01*
X150368000Y-107569000D02*
X150368000Y-106045000D01*
X145940000Y-108983000D02*
X147320000Y-110363000D01*
X146511500Y-77008500D02*
X149659000Y-73861000D01*
X147320000Y-110363000D02*
X147510500Y-110172500D01*
X159512000Y-74930000D02*
X158443000Y-73861000D01*
X147955000Y-110617000D02*
X147955000Y-112214520D01*
X147955000Y-112214520D02*
X147320000Y-112849520D01*
X149524000Y-116853000D02*
X149524000Y-116078000D01*
X145970000Y-98251000D02*
X145970000Y-98552000D01*
X152400000Y-100838000D02*
X153162000Y-100076000D01*
X150554000Y-95377000D02*
X149479000Y-95377000D01*
X138375000Y-95504000D02*
X138375000Y-97354000D01*
X142748000Y-99314000D02*
X142062000Y-100000000D01*
X147299000Y-119078000D02*
X149524000Y-116853000D01*
X147320000Y-112849520D02*
X147320000Y-113792000D01*
X148658000Y-108748000D02*
X149951000Y-108748000D01*
X146511500Y-84120500D02*
X141796500Y-88835500D01*
X146761000Y-97460000D02*
X145970000Y-98251000D01*
X138176000Y-105156000D02*
X138684000Y-104648000D01*
X142900000Y-100838000D02*
X142062000Y-100000000D01*
X147320000Y-113792000D02*
X145074000Y-116038000D01*
X141732000Y-97409000D02*
X141224000Y-97917000D01*
X141224000Y-97917000D02*
X141224000Y-98552000D01*
X152396000Y-100838000D02*
X152396000Y-103865000D01*
X151011000Y-108212000D02*
X150749000Y-107950000D01*
X141859000Y-98552000D02*
X141224000Y-98552000D01*
X138918000Y-100838000D02*
X138918000Y-98722000D01*
X139088000Y-98552000D02*
X138918000Y-98722000D01*
X150368000Y-106045000D02*
X151105000Y-105308000D01*
X158443000Y-73861000D02*
X156011500Y-73861000D01*
X145970000Y-99140000D02*
X145796000Y-99314000D01*
X147510500Y-110172500D02*
X148658000Y-109025000D01*
X141859000Y-99797000D02*
X141859000Y-98552000D01*
X151265000Y-108212000D02*
X151011000Y-108212000D01*
X141382250Y-73861000D02*
X146511500Y-78990250D01*
X145074000Y-116038000D02*
X145074000Y-116078000D01*
X151105000Y-105156000D02*
X156976000Y-105156000D01*
X148658000Y-109025000D02*
X148658000Y-108748000D01*
X138918000Y-98722000D02*
X138748000Y-98552000D01*
X141224000Y-98552000D02*
X139088000Y-98552000D01*
X142473000Y-95504000D02*
X142473000Y-95779000D01*
X149951000Y-108748000D02*
X150749000Y-107950000D01*
X156608000Y-105524000D02*
X156976000Y-105156000D01*
X150749000Y-107950000D02*
X150368000Y-107569000D01*
X148162500Y-94107000D02*
X146765500Y-95504000D01*
X145074000Y-116853000D02*
X145074000Y-116078000D01*
X145940000Y-108748000D02*
X137990000Y-108748000D01*
X149987000Y-94107000D02*
X148162500Y-94107000D01*
X138151000Y-108587000D02*
X138151000Y-105156000D01*
X147299000Y-119078000D02*
X151036500Y-119078000D01*
X138748000Y-97727000D02*
X138748000Y-98552000D01*
X139011500Y-73861000D02*
X141382250Y-73861000D01*
X137990000Y-108748000D02*
X138151000Y-108587000D01*
X138684000Y-104648000D02*
X138684000Y-104267000D01*
X138375000Y-97354000D02*
X138748000Y-97727000D01*
X156608000Y-108748000D02*
X156608000Y-105524000D01*
X147299000Y-119078000D02*
X145074000Y-116853000D01*
X145940000Y-108748000D02*
X145940000Y-108983000D01*
X152396000Y-103865000D02*
X151105000Y-105156000D01*
X146511500Y-81361000D02*
X146511500Y-84120500D01*
X145399000Y-116403000D02*
X145074000Y-116078000D01*
X149659000Y-73861000D02*
X156011500Y-73861000D01*
X146511500Y-81361000D02*
X146511500Y-77008500D01*
X145999000Y-116403000D02*
X145399000Y-116403000D01*
X141796500Y-88835500D02*
X141796500Y-91371000D01*
X141732000Y-96520000D02*
X141732000Y-97409000D01*
X146761000Y-95377000D02*
X146761000Y-97460000D01*
X160761000Y-74930000D02*
X159512000Y-74930000D01*
X150554000Y-94674000D02*
X150554000Y-95377000D01*
X145796000Y-99314000D02*
X142748000Y-99314000D01*
X152396000Y-100838000D02*
X152400000Y-100838000D01*
D29*
%TO.N,/EN*%
X158115000Y-106426000D02*
X158115000Y-112014000D01*
X156337000Y-100076000D02*
X156803000Y-100542000D01*
X156803000Y-100838000D02*
X157476000Y-101511000D01*
X157476000Y-105787000D02*
X158115000Y-106426000D01*
X139938000Y-118364000D02*
X139954000Y-118364000D01*
X158115000Y-112014000D02*
X156881000Y-113248000D01*
X145470000Y-98552000D02*
X145470000Y-97862000D01*
X148658000Y-113248000D02*
X148658000Y-113470000D01*
X156881000Y-113248000D02*
X156608000Y-113248000D01*
X139954000Y-118364000D02*
X141605000Y-116713000D01*
X148658000Y-113470000D02*
X147828000Y-114300000D01*
X148658000Y-113248000D02*
X156608000Y-113248000D01*
X137467000Y-76401000D02*
X136398000Y-77470000D01*
X136398000Y-77470000D02*
X133837000Y-77470000D01*
X157476000Y-101511000D02*
X157476000Y-105156000D01*
X157476000Y-105156000D02*
X157476000Y-105787000D01*
X145470000Y-97862000D02*
X146177000Y-97155000D01*
X139011500Y-76401000D02*
X137467000Y-76401000D01*
X156803000Y-100542000D02*
X156803000Y-100838000D01*
%TO.N,/IO0*%
X142717888Y-116238388D02*
X142716250Y-116236750D01*
X158454000Y-91824280D02*
X158454000Y-90884500D01*
X137651000Y-105808000D02*
X136525000Y-106934000D01*
X160761000Y-107950000D02*
X159486372Y-106675372D01*
X136525000Y-112141000D02*
X137632000Y-113248000D01*
X158883372Y-96765143D02*
X158883371Y-96647001D01*
X158708000Y-92078282D02*
X158454000Y-91824280D01*
X137990000Y-113248000D02*
X145940000Y-113248000D01*
X136525000Y-106934000D02*
X136525000Y-112141000D01*
X159486372Y-106675372D02*
X159486372Y-101879627D01*
X154686000Y-118491000D02*
X154559000Y-118364000D01*
X159285372Y-101678628D02*
X159285373Y-99422885D01*
X158454000Y-90884500D02*
X157940500Y-90371000D01*
X158883372Y-94509397D02*
X158707999Y-94334023D01*
X142716250Y-116236750D02*
X145705000Y-113248000D01*
X142367000Y-120904000D02*
X142367000Y-117348000D01*
X158883371Y-96647001D02*
X158883372Y-94509397D01*
X157940500Y-90371000D02*
X156011500Y-90371000D01*
X143002000Y-121539000D02*
X142367000Y-120904000D01*
X154686000Y-119314000D02*
X154686000Y-118491000D01*
X137632000Y-113248000D02*
X137990000Y-113248000D01*
X159084372Y-99221884D02*
X159084372Y-96966143D01*
X159285373Y-99422885D02*
X159217244Y-99354757D01*
X145705000Y-113248000D02*
X145940000Y-113248000D01*
X154686000Y-119314000D02*
X152461000Y-121539000D01*
X158707999Y-94334023D02*
X158708000Y-94234000D01*
X159486372Y-101879627D02*
X159285372Y-101678628D01*
X142367000Y-117348000D02*
X142717888Y-116997112D01*
X159084372Y-96966143D02*
X158883372Y-96765143D01*
X158708000Y-94234000D02*
X158708000Y-92078282D01*
X137651000Y-105156000D02*
X137651000Y-105808000D01*
X152461000Y-121539000D02*
X143002000Y-121539000D01*
X142717888Y-116997112D02*
X142717888Y-116238388D01*
X159217244Y-99354757D02*
X159084372Y-99221884D01*
D28*
%TO.N,/VDD33*%
X155235000Y-101906000D02*
X154410479Y-101906000D01*
X146939000Y-98552000D02*
X149081000Y-98552000D01*
X144653000Y-100838000D02*
X143400000Y-100838000D01*
X153035000Y-107696000D02*
X153035000Y-108712000D01*
X133837000Y-74930000D02*
X135382000Y-74930000D01*
X156303000Y-100838000D02*
X155235000Y-101906000D01*
X143400000Y-101109000D02*
X143891000Y-101600000D01*
X143400000Y-100838000D02*
X143400000Y-101109000D01*
X150876000Y-110871000D02*
X149860000Y-110871000D01*
X154410479Y-101906000D02*
X154051000Y-101546521D01*
X142359000Y-96782000D02*
X142367000Y-96774000D01*
X146939000Y-98552000D02*
X144653000Y-100838000D01*
X142359000Y-98552000D02*
X142359000Y-96782000D01*
X135382000Y-74930000D02*
X135890000Y-75438000D01*
X153035000Y-108712000D02*
X150876000Y-110871000D01*
X150876000Y-106299000D02*
X151638000Y-106299000D01*
X151638000Y-106299000D02*
X153035000Y-107696000D01*
X154051000Y-101546521D02*
X154051000Y-98679000D01*
%TO.N,Net-(D1-A)*%
X147345000Y-100688001D02*
X148973001Y-99060000D01*
X152019000Y-98425000D02*
X152019000Y-97409000D01*
X152019000Y-97409000D02*
X151384000Y-96774000D01*
X148336000Y-95631000D02*
X148336000Y-95377000D01*
X147345000Y-100838000D02*
X147345000Y-100688001D01*
X149479000Y-96774000D02*
X148336000Y-95631000D01*
X151384000Y-99060000D02*
X152019000Y-98425000D01*
X148973001Y-99060000D02*
X151384000Y-99060000D01*
X151384000Y-96774000D02*
X149479000Y-96774000D01*
%TO.N,/VBUS*%
X139827000Y-94234000D02*
X140462000Y-94869000D01*
X144670000Y-105156000D02*
X144670000Y-105012000D01*
X145224500Y-104457500D02*
X145288000Y-104394000D01*
X137221000Y-100899000D02*
X137221000Y-94781224D01*
X139446000Y-101600000D02*
X137922000Y-101600000D01*
X144670000Y-105266000D02*
X143891000Y-106045000D01*
X143891000Y-106045000D02*
X139446000Y-101600000D01*
X137768224Y-94234000D02*
X139827000Y-94234000D01*
X156718000Y-96012000D02*
X155575000Y-97155000D01*
X140462000Y-94869000D02*
X140462000Y-95377000D01*
X149098000Y-114935000D02*
X149606000Y-114935000D01*
X144670000Y-105012000D02*
X145224500Y-104457500D01*
X144670000Y-105156000D02*
X144670000Y-105266000D01*
X156718000Y-95377000D02*
X156718000Y-96012000D01*
X155575000Y-97155000D02*
X155575000Y-97536000D01*
X137221000Y-94781224D02*
X137768224Y-94234000D01*
X148599000Y-116403000D02*
X148599000Y-115434000D01*
X137922000Y-101600000D02*
X137221000Y-100899000D01*
X148599000Y-115434000D02*
X149098000Y-114935000D01*
D30*
%TO.N,/USB_DN*%
X152654000Y-96266000D02*
X152146000Y-96774000D01*
X147949000Y-115322000D02*
X148336000Y-114935000D01*
X152654000Y-95377000D02*
X152654000Y-96266000D01*
X147949000Y-116403000D02*
X147949000Y-115322000D01*
%TO.N,/USB_DP*%
X144560000Y-95377000D02*
X145542000Y-95377000D01*
X147299000Y-116403000D02*
X147299000Y-114956000D01*
D29*
%TO.N,/IO33*%
X136144000Y-84582000D02*
X136705000Y-84021000D01*
X136705000Y-84021000D02*
X139011500Y-84021000D01*
X136144000Y-90403000D02*
X136144000Y-84582000D01*
X133837000Y-92710000D02*
X136144000Y-90403000D01*
D30*
%TO.N,/SENSOR_VN*%
X133837000Y-82550000D02*
X137446000Y-78941000D01*
X137446000Y-78941000D02*
X139011500Y-78941000D01*
D29*
%TO.N,/IO34*%
X133837000Y-84835500D02*
X138461500Y-80211000D01*
X138461500Y-80211000D02*
X139011500Y-80211000D01*
X133837000Y-85090000D02*
X133837000Y-84835500D01*
%TO.N,/IO35*%
X135636000Y-85831000D02*
X135636000Y-83513000D01*
X137668000Y-81481000D02*
X139011500Y-81481000D01*
X133837000Y-87630000D02*
X135636000Y-85831000D01*
X135636000Y-83513000D02*
X137668000Y-81481000D01*
%TO.N,/IO26*%
X136652000Y-87376000D02*
X137467000Y-86561000D01*
X136652000Y-92730500D02*
X136652000Y-87376000D01*
X137467000Y-86561000D02*
X139011500Y-86561000D01*
X133837000Y-97790000D02*
X135402500Y-96224500D01*
X135402500Y-93980000D02*
X136652000Y-92730500D01*
X135402500Y-96224500D02*
X135402500Y-93980000D01*
D28*
%TO.N,/SD3*%
X137922000Y-93441000D02*
X136769000Y-94594000D01*
X143902468Y-92710000D02*
X143618662Y-92993806D01*
X145606500Y-91921000D02*
X144817500Y-92710000D01*
X135636000Y-104569836D02*
X135636000Y-113771000D01*
X143618662Y-92993806D02*
X142884774Y-92993806D01*
X135636000Y-113771000D02*
X133837000Y-115570000D01*
X136769000Y-103436836D02*
X135636000Y-104569836D01*
X144817500Y-92710000D02*
X143902468Y-92710000D01*
X145606500Y-91371000D02*
X145606500Y-91921000D01*
X136769000Y-94594000D02*
X136769000Y-103436836D01*
X142437580Y-93441000D02*
X137922000Y-93441000D01*
X142884774Y-92993806D02*
X142437580Y-93441000D01*
D29*
%TO.N,/IO32*%
X135890000Y-88117000D02*
X135890000Y-83820000D01*
X136959000Y-82751000D02*
X139011500Y-82751000D01*
X135890000Y-83820000D02*
X136959000Y-82751000D01*
X133837000Y-90170000D02*
X135890000Y-88117000D01*
%TO.N,/IO13*%
X143066500Y-91371000D02*
X143066500Y-92137500D01*
X136292000Y-94340000D02*
X136292000Y-103239256D01*
X136292000Y-103239256D02*
X135128000Y-104403256D01*
X135128000Y-104403256D02*
X135128000Y-109199000D01*
X137668000Y-92964000D02*
X136292000Y-94340000D01*
X135128000Y-109199000D02*
X133837000Y-110490000D01*
X143066500Y-92137500D02*
X142240000Y-92964000D01*
X142240000Y-92964000D02*
X137668000Y-92964000D01*
%TO.N,/IO25*%
X137213000Y-85291000D02*
X139011500Y-85291000D01*
X133837000Y-95250000D02*
X136398000Y-92689000D01*
X136398000Y-92689000D02*
X136398000Y-86106000D01*
X136398000Y-86106000D02*
X137213000Y-85291000D01*
%TO.N,/IO14*%
X137054000Y-89768000D02*
X137721000Y-89101000D01*
X135890000Y-100817000D02*
X135890000Y-94061012D01*
X133837000Y-102870000D02*
X135890000Y-100817000D01*
X135890000Y-94061012D02*
X137054000Y-92897012D01*
X137721000Y-89101000D02*
X139011500Y-89101000D01*
X137054000Y-92897012D02*
X137054000Y-89768000D01*
%TO.N,/CMD*%
X144911112Y-92936000D02*
X145137112Y-92710000D01*
X138015612Y-93667000D02*
X142531192Y-93667000D01*
X143712274Y-93219806D02*
X143996080Y-92936000D01*
X142531192Y-93667000D02*
X142978386Y-93219806D01*
X143996080Y-92936000D02*
X144911112Y-92936000D01*
X146876500Y-91921000D02*
X146876500Y-91371000D01*
X135890000Y-116057000D02*
X135890000Y-104648000D01*
X145137112Y-92710000D02*
X146087500Y-92710000D01*
X142978386Y-93219806D02*
X143712274Y-93219806D01*
X135890000Y-104648000D02*
X135883724Y-104641724D01*
X135883724Y-104641724D02*
X136995000Y-103530448D01*
X133837000Y-118110000D02*
X135890000Y-116057000D01*
X136995000Y-94687612D02*
X138015612Y-93667000D01*
X136995000Y-103530448D02*
X136995000Y-94687612D01*
X146087500Y-92710000D02*
X146876500Y-91921000D01*
%TO.N,/IO12*%
X137255000Y-92980268D02*
X136091000Y-94144268D01*
X136091000Y-94144268D02*
X136091000Y-103156000D01*
X139011500Y-90371000D02*
X137975000Y-90371000D01*
X136091000Y-103156000D02*
X133837000Y-105410000D01*
X137255000Y-91091000D02*
X137255000Y-92980268D01*
X137975000Y-90371000D02*
X137255000Y-91091000D01*
%TO.N,/IO27*%
X136853000Y-88445000D02*
X137467000Y-87831000D01*
X135661378Y-98505622D02*
X135661378Y-94005378D01*
X135661378Y-94005378D02*
X136853000Y-92813756D01*
X133837000Y-100330000D02*
X135661378Y-98505622D01*
X137467000Y-87831000D02*
X139011500Y-87831000D01*
X136853000Y-92813756D02*
X136853000Y-88445000D01*
D30*
%TO.N,/SENSOR_VP*%
X139011500Y-77671000D02*
X137467000Y-77671000D01*
X137467000Y-77671000D02*
X135128000Y-80010000D01*
X135128000Y-80010000D02*
X133837000Y-80010000D01*
D28*
%TO.N,/SD2*%
X142333612Y-93190000D02*
X142780806Y-92742806D01*
X135382000Y-104468868D02*
X136518000Y-103332868D01*
X133837000Y-113030000D02*
X135382000Y-111485000D01*
X143514694Y-92742806D02*
X144336500Y-91921000D01*
X137761612Y-93190000D02*
X142333612Y-93190000D01*
X136518000Y-94433612D02*
X137761612Y-93190000D01*
X144336500Y-91921000D02*
X144336500Y-91371000D01*
X135382000Y-111485000D02*
X135382000Y-104468868D01*
X142780806Y-92742806D02*
X143514694Y-92742806D01*
X136518000Y-103332868D02*
X136518000Y-94433612D01*
D29*
%TO.N,/IO21*%
X158443000Y-80211000D02*
X156011500Y-80211000D01*
X159004000Y-80772000D02*
X158443000Y-80211000D01*
X160761000Y-87630000D02*
X159468694Y-86337694D01*
X159258000Y-81788000D02*
X159004000Y-81534000D01*
X159004000Y-81534000D02*
X159004000Y-80772000D01*
X159468694Y-84117306D02*
X159258000Y-83906612D01*
X159258000Y-83906612D02*
X159258000Y-81788000D01*
X159468694Y-86337694D02*
X159468694Y-84117306D01*
%TO.N,/IO23*%
X158422000Y-75131000D02*
X160761000Y-77470000D01*
X156011500Y-75131000D02*
X158422000Y-75131000D01*
%TO.N,/CLK*%
X160761000Y-120650000D02*
X159468694Y-119357694D01*
X159468694Y-119357694D02*
X159468694Y-117137306D01*
X159286000Y-116954612D02*
X159286000Y-114769580D01*
X159468694Y-117137306D02*
X159286000Y-116954612D01*
X158608000Y-107359704D02*
X158381372Y-107133076D01*
X158991694Y-112254886D02*
X158809000Y-112072192D01*
X157778372Y-94968103D02*
X157602998Y-94792729D01*
X158180372Y-99880590D02*
X157979372Y-99679590D01*
X157778372Y-97222851D02*
X157778372Y-94968103D01*
X158608000Y-109615448D02*
X158608000Y-107359704D01*
X158809000Y-112072192D02*
X158809000Y-109816448D01*
X157979372Y-97423851D02*
X157778372Y-97222851D01*
X158180372Y-102136332D02*
X158180372Y-99880590D01*
X157421000Y-93413000D02*
X152454308Y-93413000D01*
X158381372Y-107133076D02*
X158381372Y-102337332D01*
X158991694Y-114475274D02*
X158991694Y-112254886D01*
X158809000Y-109816448D02*
X158608000Y-109615448D01*
X157979372Y-99679590D02*
X157979372Y-97423851D01*
X152454308Y-93413000D02*
X152231308Y-93190000D01*
X157602999Y-93594999D02*
X157421000Y-93413000D01*
X149415500Y-93190000D02*
X148146500Y-91921000D01*
X158381372Y-102337332D02*
X158180372Y-102136332D01*
X152231308Y-93190000D02*
X149415500Y-93190000D01*
X148146500Y-91921000D02*
X148146500Y-91371000D01*
X157602998Y-94792729D02*
X157602999Y-93594999D01*
X159286000Y-114769580D02*
X158991694Y-114475274D01*
%TO.N,/IO2*%
X159084372Y-101761885D02*
X159084372Y-99506139D01*
X158883372Y-97049399D02*
X158682372Y-96848402D01*
X159512000Y-106985256D02*
X159285372Y-106758628D01*
X159285372Y-101962884D02*
X159084372Y-101761885D01*
X158682372Y-96848402D02*
X158682372Y-94592654D01*
X159084372Y-99506139D02*
X158883372Y-99305141D01*
X158682372Y-94592654D02*
X158506998Y-94417278D01*
X159512000Y-109241000D02*
X159512000Y-106985256D01*
X160761000Y-110490000D02*
X159512000Y-109241000D01*
X158883372Y-99305141D02*
X158883372Y-97049399D01*
X157037615Y-91371000D02*
X153226500Y-91371000D01*
X158506998Y-94417278D02*
X158507000Y-92840385D01*
X159285372Y-106758628D02*
X159285372Y-101962884D01*
X158507000Y-92840385D02*
X157037615Y-91371000D01*
%TO.N,/IO15*%
X158682372Y-99388398D02*
X158682372Y-97132657D01*
X158481372Y-96931659D02*
X158481372Y-94676912D01*
X158682372Y-97132657D02*
X158481372Y-96931659D01*
X151956500Y-91921000D02*
X151956500Y-91371000D01*
X158481372Y-94676912D02*
X158422000Y-94617539D01*
X158305998Y-94500534D02*
X158306000Y-92923641D01*
X158422000Y-94616537D02*
X158305998Y-94500534D01*
X158422000Y-94617539D02*
X158422000Y-94616537D01*
X159512000Y-111781000D02*
X159512000Y-109525256D01*
X159311000Y-109324256D02*
X159311000Y-107068512D01*
X159311000Y-107068512D02*
X159084372Y-106841884D01*
X158306000Y-92923641D02*
X158092359Y-92710000D01*
X159084372Y-102046140D02*
X158883372Y-101845140D01*
X158092359Y-92710000D02*
X152745500Y-92710000D01*
X158883372Y-101845140D02*
X158883372Y-99589397D01*
X160761000Y-113030000D02*
X159512000Y-111781000D01*
X152745500Y-92710000D02*
X151956500Y-91921000D01*
X159512000Y-109525256D02*
X159311000Y-109324256D01*
X158883372Y-99589397D02*
X158682372Y-99388398D01*
X159084372Y-106841884D02*
X159084372Y-102046140D01*
%TO.N,/IO5*%
X159057000Y-86778768D02*
X158856000Y-86577768D01*
X158549000Y-85291000D02*
X156011500Y-85291000D01*
X159311000Y-91828512D02*
X159057000Y-91574512D01*
X158856000Y-86577768D02*
X158856000Y-85598000D01*
X159486372Y-94259628D02*
X159311000Y-94084256D01*
X159057000Y-91574512D02*
X159057000Y-86778768D01*
X159486372Y-96515372D02*
X159486372Y-94259628D01*
X158856000Y-85598000D02*
X158549000Y-85291000D01*
X160761000Y-97790000D02*
X159486372Y-96515372D01*
X159311000Y-94084256D02*
X159311000Y-91828512D01*
D28*
%TO.N,/SD0*%
X149416500Y-91921000D02*
X149416500Y-91371000D01*
X158205372Y-97330239D02*
X158004372Y-97129239D01*
X158004372Y-97129239D02*
X158004372Y-94874491D01*
X158834000Y-109521836D02*
X158834000Y-107266092D01*
X159217694Y-112161274D02*
X159035000Y-111978580D01*
X152547920Y-93187000D02*
X152321920Y-92961000D01*
X159035000Y-109722836D02*
X158834000Y-109521836D01*
X151138532Y-92710000D02*
X150223500Y-92710000D01*
X158406372Y-102042720D02*
X158406372Y-99786978D01*
X158607372Y-107039464D02*
X158607372Y-102243720D01*
X159512000Y-116861000D02*
X159512000Y-114675968D01*
X158205372Y-99585978D02*
X158205372Y-97330239D01*
X157703000Y-93187000D02*
X152547920Y-93187000D01*
X149416500Y-91903000D02*
X149416500Y-91371000D01*
X151389532Y-92961000D02*
X151138532Y-92710000D01*
X158406372Y-99786978D02*
X158205372Y-99585978D01*
X158834000Y-107266092D02*
X158607372Y-107039464D01*
X157829000Y-93313000D02*
X157703000Y-93187000D01*
X160761000Y-118110000D02*
X159512000Y-116861000D01*
X152321920Y-92961000D02*
X151389532Y-92961000D01*
X150223500Y-92710000D02*
X149416500Y-91903000D01*
X159035000Y-111978580D02*
X159035000Y-109722836D01*
X157828998Y-94699117D02*
X157829000Y-93313000D01*
X158004372Y-94874491D02*
X157828998Y-94699117D01*
X159512000Y-114675968D02*
X159217694Y-114381662D01*
X159217694Y-114381662D02*
X159217694Y-112161274D01*
X158607372Y-102243720D02*
X158406372Y-102042720D01*
%TO.N,/TXD0*%
X159286000Y-78232000D02*
X158725000Y-77671000D01*
X160761000Y-82550000D02*
X159512000Y-81301000D01*
X152692000Y-98552000D02*
X152692000Y-97828000D01*
X159512000Y-81301000D02*
X159512000Y-79121000D01*
X159286000Y-78895000D02*
X159286000Y-78232000D01*
X159512000Y-79121000D02*
X159286000Y-78895000D01*
X158725000Y-77671000D02*
X156011500Y-77671000D01*
D29*
%TO.N,/IO22*%
X159004000Y-76401000D02*
X156011500Y-76401000D01*
X159512000Y-78761000D02*
X159512000Y-76909000D01*
X160761000Y-80010000D02*
X159512000Y-78761000D01*
X159512000Y-76909000D02*
X159004000Y-76401000D01*
D28*
%TO.N,/RXD0*%
X160761000Y-85090000D02*
X159512000Y-83841000D01*
X157289500Y-97853500D02*
X157353000Y-97790000D01*
X156803000Y-98340000D02*
X157289500Y-97853500D01*
X158316000Y-78941000D02*
X156011500Y-78941000D01*
X159258000Y-79883000D02*
X158316000Y-78941000D01*
X159512000Y-81661000D02*
X159258000Y-81407000D01*
X159512000Y-83841000D02*
X159512000Y-81661000D01*
X156803000Y-98552000D02*
X156803000Y-98340000D01*
X159258000Y-81407000D02*
X159258000Y-79883000D01*
D29*
%TO.N,/IO4*%
X156011500Y-89101000D02*
X157935000Y-89101000D01*
%TO.N,/IO17*%
X159285372Y-94342884D02*
X159110000Y-94167512D01*
X160761000Y-100330000D02*
X159486372Y-99055372D01*
X159110000Y-91911768D02*
X158948116Y-91749885D01*
X159285372Y-96598629D02*
X159285372Y-94342884D01*
X158856000Y-86868000D02*
X158549000Y-86561000D01*
X159486372Y-96799628D02*
X159285372Y-96598629D01*
X158856000Y-91657768D02*
X158856000Y-86868000D01*
X158549000Y-86561000D02*
X156011500Y-86561000D01*
X159486372Y-99055372D02*
X159486372Y-96799628D01*
X159110000Y-94167512D02*
X159110000Y-91911768D01*
X158948116Y-91749885D02*
X158856000Y-91657768D01*
%TO.N,/IO18*%
X159512000Y-91745256D02*
X159258000Y-91491256D01*
X159512000Y-94001000D02*
X159512000Y-91745256D01*
X159057000Y-84274126D02*
X158803874Y-84021000D01*
X159057000Y-86494512D02*
X159057000Y-84274126D01*
X160761000Y-95250000D02*
X159512000Y-94001000D01*
X159258000Y-91491256D02*
X159258000Y-86695512D01*
X159258000Y-86695512D02*
X159057000Y-86494512D01*
X158803874Y-84021000D02*
X156011500Y-84021000D01*
%TO.N,/IO16*%
X160761000Y-102870000D02*
X159486372Y-101595372D01*
X159084372Y-96681886D02*
X159084372Y-94426140D01*
X158909000Y-91995025D02*
X158655000Y-91741024D01*
X159090243Y-96687758D02*
X159084372Y-96681886D01*
X159084372Y-94426140D02*
X158948116Y-94289885D01*
X158655000Y-91741024D02*
X158655000Y-88297000D01*
X159486372Y-101595372D02*
X159486372Y-99339628D01*
X158909000Y-94250768D02*
X158909000Y-91995025D01*
X159486372Y-99339628D02*
X159285372Y-99138628D01*
X158948116Y-94289885D02*
X158909000Y-94250768D01*
X158189000Y-87831000D02*
X156011500Y-87831000D01*
X159285372Y-99138628D02*
X159285372Y-96882885D01*
X159285372Y-96882885D02*
X159090243Y-96687758D01*
X158655000Y-88297000D02*
X158189000Y-87831000D01*
%TO.N,/IO19*%
X159057000Y-83989868D02*
X159057000Y-83058000D01*
X159258000Y-84190869D02*
X159057000Y-83989868D01*
X159057000Y-83058000D02*
X158750000Y-82751000D01*
X159486372Y-86639628D02*
X159258000Y-86411256D01*
X160761000Y-92710000D02*
X159486372Y-91435372D01*
X159258000Y-86411256D02*
X159258000Y-84190869D01*
X158750000Y-82751000D02*
X156011500Y-82751000D01*
X159486372Y-91435372D02*
X159486372Y-86639628D01*
D28*
%TO.N,/SD1*%
X158657372Y-99683010D02*
X158456372Y-99482010D01*
X158657372Y-101938752D02*
X158657372Y-99683010D01*
X159286000Y-109618868D02*
X159085000Y-109417868D01*
X152425888Y-92710000D02*
X151493500Y-92710000D01*
X151493500Y-92710000D02*
X150686500Y-91903000D01*
X152651888Y-92936000D02*
X152425888Y-92710000D01*
X158079998Y-94595149D02*
X158080000Y-93137001D01*
X158456372Y-99482010D02*
X158456372Y-97226271D01*
X159085000Y-107162124D02*
X158858372Y-106935496D01*
X158858372Y-106935496D02*
X158858372Y-102139752D01*
X158255372Y-97025271D02*
X158255372Y-94770523D01*
X159286000Y-111874612D02*
X159286000Y-109618868D01*
X150686500Y-91903000D02*
X150686500Y-91371000D01*
X159468694Y-112057306D02*
X159286000Y-111874612D01*
X158080000Y-93137001D02*
X157878999Y-92936000D01*
X158255372Y-94770523D02*
X158079998Y-94595149D01*
X157878999Y-92936000D02*
X152651888Y-92936000D01*
X159468694Y-114277694D02*
X159468694Y-112057306D01*
X158858372Y-102139752D02*
X158657372Y-101938752D01*
X158456372Y-97226271D02*
X158255372Y-97025271D01*
X160761000Y-115570000D02*
X159468694Y-114277694D01*
X159085000Y-109417868D02*
X159085000Y-107162124D01*
%TO.N,/RTS*%
X137938000Y-118764000D02*
X141513000Y-115189000D01*
X155297000Y-121765000D02*
X142908388Y-121765000D01*
X142141000Y-117254388D02*
X142491888Y-116903500D01*
X142240000Y-115189000D02*
X141513000Y-115189000D01*
X155452000Y-121920000D02*
X155297000Y-121765000D01*
X142491888Y-116903500D02*
X142491888Y-116332000D01*
X142240000Y-116080112D02*
X142240000Y-115189000D01*
X142141000Y-120997612D02*
X142141000Y-117254388D01*
X142491888Y-116332000D02*
X142240000Y-116080112D01*
X142908388Y-121765000D02*
X142141000Y-120997612D01*
X137938000Y-119314000D02*
X137938000Y-118764000D01*
%TO.N,Net-(Q1-Pad1)*%
X138688000Y-121920000D02*
X137312000Y-120544000D01*
X137312000Y-120544000D02*
X137308000Y-120544000D01*
X136779000Y-120015000D02*
X136779000Y-118573000D01*
X137308000Y-120544000D02*
X136779000Y-120015000D01*
X136779000Y-118573000D02*
X137938000Y-117414000D01*
D29*
%TO.N,/DTR*%
X156686000Y-118364000D02*
X156686000Y-117062000D01*
X142240000Y-116459000D02*
X142240000Y-116835776D01*
X142240000Y-116835776D02*
X141915000Y-117160776D01*
X141915000Y-117160776D02*
X141915000Y-119193000D01*
X141605000Y-115824000D02*
X142240000Y-116459000D01*
X156686000Y-117062000D02*
X155702000Y-116078000D01*
X141915000Y-119193000D02*
X139188000Y-121920000D01*
D28*
%TO.N,Net-(Q2-Pad1)*%
X155952000Y-118680000D02*
X155952000Y-121920000D01*
X154686000Y-117414000D02*
X155952000Y-118680000D01*
%TO.N,/RXD*%
X152680500Y-99441000D02*
X153192000Y-98929500D01*
X147574000Y-104521000D02*
X147574000Y-103177479D01*
X147574000Y-103177479D02*
X151310479Y-99441000D01*
X153192000Y-98929500D02*
X153192000Y-98552000D01*
X151310479Y-99441000D02*
X152680500Y-99441000D01*
%TO.N,/TXD*%
X156303000Y-99348000D02*
X155575000Y-100076000D01*
X155575000Y-100076000D02*
X155575000Y-100838000D01*
X156303000Y-98552000D02*
X156303000Y-99348000D01*
%TO.N,Net-(U1-~{SUSPENDB})*%
X151896000Y-100838000D02*
X151896000Y-100080000D01*
X151896000Y-100838000D02*
X151892000Y-100838000D01*
X151896000Y-100080000D02*
X151892000Y-100076000D01*
%TO.N,Net-(U1-~{RST})*%
X149581000Y-98552000D02*
X150876000Y-98552000D01*
X150876000Y-98552000D02*
X151511000Y-97917000D01*
%TO.N,Net-(U1-VBUS)*%
X144170000Y-105156000D02*
X144170000Y-104432500D01*
X149225000Y-105410000D02*
X150241000Y-104394000D01*
X146304000Y-105410000D02*
X149225000Y-105410000D01*
X145669000Y-104013000D02*
X145796000Y-104140000D01*
X145669000Y-104013000D02*
X145605500Y-103949500D01*
X150605000Y-104758000D02*
X150241000Y-104394000D01*
X145796000Y-104140000D02*
X145796000Y-104902000D01*
X145605500Y-103949500D02*
X144653000Y-103949500D01*
X144170000Y-104432500D02*
X144653000Y-103949500D01*
X150605000Y-105156000D02*
X150605000Y-104758000D01*
X145796000Y-104902000D02*
X146304000Y-105410000D01*
%TO.N,Net-(U3-3V3)*%
X136959000Y-75131000D02*
X136652000Y-75438000D01*
X139011500Y-75131000D02*
X136959000Y-75131000D01*
X138248000Y-97989000D02*
X138049000Y-97790000D01*
X138278000Y-98582000D02*
X138248000Y-98552000D01*
X138248000Y-98552000D02*
X138248000Y-97989000D01*
X138278000Y-100838000D02*
X138278000Y-98582000D01*
%TD*%
%TA.AperFunction,Conductor*%
%TO.N,/VDD33*%
G36*
X155966621Y-105759502D02*
G01*
X156013114Y-105813158D01*
X156024500Y-105865500D01*
X156024500Y-107463500D01*
X156004498Y-107531621D01*
X155950842Y-107578114D01*
X155898500Y-107589500D01*
X155784350Y-107589500D01*
X155723803Y-107596009D01*
X155723795Y-107596011D01*
X155586797Y-107647110D01*
X155586792Y-107647112D01*
X155469738Y-107734738D01*
X155382112Y-107851792D01*
X155382110Y-107851797D01*
X155331011Y-107988795D01*
X155331009Y-107988803D01*
X155324500Y-108049350D01*
X155324500Y-109446649D01*
X155331009Y-109507196D01*
X155331011Y-109507204D01*
X155382110Y-109644202D01*
X155382112Y-109644207D01*
X155469738Y-109761261D01*
X155586792Y-109848887D01*
X155586794Y-109848888D01*
X155586796Y-109848889D01*
X155645875Y-109870924D01*
X155723795Y-109899988D01*
X155723803Y-109899990D01*
X155784350Y-109906499D01*
X155784355Y-109906499D01*
X155784362Y-109906500D01*
X155784368Y-109906500D01*
X157430500Y-109906500D01*
X157498621Y-109926502D01*
X157545114Y-109980158D01*
X157556500Y-110032500D01*
X157556500Y-111730471D01*
X157536498Y-111798592D01*
X157519595Y-111819566D01*
X157286566Y-112052595D01*
X157224254Y-112086621D01*
X157197471Y-112089500D01*
X155784350Y-112089500D01*
X155723803Y-112096009D01*
X155723795Y-112096011D01*
X155586797Y-112147110D01*
X155586792Y-112147112D01*
X155469738Y-112234738D01*
X155382112Y-112351792D01*
X155382110Y-112351797D01*
X155331011Y-112488795D01*
X155331009Y-112488803D01*
X155324500Y-112549350D01*
X155324500Y-112563500D01*
X155304498Y-112631621D01*
X155250842Y-112678114D01*
X155198500Y-112689500D01*
X150696490Y-112689500D01*
X150628369Y-112669498D01*
X150581876Y-112615842D01*
X150571772Y-112545568D01*
X150580081Y-112515282D01*
X150591049Y-112488803D01*
X150637430Y-112376831D01*
X150668500Y-112220630D01*
X150668500Y-112061370D01*
X150637430Y-111905169D01*
X150576483Y-111758032D01*
X150521337Y-111675500D01*
X152898500Y-111675500D01*
X154424500Y-111675500D01*
X154424500Y-111250000D01*
X152898500Y-111250000D01*
X152898500Y-111675500D01*
X150521337Y-111675500D01*
X150488003Y-111625611D01*
X150488001Y-111625609D01*
X150487996Y-111625603D01*
X150375396Y-111513003D01*
X150375392Y-111513000D01*
X150375389Y-111512997D01*
X150337295Y-111487543D01*
X150291769Y-111433069D01*
X150283719Y-111407362D01*
X150256430Y-111270169D01*
X150195483Y-111123032D01*
X150107003Y-110990611D01*
X150107001Y-110990609D01*
X150106996Y-110990603D01*
X149994396Y-110878003D01*
X149994390Y-110877998D01*
X149994389Y-110877997D01*
X149861968Y-110789517D01*
X149714831Y-110728570D01*
X149636730Y-110713035D01*
X149558632Y-110697500D01*
X149558630Y-110697500D01*
X149399370Y-110697500D01*
X149399367Y-110697500D01*
X149301984Y-110716871D01*
X149243169Y-110728570D01*
X149243167Y-110728571D01*
X149096032Y-110789517D01*
X148963609Y-110877998D01*
X148963603Y-110878003D01*
X148851003Y-110990603D01*
X148850998Y-110990609D01*
X148769265Y-111112933D01*
X148714788Y-111158461D01*
X148644345Y-111167309D01*
X148580301Y-111136668D01*
X148542990Y-111076266D01*
X148538500Y-111042931D01*
X148538500Y-110540182D01*
X148498735Y-110391778D01*
X148498732Y-110391771D01*
X148460325Y-110325249D01*
X148460324Y-110325248D01*
X148452208Y-110311191D01*
X148421916Y-110258722D01*
X148421912Y-110258718D01*
X148416889Y-110252171D01*
X148418830Y-110250681D01*
X148410813Y-110236000D01*
X153068743Y-110236000D01*
X154424500Y-110236000D01*
X154424500Y-109978331D01*
X154369873Y-109831874D01*
X154367355Y-109824421D01*
X154353533Y-109778862D01*
X154351484Y-109771261D01*
X154336905Y-109709572D01*
X154335335Y-109701861D01*
X154327294Y-109654906D01*
X154326208Y-109647106D01*
X154314857Y-109541519D01*
X154314541Y-109538156D01*
X154312904Y-109517809D01*
X154312678Y-109514442D01*
X154311226Y-109487330D01*
X154311091Y-109483966D01*
X154310545Y-109463582D01*
X154310500Y-109460208D01*
X154310500Y-108710000D01*
X153713449Y-108710000D01*
X153714348Y-108728301D01*
X153714500Y-108734480D01*
X153714500Y-108943520D01*
X153714348Y-108949699D01*
X153712514Y-108987053D01*
X153712060Y-108993220D01*
X153707181Y-109042773D01*
X153706424Y-109048913D01*
X153700933Y-109085934D01*
X153699875Y-109092030D01*
X153659089Y-109297071D01*
X153657734Y-109303105D01*
X153648644Y-109339394D01*
X153646995Y-109345353D01*
X153632541Y-109393002D01*
X153630600Y-109398877D01*
X153617995Y-109434104D01*
X153615770Y-109439872D01*
X153535768Y-109633014D01*
X153533261Y-109638669D01*
X153517263Y-109672493D01*
X153514483Y-109678017D01*
X153491011Y-109721929D01*
X153487961Y-109727312D01*
X153468730Y-109759395D01*
X153465423Y-109764616D01*
X153349288Y-109938426D01*
X153345730Y-109943479D01*
X153323457Y-109973513D01*
X153319654Y-109978387D01*
X153288068Y-110016879D01*
X153284026Y-110021565D01*
X153258888Y-110049302D01*
X153254621Y-110053783D01*
X153106783Y-110201621D01*
X153102302Y-110205888D01*
X153074565Y-110231026D01*
X153069879Y-110235068D01*
X153068743Y-110236000D01*
X148410813Y-110236000D01*
X148390763Y-110199282D01*
X148395828Y-110128467D01*
X148424785Y-110083408D01*
X148564791Y-109943402D01*
X148627101Y-109909379D01*
X148653884Y-109906500D01*
X149481632Y-109906500D01*
X149481638Y-109906500D01*
X149481645Y-109906499D01*
X149481649Y-109906499D01*
X149542196Y-109899990D01*
X149542199Y-109899989D01*
X149542201Y-109899989D01*
X149679204Y-109848889D01*
X149701934Y-109831874D01*
X149796261Y-109761261D01*
X149883887Y-109644207D01*
X149883887Y-109644206D01*
X149883889Y-109644204D01*
X149934989Y-109507201D01*
X149937126Y-109487330D01*
X149941499Y-109446645D01*
X149941500Y-109446638D01*
X149941500Y-109446626D01*
X149941609Y-109444599D01*
X149941767Y-109444148D01*
X149941861Y-109443283D01*
X149942065Y-109443304D01*
X149965222Y-109377644D01*
X150021285Y-109334084D01*
X150034808Y-109329627D01*
X150176223Y-109291735D01*
X150248125Y-109250222D01*
X150309278Y-109214916D01*
X150637279Y-108886914D01*
X150699587Y-108852892D01*
X150770403Y-108857956D01*
X150796366Y-108871243D01*
X150882032Y-108928483D01*
X151029169Y-108989430D01*
X151029173Y-108989430D01*
X151029174Y-108989431D01*
X151030243Y-108989756D01*
X151030734Y-108990078D01*
X151034889Y-108991799D01*
X151034562Y-108992586D01*
X151089625Y-109028670D01*
X151111801Y-109069278D01*
X151112202Y-109069113D01*
X151113744Y-109072836D01*
X151114241Y-109073746D01*
X151114569Y-109074828D01*
X151114569Y-109074829D01*
X151114570Y-109074831D01*
X151175517Y-109221968D01*
X151262068Y-109351502D01*
X151263998Y-109354390D01*
X151264003Y-109354396D01*
X151376603Y-109466996D01*
X151376609Y-109467001D01*
X151376611Y-109467003D01*
X151509032Y-109555483D01*
X151656169Y-109616430D01*
X151812370Y-109647500D01*
X151812371Y-109647500D01*
X151971629Y-109647500D01*
X151971630Y-109647500D01*
X152127831Y-109616430D01*
X152274968Y-109555483D01*
X152407389Y-109467003D01*
X152520003Y-109354389D01*
X152608483Y-109221968D01*
X152669430Y-109074831D01*
X152700500Y-108918630D01*
X152700500Y-108759370D01*
X152669430Y-108603169D01*
X152608483Y-108456032D01*
X152520003Y-108323611D01*
X152520001Y-108323609D01*
X152519996Y-108323603D01*
X152407396Y-108211003D01*
X152407390Y-108210998D01*
X152407389Y-108210997D01*
X152274968Y-108122517D01*
X152127831Y-108061570D01*
X152127829Y-108061569D01*
X152127828Y-108061569D01*
X152126746Y-108061241D01*
X152126248Y-108060915D01*
X152122113Y-108059202D01*
X152122438Y-108058417D01*
X152067368Y-108022321D01*
X152045201Y-107981722D01*
X152044799Y-107981889D01*
X152043247Y-107978142D01*
X152042756Y-107977243D01*
X152042431Y-107976174D01*
X152042430Y-107976173D01*
X152042430Y-107976169D01*
X151981483Y-107829032D01*
X151893003Y-107696611D01*
X151780389Y-107583997D01*
X151732502Y-107552000D01*
X151686974Y-107497523D01*
X151678126Y-107427080D01*
X151678921Y-107422677D01*
X151684500Y-107394630D01*
X151684500Y-107319620D01*
X152898500Y-107319620D01*
X152991427Y-107381712D01*
X152996479Y-107385270D01*
X153026513Y-107407543D01*
X153031387Y-107411346D01*
X153069879Y-107442932D01*
X153074565Y-107446974D01*
X153102302Y-107472112D01*
X153106783Y-107476379D01*
X153254621Y-107624217D01*
X153258888Y-107628698D01*
X153284026Y-107656435D01*
X153288068Y-107661121D01*
X153316689Y-107696000D01*
X154359946Y-107696000D01*
X154367355Y-107671579D01*
X154369873Y-107664126D01*
X154424500Y-107517667D01*
X154424500Y-106753500D01*
X152898500Y-106753500D01*
X152898500Y-107319620D01*
X151684500Y-107319620D01*
X151684500Y-107235370D01*
X151653430Y-107079169D01*
X151592483Y-106932032D01*
X151504003Y-106799611D01*
X151504001Y-106799609D01*
X151503996Y-106799603D01*
X151391396Y-106687003D01*
X151391390Y-106686998D01*
X151385025Y-106682745D01*
X151258968Y-106598517D01*
X151111831Y-106537570D01*
X151052917Y-106525851D01*
X150990008Y-106492942D01*
X150954877Y-106431247D01*
X150951500Y-106402272D01*
X150951500Y-106338884D01*
X150971502Y-106270763D01*
X150988400Y-106249793D01*
X151460865Y-105777327D01*
X151501769Y-105750004D01*
X151504010Y-105749076D01*
X151552193Y-105739500D01*
X155898500Y-105739500D01*
X155966621Y-105759502D01*
G37*
%TD.AperFunction*%
%TA.AperFunction,Conductor*%
G36*
X147592531Y-96153121D02*
G01*
X147637594Y-96182081D01*
X147663113Y-96207600D01*
X147807808Y-96296849D01*
X147969186Y-96350324D01*
X148068789Y-96360500D01*
X148188115Y-96360499D01*
X148256235Y-96380500D01*
X148277205Y-96397399D01*
X149120722Y-97240916D01*
X149155374Y-97260922D01*
X149253777Y-97317735D01*
X149402181Y-97357500D01*
X150679067Y-97357500D01*
X150747188Y-97377502D01*
X150793681Y-97431158D01*
X150803785Y-97501432D01*
X150795476Y-97531719D01*
X150794519Y-97534028D01*
X150794517Y-97534032D01*
X150733570Y-97681169D01*
X150731179Y-97693188D01*
X150702500Y-97837367D01*
X150702500Y-97842500D01*
X150682498Y-97910621D01*
X150628842Y-97957114D01*
X150576500Y-97968500D01*
X150028194Y-97968500D01*
X149979976Y-97958909D01*
X149967277Y-97953649D01*
X149892553Y-97922697D01*
X149858322Y-97908518D01*
X149744246Y-97893500D01*
X149744244Y-97893500D01*
X149417756Y-97893500D01*
X149417747Y-97893500D01*
X149345530Y-97903008D01*
X149312639Y-97903008D01*
X149244218Y-97894000D01*
X149230999Y-97894000D01*
X149214612Y-97910386D01*
X149210998Y-97922697D01*
X149168000Y-97963695D01*
X149161735Y-97967311D01*
X149133704Y-97988821D01*
X149067483Y-98014421D01*
X148997935Y-98000156D01*
X148947139Y-97950555D01*
X148932821Y-97895820D01*
X148931001Y-97894000D01*
X148917783Y-97894000D01*
X148803805Y-97909006D01*
X148661987Y-97967747D01*
X148540199Y-98061199D01*
X148446747Y-98182987D01*
X148388006Y-98324805D01*
X148377843Y-98401999D01*
X148377843Y-98402000D01*
X148501616Y-98402000D01*
X148569737Y-98422002D01*
X148616230Y-98475658D01*
X148626334Y-98545932D01*
X148596840Y-98610512D01*
X148590712Y-98617094D01*
X148542710Y-98665096D01*
X148480402Y-98699120D01*
X148453617Y-98702000D01*
X148377843Y-98702000D01*
X148384619Y-98753472D01*
X148373680Y-98823621D01*
X148348792Y-98859013D01*
X146992552Y-100215253D01*
X146951679Y-100242565D01*
X146925736Y-100253311D01*
X146925724Y-100253318D01*
X146803842Y-100346842D01*
X146710318Y-100468725D01*
X146710313Y-100468733D01*
X146651518Y-100610677D01*
X146636500Y-100724753D01*
X146636500Y-100951246D01*
X146651518Y-101065322D01*
X146710313Y-101207266D01*
X146710318Y-101207274D01*
X146803842Y-101329157D01*
X146925732Y-101422687D01*
X146970698Y-101441312D01*
X147025980Y-101485860D01*
X147048401Y-101553223D01*
X147046060Y-101582300D01*
X147036501Y-101630359D01*
X147036500Y-101630371D01*
X147036500Y-101789632D01*
X147037474Y-101794528D01*
X147067570Y-101945831D01*
X147128517Y-102092968D01*
X147213667Y-102220405D01*
X147216998Y-102225390D01*
X147217003Y-102225396D01*
X147329603Y-102337996D01*
X147329606Y-102337998D01*
X147329611Y-102338003D01*
X147357016Y-102356314D01*
X147402544Y-102410791D01*
X147411392Y-102481234D01*
X147380750Y-102545278D01*
X147376110Y-102550174D01*
X147107087Y-102819197D01*
X147107083Y-102819203D01*
X147084816Y-102857771D01*
X147030267Y-102952251D01*
X147030264Y-102952258D01*
X146990500Y-103100661D01*
X146990500Y-103908917D01*
X146970498Y-103977038D01*
X146953595Y-103998012D01*
X146946003Y-104005603D01*
X146945998Y-104005609D01*
X146900158Y-104074215D01*
X146857517Y-104138032D01*
X146811922Y-104248108D01*
X146796571Y-104285167D01*
X146796570Y-104285170D01*
X146765500Y-104441367D01*
X146765500Y-104600632D01*
X146772316Y-104634899D01*
X146778272Y-104664842D01*
X146780476Y-104675918D01*
X146774148Y-104746632D01*
X146730594Y-104802699D01*
X146663642Y-104826319D01*
X146656897Y-104826500D01*
X146597884Y-104826500D01*
X146529763Y-104806498D01*
X146508789Y-104789595D01*
X146416405Y-104697211D01*
X146382379Y-104634899D01*
X146379500Y-104608116D01*
X146379500Y-104063182D01*
X146371896Y-104034804D01*
X146339735Y-103914777D01*
X146291536Y-103831294D01*
X146262916Y-103781722D01*
X146027278Y-103546084D01*
X146027277Y-103546083D01*
X145963778Y-103482584D01*
X145870101Y-103428500D01*
X145843064Y-103412890D01*
X145830727Y-103405767D01*
X145830724Y-103405766D01*
X145830723Y-103405765D01*
X145830721Y-103405764D01*
X145830720Y-103405764D01*
X145790956Y-103395109D01*
X145682319Y-103366000D01*
X144576181Y-103366000D01*
X144496653Y-103387309D01*
X144427779Y-103405764D01*
X144427772Y-103405767D01*
X144388399Y-103428500D01*
X144341560Y-103455542D01*
X144294723Y-103482583D01*
X144294715Y-103482589D01*
X143703089Y-104074215D01*
X143703084Y-104074222D01*
X143671475Y-104128972D01*
X143668722Y-104133740D01*
X143668721Y-104133741D01*
X143626267Y-104207272D01*
X143626264Y-104207279D01*
X143615325Y-104248106D01*
X143588808Y-104347070D01*
X143586500Y-104355682D01*
X143586500Y-104611115D01*
X143566498Y-104679236D01*
X143512842Y-104725729D01*
X143442568Y-104735833D01*
X143377988Y-104706339D01*
X143371405Y-104700210D01*
X141023195Y-102352000D01*
X145278500Y-102352000D01*
X145715525Y-102352000D01*
X145723767Y-102352270D01*
X145773556Y-102355534D01*
X145781761Y-102356342D01*
X145847600Y-102365010D01*
X145855736Y-102366353D01*
X145904664Y-102376086D01*
X145912693Y-102377958D01*
X146125241Y-102434911D01*
X146133130Y-102437305D01*
X146152842Y-102443996D01*
X146166542Y-102420267D01*
X146121230Y-102310872D01*
X146119005Y-102305104D01*
X146106400Y-102269877D01*
X146104459Y-102264002D01*
X146090005Y-102216353D01*
X146088356Y-102210394D01*
X146079266Y-102174105D01*
X146077911Y-102168071D01*
X146044881Y-102002025D01*
X146024827Y-101979157D01*
X146019597Y-101972784D01*
X145885639Y-101798207D01*
X145880835Y-101791504D01*
X145853113Y-101750014D01*
X145848759Y-101743012D01*
X145815556Y-101685501D01*
X145811669Y-101678229D01*
X145789607Y-101633490D01*
X145786205Y-101625981D01*
X145701999Y-101422690D01*
X145699095Y-101414974D01*
X145683059Y-101367734D01*
X145680666Y-101359844D01*
X145663478Y-101295699D01*
X145661605Y-101287668D01*
X145651871Y-101238732D01*
X145650528Y-101230597D01*
X145632019Y-101090000D01*
X145278500Y-101090000D01*
X145278500Y-102352000D01*
X141023195Y-102352000D01*
X139804284Y-101133089D01*
X139804274Y-101133081D01*
X139719499Y-101084137D01*
X139670506Y-101032755D01*
X139656499Y-100975022D01*
X139656499Y-100698116D01*
X139640838Y-100579150D01*
X139579524Y-100431124D01*
X139579519Y-100431117D01*
X139527538Y-100363374D01*
X139501937Y-100297154D01*
X139501500Y-100286670D01*
X139501500Y-99261500D01*
X139521502Y-99193379D01*
X139575158Y-99146886D01*
X139627500Y-99135500D01*
X141147181Y-99135500D01*
X141149500Y-99135500D01*
X141217621Y-99155502D01*
X141264114Y-99209158D01*
X141275500Y-99261500D01*
X141275500Y-99873817D01*
X141275499Y-99873817D01*
X141315264Y-100022220D01*
X141315267Y-100022227D01*
X141332973Y-100052894D01*
X141392081Y-100155274D01*
X141392083Y-100155276D01*
X141392084Y-100155278D01*
X141595083Y-100358277D01*
X142161778Y-100924972D01*
X142195804Y-100987284D01*
X142197605Y-100997619D01*
X142206519Y-101065324D01*
X142214312Y-101084137D01*
X142265313Y-101207266D01*
X142265318Y-101207274D01*
X142358842Y-101329157D01*
X142480166Y-101422252D01*
X142480732Y-101422686D01*
X142622676Y-101481481D01*
X142736756Y-101496500D01*
X142736763Y-101496500D01*
X143063237Y-101496500D01*
X143063244Y-101496500D01*
X143135472Y-101486991D01*
X143168359Y-101486991D01*
X143236784Y-101495999D01*
X143236793Y-101496000D01*
X143250001Y-101496000D01*
X143266387Y-101479613D01*
X143270002Y-101467303D01*
X143313000Y-101426305D01*
X143319265Y-101422687D01*
X143319268Y-101422686D01*
X143347295Y-101401179D01*
X143413514Y-101375578D01*
X143483063Y-101389842D01*
X143533860Y-101439442D01*
X143548179Y-101494180D01*
X143549999Y-101496000D01*
X143563207Y-101496000D01*
X143563216Y-101495999D01*
X143677194Y-101480993D01*
X143819012Y-101422252D01*
X143940800Y-101328800D01*
X144034252Y-101207012D01*
X144092993Y-101065194D01*
X144103157Y-100988000D01*
X143734500Y-100988000D01*
X143666379Y-100967998D01*
X143619886Y-100914342D01*
X143608500Y-100862000D01*
X143608500Y-100814000D01*
X143628502Y-100745879D01*
X143682158Y-100699386D01*
X143734500Y-100688000D01*
X144103157Y-100688000D01*
X144103156Y-100687999D01*
X144092993Y-100610805D01*
X144034252Y-100468987D01*
X143940800Y-100347199D01*
X143819012Y-100253747D01*
X143677194Y-100195006D01*
X143563216Y-100180000D01*
X143549999Y-100180000D01*
X143547863Y-100182135D01*
X143529998Y-100242979D01*
X143476342Y-100289472D01*
X143406068Y-100299576D01*
X143347296Y-100274821D01*
X143319264Y-100253311D01*
X143313000Y-100249695D01*
X143264007Y-100198313D01*
X143262627Y-100192626D01*
X143250001Y-100180000D01*
X143236777Y-100180000D01*
X143168359Y-100189008D01*
X143135465Y-100189008D01*
X143109619Y-100185605D01*
X143044692Y-100156882D01*
X143036972Y-100149778D01*
X142999789Y-100112595D01*
X142965763Y-100050283D01*
X142970828Y-99979468D01*
X143013375Y-99922632D01*
X143079895Y-99897821D01*
X143088884Y-99897500D01*
X145872817Y-99897500D01*
X145872819Y-99897500D01*
X146021223Y-99857735D01*
X146087750Y-99819325D01*
X146154278Y-99780916D01*
X146436916Y-99498278D01*
X146477325Y-99428287D01*
X146513735Y-99365223D01*
X146553500Y-99216819D01*
X146553500Y-99030746D01*
X146573502Y-98962625D01*
X146579539Y-98954041D01*
X146604683Y-98921273D01*
X146604683Y-98921270D01*
X146604686Y-98921268D01*
X146663481Y-98779324D01*
X146678500Y-98665244D01*
X146678500Y-98438756D01*
X146678345Y-98437584D01*
X146678399Y-98437236D01*
X146678230Y-98434645D01*
X146678809Y-98434606D01*
X146689271Y-98367438D01*
X146714166Y-98332026D01*
X147227916Y-97818278D01*
X147257360Y-97767278D01*
X147273975Y-97738501D01*
X147304732Y-97685228D01*
X147304731Y-97685228D01*
X147304735Y-97685223D01*
X147344500Y-97536819D01*
X147344500Y-96333057D01*
X147364502Y-96264936D01*
X147404354Y-96225816D01*
X147412783Y-96220617D01*
X147433887Y-96207600D01*
X147459405Y-96182081D01*
X147521715Y-96148057D01*
X147592531Y-96153121D01*
G37*
%TD.AperFunction*%
%TA.AperFunction,Conductor*%
G36*
X153992698Y-100547100D02*
G01*
X154030010Y-100607502D01*
X154034500Y-100640838D01*
X154034500Y-100792917D01*
X154014498Y-100861038D01*
X153997595Y-100882012D01*
X153990003Y-100889603D01*
X153989998Y-100889609D01*
X153948814Y-100951246D01*
X153901517Y-101022032D01*
X153883639Y-101065194D01*
X153840571Y-101169167D01*
X153840570Y-101169170D01*
X153809500Y-101325367D01*
X153809500Y-101484632D01*
X153823144Y-101553223D01*
X153840570Y-101640831D01*
X153901517Y-101787968D01*
X153989997Y-101920389D01*
X153989998Y-101920390D01*
X153990003Y-101920396D01*
X154102603Y-102032996D01*
X154102609Y-102033001D01*
X154102611Y-102033003D01*
X154235032Y-102121483D01*
X154382169Y-102182430D01*
X154538370Y-102213500D01*
X154538371Y-102213500D01*
X154697629Y-102213500D01*
X154697630Y-102213500D01*
X154853831Y-102182430D01*
X155000968Y-102121483D01*
X155133389Y-102033003D01*
X155246003Y-101920389D01*
X155334483Y-101787968D01*
X155361330Y-101723152D01*
X155405877Y-101667874D01*
X155473240Y-101645453D01*
X155490089Y-101645980D01*
X155495368Y-101646500D01*
X155495370Y-101646500D01*
X155654629Y-101646500D01*
X155654630Y-101646500D01*
X155810831Y-101615430D01*
X155957968Y-101554483D01*
X156021587Y-101511974D01*
X156089335Y-101490761D01*
X156108031Y-101491819D01*
X156139784Y-101495999D01*
X156139793Y-101496000D01*
X156153001Y-101496000D01*
X156155136Y-101493864D01*
X156173002Y-101433020D01*
X156226658Y-101386527D01*
X156296932Y-101376423D01*
X156355705Y-101401180D01*
X156383730Y-101422685D01*
X156390000Y-101426305D01*
X156438993Y-101477687D01*
X156440372Y-101483373D01*
X156452999Y-101496000D01*
X156466207Y-101496000D01*
X156466213Y-101495999D01*
X156534638Y-101486991D01*
X156567528Y-101486991D01*
X156634095Y-101495754D01*
X156699021Y-101524476D01*
X156706743Y-101531581D01*
X156880595Y-101705433D01*
X156914621Y-101767745D01*
X156917500Y-101794528D01*
X156917500Y-104373211D01*
X156897498Y-104441332D01*
X156843842Y-104487825D01*
X156807947Y-104498133D01*
X156698677Y-104512518D01*
X156577024Y-104562909D01*
X156528806Y-104572500D01*
X152817884Y-104572500D01*
X152749763Y-104552498D01*
X152703270Y-104498842D01*
X152693166Y-104428568D01*
X152722660Y-104363988D01*
X152728789Y-104357405D01*
X152862910Y-104223283D01*
X152862916Y-104223277D01*
X152939736Y-104090222D01*
X152979500Y-103941819D01*
X152979500Y-103788180D01*
X152979500Y-101316746D01*
X152999502Y-101248625D01*
X153005539Y-101240041D01*
X153030683Y-101207273D01*
X153030683Y-101207270D01*
X153030686Y-101207268D01*
X153089481Y-101065324D01*
X153097787Y-101002229D01*
X153126509Y-100937302D01*
X153133619Y-100929574D01*
X153141795Y-100921399D01*
X153204109Y-100887378D01*
X153230885Y-100884500D01*
X153241629Y-100884500D01*
X153241630Y-100884500D01*
X153397831Y-100853430D01*
X153544968Y-100792483D01*
X153677389Y-100704003D01*
X153790003Y-100591389D01*
X153803735Y-100570836D01*
X153858210Y-100525309D01*
X153928653Y-100516460D01*
X153992698Y-100547100D01*
G37*
%TD.AperFunction*%
%TA.AperFunction,Conductor*%
G36*
X153998651Y-98933595D02*
G01*
X154031931Y-98996309D01*
X154034500Y-99021623D01*
X154034500Y-99511161D01*
X154014498Y-99579282D01*
X153960842Y-99625775D01*
X153890568Y-99635879D01*
X153825988Y-99606385D01*
X153803735Y-99581163D01*
X153802478Y-99579282D01*
X153790003Y-99560611D01*
X153789998Y-99560606D01*
X153789996Y-99560603D01*
X153675399Y-99446006D01*
X153641373Y-99383694D01*
X153646438Y-99312879D01*
X153655375Y-99293911D01*
X153712203Y-99195482D01*
X153735732Y-99154728D01*
X153735731Y-99154728D01*
X153735735Y-99154723D01*
X153775500Y-99006319D01*
X153775500Y-99006315D01*
X153776565Y-99002341D01*
X153798311Y-98958247D01*
X153808539Y-98944918D01*
X153865877Y-98903051D01*
X153936748Y-98898830D01*
X153998651Y-98933595D01*
G37*
%TD.AperFunction*%
%TA.AperFunction,Conductor*%
G36*
X147555525Y-92861137D02*
G01*
X147587299Y-92872989D01*
X147587301Y-92872989D01*
X147587303Y-92872990D01*
X147647850Y-92879499D01*
X147647855Y-92879499D01*
X147647862Y-92879500D01*
X148262972Y-92879500D01*
X148331093Y-92899502D01*
X148352067Y-92916405D01*
X148744067Y-93308405D01*
X148778093Y-93370717D01*
X148773028Y-93441532D01*
X148730481Y-93498368D01*
X148663961Y-93523179D01*
X148654972Y-93523500D01*
X148085681Y-93523500D01*
X147986745Y-93550010D01*
X147937276Y-93563265D01*
X147898301Y-93585768D01*
X147882295Y-93595009D01*
X147804223Y-93640083D01*
X147804219Y-93640086D01*
X147087708Y-94356596D01*
X147025396Y-94390621D01*
X146998613Y-94393500D01*
X146493789Y-94393500D01*
X146394190Y-94403675D01*
X146394187Y-94403675D01*
X146394186Y-94403676D01*
X146314223Y-94430172D01*
X146232807Y-94457151D01*
X146088112Y-94546400D01*
X146019167Y-94615345D01*
X145956854Y-94649370D01*
X145886039Y-94644304D01*
X145881854Y-94642658D01*
X145777833Y-94599571D01*
X145777834Y-94599571D01*
X145777831Y-94599570D01*
X145699730Y-94584035D01*
X145621632Y-94568500D01*
X145621630Y-94568500D01*
X145462370Y-94568500D01*
X145462367Y-94568500D01*
X145345219Y-94591802D01*
X145306169Y-94599570D01*
X145306167Y-94599571D01*
X145159031Y-94660517D01*
X145159028Y-94660518D01*
X145124993Y-94683260D01*
X145057240Y-94704474D01*
X145004511Y-94690555D01*
X145003370Y-94693194D01*
X144996095Y-94690046D01*
X144996089Y-94690044D01*
X144886495Y-94658204D01*
X144845415Y-94646269D01*
X144813506Y-94643758D01*
X144810220Y-94643500D01*
X144309780Y-94643500D01*
X144306774Y-94643736D01*
X144274584Y-94646269D01*
X144123908Y-94690045D01*
X143988859Y-94769913D01*
X143988855Y-94769916D01*
X143877916Y-94880855D01*
X143877913Y-94880859D01*
X143798045Y-95015908D01*
X143754269Y-95166584D01*
X143751500Y-95201780D01*
X143751500Y-95552219D01*
X143754269Y-95587415D01*
X143754270Y-95587417D01*
X143754270Y-95587418D01*
X143795781Y-95730301D01*
X143798045Y-95738091D01*
X143877913Y-95873140D01*
X143877916Y-95873144D01*
X143988855Y-95984083D01*
X143988859Y-95984086D01*
X144123911Y-96063956D01*
X144274582Y-96107730D01*
X144309780Y-96110500D01*
X144309781Y-96110500D01*
X144810219Y-96110500D01*
X144810220Y-96110500D01*
X144845418Y-96107730D01*
X144996089Y-96063956D01*
X144996093Y-96063953D01*
X145003364Y-96060808D01*
X145004562Y-96063578D01*
X145059644Y-96049591D01*
X145124994Y-96070739D01*
X145159032Y-96093483D01*
X145306169Y-96154430D01*
X145462370Y-96185500D01*
X145462371Y-96185500D01*
X145621629Y-96185500D01*
X145621630Y-96185500D01*
X145777831Y-96154430D01*
X145881856Y-96111340D01*
X145952443Y-96103752D01*
X146015930Y-96135531D01*
X146019167Y-96138655D01*
X146038817Y-96158305D01*
X146072843Y-96220617D01*
X146067778Y-96291432D01*
X146025231Y-96348268D01*
X145974305Y-96370979D01*
X145941168Y-96377570D01*
X145941167Y-96377570D01*
X145794032Y-96438517D01*
X145661609Y-96526998D01*
X145661603Y-96527003D01*
X145549003Y-96639603D01*
X145548998Y-96639609D01*
X145460517Y-96772032D01*
X145399571Y-96919167D01*
X145399570Y-96919170D01*
X145368500Y-97075367D01*
X145368500Y-97121472D01*
X145348498Y-97189593D01*
X145331595Y-97210567D01*
X145127073Y-97415089D01*
X145097669Y-97444493D01*
X145023090Y-97519071D01*
X145023086Y-97519076D01*
X144949563Y-97646422D01*
X144949560Y-97646429D01*
X144937031Y-97693188D01*
X144914719Y-97776461D01*
X144911500Y-97788473D01*
X144911500Y-98040672D01*
X144891498Y-98108793D01*
X144885463Y-98117375D01*
X144835312Y-98182733D01*
X144776519Y-98324675D01*
X144761500Y-98438753D01*
X144761500Y-98604500D01*
X144741498Y-98672621D01*
X144687842Y-98719114D01*
X144635500Y-98730500D01*
X143144241Y-98730500D01*
X143076120Y-98710498D01*
X143066253Y-98702000D01*
X142693500Y-98702000D01*
X142625379Y-98681998D01*
X142578886Y-98628342D01*
X142567500Y-98576000D01*
X142567500Y-98528000D01*
X142587502Y-98459879D01*
X142641158Y-98413386D01*
X142693500Y-98402000D01*
X143062157Y-98402000D01*
X143062156Y-98401999D01*
X143051993Y-98324805D01*
X142993252Y-98182987D01*
X142899800Y-98061199D01*
X142778012Y-97967747D01*
X142636194Y-97909006D01*
X142522216Y-97894000D01*
X142508999Y-97894000D01*
X142506863Y-97896135D01*
X142488998Y-97956979D01*
X142435342Y-98003472D01*
X142365068Y-98013576D01*
X142306296Y-97988821D01*
X142278264Y-97967311D01*
X142272000Y-97963695D01*
X142223007Y-97912313D01*
X142220552Y-97902196D01*
X142190563Y-97847276D01*
X142195628Y-97776461D01*
X142204564Y-97757495D01*
X142215530Y-97738501D01*
X142241692Y-97693187D01*
X142275735Y-97634223D01*
X142315500Y-97485819D01*
X142315500Y-96813884D01*
X142335502Y-96745763D01*
X142352400Y-96724793D01*
X142939916Y-96137278D01*
X142968720Y-96087387D01*
X142984243Y-96060501D01*
X142996615Y-96039070D01*
X143016270Y-96005027D01*
X143036288Y-95978938D01*
X143142086Y-95873141D01*
X143221956Y-95738089D01*
X143265730Y-95587418D01*
X143268500Y-95552220D01*
X143268500Y-95201780D01*
X143265730Y-95166582D01*
X143221956Y-95015911D01*
X143142086Y-94880859D01*
X143142083Y-94880855D01*
X143031144Y-94769916D01*
X143031140Y-94769913D01*
X142896091Y-94690045D01*
X142896090Y-94690044D01*
X142896089Y-94690044D01*
X142780765Y-94656539D01*
X142745415Y-94646269D01*
X142713506Y-94643758D01*
X142710220Y-94643500D01*
X142209780Y-94643500D01*
X142206774Y-94643736D01*
X142174584Y-94646269D01*
X142023908Y-94690045D01*
X141888859Y-94769913D01*
X141888855Y-94769916D01*
X141777916Y-94880855D01*
X141777913Y-94880859D01*
X141698045Y-95015908D01*
X141654269Y-95166584D01*
X141651500Y-95201780D01*
X141651500Y-95552219D01*
X141654269Y-95587417D01*
X141675154Y-95659304D01*
X141674951Y-95730301D01*
X141643253Y-95783551D01*
X141265086Y-96161719D01*
X141265081Y-96161725D01*
X141242934Y-96200087D01*
X141188266Y-96294772D01*
X141174510Y-96346111D01*
X141156884Y-96411894D01*
X141148500Y-96443182D01*
X141148500Y-97115115D01*
X141128498Y-97183236D01*
X141111595Y-97204210D01*
X140757087Y-97558717D01*
X140757083Y-97558723D01*
X140724230Y-97615628D01*
X140724229Y-97615629D01*
X140680265Y-97691776D01*
X140667745Y-97738501D01*
X140641405Y-97836806D01*
X140640500Y-97840182D01*
X140640500Y-97842500D01*
X140639946Y-97844383D01*
X140639422Y-97848370D01*
X140638800Y-97848288D01*
X140620498Y-97910621D01*
X140566842Y-97957114D01*
X140514500Y-97968500D01*
X139457500Y-97968500D01*
X139389379Y-97948498D01*
X139342886Y-97894842D01*
X139331500Y-97842500D01*
X139331500Y-97650181D01*
X139331499Y-97650179D01*
X139330494Y-97646429D01*
X139325631Y-97628278D01*
X139322788Y-97617669D01*
X139306994Y-97558722D01*
X139291736Y-97501778D01*
X139233904Y-97401611D01*
X139214918Y-97368726D01*
X139214913Y-97368720D01*
X138995404Y-97149210D01*
X138961379Y-97086898D01*
X138958500Y-97060115D01*
X138958500Y-96010917D01*
X138978502Y-95942796D01*
X138995400Y-95921826D01*
X139044086Y-95873141D01*
X139123956Y-95738089D01*
X139167730Y-95587418D01*
X139170500Y-95552220D01*
X139170500Y-95201780D01*
X139167730Y-95166582D01*
X139123956Y-95015911D01*
X139123954Y-95015907D01*
X139119064Y-95007638D01*
X139101605Y-94938822D01*
X139124122Y-94871491D01*
X139179467Y-94827022D01*
X139227518Y-94817500D01*
X139533115Y-94817500D01*
X139601236Y-94837502D01*
X139622210Y-94854405D01*
X139666189Y-94898384D01*
X139700215Y-94960696D01*
X139698091Y-95022631D01*
X139656269Y-95166582D01*
X139653500Y-95201780D01*
X139653500Y-95552219D01*
X139656269Y-95587415D01*
X139656270Y-95587417D01*
X139656270Y-95587418D01*
X139697781Y-95730301D01*
X139700045Y-95738091D01*
X139779913Y-95873140D01*
X139779916Y-95873144D01*
X139890855Y-95984083D01*
X139890859Y-95984086D01*
X140025911Y-96063956D01*
X140176582Y-96107730D01*
X140211780Y-96110500D01*
X140211781Y-96110500D01*
X140712219Y-96110500D01*
X140712220Y-96110500D01*
X140747418Y-96107730D01*
X140898089Y-96063956D01*
X141033141Y-95984086D01*
X141144086Y-95873141D01*
X141223956Y-95738089D01*
X141267730Y-95587418D01*
X141270500Y-95552220D01*
X141270500Y-95201780D01*
X141267730Y-95166582D01*
X141223956Y-95015911D01*
X141144086Y-94880859D01*
X141144083Y-94880855D01*
X141065747Y-94802519D01*
X141033135Y-94746035D01*
X141005736Y-94643778D01*
X140949514Y-94546400D01*
X140928918Y-94510726D01*
X140928910Y-94510716D01*
X140858789Y-94440595D01*
X140824763Y-94378283D01*
X140829828Y-94307468D01*
X140872375Y-94250632D01*
X140938895Y-94225821D01*
X140947884Y-94225500D01*
X142604718Y-94225500D01*
X142604720Y-94225500D01*
X142746765Y-94187439D01*
X142874119Y-94113911D01*
X143172820Y-93815209D01*
X143235131Y-93781186D01*
X143261914Y-93778306D01*
X143785800Y-93778306D01*
X143785802Y-93778306D01*
X143927847Y-93740245D01*
X144055201Y-93666717D01*
X144190514Y-93531403D01*
X144252824Y-93497380D01*
X144279608Y-93494500D01*
X144984638Y-93494500D01*
X144984640Y-93494500D01*
X145126685Y-93456439D01*
X145254039Y-93382911D01*
X145331546Y-93305403D01*
X145393856Y-93271380D01*
X145420640Y-93268500D01*
X146161026Y-93268500D01*
X146161028Y-93268500D01*
X146303073Y-93230439D01*
X146430427Y-93156911D01*
X146670934Y-92916403D01*
X146733245Y-92882380D01*
X146760028Y-92879500D01*
X147375132Y-92879500D01*
X147375138Y-92879500D01*
X147375145Y-92879499D01*
X147375149Y-92879499D01*
X147435696Y-92872990D01*
X147435697Y-92872989D01*
X147435701Y-92872989D01*
X147467466Y-92861140D01*
X147538279Y-92856074D01*
X147555525Y-92861137D01*
G37*
%TD.AperFunction*%
%TA.AperFunction,Conductor*%
G36*
X137445121Y-73418504D02*
G01*
X137491614Y-73472160D01*
X137503000Y-73524502D01*
X137503000Y-74359632D01*
X137503001Y-74359652D01*
X137508202Y-74408033D01*
X137495596Y-74477901D01*
X137447217Y-74529863D01*
X137382924Y-74547500D01*
X137035820Y-74547500D01*
X136882181Y-74547500D01*
X136802655Y-74568808D01*
X136733780Y-74587263D01*
X136733773Y-74587266D01*
X136689862Y-74612619D01*
X136626862Y-74629500D01*
X136572367Y-74629500D01*
X136455219Y-74652802D01*
X136416169Y-74660570D01*
X136269032Y-74721517D01*
X136136609Y-74809998D01*
X136136603Y-74810003D01*
X136024003Y-74922603D01*
X136023998Y-74922609D01*
X135935517Y-75055032D01*
X135874571Y-75202167D01*
X135874570Y-75202170D01*
X135843500Y-75358367D01*
X135843500Y-75358370D01*
X135843500Y-75517630D01*
X135874570Y-75673831D01*
X135935517Y-75820968D01*
X135989906Y-75902367D01*
X136023998Y-75953390D01*
X136024003Y-75953396D01*
X136136603Y-76065996D01*
X136136609Y-76066001D01*
X136136611Y-76066003D01*
X136269032Y-76154483D01*
X136416169Y-76215430D01*
X136557442Y-76243530D01*
X136620351Y-76276437D01*
X136655483Y-76338132D01*
X136651683Y-76409027D01*
X136621956Y-76456204D01*
X136203567Y-76874595D01*
X136141255Y-76908620D01*
X136114471Y-76911500D01*
X135154324Y-76911500D01*
X135086203Y-76891498D01*
X135042057Y-76842703D01*
X134998892Y-76757988D01*
X134976315Y-76726914D01*
X134873206Y-76584996D01*
X134873203Y-76584993D01*
X134873201Y-76584990D01*
X134769840Y-76481629D01*
X134735814Y-76419317D01*
X134740879Y-76348502D01*
X134783426Y-76291666D01*
X134814903Y-76274478D01*
X134932965Y-76230444D01*
X135049904Y-76142904D01*
X135137444Y-76025965D01*
X135137444Y-76025964D01*
X135188494Y-75889093D01*
X135194999Y-75828597D01*
X135195000Y-75828585D01*
X135195000Y-75184000D01*
X134267703Y-75184000D01*
X134302925Y-75122993D01*
X134337000Y-74995826D01*
X134337000Y-74864174D01*
X134302925Y-74737007D01*
X134267703Y-74676000D01*
X135195000Y-74676000D01*
X135195000Y-74031414D01*
X135194999Y-74031402D01*
X135188494Y-73970906D01*
X135137444Y-73834035D01*
X135137444Y-73834034D01*
X135049904Y-73717095D01*
X134927374Y-73625370D01*
X134884827Y-73568534D01*
X134879763Y-73497718D01*
X134913788Y-73435406D01*
X134976100Y-73401381D01*
X135002883Y-73398502D01*
X137377000Y-73398502D01*
X137445121Y-73418504D01*
G37*
%TD.AperFunction*%
%TD*%
M02*
