%TF.GenerationSoftware,KiCad,Pcbnew,9.0.5*%
%TF.CreationDate,2025-10-26T01:34:21+08:00*%
%TF.ProjectId,KiCAD_Proj (ESP32),4b694341-445f-4507-926f-6a2028455350,rev?*%
%TF.SameCoordinates,Original*%
%TF.FileFunction,Soldermask,Top*%
%TF.FilePolarity,Negative*%
%FSLAX46Y46*%
G04 Gerber Fmt 4.6, Leading zero omitted, Abs format (unit mm)*
G04 Created by KiCad (PCBNEW 9.0.5) date 2025-10-26 01:34:21*
%MOMM*%
%LPD*%
G01*
G04 APERTURE LIST*
G04 Aperture macros list*
%AMRoundRect*
0 Rectangle with rounded corners*
0 $1 Rounding radius*
0 $2 $3 $4 $5 $6 $7 $8 $9 X,Y pos of 4 corners*
0 Add a 4 corners polygon primitive as box body*
4,1,4,$2,$3,$4,$5,$6,$7,$8,$9,$2,$3,0*
0 Add four circle primitives for the rounded corners*
1,1,$1+$1,$2,$3*
1,1,$1+$1,$4,$5*
1,1,$1+$1,$6,$7*
1,1,$1+$1,$8,$9*
0 Add four rect primitives between the rounded corners*
20,1,$1+$1,$2,$3,$4,$5,0*
20,1,$1+$1,$4,$5,$6,$7,0*
20,1,$1+$1,$6,$7,$8,$9,0*
20,1,$1+$1,$8,$9,$2,$3,0*%
G04 Aperture macros list end*
%ADD10RoundRect,0.075000X0.125000X0.075000X-0.125000X0.075000X-0.125000X-0.075000X0.125000X-0.075000X0*%
%ADD11R,1.700000X1.700000*%
%ADD12C,1.700000*%
%ADD13RoundRect,0.112500X-0.187500X-0.112500X0.187500X-0.112500X0.187500X0.112500X-0.187500X0.112500X0*%
%ADD14RoundRect,0.075000X-0.125000X-0.075000X0.125000X-0.075000X0.125000X0.075000X-0.125000X0.075000X0*%
%ADD15R,1.550000X1.300000*%
%ADD16RoundRect,0.102000X-0.450000X-0.400000X0.450000X-0.400000X0.450000X0.400000X-0.450000X0.400000X0*%
%ADD17RoundRect,0.100000X-0.130000X-0.100000X0.130000X-0.100000X0.130000X0.100000X-0.130000X0.100000X0*%
%ADD18RoundRect,0.102000X-1.000000X-0.450000X1.000000X-0.450000X1.000000X0.450000X-1.000000X0.450000X0*%
%ADD19RoundRect,0.102000X-0.450000X-1.000000X0.450000X-1.000000X0.450000X1.000000X-0.450000X1.000000X0*%
%ADD20RoundRect,0.102000X-2.500000X-2.500000X2.500000X-2.500000X2.500000X2.500000X-2.500000X2.500000X0*%
%ADD21RoundRect,0.100000X-0.100000X-0.575000X0.100000X-0.575000X0.100000X0.575000X-0.100000X0.575000X0*%
%ADD22O,1.000000X1.900000*%
%ADD23R,0.875000X1.900000*%
%ADD24O,1.050000X1.250000*%
%ADD25RoundRect,0.250000X-1.200000X-0.700000X1.200000X-0.700000X1.200000X0.700000X-1.200000X0.700000X0*%
%ADD26RoundRect,0.218750X-0.218750X-0.256250X0.218750X-0.256250X0.218750X0.256250X-0.218750X0.256250X0*%
G04 APERTURE END LIST*
D10*
%TO.C,C19*%
X143400000Y-100838000D03*
X142900000Y-100838000D03*
%TD*%
D11*
%TO.C,J2*%
X133837000Y-74930000D03*
D12*
X133837000Y-77470000D03*
X133837000Y-80010000D03*
X133837000Y-82550000D03*
X133837000Y-85090000D03*
X133837000Y-87630000D03*
X133837000Y-90170000D03*
X133837000Y-92710000D03*
X133837000Y-95250000D03*
X133837000Y-97790000D03*
X133837000Y-100330000D03*
X133837000Y-102870000D03*
X133837000Y-105410000D03*
X133837000Y-107950000D03*
X133837000Y-110490000D03*
X133837000Y-113030000D03*
X133837000Y-115570000D03*
X133837000Y-118110000D03*
X133837000Y-120650000D03*
%TD*%
D13*
%TO.C,D3*%
X154618000Y-95377000D03*
X156718000Y-95377000D03*
%TD*%
D14*
%TO.C,R23*%
X151896000Y-100838000D03*
X152396000Y-100838000D03*
%TD*%
%TO.C,R22*%
X155452000Y-121920000D03*
X155952000Y-121920000D03*
%TD*%
%TO.C,C9*%
X145470000Y-98552000D03*
X145970000Y-98552000D03*
%TD*%
D15*
%TO.C,SW1*%
X137990000Y-108748000D03*
X145940000Y-108748000D03*
X137990000Y-113248000D03*
X145940000Y-113248000D03*
%TD*%
D11*
%TO.C,J3*%
X160761000Y-74930000D03*
D12*
X160761000Y-77470000D03*
X160761000Y-80010000D03*
X160761000Y-82550000D03*
X160761000Y-85090000D03*
X160761000Y-87630000D03*
X160761000Y-90170000D03*
X160761000Y-92710000D03*
X160761000Y-95250000D03*
X160761000Y-97790000D03*
X160761000Y-100330000D03*
X160761000Y-102870000D03*
X160761000Y-105410000D03*
X160761000Y-107950000D03*
X160761000Y-110490000D03*
X160761000Y-113030000D03*
X160761000Y-115570000D03*
X160761000Y-118110000D03*
X160761000Y-120650000D03*
%TD*%
D16*
%TO.C,Q2*%
X154686000Y-117414000D03*
X154686000Y-119314000D03*
X156686000Y-118364000D03*
%TD*%
D13*
%TO.C,D4*%
X150554000Y-95377000D03*
X152654000Y-95377000D03*
%TD*%
D10*
%TO.C,R2*%
X147845000Y-100838000D03*
X147345000Y-100838000D03*
%TD*%
D14*
%TO.C,C22*%
X138248000Y-98552000D03*
X138748000Y-98552000D03*
%TD*%
D17*
%TO.C,C21*%
X138278000Y-100838000D03*
X138918000Y-100838000D03*
%TD*%
D10*
%TO.C,R21*%
X139188000Y-121920000D03*
X138688000Y-121920000D03*
%TD*%
D18*
%TO.C,MOD1*%
X139011500Y-73861000D03*
X139011500Y-75131000D03*
X139011500Y-76401000D03*
X139011500Y-77671000D03*
X139011500Y-78941000D03*
X139011500Y-80211000D03*
X139011500Y-81481000D03*
X139011500Y-82751000D03*
X139011500Y-84021000D03*
X139011500Y-85291000D03*
X139011500Y-86561000D03*
X139011500Y-87831000D03*
X139011500Y-89101000D03*
X139011500Y-90371000D03*
D19*
X141796500Y-91371000D03*
X143066500Y-91371000D03*
X144336500Y-91371000D03*
X145606500Y-91371000D03*
X146876500Y-91371000D03*
X148146500Y-91371000D03*
X149416500Y-91371000D03*
X150686500Y-91371000D03*
X151956500Y-91371000D03*
X153226500Y-91371000D03*
D18*
X156011500Y-90371000D03*
X156011500Y-89101000D03*
X156011500Y-87831000D03*
X156011500Y-86561000D03*
X156011500Y-85291000D03*
X156011500Y-84021000D03*
X156011500Y-82751000D03*
X156011500Y-81481000D03*
X156011500Y-80211000D03*
X156011500Y-78941000D03*
X156011500Y-77671000D03*
X156011500Y-76401000D03*
X156011500Y-75131000D03*
X156011500Y-73861000D03*
D20*
X146511500Y-81361000D03*
%TD*%
D14*
%TO.C,R11*%
X156303000Y-100838000D03*
X156803000Y-100838000D03*
%TD*%
D10*
%TO.C,R18*%
X156803000Y-98552000D03*
X156303000Y-98552000D03*
%TD*%
D14*
%TO.C,R25*%
X144170000Y-105156000D03*
X144670000Y-105156000D03*
%TD*%
D10*
%TO.C,C20*%
X142359000Y-98552000D03*
X141859000Y-98552000D03*
%TD*%
%TO.C,C15*%
X138151000Y-105156000D03*
X137651000Y-105156000D03*
%TD*%
D21*
%TO.C,J1*%
X148599000Y-116403000D03*
X147949000Y-116403000D03*
X147299000Y-116403000D03*
X146649000Y-116403000D03*
X145999000Y-116403000D03*
D22*
X143124000Y-119078000D03*
D23*
X143561500Y-119078000D03*
D24*
X145074000Y-116078000D03*
D25*
X147299000Y-119078000D03*
D24*
X149524000Y-116078000D03*
D23*
X151036500Y-119078000D03*
D22*
X151474000Y-119078000D03*
%TD*%
D16*
%TO.C,Q1*%
X137938000Y-117414000D03*
X137938000Y-119314000D03*
X139938000Y-118364000D03*
%TD*%
D14*
%TO.C,C14*%
X156976000Y-105156000D03*
X157476000Y-105156000D03*
%TD*%
%TO.C,R24*%
X149081000Y-98552000D03*
X149581000Y-98552000D03*
%TD*%
D26*
%TO.C,D1*%
X146761000Y-95377000D03*
X148336000Y-95377000D03*
%TD*%
D13*
%TO.C,D5*%
X142460000Y-95377000D03*
X144560000Y-95377000D03*
%TD*%
%TO.C,D6*%
X138362000Y-95377000D03*
X140462000Y-95377000D03*
%TD*%
D14*
%TO.C,R17*%
X152692000Y-98552000D03*
X153192000Y-98552000D03*
%TD*%
%TO.C,R26*%
X150605000Y-105156000D03*
X151105000Y-105156000D03*
%TD*%
D15*
%TO.C,SW2*%
X148658000Y-108748000D03*
X156608000Y-108748000D03*
X148658000Y-113248000D03*
X156608000Y-113248000D03*
%TD*%
M02*
