%TF.GenerationSoftware,KiCad,Pcbnew,9.0.5*%
%TF.CreationDate,2025-10-26T01:34:21+08:00*%
%TF.ProjectId,KiCAD_Proj (ESP32),4b694341-445f-4507-926f-6a2028455350,rev?*%
%TF.SameCoordinates,Original*%
%TF.FileFunction,Legend,Top*%
%TF.FilePolarity,Positive*%
%FSLAX46Y46*%
G04 Gerber Fmt 4.6, Leading zero omitted, Abs format (unit mm)*
G04 Created by KiCad (PCBNEW 9.0.5) date 2025-10-26 01:34:21*
%MOMM*%
%LPD*%
G01*
G04 APERTURE LIST*
%ADD10C,0.175000*%
%ADD11C,0.150000*%
%ADD12C,0.120000*%
%ADD13C,0.127000*%
%ADD14C,0.200000*%
G04 APERTURE END LIST*
D10*
X135577333Y-92324733D02*
X136010666Y-92324733D01*
X136010666Y-92324733D02*
X135777333Y-92591400D01*
X135777333Y-92591400D02*
X135877333Y-92591400D01*
X135877333Y-92591400D02*
X135943999Y-92624733D01*
X135943999Y-92624733D02*
X135977333Y-92658066D01*
X135977333Y-92658066D02*
X136010666Y-92724733D01*
X136010666Y-92724733D02*
X136010666Y-92891400D01*
X136010666Y-92891400D02*
X135977333Y-92958066D01*
X135977333Y-92958066D02*
X135943999Y-92991400D01*
X135943999Y-92991400D02*
X135877333Y-93024733D01*
X135877333Y-93024733D02*
X135677333Y-93024733D01*
X135677333Y-93024733D02*
X135610666Y-92991400D01*
X135610666Y-92991400D02*
X135577333Y-92958066D01*
X136244000Y-92324733D02*
X136677333Y-92324733D01*
X136677333Y-92324733D02*
X136444000Y-92591400D01*
X136444000Y-92591400D02*
X136544000Y-92591400D01*
X136544000Y-92591400D02*
X136610666Y-92624733D01*
X136610666Y-92624733D02*
X136644000Y-92658066D01*
X136644000Y-92658066D02*
X136677333Y-92724733D01*
X136677333Y-92724733D02*
X136677333Y-92891400D01*
X136677333Y-92891400D02*
X136644000Y-92958066D01*
X136644000Y-92958066D02*
X136610666Y-92991400D01*
X136610666Y-92991400D02*
X136544000Y-93024733D01*
X136544000Y-93024733D02*
X136344000Y-93024733D01*
X136344000Y-93024733D02*
X136277333Y-92991400D01*
X136277333Y-92991400D02*
X136244000Y-92958066D01*
X135610666Y-94931400D02*
X135643999Y-94898066D01*
X135643999Y-94898066D02*
X135710666Y-94864733D01*
X135710666Y-94864733D02*
X135877333Y-94864733D01*
X135877333Y-94864733D02*
X135943999Y-94898066D01*
X135943999Y-94898066D02*
X135977333Y-94931400D01*
X135977333Y-94931400D02*
X136010666Y-94998066D01*
X136010666Y-94998066D02*
X136010666Y-95064733D01*
X136010666Y-95064733D02*
X135977333Y-95164733D01*
X135977333Y-95164733D02*
X135577333Y-95564733D01*
X135577333Y-95564733D02*
X136010666Y-95564733D01*
X136644000Y-94864733D02*
X136310666Y-94864733D01*
X136310666Y-94864733D02*
X136277333Y-95198066D01*
X136277333Y-95198066D02*
X136310666Y-95164733D01*
X136310666Y-95164733D02*
X136377333Y-95131400D01*
X136377333Y-95131400D02*
X136544000Y-95131400D01*
X136544000Y-95131400D02*
X136610666Y-95164733D01*
X136610666Y-95164733D02*
X136644000Y-95198066D01*
X136644000Y-95198066D02*
X136677333Y-95264733D01*
X136677333Y-95264733D02*
X136677333Y-95431400D01*
X136677333Y-95431400D02*
X136644000Y-95498066D01*
X136644000Y-95498066D02*
X136610666Y-95531400D01*
X136610666Y-95531400D02*
X136544000Y-95564733D01*
X136544000Y-95564733D02*
X136377333Y-95564733D01*
X136377333Y-95564733D02*
X136310666Y-95531400D01*
X136310666Y-95531400D02*
X136277333Y-95498066D01*
X135577333Y-87244733D02*
X136010666Y-87244733D01*
X136010666Y-87244733D02*
X135777333Y-87511400D01*
X135777333Y-87511400D02*
X135877333Y-87511400D01*
X135877333Y-87511400D02*
X135943999Y-87544733D01*
X135943999Y-87544733D02*
X135977333Y-87578066D01*
X135977333Y-87578066D02*
X136010666Y-87644733D01*
X136010666Y-87644733D02*
X136010666Y-87811400D01*
X136010666Y-87811400D02*
X135977333Y-87878066D01*
X135977333Y-87878066D02*
X135943999Y-87911400D01*
X135943999Y-87911400D02*
X135877333Y-87944733D01*
X135877333Y-87944733D02*
X135677333Y-87944733D01*
X135677333Y-87944733D02*
X135610666Y-87911400D01*
X135610666Y-87911400D02*
X135577333Y-87878066D01*
X136644000Y-87244733D02*
X136310666Y-87244733D01*
X136310666Y-87244733D02*
X136277333Y-87578066D01*
X136277333Y-87578066D02*
X136310666Y-87544733D01*
X136310666Y-87544733D02*
X136377333Y-87511400D01*
X136377333Y-87511400D02*
X136544000Y-87511400D01*
X136544000Y-87511400D02*
X136610666Y-87544733D01*
X136610666Y-87544733D02*
X136644000Y-87578066D01*
X136644000Y-87578066D02*
X136677333Y-87644733D01*
X136677333Y-87644733D02*
X136677333Y-87811400D01*
X136677333Y-87811400D02*
X136644000Y-87878066D01*
X136644000Y-87878066D02*
X136610666Y-87911400D01*
X136610666Y-87911400D02*
X136544000Y-87944733D01*
X136544000Y-87944733D02*
X136377333Y-87944733D01*
X136377333Y-87944733D02*
X136310666Y-87911400D01*
X136310666Y-87911400D02*
X136277333Y-87878066D01*
X158777400Y-118993333D02*
X158810733Y-118893333D01*
X158810733Y-118893333D02*
X158810733Y-118726667D01*
X158810733Y-118726667D02*
X158777400Y-118660000D01*
X158777400Y-118660000D02*
X158744066Y-118626667D01*
X158744066Y-118626667D02*
X158677400Y-118593333D01*
X158677400Y-118593333D02*
X158610733Y-118593333D01*
X158610733Y-118593333D02*
X158544066Y-118626667D01*
X158544066Y-118626667D02*
X158510733Y-118660000D01*
X158510733Y-118660000D02*
X158477400Y-118726667D01*
X158477400Y-118726667D02*
X158444066Y-118860000D01*
X158444066Y-118860000D02*
X158410733Y-118926667D01*
X158410733Y-118926667D02*
X158377400Y-118960000D01*
X158377400Y-118960000D02*
X158310733Y-118993333D01*
X158310733Y-118993333D02*
X158244066Y-118993333D01*
X158244066Y-118993333D02*
X158177400Y-118960000D01*
X158177400Y-118960000D02*
X158144066Y-118926667D01*
X158144066Y-118926667D02*
X158110733Y-118860000D01*
X158110733Y-118860000D02*
X158110733Y-118693333D01*
X158110733Y-118693333D02*
X158144066Y-118593333D01*
X158810733Y-118293333D02*
X158110733Y-118293333D01*
X158110733Y-118293333D02*
X158110733Y-118126666D01*
X158110733Y-118126666D02*
X158144066Y-118026666D01*
X158144066Y-118026666D02*
X158210733Y-117960000D01*
X158210733Y-117960000D02*
X158277400Y-117926666D01*
X158277400Y-117926666D02*
X158410733Y-117893333D01*
X158410733Y-117893333D02*
X158510733Y-117893333D01*
X158510733Y-117893333D02*
X158644066Y-117926666D01*
X158644066Y-117926666D02*
X158710733Y-117960000D01*
X158710733Y-117960000D02*
X158777400Y-118026666D01*
X158777400Y-118026666D02*
X158810733Y-118126666D01*
X158810733Y-118126666D02*
X158810733Y-118293333D01*
X158110733Y-117460000D02*
X158110733Y-117393333D01*
X158110733Y-117393333D02*
X158144066Y-117326666D01*
X158144066Y-117326666D02*
X158177400Y-117293333D01*
X158177400Y-117293333D02*
X158244066Y-117260000D01*
X158244066Y-117260000D02*
X158377400Y-117226666D01*
X158377400Y-117226666D02*
X158544066Y-117226666D01*
X158544066Y-117226666D02*
X158677400Y-117260000D01*
X158677400Y-117260000D02*
X158744066Y-117293333D01*
X158744066Y-117293333D02*
X158777400Y-117326666D01*
X158777400Y-117326666D02*
X158810733Y-117393333D01*
X158810733Y-117393333D02*
X158810733Y-117460000D01*
X158810733Y-117460000D02*
X158777400Y-117526666D01*
X158777400Y-117526666D02*
X158744066Y-117560000D01*
X158744066Y-117560000D02*
X158677400Y-117593333D01*
X158677400Y-117593333D02*
X158544066Y-117626666D01*
X158544066Y-117626666D02*
X158377400Y-117626666D01*
X158377400Y-117626666D02*
X158244066Y-117593333D01*
X158244066Y-117593333D02*
X158177400Y-117560000D01*
X158177400Y-117560000D02*
X158144066Y-117526666D01*
X158144066Y-117526666D02*
X158110733Y-117460000D01*
X158629333Y-105258066D02*
X158629333Y-105724733D01*
X158462667Y-104991400D02*
X158296000Y-105491400D01*
X158296000Y-105491400D02*
X158729333Y-105491400D01*
X135577333Y-89784733D02*
X136010666Y-89784733D01*
X136010666Y-89784733D02*
X135777333Y-90051400D01*
X135777333Y-90051400D02*
X135877333Y-90051400D01*
X135877333Y-90051400D02*
X135943999Y-90084733D01*
X135943999Y-90084733D02*
X135977333Y-90118066D01*
X135977333Y-90118066D02*
X136010666Y-90184733D01*
X136010666Y-90184733D02*
X136010666Y-90351400D01*
X136010666Y-90351400D02*
X135977333Y-90418066D01*
X135977333Y-90418066D02*
X135943999Y-90451400D01*
X135943999Y-90451400D02*
X135877333Y-90484733D01*
X135877333Y-90484733D02*
X135677333Y-90484733D01*
X135677333Y-90484733D02*
X135610666Y-90451400D01*
X135610666Y-90451400D02*
X135577333Y-90418066D01*
X136277333Y-89851400D02*
X136310666Y-89818066D01*
X136310666Y-89818066D02*
X136377333Y-89784733D01*
X136377333Y-89784733D02*
X136544000Y-89784733D01*
X136544000Y-89784733D02*
X136610666Y-89818066D01*
X136610666Y-89818066D02*
X136644000Y-89851400D01*
X136644000Y-89851400D02*
X136677333Y-89918066D01*
X136677333Y-89918066D02*
X136677333Y-89984733D01*
X136677333Y-89984733D02*
X136644000Y-90084733D01*
X136644000Y-90084733D02*
X136244000Y-90484733D01*
X136244000Y-90484733D02*
X136677333Y-90484733D01*
X136137667Y-120264733D02*
X135804333Y-120264733D01*
X135804333Y-120264733D02*
X135771000Y-120598066D01*
X135771000Y-120598066D02*
X135804333Y-120564733D01*
X135804333Y-120564733D02*
X135871000Y-120531400D01*
X135871000Y-120531400D02*
X136037667Y-120531400D01*
X136037667Y-120531400D02*
X136104333Y-120564733D01*
X136104333Y-120564733D02*
X136137667Y-120598066D01*
X136137667Y-120598066D02*
X136171000Y-120664733D01*
X136171000Y-120664733D02*
X136171000Y-120831400D01*
X136171000Y-120831400D02*
X136137667Y-120898066D01*
X136137667Y-120898066D02*
X136104333Y-120931400D01*
X136104333Y-120931400D02*
X136037667Y-120964733D01*
X136037667Y-120964733D02*
X135871000Y-120964733D01*
X135871000Y-120964733D02*
X135804333Y-120931400D01*
X135804333Y-120931400D02*
X135771000Y-120898066D01*
X136371000Y-120264733D02*
X136604334Y-120964733D01*
X136604334Y-120964733D02*
X136837667Y-120264733D01*
X158144066Y-90830332D02*
X158110733Y-90896999D01*
X158110733Y-90896999D02*
X158110733Y-90996999D01*
X158110733Y-90996999D02*
X158144066Y-91096999D01*
X158144066Y-91096999D02*
X158210733Y-91163666D01*
X158210733Y-91163666D02*
X158277400Y-91196999D01*
X158277400Y-91196999D02*
X158410733Y-91230332D01*
X158410733Y-91230332D02*
X158510733Y-91230332D01*
X158510733Y-91230332D02*
X158644066Y-91196999D01*
X158644066Y-91196999D02*
X158710733Y-91163666D01*
X158710733Y-91163666D02*
X158777400Y-91096999D01*
X158777400Y-91096999D02*
X158810733Y-90996999D01*
X158810733Y-90996999D02*
X158810733Y-90930332D01*
X158810733Y-90930332D02*
X158777400Y-90830332D01*
X158777400Y-90830332D02*
X158744066Y-90796999D01*
X158744066Y-90796999D02*
X158510733Y-90796999D01*
X158510733Y-90796999D02*
X158510733Y-90930332D01*
X158810733Y-90496999D02*
X158110733Y-90496999D01*
X158110733Y-90496999D02*
X158810733Y-90096999D01*
X158810733Y-90096999D02*
X158110733Y-90096999D01*
X158810733Y-89763666D02*
X158110733Y-89763666D01*
X158110733Y-89763666D02*
X158110733Y-89596999D01*
X158110733Y-89596999D02*
X158144066Y-89496999D01*
X158144066Y-89496999D02*
X158210733Y-89430333D01*
X158210733Y-89430333D02*
X158277400Y-89396999D01*
X158277400Y-89396999D02*
X158410733Y-89363666D01*
X158410733Y-89363666D02*
X158510733Y-89363666D01*
X158510733Y-89363666D02*
X158644066Y-89396999D01*
X158644066Y-89396999D02*
X158710733Y-89430333D01*
X158710733Y-89430333D02*
X158777400Y-89496999D01*
X158777400Y-89496999D02*
X158810733Y-89596999D01*
X158810733Y-89596999D02*
X158810733Y-89763666D01*
X157962666Y-77151400D02*
X157995999Y-77118066D01*
X157995999Y-77118066D02*
X158062666Y-77084733D01*
X158062666Y-77084733D02*
X158229333Y-77084733D01*
X158229333Y-77084733D02*
X158295999Y-77118066D01*
X158295999Y-77118066D02*
X158329333Y-77151400D01*
X158329333Y-77151400D02*
X158362666Y-77218066D01*
X158362666Y-77218066D02*
X158362666Y-77284733D01*
X158362666Y-77284733D02*
X158329333Y-77384733D01*
X158329333Y-77384733D02*
X157929333Y-77784733D01*
X157929333Y-77784733D02*
X158362666Y-77784733D01*
X158596000Y-77084733D02*
X159029333Y-77084733D01*
X159029333Y-77084733D02*
X158796000Y-77351400D01*
X158796000Y-77351400D02*
X158896000Y-77351400D01*
X158896000Y-77351400D02*
X158962666Y-77384733D01*
X158962666Y-77384733D02*
X158996000Y-77418066D01*
X158996000Y-77418066D02*
X159029333Y-77484733D01*
X159029333Y-77484733D02*
X159029333Y-77651400D01*
X159029333Y-77651400D02*
X158996000Y-77718066D01*
X158996000Y-77718066D02*
X158962666Y-77751400D01*
X158962666Y-77751400D02*
X158896000Y-77784733D01*
X158896000Y-77784733D02*
X158696000Y-77784733D01*
X158696000Y-77784733D02*
X158629333Y-77751400D01*
X158629333Y-77751400D02*
X158596000Y-77718066D01*
X136232456Y-83639776D02*
X136317119Y-83576980D01*
X136317119Y-83576980D02*
X136412715Y-83440454D01*
X136412715Y-83440454D02*
X136423648Y-83366725D01*
X136423648Y-83366725D02*
X136415462Y-83320301D01*
X136415462Y-83320301D02*
X136379971Y-83254757D01*
X136379971Y-83254757D02*
X136325361Y-83216519D01*
X136325361Y-83216519D02*
X136251632Y-83205585D01*
X136251632Y-83205585D02*
X136205208Y-83213771D01*
X136205208Y-83213771D02*
X136139664Y-83249262D01*
X136139664Y-83249262D02*
X136035882Y-83339363D01*
X136035882Y-83339363D02*
X135970339Y-83374854D01*
X135970339Y-83374854D02*
X135923914Y-83383040D01*
X135923914Y-83383040D02*
X135850185Y-83372107D01*
X135850185Y-83372107D02*
X135795575Y-83333868D01*
X135795575Y-83333868D02*
X135760084Y-83268325D01*
X135760084Y-83268325D02*
X135751898Y-83221900D01*
X135751898Y-83221900D02*
X135762831Y-83148171D01*
X135762831Y-83148171D02*
X135858428Y-83011646D01*
X135858428Y-83011646D02*
X135943090Y-82948850D01*
X136620279Y-83260252D02*
X136926186Y-82823371D01*
X136336408Y-82329019D02*
X137043649Y-82539387D01*
X137043649Y-82539387D02*
X136604077Y-81946748D01*
X137311318Y-82157116D02*
X136737911Y-81755613D01*
X136737911Y-81755613D02*
X137540748Y-81829455D01*
X137540748Y-81829455D02*
X136967342Y-81427952D01*
X135862600Y-114686666D02*
X135829266Y-114786666D01*
X135829266Y-114786666D02*
X135829266Y-114953333D01*
X135829266Y-114953333D02*
X135862600Y-115019999D01*
X135862600Y-115019999D02*
X135895933Y-115053333D01*
X135895933Y-115053333D02*
X135962600Y-115086666D01*
X135962600Y-115086666D02*
X136029266Y-115086666D01*
X136029266Y-115086666D02*
X136095933Y-115053333D01*
X136095933Y-115053333D02*
X136129266Y-115019999D01*
X136129266Y-115019999D02*
X136162600Y-114953333D01*
X136162600Y-114953333D02*
X136195933Y-114819999D01*
X136195933Y-114819999D02*
X136229266Y-114753333D01*
X136229266Y-114753333D02*
X136262600Y-114719999D01*
X136262600Y-114719999D02*
X136329266Y-114686666D01*
X136329266Y-114686666D02*
X136395933Y-114686666D01*
X136395933Y-114686666D02*
X136462600Y-114719999D01*
X136462600Y-114719999D02*
X136495933Y-114753333D01*
X136495933Y-114753333D02*
X136529266Y-114819999D01*
X136529266Y-114819999D02*
X136529266Y-114986666D01*
X136529266Y-114986666D02*
X136495933Y-115086666D01*
X135829266Y-115386666D02*
X136529266Y-115386666D01*
X136529266Y-115386666D02*
X136529266Y-115553333D01*
X136529266Y-115553333D02*
X136495933Y-115653333D01*
X136495933Y-115653333D02*
X136429266Y-115720000D01*
X136429266Y-115720000D02*
X136362600Y-115753333D01*
X136362600Y-115753333D02*
X136229266Y-115786666D01*
X136229266Y-115786666D02*
X136129266Y-115786666D01*
X136129266Y-115786666D02*
X135995933Y-115753333D01*
X135995933Y-115753333D02*
X135929266Y-115720000D01*
X135929266Y-115720000D02*
X135862600Y-115653333D01*
X135862600Y-115653333D02*
X135829266Y-115553333D01*
X135829266Y-115553333D02*
X135829266Y-115386666D01*
X136529266Y-116020000D02*
X136529266Y-116453333D01*
X136529266Y-116453333D02*
X136262600Y-116220000D01*
X136262600Y-116220000D02*
X136262600Y-116320000D01*
X136262600Y-116320000D02*
X136229266Y-116386666D01*
X136229266Y-116386666D02*
X136195933Y-116420000D01*
X136195933Y-116420000D02*
X136129266Y-116453333D01*
X136129266Y-116453333D02*
X135962600Y-116453333D01*
X135962600Y-116453333D02*
X135895933Y-116420000D01*
X135895933Y-116420000D02*
X135862600Y-116386666D01*
X135862600Y-116386666D02*
X135829266Y-116320000D01*
X135829266Y-116320000D02*
X135829266Y-116120000D01*
X135829266Y-116120000D02*
X135862600Y-116053333D01*
X135862600Y-116053333D02*
X135895933Y-116020000D01*
X158362666Y-93024733D02*
X157962666Y-93024733D01*
X158162666Y-93024733D02*
X158162666Y-92324733D01*
X158162666Y-92324733D02*
X158095999Y-92424733D01*
X158095999Y-92424733D02*
X158029333Y-92491400D01*
X158029333Y-92491400D02*
X157962666Y-92524733D01*
X158696000Y-93024733D02*
X158829333Y-93024733D01*
X158829333Y-93024733D02*
X158896000Y-92991400D01*
X158896000Y-92991400D02*
X158929333Y-92958066D01*
X158929333Y-92958066D02*
X158996000Y-92858066D01*
X158996000Y-92858066D02*
X159029333Y-92724733D01*
X159029333Y-92724733D02*
X159029333Y-92458066D01*
X159029333Y-92458066D02*
X158996000Y-92391400D01*
X158996000Y-92391400D02*
X158962666Y-92358066D01*
X158962666Y-92358066D02*
X158896000Y-92324733D01*
X158896000Y-92324733D02*
X158762666Y-92324733D01*
X158762666Y-92324733D02*
X158696000Y-92358066D01*
X158696000Y-92358066D02*
X158662666Y-92391400D01*
X158662666Y-92391400D02*
X158629333Y-92458066D01*
X158629333Y-92458066D02*
X158629333Y-92624733D01*
X158629333Y-92624733D02*
X158662666Y-92691400D01*
X158662666Y-92691400D02*
X158696000Y-92724733D01*
X158696000Y-92724733D02*
X158762666Y-92758066D01*
X158762666Y-92758066D02*
X158896000Y-92758066D01*
X158896000Y-92758066D02*
X158962666Y-92724733D01*
X158962666Y-92724733D02*
X158996000Y-92691400D01*
X158996000Y-92691400D02*
X159029333Y-92624733D01*
X157962666Y-87311400D02*
X157995999Y-87278066D01*
X157995999Y-87278066D02*
X158062666Y-87244733D01*
X158062666Y-87244733D02*
X158229333Y-87244733D01*
X158229333Y-87244733D02*
X158295999Y-87278066D01*
X158295999Y-87278066D02*
X158329333Y-87311400D01*
X158329333Y-87311400D02*
X158362666Y-87378066D01*
X158362666Y-87378066D02*
X158362666Y-87444733D01*
X158362666Y-87444733D02*
X158329333Y-87544733D01*
X158329333Y-87544733D02*
X157929333Y-87944733D01*
X157929333Y-87944733D02*
X158362666Y-87944733D01*
X159029333Y-87944733D02*
X158629333Y-87944733D01*
X158829333Y-87944733D02*
X158829333Y-87244733D01*
X158829333Y-87244733D02*
X158762666Y-87344733D01*
X158762666Y-87344733D02*
X158696000Y-87411400D01*
X158696000Y-87411400D02*
X158629333Y-87444733D01*
X136010666Y-103184733D02*
X135610666Y-103184733D01*
X135810666Y-103184733D02*
X135810666Y-102484733D01*
X135810666Y-102484733D02*
X135743999Y-102584733D01*
X135743999Y-102584733D02*
X135677333Y-102651400D01*
X135677333Y-102651400D02*
X135610666Y-102684733D01*
X136610666Y-102718066D02*
X136610666Y-103184733D01*
X136444000Y-102451400D02*
X136277333Y-102951400D01*
X136277333Y-102951400D02*
X136710666Y-102951400D01*
X158362666Y-100644733D02*
X157962666Y-100644733D01*
X158162666Y-100644733D02*
X158162666Y-99944733D01*
X158162666Y-99944733D02*
X158095999Y-100044733D01*
X158095999Y-100044733D02*
X158029333Y-100111400D01*
X158029333Y-100111400D02*
X157962666Y-100144733D01*
X158596000Y-99944733D02*
X159062666Y-99944733D01*
X159062666Y-99944733D02*
X158762666Y-100644733D01*
X158362666Y-95691733D02*
X157962666Y-95691733D01*
X158162666Y-95691733D02*
X158162666Y-94991733D01*
X158162666Y-94991733D02*
X158095999Y-95091733D01*
X158095999Y-95091733D02*
X158029333Y-95158400D01*
X158029333Y-95158400D02*
X157962666Y-95191733D01*
X158762666Y-95291733D02*
X158696000Y-95258400D01*
X158696000Y-95258400D02*
X158662666Y-95225066D01*
X158662666Y-95225066D02*
X158629333Y-95158400D01*
X158629333Y-95158400D02*
X158629333Y-95125066D01*
X158629333Y-95125066D02*
X158662666Y-95058400D01*
X158662666Y-95058400D02*
X158696000Y-95025066D01*
X158696000Y-95025066D02*
X158762666Y-94991733D01*
X158762666Y-94991733D02*
X158896000Y-94991733D01*
X158896000Y-94991733D02*
X158962666Y-95025066D01*
X158962666Y-95025066D02*
X158996000Y-95058400D01*
X158996000Y-95058400D02*
X159029333Y-95125066D01*
X159029333Y-95125066D02*
X159029333Y-95158400D01*
X159029333Y-95158400D02*
X158996000Y-95225066D01*
X158996000Y-95225066D02*
X158962666Y-95258400D01*
X158962666Y-95258400D02*
X158896000Y-95291733D01*
X158896000Y-95291733D02*
X158762666Y-95291733D01*
X158762666Y-95291733D02*
X158696000Y-95325066D01*
X158696000Y-95325066D02*
X158662666Y-95358400D01*
X158662666Y-95358400D02*
X158629333Y-95425066D01*
X158629333Y-95425066D02*
X158629333Y-95558400D01*
X158629333Y-95558400D02*
X158662666Y-95625066D01*
X158662666Y-95625066D02*
X158696000Y-95658400D01*
X158696000Y-95658400D02*
X158762666Y-95691733D01*
X158762666Y-95691733D02*
X158896000Y-95691733D01*
X158896000Y-95691733D02*
X158962666Y-95658400D01*
X158962666Y-95658400D02*
X158996000Y-95625066D01*
X158996000Y-95625066D02*
X159029333Y-95558400D01*
X159029333Y-95558400D02*
X159029333Y-95425066D01*
X159029333Y-95425066D02*
X158996000Y-95358400D01*
X158996000Y-95358400D02*
X158962666Y-95325066D01*
X158962666Y-95325066D02*
X158896000Y-95291733D01*
X136010666Y-105724733D02*
X135610666Y-105724733D01*
X135810666Y-105724733D02*
X135810666Y-105024733D01*
X135810666Y-105024733D02*
X135743999Y-105124733D01*
X135743999Y-105124733D02*
X135677333Y-105191400D01*
X135677333Y-105191400D02*
X135610666Y-105224733D01*
X136277333Y-105091400D02*
X136310666Y-105058066D01*
X136310666Y-105058066D02*
X136377333Y-105024733D01*
X136377333Y-105024733D02*
X136544000Y-105024733D01*
X136544000Y-105024733D02*
X136610666Y-105058066D01*
X136610666Y-105058066D02*
X136644000Y-105091400D01*
X136644000Y-105091400D02*
X136677333Y-105158066D01*
X136677333Y-105158066D02*
X136677333Y-105224733D01*
X136677333Y-105224733D02*
X136644000Y-105324733D01*
X136644000Y-105324733D02*
X136244000Y-105724733D01*
X136244000Y-105724733D02*
X136677333Y-105724733D01*
X136242015Y-81086124D02*
X136326678Y-81023328D01*
X136326678Y-81023328D02*
X136422274Y-80886802D01*
X136422274Y-80886802D02*
X136433207Y-80813073D01*
X136433207Y-80813073D02*
X136425021Y-80766649D01*
X136425021Y-80766649D02*
X136389531Y-80701105D01*
X136389531Y-80701105D02*
X136334920Y-80662867D01*
X136334920Y-80662867D02*
X136261191Y-80651933D01*
X136261191Y-80651933D02*
X136214767Y-80660119D01*
X136214767Y-80660119D02*
X136149223Y-80695610D01*
X136149223Y-80695610D02*
X136045441Y-80785711D01*
X136045441Y-80785711D02*
X135979898Y-80821202D01*
X135979898Y-80821202D02*
X135933474Y-80829388D01*
X135933474Y-80829388D02*
X135859744Y-80818455D01*
X135859744Y-80818455D02*
X135805134Y-80780216D01*
X135805134Y-80780216D02*
X135769643Y-80714673D01*
X135769643Y-80714673D02*
X135761457Y-80668248D01*
X135761457Y-80668248D02*
X135772391Y-80594519D01*
X135772391Y-80594519D02*
X135867987Y-80457994D01*
X135867987Y-80457994D02*
X135952649Y-80395198D01*
X136629838Y-80706600D02*
X136935745Y-80269719D01*
X136345967Y-79775367D02*
X137053208Y-79985735D01*
X137053208Y-79985735D02*
X136613636Y-79393096D01*
X137320877Y-79603464D02*
X136747471Y-79201961D01*
X136747471Y-79201961D02*
X136900424Y-78983520D01*
X136900424Y-78983520D02*
X136965968Y-78948029D01*
X136965968Y-78948029D02*
X137012392Y-78939843D01*
X137012392Y-78939843D02*
X137086121Y-78950777D01*
X137086121Y-78950777D02*
X137168037Y-79008134D01*
X137168037Y-79008134D02*
X137203528Y-79073678D01*
X137203528Y-79073678D02*
X137211713Y-79120102D01*
X137211713Y-79120102D02*
X137200780Y-79193831D01*
X137200780Y-79193831D02*
X137047826Y-79412272D01*
X158662667Y-97404733D02*
X158329333Y-97404733D01*
X158329333Y-97404733D02*
X158296000Y-97738066D01*
X158296000Y-97738066D02*
X158329333Y-97704733D01*
X158329333Y-97704733D02*
X158396000Y-97671400D01*
X158396000Y-97671400D02*
X158562667Y-97671400D01*
X158562667Y-97671400D02*
X158629333Y-97704733D01*
X158629333Y-97704733D02*
X158662667Y-97738066D01*
X158662667Y-97738066D02*
X158696000Y-97804733D01*
X158696000Y-97804733D02*
X158696000Y-97971400D01*
X158696000Y-97971400D02*
X158662667Y-98038066D01*
X158662667Y-98038066D02*
X158629333Y-98071400D01*
X158629333Y-98071400D02*
X158562667Y-98104733D01*
X158562667Y-98104733D02*
X158396000Y-98104733D01*
X158396000Y-98104733D02*
X158329333Y-98071400D01*
X158329333Y-98071400D02*
X158296000Y-98038066D01*
X135531333Y-74544733D02*
X135964666Y-74544733D01*
X135964666Y-74544733D02*
X135731333Y-74811400D01*
X135731333Y-74811400D02*
X135831333Y-74811400D01*
X135831333Y-74811400D02*
X135897999Y-74844733D01*
X135897999Y-74844733D02*
X135931333Y-74878066D01*
X135931333Y-74878066D02*
X135964666Y-74944733D01*
X135964666Y-74944733D02*
X135964666Y-75111400D01*
X135964666Y-75111400D02*
X135931333Y-75178066D01*
X135931333Y-75178066D02*
X135897999Y-75211400D01*
X135897999Y-75211400D02*
X135831333Y-75244733D01*
X135831333Y-75244733D02*
X135631333Y-75244733D01*
X135631333Y-75244733D02*
X135564666Y-75211400D01*
X135564666Y-75211400D02*
X135531333Y-75178066D01*
X136164666Y-74544733D02*
X136398000Y-75244733D01*
X136398000Y-75244733D02*
X136631333Y-74544733D01*
X136798000Y-74544733D02*
X137231333Y-74544733D01*
X137231333Y-74544733D02*
X136998000Y-74811400D01*
X136998000Y-74811400D02*
X137098000Y-74811400D01*
X137098000Y-74811400D02*
X137164666Y-74844733D01*
X137164666Y-74844733D02*
X137198000Y-74878066D01*
X137198000Y-74878066D02*
X137231333Y-74944733D01*
X137231333Y-74944733D02*
X137231333Y-75111400D01*
X137231333Y-75111400D02*
X137198000Y-75178066D01*
X137198000Y-75178066D02*
X137164666Y-75211400D01*
X137164666Y-75211400D02*
X137098000Y-75244733D01*
X137098000Y-75244733D02*
X136898000Y-75244733D01*
X136898000Y-75244733D02*
X136831333Y-75211400D01*
X136831333Y-75211400D02*
X136798000Y-75178066D01*
X135610666Y-100011400D02*
X135643999Y-99978066D01*
X135643999Y-99978066D02*
X135710666Y-99944733D01*
X135710666Y-99944733D02*
X135877333Y-99944733D01*
X135877333Y-99944733D02*
X135943999Y-99978066D01*
X135943999Y-99978066D02*
X135977333Y-100011400D01*
X135977333Y-100011400D02*
X136010666Y-100078066D01*
X136010666Y-100078066D02*
X136010666Y-100144733D01*
X136010666Y-100144733D02*
X135977333Y-100244733D01*
X135977333Y-100244733D02*
X135577333Y-100644733D01*
X135577333Y-100644733D02*
X136010666Y-100644733D01*
X136244000Y-99944733D02*
X136710666Y-99944733D01*
X136710666Y-99944733D02*
X136410666Y-100644733D01*
X157228556Y-83325654D02*
X157457987Y-82997994D01*
X157916678Y-83563327D02*
X157343272Y-83161824D01*
X157553583Y-82861468D02*
X158394658Y-82880701D01*
X157821252Y-82479197D02*
X158126989Y-83262972D01*
X158547612Y-82662260D02*
X157974206Y-82260757D01*
X157974206Y-82260757D02*
X158069802Y-82124231D01*
X158069802Y-82124231D02*
X158154465Y-82061435D01*
X158154465Y-82061435D02*
X158247313Y-82045064D01*
X158247313Y-82045064D02*
X158321042Y-82055997D01*
X158321042Y-82055997D02*
X158449382Y-82105169D01*
X158449382Y-82105169D02*
X158531297Y-82162526D01*
X158531297Y-82162526D02*
X158621398Y-82266308D01*
X158621398Y-82266308D02*
X158656889Y-82331852D01*
X158656889Y-82331852D02*
X158673261Y-82424700D01*
X158673261Y-82424700D02*
X158643208Y-82525735D01*
X158643208Y-82525735D02*
X158547612Y-82662260D01*
X158452186Y-81578130D02*
X158490425Y-81523520D01*
X158490425Y-81523520D02*
X158555968Y-81488029D01*
X158555968Y-81488029D02*
X158602392Y-81479843D01*
X158602392Y-81479843D02*
X158676122Y-81490776D01*
X158676122Y-81490776D02*
X158804461Y-81539948D01*
X158804461Y-81539948D02*
X158940987Y-81635544D01*
X158940987Y-81635544D02*
X159031088Y-81739326D01*
X159031088Y-81739326D02*
X159066578Y-81804870D01*
X159066578Y-81804870D02*
X159074764Y-81851294D01*
X159074764Y-81851294D02*
X159063831Y-81925023D01*
X159063831Y-81925023D02*
X159025593Y-81979633D01*
X159025593Y-81979633D02*
X158960049Y-82015124D01*
X158960049Y-82015124D02*
X158913625Y-82023310D01*
X158913625Y-82023310D02*
X158839895Y-82012377D01*
X158839895Y-82012377D02*
X158711556Y-81963205D01*
X158711556Y-81963205D02*
X158575031Y-81867609D01*
X158575031Y-81867609D02*
X158484930Y-81763827D01*
X158484930Y-81763827D02*
X158449439Y-81698284D01*
X158449439Y-81698284D02*
X158441253Y-81651859D01*
X158441253Y-81651859D02*
X158452186Y-81578130D01*
X152137333Y-106599566D02*
X152370667Y-106599566D01*
X152470667Y-106966233D02*
X152137333Y-106966233D01*
X152137333Y-106966233D02*
X152137333Y-106266233D01*
X152137333Y-106266233D02*
X152470667Y-106266233D01*
X152770666Y-106966233D02*
X152770666Y-106266233D01*
X152770666Y-106266233D02*
X153170666Y-106966233D01*
X153170666Y-106966233D02*
X153170666Y-106266233D01*
X158296000Y-110171400D02*
X158329333Y-110138066D01*
X158329333Y-110138066D02*
X158396000Y-110104733D01*
X158396000Y-110104733D02*
X158562667Y-110104733D01*
X158562667Y-110104733D02*
X158629333Y-110138066D01*
X158629333Y-110138066D02*
X158662667Y-110171400D01*
X158662667Y-110171400D02*
X158696000Y-110238066D01*
X158696000Y-110238066D02*
X158696000Y-110304733D01*
X158696000Y-110304733D02*
X158662667Y-110404733D01*
X158662667Y-110404733D02*
X158262667Y-110804733D01*
X158262667Y-110804733D02*
X158696000Y-110804733D01*
X158040953Y-85925845D02*
X157634067Y-85925788D01*
X157811522Y-86253506D02*
X157238116Y-85852002D01*
X157238116Y-85852002D02*
X157391069Y-85633562D01*
X157391069Y-85633562D02*
X157456613Y-85598071D01*
X157456613Y-85598071D02*
X157503037Y-85589885D01*
X157503037Y-85589885D02*
X157576766Y-85600818D01*
X157576766Y-85600818D02*
X157658682Y-85658176D01*
X157658682Y-85658176D02*
X157694173Y-85723720D01*
X157694173Y-85723720D02*
X157702358Y-85770144D01*
X157702358Y-85770144D02*
X157691425Y-85843873D01*
X157691425Y-85843873D02*
X157538471Y-86062314D01*
X157601381Y-85333206D02*
X158442456Y-85352439D01*
X157869050Y-84950935D02*
X158174787Y-85734710D01*
X158595410Y-85133998D02*
X158022004Y-84732494D01*
X158022004Y-84732494D02*
X158117600Y-84595969D01*
X158117600Y-84595969D02*
X158202262Y-84533173D01*
X158202262Y-84533173D02*
X158295111Y-84516801D01*
X158295111Y-84516801D02*
X158368840Y-84527735D01*
X158368840Y-84527735D02*
X158497180Y-84576906D01*
X158497180Y-84576906D02*
X158579095Y-84634264D01*
X158579095Y-84634264D02*
X158669196Y-84738046D01*
X158669196Y-84738046D02*
X158704687Y-84803589D01*
X158704687Y-84803589D02*
X158721059Y-84896438D01*
X158721059Y-84896438D02*
X158691006Y-84997472D01*
X158691006Y-84997472D02*
X158595410Y-85133998D01*
X158499984Y-84049868D02*
X158538222Y-83995257D01*
X158538222Y-83995257D02*
X158603766Y-83959767D01*
X158603766Y-83959767D02*
X158650190Y-83951581D01*
X158650190Y-83951581D02*
X158723920Y-83962514D01*
X158723920Y-83962514D02*
X158852259Y-84011686D01*
X158852259Y-84011686D02*
X158988784Y-84107282D01*
X158988784Y-84107282D02*
X159078885Y-84211064D01*
X159078885Y-84211064D02*
X159114376Y-84276607D01*
X159114376Y-84276607D02*
X159122562Y-84323032D01*
X159122562Y-84323032D02*
X159111629Y-84396761D01*
X159111629Y-84396761D02*
X159073390Y-84451371D01*
X159073390Y-84451371D02*
X159007847Y-84486862D01*
X159007847Y-84486862D02*
X158961423Y-84495048D01*
X158961423Y-84495048D02*
X158887693Y-84484114D01*
X158887693Y-84484114D02*
X158759354Y-84434943D01*
X158759354Y-84434943D02*
X158622828Y-84339347D01*
X158622828Y-84339347D02*
X158532727Y-84235565D01*
X158532727Y-84235565D02*
X158497236Y-84170021D01*
X158497236Y-84170021D02*
X158489051Y-84123597D01*
X158489051Y-84123597D02*
X158499984Y-84049868D01*
X135610666Y-97471400D02*
X135643999Y-97438066D01*
X135643999Y-97438066D02*
X135710666Y-97404733D01*
X135710666Y-97404733D02*
X135877333Y-97404733D01*
X135877333Y-97404733D02*
X135943999Y-97438066D01*
X135943999Y-97438066D02*
X135977333Y-97471400D01*
X135977333Y-97471400D02*
X136010666Y-97538066D01*
X136010666Y-97538066D02*
X136010666Y-97604733D01*
X136010666Y-97604733D02*
X135977333Y-97704733D01*
X135977333Y-97704733D02*
X135577333Y-98104733D01*
X135577333Y-98104733D02*
X136010666Y-98104733D01*
X136610666Y-97404733D02*
X136477333Y-97404733D01*
X136477333Y-97404733D02*
X136410666Y-97438066D01*
X136410666Y-97438066D02*
X136377333Y-97471400D01*
X136377333Y-97471400D02*
X136310666Y-97571400D01*
X136310666Y-97571400D02*
X136277333Y-97704733D01*
X136277333Y-97704733D02*
X136277333Y-97971400D01*
X136277333Y-97971400D02*
X136310666Y-98038066D01*
X136310666Y-98038066D02*
X136344000Y-98071400D01*
X136344000Y-98071400D02*
X136410666Y-98104733D01*
X136410666Y-98104733D02*
X136544000Y-98104733D01*
X136544000Y-98104733D02*
X136610666Y-98071400D01*
X136610666Y-98071400D02*
X136644000Y-98038066D01*
X136644000Y-98038066D02*
X136677333Y-97971400D01*
X136677333Y-97971400D02*
X136677333Y-97804733D01*
X136677333Y-97804733D02*
X136644000Y-97738066D01*
X136644000Y-97738066D02*
X136610666Y-97704733D01*
X136610666Y-97704733D02*
X136544000Y-97671400D01*
X136544000Y-97671400D02*
X136410666Y-97671400D01*
X136410666Y-97671400D02*
X136344000Y-97704733D01*
X136344000Y-97704733D02*
X136310666Y-97738066D01*
X136310666Y-97738066D02*
X136277333Y-97804733D01*
X158777400Y-116453333D02*
X158810733Y-116353333D01*
X158810733Y-116353333D02*
X158810733Y-116186667D01*
X158810733Y-116186667D02*
X158777400Y-116120000D01*
X158777400Y-116120000D02*
X158744066Y-116086667D01*
X158744066Y-116086667D02*
X158677400Y-116053333D01*
X158677400Y-116053333D02*
X158610733Y-116053333D01*
X158610733Y-116053333D02*
X158544066Y-116086667D01*
X158544066Y-116086667D02*
X158510733Y-116120000D01*
X158510733Y-116120000D02*
X158477400Y-116186667D01*
X158477400Y-116186667D02*
X158444066Y-116320000D01*
X158444066Y-116320000D02*
X158410733Y-116386667D01*
X158410733Y-116386667D02*
X158377400Y-116420000D01*
X158377400Y-116420000D02*
X158310733Y-116453333D01*
X158310733Y-116453333D02*
X158244066Y-116453333D01*
X158244066Y-116453333D02*
X158177400Y-116420000D01*
X158177400Y-116420000D02*
X158144066Y-116386667D01*
X158144066Y-116386667D02*
X158110733Y-116320000D01*
X158110733Y-116320000D02*
X158110733Y-116153333D01*
X158110733Y-116153333D02*
X158144066Y-116053333D01*
X158810733Y-115753333D02*
X158110733Y-115753333D01*
X158110733Y-115753333D02*
X158110733Y-115586666D01*
X158110733Y-115586666D02*
X158144066Y-115486666D01*
X158144066Y-115486666D02*
X158210733Y-115420000D01*
X158210733Y-115420000D02*
X158277400Y-115386666D01*
X158277400Y-115386666D02*
X158410733Y-115353333D01*
X158410733Y-115353333D02*
X158510733Y-115353333D01*
X158510733Y-115353333D02*
X158644066Y-115386666D01*
X158644066Y-115386666D02*
X158710733Y-115420000D01*
X158710733Y-115420000D02*
X158777400Y-115486666D01*
X158777400Y-115486666D02*
X158810733Y-115586666D01*
X158810733Y-115586666D02*
X158810733Y-115753333D01*
X158810733Y-114686666D02*
X158810733Y-115086666D01*
X158810733Y-114886666D02*
X158110733Y-114886666D01*
X158110733Y-114886666D02*
X158210733Y-114953333D01*
X158210733Y-114953333D02*
X158277400Y-115020000D01*
X158277400Y-115020000D02*
X158310733Y-115086666D01*
X158744066Y-121066666D02*
X158777400Y-121099999D01*
X158777400Y-121099999D02*
X158810733Y-121199999D01*
X158810733Y-121199999D02*
X158810733Y-121266666D01*
X158810733Y-121266666D02*
X158777400Y-121366666D01*
X158777400Y-121366666D02*
X158710733Y-121433333D01*
X158710733Y-121433333D02*
X158644066Y-121466666D01*
X158644066Y-121466666D02*
X158510733Y-121499999D01*
X158510733Y-121499999D02*
X158410733Y-121499999D01*
X158410733Y-121499999D02*
X158277400Y-121466666D01*
X158277400Y-121466666D02*
X158210733Y-121433333D01*
X158210733Y-121433333D02*
X158144066Y-121366666D01*
X158144066Y-121366666D02*
X158110733Y-121266666D01*
X158110733Y-121266666D02*
X158110733Y-121199999D01*
X158110733Y-121199999D02*
X158144066Y-121099999D01*
X158144066Y-121099999D02*
X158177400Y-121066666D01*
X158810733Y-120433333D02*
X158810733Y-120766666D01*
X158810733Y-120766666D02*
X158110733Y-120766666D01*
X158810733Y-120199999D02*
X158110733Y-120199999D01*
X158810733Y-119799999D02*
X158410733Y-120099999D01*
X158110733Y-119799999D02*
X158510733Y-120199999D01*
X158144066Y-75463332D02*
X158110733Y-75529999D01*
X158110733Y-75529999D02*
X158110733Y-75629999D01*
X158110733Y-75629999D02*
X158144066Y-75729999D01*
X158144066Y-75729999D02*
X158210733Y-75796666D01*
X158210733Y-75796666D02*
X158277400Y-75829999D01*
X158277400Y-75829999D02*
X158410733Y-75863332D01*
X158410733Y-75863332D02*
X158510733Y-75863332D01*
X158510733Y-75863332D02*
X158644066Y-75829999D01*
X158644066Y-75829999D02*
X158710733Y-75796666D01*
X158710733Y-75796666D02*
X158777400Y-75729999D01*
X158777400Y-75729999D02*
X158810733Y-75629999D01*
X158810733Y-75629999D02*
X158810733Y-75563332D01*
X158810733Y-75563332D02*
X158777400Y-75463332D01*
X158777400Y-75463332D02*
X158744066Y-75429999D01*
X158744066Y-75429999D02*
X158510733Y-75429999D01*
X158510733Y-75429999D02*
X158510733Y-75563332D01*
X158810733Y-75129999D02*
X158110733Y-75129999D01*
X158110733Y-75129999D02*
X158810733Y-74729999D01*
X158810733Y-74729999D02*
X158110733Y-74729999D01*
X158810733Y-74396666D02*
X158110733Y-74396666D01*
X158110733Y-74396666D02*
X158110733Y-74229999D01*
X158110733Y-74229999D02*
X158144066Y-74129999D01*
X158144066Y-74129999D02*
X158210733Y-74063333D01*
X158210733Y-74063333D02*
X158277400Y-74029999D01*
X158277400Y-74029999D02*
X158410733Y-73996666D01*
X158410733Y-73996666D02*
X158510733Y-73996666D01*
X158510733Y-73996666D02*
X158644066Y-74029999D01*
X158644066Y-74029999D02*
X158710733Y-74063333D01*
X158710733Y-74063333D02*
X158777400Y-74129999D01*
X158777400Y-74129999D02*
X158810733Y-74229999D01*
X158810733Y-74229999D02*
X158810733Y-74396666D01*
X135500333Y-77418066D02*
X135733667Y-77418066D01*
X135833667Y-77784733D02*
X135500333Y-77784733D01*
X135500333Y-77784733D02*
X135500333Y-77084733D01*
X135500333Y-77084733D02*
X135833667Y-77084733D01*
X136133666Y-77784733D02*
X136133666Y-77084733D01*
X136133666Y-77084733D02*
X136533666Y-77784733D01*
X136533666Y-77784733D02*
X136533666Y-77084733D01*
X135862600Y-112146666D02*
X135829266Y-112246666D01*
X135829266Y-112246666D02*
X135829266Y-112413333D01*
X135829266Y-112413333D02*
X135862600Y-112479999D01*
X135862600Y-112479999D02*
X135895933Y-112513333D01*
X135895933Y-112513333D02*
X135962600Y-112546666D01*
X135962600Y-112546666D02*
X136029266Y-112546666D01*
X136029266Y-112546666D02*
X136095933Y-112513333D01*
X136095933Y-112513333D02*
X136129266Y-112479999D01*
X136129266Y-112479999D02*
X136162600Y-112413333D01*
X136162600Y-112413333D02*
X136195933Y-112279999D01*
X136195933Y-112279999D02*
X136229266Y-112213333D01*
X136229266Y-112213333D02*
X136262600Y-112179999D01*
X136262600Y-112179999D02*
X136329266Y-112146666D01*
X136329266Y-112146666D02*
X136395933Y-112146666D01*
X136395933Y-112146666D02*
X136462600Y-112179999D01*
X136462600Y-112179999D02*
X136495933Y-112213333D01*
X136495933Y-112213333D02*
X136529266Y-112279999D01*
X136529266Y-112279999D02*
X136529266Y-112446666D01*
X136529266Y-112446666D02*
X136495933Y-112546666D01*
X135829266Y-112846666D02*
X136529266Y-112846666D01*
X136529266Y-112846666D02*
X136529266Y-113013333D01*
X136529266Y-113013333D02*
X136495933Y-113113333D01*
X136495933Y-113113333D02*
X136429266Y-113180000D01*
X136429266Y-113180000D02*
X136362600Y-113213333D01*
X136362600Y-113213333D02*
X136229266Y-113246666D01*
X136229266Y-113246666D02*
X136129266Y-113246666D01*
X136129266Y-113246666D02*
X135995933Y-113213333D01*
X135995933Y-113213333D02*
X135929266Y-113180000D01*
X135929266Y-113180000D02*
X135862600Y-113113333D01*
X135862600Y-113113333D02*
X135829266Y-113013333D01*
X135829266Y-113013333D02*
X135829266Y-112846666D01*
X136462600Y-113513333D02*
X136495933Y-113546666D01*
X136495933Y-113546666D02*
X136529266Y-113613333D01*
X136529266Y-113613333D02*
X136529266Y-113780000D01*
X136529266Y-113780000D02*
X136495933Y-113846666D01*
X136495933Y-113846666D02*
X136462600Y-113880000D01*
X136462600Y-113880000D02*
X136395933Y-113913333D01*
X136395933Y-113913333D02*
X136329266Y-113913333D01*
X136329266Y-113913333D02*
X136229266Y-113880000D01*
X136229266Y-113880000D02*
X135829266Y-113480000D01*
X135829266Y-113480000D02*
X135829266Y-113913333D01*
X158362666Y-113344733D02*
X157962666Y-113344733D01*
X158162666Y-113344733D02*
X158162666Y-112644733D01*
X158162666Y-112644733D02*
X158095999Y-112744733D01*
X158095999Y-112744733D02*
X158029333Y-112811400D01*
X158029333Y-112811400D02*
X157962666Y-112844733D01*
X158996000Y-112644733D02*
X158662666Y-112644733D01*
X158662666Y-112644733D02*
X158629333Y-112978066D01*
X158629333Y-112978066D02*
X158662666Y-112944733D01*
X158662666Y-112944733D02*
X158729333Y-112911400D01*
X158729333Y-112911400D02*
X158896000Y-112911400D01*
X158896000Y-112911400D02*
X158962666Y-112944733D01*
X158962666Y-112944733D02*
X158996000Y-112978066D01*
X158996000Y-112978066D02*
X159029333Y-113044733D01*
X159029333Y-113044733D02*
X159029333Y-113211400D01*
X159029333Y-113211400D02*
X158996000Y-113278066D01*
X158996000Y-113278066D02*
X158962666Y-113311400D01*
X158962666Y-113311400D02*
X158896000Y-113344733D01*
X158896000Y-113344733D02*
X158729333Y-113344733D01*
X158729333Y-113344733D02*
X158662666Y-113311400D01*
X158662666Y-113311400D02*
X158629333Y-113278066D01*
X158462667Y-107564733D02*
X158529333Y-107564733D01*
X158529333Y-107564733D02*
X158596000Y-107598066D01*
X158596000Y-107598066D02*
X158629333Y-107631400D01*
X158629333Y-107631400D02*
X158662667Y-107698066D01*
X158662667Y-107698066D02*
X158696000Y-107831400D01*
X158696000Y-107831400D02*
X158696000Y-107998066D01*
X158696000Y-107998066D02*
X158662667Y-108131400D01*
X158662667Y-108131400D02*
X158629333Y-108198066D01*
X158629333Y-108198066D02*
X158596000Y-108231400D01*
X158596000Y-108231400D02*
X158529333Y-108264733D01*
X158529333Y-108264733D02*
X158462667Y-108264733D01*
X158462667Y-108264733D02*
X158396000Y-108231400D01*
X158396000Y-108231400D02*
X158362667Y-108198066D01*
X158362667Y-108198066D02*
X158329333Y-108131400D01*
X158329333Y-108131400D02*
X158296000Y-107998066D01*
X158296000Y-107998066D02*
X158296000Y-107831400D01*
X158296000Y-107831400D02*
X158329333Y-107698066D01*
X158329333Y-107698066D02*
X158362667Y-107631400D01*
X158362667Y-107631400D02*
X158396000Y-107598066D01*
X158396000Y-107598066D02*
X158462667Y-107564733D01*
X158362666Y-103184733D02*
X157962666Y-103184733D01*
X158162666Y-103184733D02*
X158162666Y-102484733D01*
X158162666Y-102484733D02*
X158095999Y-102584733D01*
X158095999Y-102584733D02*
X158029333Y-102651400D01*
X158029333Y-102651400D02*
X157962666Y-102684733D01*
X158962666Y-102484733D02*
X158829333Y-102484733D01*
X158829333Y-102484733D02*
X158762666Y-102518066D01*
X158762666Y-102518066D02*
X158729333Y-102551400D01*
X158729333Y-102551400D02*
X158662666Y-102651400D01*
X158662666Y-102651400D02*
X158629333Y-102784733D01*
X158629333Y-102784733D02*
X158629333Y-103051400D01*
X158629333Y-103051400D02*
X158662666Y-103118066D01*
X158662666Y-103118066D02*
X158696000Y-103151400D01*
X158696000Y-103151400D02*
X158762666Y-103184733D01*
X158762666Y-103184733D02*
X158896000Y-103184733D01*
X158896000Y-103184733D02*
X158962666Y-103151400D01*
X158962666Y-103151400D02*
X158996000Y-103118066D01*
X158996000Y-103118066D02*
X159029333Y-103051400D01*
X159029333Y-103051400D02*
X159029333Y-102884733D01*
X159029333Y-102884733D02*
X158996000Y-102818066D01*
X158996000Y-102818066D02*
X158962666Y-102784733D01*
X158962666Y-102784733D02*
X158896000Y-102751400D01*
X158896000Y-102751400D02*
X158762666Y-102751400D01*
X158762666Y-102751400D02*
X158696000Y-102784733D01*
X158696000Y-102784733D02*
X158662666Y-102818066D01*
X158662666Y-102818066D02*
X158629333Y-102884733D01*
X141036001Y-106599566D02*
X141136001Y-106632900D01*
X141136001Y-106632900D02*
X141169334Y-106666233D01*
X141169334Y-106666233D02*
X141202667Y-106732900D01*
X141202667Y-106732900D02*
X141202667Y-106832900D01*
X141202667Y-106832900D02*
X141169334Y-106899566D01*
X141169334Y-106899566D02*
X141136001Y-106932900D01*
X141136001Y-106932900D02*
X141069334Y-106966233D01*
X141069334Y-106966233D02*
X140802667Y-106966233D01*
X140802667Y-106966233D02*
X140802667Y-106266233D01*
X140802667Y-106266233D02*
X141036001Y-106266233D01*
X141036001Y-106266233D02*
X141102667Y-106299566D01*
X141102667Y-106299566D02*
X141136001Y-106332900D01*
X141136001Y-106332900D02*
X141169334Y-106399566D01*
X141169334Y-106399566D02*
X141169334Y-106466233D01*
X141169334Y-106466233D02*
X141136001Y-106532900D01*
X141136001Y-106532900D02*
X141102667Y-106566233D01*
X141102667Y-106566233D02*
X141036001Y-106599566D01*
X141036001Y-106599566D02*
X140802667Y-106599566D01*
X141636001Y-106266233D02*
X141769334Y-106266233D01*
X141769334Y-106266233D02*
X141836001Y-106299566D01*
X141836001Y-106299566D02*
X141902667Y-106366233D01*
X141902667Y-106366233D02*
X141936001Y-106499566D01*
X141936001Y-106499566D02*
X141936001Y-106732900D01*
X141936001Y-106732900D02*
X141902667Y-106866233D01*
X141902667Y-106866233D02*
X141836001Y-106932900D01*
X141836001Y-106932900D02*
X141769334Y-106966233D01*
X141769334Y-106966233D02*
X141636001Y-106966233D01*
X141636001Y-106966233D02*
X141569334Y-106932900D01*
X141569334Y-106932900D02*
X141502667Y-106866233D01*
X141502667Y-106866233D02*
X141469334Y-106732900D01*
X141469334Y-106732900D02*
X141469334Y-106499566D01*
X141469334Y-106499566D02*
X141502667Y-106366233D01*
X141502667Y-106366233D02*
X141569334Y-106299566D01*
X141569334Y-106299566D02*
X141636001Y-106266233D01*
X142369334Y-106266233D02*
X142502667Y-106266233D01*
X142502667Y-106266233D02*
X142569334Y-106299566D01*
X142569334Y-106299566D02*
X142636000Y-106366233D01*
X142636000Y-106366233D02*
X142669334Y-106499566D01*
X142669334Y-106499566D02*
X142669334Y-106732900D01*
X142669334Y-106732900D02*
X142636000Y-106866233D01*
X142636000Y-106866233D02*
X142569334Y-106932900D01*
X142569334Y-106932900D02*
X142502667Y-106966233D01*
X142502667Y-106966233D02*
X142369334Y-106966233D01*
X142369334Y-106966233D02*
X142302667Y-106932900D01*
X142302667Y-106932900D02*
X142236000Y-106866233D01*
X142236000Y-106866233D02*
X142202667Y-106732900D01*
X142202667Y-106732900D02*
X142202667Y-106499566D01*
X142202667Y-106499566D02*
X142236000Y-106366233D01*
X142236000Y-106366233D02*
X142302667Y-106299566D01*
X142302667Y-106299566D02*
X142369334Y-106266233D01*
X142869333Y-106266233D02*
X143269333Y-106266233D01*
X143069333Y-106966233D02*
X143069333Y-106266233D01*
X135895933Y-117576666D02*
X135862600Y-117543333D01*
X135862600Y-117543333D02*
X135829266Y-117443333D01*
X135829266Y-117443333D02*
X135829266Y-117376666D01*
X135829266Y-117376666D02*
X135862600Y-117276666D01*
X135862600Y-117276666D02*
X135929266Y-117210000D01*
X135929266Y-117210000D02*
X135995933Y-117176666D01*
X135995933Y-117176666D02*
X136129266Y-117143333D01*
X136129266Y-117143333D02*
X136229266Y-117143333D01*
X136229266Y-117143333D02*
X136362600Y-117176666D01*
X136362600Y-117176666D02*
X136429266Y-117210000D01*
X136429266Y-117210000D02*
X136495933Y-117276666D01*
X136495933Y-117276666D02*
X136529266Y-117376666D01*
X136529266Y-117376666D02*
X136529266Y-117443333D01*
X136529266Y-117443333D02*
X136495933Y-117543333D01*
X136495933Y-117543333D02*
X136462600Y-117576666D01*
X135829266Y-117876666D02*
X136529266Y-117876666D01*
X136529266Y-117876666D02*
X136029266Y-118110000D01*
X136029266Y-118110000D02*
X136529266Y-118343333D01*
X136529266Y-118343333D02*
X135829266Y-118343333D01*
X135829266Y-118676666D02*
X136529266Y-118676666D01*
X136529266Y-118676666D02*
X136529266Y-118843333D01*
X136529266Y-118843333D02*
X136495933Y-118943333D01*
X136495933Y-118943333D02*
X136429266Y-119010000D01*
X136429266Y-119010000D02*
X136362600Y-119043333D01*
X136362600Y-119043333D02*
X136229266Y-119076666D01*
X136229266Y-119076666D02*
X136129266Y-119076666D01*
X136129266Y-119076666D02*
X135995933Y-119043333D01*
X135995933Y-119043333D02*
X135929266Y-119010000D01*
X135929266Y-119010000D02*
X135862600Y-118943333D01*
X135862600Y-118943333D02*
X135829266Y-118843333D01*
X135829266Y-118843333D02*
X135829266Y-118676666D01*
X136495933Y-107416667D02*
X136529266Y-107350000D01*
X136529266Y-107350000D02*
X136529266Y-107250000D01*
X136529266Y-107250000D02*
X136495933Y-107150000D01*
X136495933Y-107150000D02*
X136429266Y-107083334D01*
X136429266Y-107083334D02*
X136362600Y-107050000D01*
X136362600Y-107050000D02*
X136229266Y-107016667D01*
X136229266Y-107016667D02*
X136129266Y-107016667D01*
X136129266Y-107016667D02*
X135995933Y-107050000D01*
X135995933Y-107050000D02*
X135929266Y-107083334D01*
X135929266Y-107083334D02*
X135862600Y-107150000D01*
X135862600Y-107150000D02*
X135829266Y-107250000D01*
X135829266Y-107250000D02*
X135829266Y-107316667D01*
X135829266Y-107316667D02*
X135862600Y-107416667D01*
X135862600Y-107416667D02*
X135895933Y-107450000D01*
X135895933Y-107450000D02*
X136129266Y-107450000D01*
X136129266Y-107450000D02*
X136129266Y-107316667D01*
X135829266Y-107750000D02*
X136529266Y-107750000D01*
X136529266Y-107750000D02*
X135829266Y-108150000D01*
X135829266Y-108150000D02*
X136529266Y-108150000D01*
X135829266Y-108483333D02*
X136529266Y-108483333D01*
X136529266Y-108483333D02*
X136529266Y-108650000D01*
X136529266Y-108650000D02*
X136495933Y-108750000D01*
X136495933Y-108750000D02*
X136429266Y-108816667D01*
X136429266Y-108816667D02*
X136362600Y-108850000D01*
X136362600Y-108850000D02*
X136229266Y-108883333D01*
X136229266Y-108883333D02*
X136129266Y-108883333D01*
X136129266Y-108883333D02*
X135995933Y-108850000D01*
X135995933Y-108850000D02*
X135929266Y-108816667D01*
X135929266Y-108816667D02*
X135862600Y-108750000D01*
X135862600Y-108750000D02*
X135829266Y-108650000D01*
X135829266Y-108650000D02*
X135829266Y-108483333D01*
X136010666Y-110804733D02*
X135610666Y-110804733D01*
X135810666Y-110804733D02*
X135810666Y-110104733D01*
X135810666Y-110104733D02*
X135743999Y-110204733D01*
X135743999Y-110204733D02*
X135677333Y-110271400D01*
X135677333Y-110271400D02*
X135610666Y-110304733D01*
X136244000Y-110104733D02*
X136677333Y-110104733D01*
X136677333Y-110104733D02*
X136444000Y-110371400D01*
X136444000Y-110371400D02*
X136544000Y-110371400D01*
X136544000Y-110371400D02*
X136610666Y-110404733D01*
X136610666Y-110404733D02*
X136644000Y-110438066D01*
X136644000Y-110438066D02*
X136677333Y-110504733D01*
X136677333Y-110504733D02*
X136677333Y-110671400D01*
X136677333Y-110671400D02*
X136644000Y-110738066D01*
X136644000Y-110738066D02*
X136610666Y-110771400D01*
X136610666Y-110771400D02*
X136544000Y-110804733D01*
X136544000Y-110804733D02*
X136344000Y-110804733D01*
X136344000Y-110804733D02*
X136277333Y-110771400D01*
X136277333Y-110771400D02*
X136244000Y-110738066D01*
X135577333Y-84704733D02*
X136010666Y-84704733D01*
X136010666Y-84704733D02*
X135777333Y-84971400D01*
X135777333Y-84971400D02*
X135877333Y-84971400D01*
X135877333Y-84971400D02*
X135943999Y-85004733D01*
X135943999Y-85004733D02*
X135977333Y-85038066D01*
X135977333Y-85038066D02*
X136010666Y-85104733D01*
X136010666Y-85104733D02*
X136010666Y-85271400D01*
X136010666Y-85271400D02*
X135977333Y-85338066D01*
X135977333Y-85338066D02*
X135943999Y-85371400D01*
X135943999Y-85371400D02*
X135877333Y-85404733D01*
X135877333Y-85404733D02*
X135677333Y-85404733D01*
X135677333Y-85404733D02*
X135610666Y-85371400D01*
X135610666Y-85371400D02*
X135577333Y-85338066D01*
X136610666Y-84938066D02*
X136610666Y-85404733D01*
X136444000Y-84671400D02*
X136277333Y-85171400D01*
X136277333Y-85171400D02*
X136710666Y-85171400D01*
X157962666Y-79691400D02*
X157995999Y-79658066D01*
X157995999Y-79658066D02*
X158062666Y-79624733D01*
X158062666Y-79624733D02*
X158229333Y-79624733D01*
X158229333Y-79624733D02*
X158295999Y-79658066D01*
X158295999Y-79658066D02*
X158329333Y-79691400D01*
X158329333Y-79691400D02*
X158362666Y-79758066D01*
X158362666Y-79758066D02*
X158362666Y-79824733D01*
X158362666Y-79824733D02*
X158329333Y-79924733D01*
X158329333Y-79924733D02*
X157929333Y-80324733D01*
X157929333Y-80324733D02*
X158362666Y-80324733D01*
X158629333Y-79691400D02*
X158662666Y-79658066D01*
X158662666Y-79658066D02*
X158729333Y-79624733D01*
X158729333Y-79624733D02*
X158896000Y-79624733D01*
X158896000Y-79624733D02*
X158962666Y-79658066D01*
X158962666Y-79658066D02*
X158996000Y-79691400D01*
X158996000Y-79691400D02*
X159029333Y-79758066D01*
X159029333Y-79758066D02*
X159029333Y-79824733D01*
X159029333Y-79824733D02*
X158996000Y-79924733D01*
X158996000Y-79924733D02*
X158596000Y-80324733D01*
X158596000Y-80324733D02*
X159029333Y-80324733D01*
D11*
X142699018Y-100198366D02*
X142665685Y-100231700D01*
X142665685Y-100231700D02*
X142565685Y-100265033D01*
X142565685Y-100265033D02*
X142499018Y-100265033D01*
X142499018Y-100265033D02*
X142399018Y-100231700D01*
X142399018Y-100231700D02*
X142332352Y-100165033D01*
X142332352Y-100165033D02*
X142299018Y-100098366D01*
X142299018Y-100098366D02*
X142265685Y-99965033D01*
X142265685Y-99965033D02*
X142265685Y-99865033D01*
X142265685Y-99865033D02*
X142299018Y-99731700D01*
X142299018Y-99731700D02*
X142332352Y-99665033D01*
X142332352Y-99665033D02*
X142399018Y-99598366D01*
X142399018Y-99598366D02*
X142499018Y-99565033D01*
X142499018Y-99565033D02*
X142565685Y-99565033D01*
X142565685Y-99565033D02*
X142665685Y-99598366D01*
X142665685Y-99598366D02*
X142699018Y-99631700D01*
X143365685Y-100265033D02*
X142965685Y-100265033D01*
X143165685Y-100265033D02*
X143165685Y-99565033D01*
X143165685Y-99565033D02*
X143099018Y-99665033D01*
X143099018Y-99665033D02*
X143032352Y-99731700D01*
X143032352Y-99731700D02*
X142965685Y-99765033D01*
X143699019Y-100265033D02*
X143832352Y-100265033D01*
X143832352Y-100265033D02*
X143899019Y-100231700D01*
X143899019Y-100231700D02*
X143932352Y-100198366D01*
X143932352Y-100198366D02*
X143999019Y-100098366D01*
X143999019Y-100098366D02*
X144032352Y-99965033D01*
X144032352Y-99965033D02*
X144032352Y-99698366D01*
X144032352Y-99698366D02*
X143999019Y-99631700D01*
X143999019Y-99631700D02*
X143965685Y-99598366D01*
X143965685Y-99598366D02*
X143899019Y-99565033D01*
X143899019Y-99565033D02*
X143765685Y-99565033D01*
X143765685Y-99565033D02*
X143699019Y-99598366D01*
X143699019Y-99598366D02*
X143665685Y-99631700D01*
X143665685Y-99631700D02*
X143632352Y-99698366D01*
X143632352Y-99698366D02*
X143632352Y-99865033D01*
X143632352Y-99865033D02*
X143665685Y-99931700D01*
X143665685Y-99931700D02*
X143699019Y-99965033D01*
X143699019Y-99965033D02*
X143765685Y-99998366D01*
X143765685Y-99998366D02*
X143899019Y-99998366D01*
X143899019Y-99998366D02*
X143965685Y-99965033D01*
X143965685Y-99965033D02*
X143999019Y-99931700D01*
X143999019Y-99931700D02*
X144032352Y-99865033D01*
X155149607Y-94169033D02*
X155149607Y-93469033D01*
X155149607Y-93469033D02*
X155316274Y-93469033D01*
X155316274Y-93469033D02*
X155416274Y-93502366D01*
X155416274Y-93502366D02*
X155482941Y-93569033D01*
X155482941Y-93569033D02*
X155516274Y-93635700D01*
X155516274Y-93635700D02*
X155549607Y-93769033D01*
X155549607Y-93769033D02*
X155549607Y-93869033D01*
X155549607Y-93869033D02*
X155516274Y-94002366D01*
X155516274Y-94002366D02*
X155482941Y-94069033D01*
X155482941Y-94069033D02*
X155416274Y-94135700D01*
X155416274Y-94135700D02*
X155316274Y-94169033D01*
X155316274Y-94169033D02*
X155149607Y-94169033D01*
X155782941Y-93469033D02*
X156216274Y-93469033D01*
X156216274Y-93469033D02*
X155982941Y-93735700D01*
X155982941Y-93735700D02*
X156082941Y-93735700D01*
X156082941Y-93735700D02*
X156149607Y-93769033D01*
X156149607Y-93769033D02*
X156182941Y-93802366D01*
X156182941Y-93802366D02*
X156216274Y-93869033D01*
X156216274Y-93869033D02*
X156216274Y-94035700D01*
X156216274Y-94035700D02*
X156182941Y-94102366D01*
X156182941Y-94102366D02*
X156149607Y-94135700D01*
X156149607Y-94135700D02*
X156082941Y-94169033D01*
X156082941Y-94169033D02*
X155882941Y-94169033D01*
X155882941Y-94169033D02*
X155816274Y-94135700D01*
X155816274Y-94135700D02*
X155782941Y-94102366D01*
X151703073Y-100265033D02*
X151469740Y-99931700D01*
X151303073Y-100265033D02*
X151303073Y-99565033D01*
X151303073Y-99565033D02*
X151569740Y-99565033D01*
X151569740Y-99565033D02*
X151636407Y-99598366D01*
X151636407Y-99598366D02*
X151669740Y-99631700D01*
X151669740Y-99631700D02*
X151703073Y-99698366D01*
X151703073Y-99698366D02*
X151703073Y-99798366D01*
X151703073Y-99798366D02*
X151669740Y-99865033D01*
X151669740Y-99865033D02*
X151636407Y-99898366D01*
X151636407Y-99898366D02*
X151569740Y-99931700D01*
X151569740Y-99931700D02*
X151303073Y-99931700D01*
X151969740Y-99631700D02*
X152003073Y-99598366D01*
X152003073Y-99598366D02*
X152069740Y-99565033D01*
X152069740Y-99565033D02*
X152236407Y-99565033D01*
X152236407Y-99565033D02*
X152303073Y-99598366D01*
X152303073Y-99598366D02*
X152336407Y-99631700D01*
X152336407Y-99631700D02*
X152369740Y-99698366D01*
X152369740Y-99698366D02*
X152369740Y-99765033D01*
X152369740Y-99765033D02*
X152336407Y-99865033D01*
X152336407Y-99865033D02*
X151936407Y-100265033D01*
X151936407Y-100265033D02*
X152369740Y-100265033D01*
X152603074Y-99565033D02*
X153036407Y-99565033D01*
X153036407Y-99565033D02*
X152803074Y-99831700D01*
X152803074Y-99831700D02*
X152903074Y-99831700D01*
X152903074Y-99831700D02*
X152969740Y-99865033D01*
X152969740Y-99865033D02*
X153003074Y-99898366D01*
X153003074Y-99898366D02*
X153036407Y-99965033D01*
X153036407Y-99965033D02*
X153036407Y-100131700D01*
X153036407Y-100131700D02*
X153003074Y-100198366D01*
X153003074Y-100198366D02*
X152969740Y-100231700D01*
X152969740Y-100231700D02*
X152903074Y-100265033D01*
X152903074Y-100265033D02*
X152703074Y-100265033D01*
X152703074Y-100265033D02*
X152636407Y-100231700D01*
X152636407Y-100231700D02*
X152603074Y-100198366D01*
X155258081Y-121347033D02*
X155024748Y-121013700D01*
X154858081Y-121347033D02*
X154858081Y-120647033D01*
X154858081Y-120647033D02*
X155124748Y-120647033D01*
X155124748Y-120647033D02*
X155191415Y-120680366D01*
X155191415Y-120680366D02*
X155224748Y-120713700D01*
X155224748Y-120713700D02*
X155258081Y-120780366D01*
X155258081Y-120780366D02*
X155258081Y-120880366D01*
X155258081Y-120880366D02*
X155224748Y-120947033D01*
X155224748Y-120947033D02*
X155191415Y-120980366D01*
X155191415Y-120980366D02*
X155124748Y-121013700D01*
X155124748Y-121013700D02*
X154858081Y-121013700D01*
X155524748Y-120713700D02*
X155558081Y-120680366D01*
X155558081Y-120680366D02*
X155624748Y-120647033D01*
X155624748Y-120647033D02*
X155791415Y-120647033D01*
X155791415Y-120647033D02*
X155858081Y-120680366D01*
X155858081Y-120680366D02*
X155891415Y-120713700D01*
X155891415Y-120713700D02*
X155924748Y-120780366D01*
X155924748Y-120780366D02*
X155924748Y-120847033D01*
X155924748Y-120847033D02*
X155891415Y-120947033D01*
X155891415Y-120947033D02*
X155491415Y-121347033D01*
X155491415Y-121347033D02*
X155924748Y-121347033D01*
X156191415Y-120713700D02*
X156224748Y-120680366D01*
X156224748Y-120680366D02*
X156291415Y-120647033D01*
X156291415Y-120647033D02*
X156458082Y-120647033D01*
X156458082Y-120647033D02*
X156524748Y-120680366D01*
X156524748Y-120680366D02*
X156558082Y-120713700D01*
X156558082Y-120713700D02*
X156591415Y-120780366D01*
X156591415Y-120780366D02*
X156591415Y-120847033D01*
X156591415Y-120847033D02*
X156558082Y-120947033D01*
X156558082Y-120947033D02*
X156158082Y-121347033D01*
X156158082Y-121347033D02*
X156591415Y-121347033D01*
X145606233Y-97912366D02*
X145572900Y-97945700D01*
X145572900Y-97945700D02*
X145472900Y-97979033D01*
X145472900Y-97979033D02*
X145406233Y-97979033D01*
X145406233Y-97979033D02*
X145306233Y-97945700D01*
X145306233Y-97945700D02*
X145239567Y-97879033D01*
X145239567Y-97879033D02*
X145206233Y-97812366D01*
X145206233Y-97812366D02*
X145172900Y-97679033D01*
X145172900Y-97679033D02*
X145172900Y-97579033D01*
X145172900Y-97579033D02*
X145206233Y-97445700D01*
X145206233Y-97445700D02*
X145239567Y-97379033D01*
X145239567Y-97379033D02*
X145306233Y-97312366D01*
X145306233Y-97312366D02*
X145406233Y-97279033D01*
X145406233Y-97279033D02*
X145472900Y-97279033D01*
X145472900Y-97279033D02*
X145572900Y-97312366D01*
X145572900Y-97312366D02*
X145606233Y-97345700D01*
X145939567Y-97979033D02*
X146072900Y-97979033D01*
X146072900Y-97979033D02*
X146139567Y-97945700D01*
X146139567Y-97945700D02*
X146172900Y-97912366D01*
X146172900Y-97912366D02*
X146239567Y-97812366D01*
X146239567Y-97812366D02*
X146272900Y-97679033D01*
X146272900Y-97679033D02*
X146272900Y-97412366D01*
X146272900Y-97412366D02*
X146239567Y-97345700D01*
X146239567Y-97345700D02*
X146206233Y-97312366D01*
X146206233Y-97312366D02*
X146139567Y-97279033D01*
X146139567Y-97279033D02*
X146006233Y-97279033D01*
X146006233Y-97279033D02*
X145939567Y-97312366D01*
X145939567Y-97312366D02*
X145906233Y-97345700D01*
X145906233Y-97345700D02*
X145872900Y-97412366D01*
X145872900Y-97412366D02*
X145872900Y-97579033D01*
X145872900Y-97579033D02*
X145906233Y-97645700D01*
X145906233Y-97645700D02*
X145939567Y-97679033D01*
X145939567Y-97679033D02*
X146006233Y-97712366D01*
X146006233Y-97712366D02*
X146139567Y-97712366D01*
X146139567Y-97712366D02*
X146206233Y-97679033D01*
X146206233Y-97679033D02*
X146239567Y-97645700D01*
X146239567Y-97645700D02*
X146272900Y-97579033D01*
X155635333Y-116460700D02*
X155568666Y-116427366D01*
X155568666Y-116427366D02*
X155502000Y-116360700D01*
X155502000Y-116360700D02*
X155402000Y-116260700D01*
X155402000Y-116260700D02*
X155335333Y-116227366D01*
X155335333Y-116227366D02*
X155268666Y-116227366D01*
X155302000Y-116394033D02*
X155235333Y-116360700D01*
X155235333Y-116360700D02*
X155168666Y-116294033D01*
X155168666Y-116294033D02*
X155135333Y-116160700D01*
X155135333Y-116160700D02*
X155135333Y-115927366D01*
X155135333Y-115927366D02*
X155168666Y-115794033D01*
X155168666Y-115794033D02*
X155235333Y-115727366D01*
X155235333Y-115727366D02*
X155302000Y-115694033D01*
X155302000Y-115694033D02*
X155435333Y-115694033D01*
X155435333Y-115694033D02*
X155502000Y-115727366D01*
X155502000Y-115727366D02*
X155568666Y-115794033D01*
X155568666Y-115794033D02*
X155602000Y-115927366D01*
X155602000Y-115927366D02*
X155602000Y-116160700D01*
X155602000Y-116160700D02*
X155568666Y-116294033D01*
X155568666Y-116294033D02*
X155502000Y-116360700D01*
X155502000Y-116360700D02*
X155435333Y-116394033D01*
X155435333Y-116394033D02*
X155302000Y-116394033D01*
X155868666Y-115760700D02*
X155901999Y-115727366D01*
X155901999Y-115727366D02*
X155968666Y-115694033D01*
X155968666Y-115694033D02*
X156135333Y-115694033D01*
X156135333Y-115694033D02*
X156201999Y-115727366D01*
X156201999Y-115727366D02*
X156235333Y-115760700D01*
X156235333Y-115760700D02*
X156268666Y-115827366D01*
X156268666Y-115827366D02*
X156268666Y-115894033D01*
X156268666Y-115894033D02*
X156235333Y-115994033D01*
X156235333Y-115994033D02*
X155835333Y-116394033D01*
X155835333Y-116394033D02*
X156268666Y-116394033D01*
X151091369Y-94169033D02*
X151091369Y-93469033D01*
X151091369Y-93469033D02*
X151258036Y-93469033D01*
X151258036Y-93469033D02*
X151358036Y-93502366D01*
X151358036Y-93502366D02*
X151424703Y-93569033D01*
X151424703Y-93569033D02*
X151458036Y-93635700D01*
X151458036Y-93635700D02*
X151491369Y-93769033D01*
X151491369Y-93769033D02*
X151491369Y-93869033D01*
X151491369Y-93869033D02*
X151458036Y-94002366D01*
X151458036Y-94002366D02*
X151424703Y-94069033D01*
X151424703Y-94069033D02*
X151358036Y-94135700D01*
X151358036Y-94135700D02*
X151258036Y-94169033D01*
X151258036Y-94169033D02*
X151091369Y-94169033D01*
X152091369Y-93702366D02*
X152091369Y-94169033D01*
X151924703Y-93435700D02*
X151758036Y-93935700D01*
X151758036Y-93935700D02*
X152191369Y-93935700D01*
X147482976Y-100265033D02*
X147249643Y-99931700D01*
X147082976Y-100265033D02*
X147082976Y-99565033D01*
X147082976Y-99565033D02*
X147349643Y-99565033D01*
X147349643Y-99565033D02*
X147416310Y-99598366D01*
X147416310Y-99598366D02*
X147449643Y-99631700D01*
X147449643Y-99631700D02*
X147482976Y-99698366D01*
X147482976Y-99698366D02*
X147482976Y-99798366D01*
X147482976Y-99798366D02*
X147449643Y-99865033D01*
X147449643Y-99865033D02*
X147416310Y-99898366D01*
X147416310Y-99898366D02*
X147349643Y-99931700D01*
X147349643Y-99931700D02*
X147082976Y-99931700D01*
X147749643Y-99631700D02*
X147782976Y-99598366D01*
X147782976Y-99598366D02*
X147849643Y-99565033D01*
X147849643Y-99565033D02*
X148016310Y-99565033D01*
X148016310Y-99565033D02*
X148082976Y-99598366D01*
X148082976Y-99598366D02*
X148116310Y-99631700D01*
X148116310Y-99631700D02*
X148149643Y-99698366D01*
X148149643Y-99698366D02*
X148149643Y-99765033D01*
X148149643Y-99765033D02*
X148116310Y-99865033D01*
X148116310Y-99865033D02*
X147716310Y-100265033D01*
X147716310Y-100265033D02*
X148149643Y-100265033D01*
X138054836Y-97912366D02*
X138021503Y-97945700D01*
X138021503Y-97945700D02*
X137921503Y-97979033D01*
X137921503Y-97979033D02*
X137854836Y-97979033D01*
X137854836Y-97979033D02*
X137754836Y-97945700D01*
X137754836Y-97945700D02*
X137688170Y-97879033D01*
X137688170Y-97879033D02*
X137654836Y-97812366D01*
X137654836Y-97812366D02*
X137621503Y-97679033D01*
X137621503Y-97679033D02*
X137621503Y-97579033D01*
X137621503Y-97579033D02*
X137654836Y-97445700D01*
X137654836Y-97445700D02*
X137688170Y-97379033D01*
X137688170Y-97379033D02*
X137754836Y-97312366D01*
X137754836Y-97312366D02*
X137854836Y-97279033D01*
X137854836Y-97279033D02*
X137921503Y-97279033D01*
X137921503Y-97279033D02*
X138021503Y-97312366D01*
X138021503Y-97312366D02*
X138054836Y-97345700D01*
X138321503Y-97345700D02*
X138354836Y-97312366D01*
X138354836Y-97312366D02*
X138421503Y-97279033D01*
X138421503Y-97279033D02*
X138588170Y-97279033D01*
X138588170Y-97279033D02*
X138654836Y-97312366D01*
X138654836Y-97312366D02*
X138688170Y-97345700D01*
X138688170Y-97345700D02*
X138721503Y-97412366D01*
X138721503Y-97412366D02*
X138721503Y-97479033D01*
X138721503Y-97479033D02*
X138688170Y-97579033D01*
X138688170Y-97579033D02*
X138288170Y-97979033D01*
X138288170Y-97979033D02*
X138721503Y-97979033D01*
X138988170Y-97345700D02*
X139021503Y-97312366D01*
X139021503Y-97312366D02*
X139088170Y-97279033D01*
X139088170Y-97279033D02*
X139254837Y-97279033D01*
X139254837Y-97279033D02*
X139321503Y-97312366D01*
X139321503Y-97312366D02*
X139354837Y-97345700D01*
X139354837Y-97345700D02*
X139388170Y-97412366D01*
X139388170Y-97412366D02*
X139388170Y-97479033D01*
X139388170Y-97479033D02*
X139354837Y-97579033D01*
X139354837Y-97579033D02*
X138954837Y-97979033D01*
X138954837Y-97979033D02*
X139388170Y-97979033D01*
X138151732Y-100198366D02*
X138118399Y-100231700D01*
X138118399Y-100231700D02*
X138018399Y-100265033D01*
X138018399Y-100265033D02*
X137951732Y-100265033D01*
X137951732Y-100265033D02*
X137851732Y-100231700D01*
X137851732Y-100231700D02*
X137785066Y-100165033D01*
X137785066Y-100165033D02*
X137751732Y-100098366D01*
X137751732Y-100098366D02*
X137718399Y-99965033D01*
X137718399Y-99965033D02*
X137718399Y-99865033D01*
X137718399Y-99865033D02*
X137751732Y-99731700D01*
X137751732Y-99731700D02*
X137785066Y-99665033D01*
X137785066Y-99665033D02*
X137851732Y-99598366D01*
X137851732Y-99598366D02*
X137951732Y-99565033D01*
X137951732Y-99565033D02*
X138018399Y-99565033D01*
X138018399Y-99565033D02*
X138118399Y-99598366D01*
X138118399Y-99598366D02*
X138151732Y-99631700D01*
X138418399Y-99631700D02*
X138451732Y-99598366D01*
X138451732Y-99598366D02*
X138518399Y-99565033D01*
X138518399Y-99565033D02*
X138685066Y-99565033D01*
X138685066Y-99565033D02*
X138751732Y-99598366D01*
X138751732Y-99598366D02*
X138785066Y-99631700D01*
X138785066Y-99631700D02*
X138818399Y-99698366D01*
X138818399Y-99698366D02*
X138818399Y-99765033D01*
X138818399Y-99765033D02*
X138785066Y-99865033D01*
X138785066Y-99865033D02*
X138385066Y-100265033D01*
X138385066Y-100265033D02*
X138818399Y-100265033D01*
X139485066Y-100265033D02*
X139085066Y-100265033D01*
X139285066Y-100265033D02*
X139285066Y-99565033D01*
X139285066Y-99565033D02*
X139218399Y-99665033D01*
X139218399Y-99665033D02*
X139151733Y-99731700D01*
X139151733Y-99731700D02*
X139085066Y-99765033D01*
X138490784Y-121347033D02*
X138257451Y-121013700D01*
X138090784Y-121347033D02*
X138090784Y-120647033D01*
X138090784Y-120647033D02*
X138357451Y-120647033D01*
X138357451Y-120647033D02*
X138424118Y-120680366D01*
X138424118Y-120680366D02*
X138457451Y-120713700D01*
X138457451Y-120713700D02*
X138490784Y-120780366D01*
X138490784Y-120780366D02*
X138490784Y-120880366D01*
X138490784Y-120880366D02*
X138457451Y-120947033D01*
X138457451Y-120947033D02*
X138424118Y-120980366D01*
X138424118Y-120980366D02*
X138357451Y-121013700D01*
X138357451Y-121013700D02*
X138090784Y-121013700D01*
X138757451Y-120713700D02*
X138790784Y-120680366D01*
X138790784Y-120680366D02*
X138857451Y-120647033D01*
X138857451Y-120647033D02*
X139024118Y-120647033D01*
X139024118Y-120647033D02*
X139090784Y-120680366D01*
X139090784Y-120680366D02*
X139124118Y-120713700D01*
X139124118Y-120713700D02*
X139157451Y-120780366D01*
X139157451Y-120780366D02*
X139157451Y-120847033D01*
X139157451Y-120847033D02*
X139124118Y-120947033D01*
X139124118Y-120947033D02*
X138724118Y-121347033D01*
X138724118Y-121347033D02*
X139157451Y-121347033D01*
X139824118Y-121347033D02*
X139424118Y-121347033D01*
X139624118Y-121347033D02*
X139624118Y-120647033D01*
X139624118Y-120647033D02*
X139557451Y-120747033D01*
X139557451Y-120747033D02*
X139490785Y-120813700D01*
X139490785Y-120813700D02*
X139424118Y-120847033D01*
X146290666Y-69785033D02*
X146290666Y-69085033D01*
X146290666Y-69085033D02*
X146524000Y-69585033D01*
X146524000Y-69585033D02*
X146757333Y-69085033D01*
X146757333Y-69085033D02*
X146757333Y-69785033D01*
X147224000Y-69085033D02*
X147357333Y-69085033D01*
X147357333Y-69085033D02*
X147424000Y-69118366D01*
X147424000Y-69118366D02*
X147490666Y-69185033D01*
X147490666Y-69185033D02*
X147524000Y-69318366D01*
X147524000Y-69318366D02*
X147524000Y-69551700D01*
X147524000Y-69551700D02*
X147490666Y-69685033D01*
X147490666Y-69685033D02*
X147424000Y-69751700D01*
X147424000Y-69751700D02*
X147357333Y-69785033D01*
X147357333Y-69785033D02*
X147224000Y-69785033D01*
X147224000Y-69785033D02*
X147157333Y-69751700D01*
X147157333Y-69751700D02*
X147090666Y-69685033D01*
X147090666Y-69685033D02*
X147057333Y-69551700D01*
X147057333Y-69551700D02*
X147057333Y-69318366D01*
X147057333Y-69318366D02*
X147090666Y-69185033D01*
X147090666Y-69185033D02*
X147157333Y-69118366D01*
X147157333Y-69118366D02*
X147224000Y-69085033D01*
X147823999Y-69785033D02*
X147823999Y-69085033D01*
X147823999Y-69085033D02*
X147990666Y-69085033D01*
X147990666Y-69085033D02*
X148090666Y-69118366D01*
X148090666Y-69118366D02*
X148157333Y-69185033D01*
X148157333Y-69185033D02*
X148190666Y-69251700D01*
X148190666Y-69251700D02*
X148223999Y-69385033D01*
X148223999Y-69385033D02*
X148223999Y-69485033D01*
X148223999Y-69485033D02*
X148190666Y-69618366D01*
X148190666Y-69618366D02*
X148157333Y-69685033D01*
X148157333Y-69685033D02*
X148090666Y-69751700D01*
X148090666Y-69751700D02*
X147990666Y-69785033D01*
X147990666Y-69785033D02*
X147823999Y-69785033D01*
X148890666Y-69785033D02*
X148490666Y-69785033D01*
X148690666Y-69785033D02*
X148690666Y-69085033D01*
X148690666Y-69085033D02*
X148623999Y-69185033D01*
X148623999Y-69185033D02*
X148557333Y-69251700D01*
X148557333Y-69251700D02*
X148490666Y-69285033D01*
X156109272Y-100265033D02*
X155875939Y-99931700D01*
X155709272Y-100265033D02*
X155709272Y-99565033D01*
X155709272Y-99565033D02*
X155975939Y-99565033D01*
X155975939Y-99565033D02*
X156042606Y-99598366D01*
X156042606Y-99598366D02*
X156075939Y-99631700D01*
X156075939Y-99631700D02*
X156109272Y-99698366D01*
X156109272Y-99698366D02*
X156109272Y-99798366D01*
X156109272Y-99798366D02*
X156075939Y-99865033D01*
X156075939Y-99865033D02*
X156042606Y-99898366D01*
X156042606Y-99898366D02*
X155975939Y-99931700D01*
X155975939Y-99931700D02*
X155709272Y-99931700D01*
X156775939Y-100265033D02*
X156375939Y-100265033D01*
X156575939Y-100265033D02*
X156575939Y-99565033D01*
X156575939Y-99565033D02*
X156509272Y-99665033D01*
X156509272Y-99665033D02*
X156442606Y-99731700D01*
X156442606Y-99731700D02*
X156375939Y-99765033D01*
X157442606Y-100265033D02*
X157042606Y-100265033D01*
X157242606Y-100265033D02*
X157242606Y-99565033D01*
X157242606Y-99565033D02*
X157175939Y-99665033D01*
X157175939Y-99665033D02*
X157109273Y-99731700D01*
X157109273Y-99731700D02*
X157042606Y-99765033D01*
X156105516Y-97979033D02*
X155872183Y-97645700D01*
X155705516Y-97979033D02*
X155705516Y-97279033D01*
X155705516Y-97279033D02*
X155972183Y-97279033D01*
X155972183Y-97279033D02*
X156038850Y-97312366D01*
X156038850Y-97312366D02*
X156072183Y-97345700D01*
X156072183Y-97345700D02*
X156105516Y-97412366D01*
X156105516Y-97412366D02*
X156105516Y-97512366D01*
X156105516Y-97512366D02*
X156072183Y-97579033D01*
X156072183Y-97579033D02*
X156038850Y-97612366D01*
X156038850Y-97612366D02*
X155972183Y-97645700D01*
X155972183Y-97645700D02*
X155705516Y-97645700D01*
X156772183Y-97979033D02*
X156372183Y-97979033D01*
X156572183Y-97979033D02*
X156572183Y-97279033D01*
X156572183Y-97279033D02*
X156505516Y-97379033D01*
X156505516Y-97379033D02*
X156438850Y-97445700D01*
X156438850Y-97445700D02*
X156372183Y-97479033D01*
X157172183Y-97579033D02*
X157105517Y-97545700D01*
X157105517Y-97545700D02*
X157072183Y-97512366D01*
X157072183Y-97512366D02*
X157038850Y-97445700D01*
X157038850Y-97445700D02*
X157038850Y-97412366D01*
X157038850Y-97412366D02*
X157072183Y-97345700D01*
X157072183Y-97345700D02*
X157105517Y-97312366D01*
X157105517Y-97312366D02*
X157172183Y-97279033D01*
X157172183Y-97279033D02*
X157305517Y-97279033D01*
X157305517Y-97279033D02*
X157372183Y-97312366D01*
X157372183Y-97312366D02*
X157405517Y-97345700D01*
X157405517Y-97345700D02*
X157438850Y-97412366D01*
X157438850Y-97412366D02*
X157438850Y-97445700D01*
X157438850Y-97445700D02*
X157405517Y-97512366D01*
X157405517Y-97512366D02*
X157372183Y-97545700D01*
X157372183Y-97545700D02*
X157305517Y-97579033D01*
X157305517Y-97579033D02*
X157172183Y-97579033D01*
X157172183Y-97579033D02*
X157105517Y-97612366D01*
X157105517Y-97612366D02*
X157072183Y-97645700D01*
X157072183Y-97645700D02*
X157038850Y-97712366D01*
X157038850Y-97712366D02*
X157038850Y-97845700D01*
X157038850Y-97845700D02*
X157072183Y-97912366D01*
X157072183Y-97912366D02*
X157105517Y-97945700D01*
X157105517Y-97945700D02*
X157172183Y-97979033D01*
X157172183Y-97979033D02*
X157305517Y-97979033D01*
X157305517Y-97979033D02*
X157372183Y-97945700D01*
X157372183Y-97945700D02*
X157405517Y-97912366D01*
X157405517Y-97912366D02*
X157438850Y-97845700D01*
X157438850Y-97845700D02*
X157438850Y-97712366D01*
X157438850Y-97712366D02*
X157405517Y-97645700D01*
X157405517Y-97645700D02*
X157372183Y-97612366D01*
X157372183Y-97612366D02*
X157305517Y-97579033D01*
X143971588Y-104583033D02*
X143738255Y-104249700D01*
X143571588Y-104583033D02*
X143571588Y-103883033D01*
X143571588Y-103883033D02*
X143838255Y-103883033D01*
X143838255Y-103883033D02*
X143904922Y-103916366D01*
X143904922Y-103916366D02*
X143938255Y-103949700D01*
X143938255Y-103949700D02*
X143971588Y-104016366D01*
X143971588Y-104016366D02*
X143971588Y-104116366D01*
X143971588Y-104116366D02*
X143938255Y-104183033D01*
X143938255Y-104183033D02*
X143904922Y-104216366D01*
X143904922Y-104216366D02*
X143838255Y-104249700D01*
X143838255Y-104249700D02*
X143571588Y-104249700D01*
X144238255Y-103949700D02*
X144271588Y-103916366D01*
X144271588Y-103916366D02*
X144338255Y-103883033D01*
X144338255Y-103883033D02*
X144504922Y-103883033D01*
X144504922Y-103883033D02*
X144571588Y-103916366D01*
X144571588Y-103916366D02*
X144604922Y-103949700D01*
X144604922Y-103949700D02*
X144638255Y-104016366D01*
X144638255Y-104016366D02*
X144638255Y-104083033D01*
X144638255Y-104083033D02*
X144604922Y-104183033D01*
X144604922Y-104183033D02*
X144204922Y-104583033D01*
X144204922Y-104583033D02*
X144638255Y-104583033D01*
X145271589Y-103883033D02*
X144938255Y-103883033D01*
X144938255Y-103883033D02*
X144904922Y-104216366D01*
X144904922Y-104216366D02*
X144938255Y-104183033D01*
X144938255Y-104183033D02*
X145004922Y-104149700D01*
X145004922Y-104149700D02*
X145171589Y-104149700D01*
X145171589Y-104149700D02*
X145238255Y-104183033D01*
X145238255Y-104183033D02*
X145271589Y-104216366D01*
X145271589Y-104216366D02*
X145304922Y-104283033D01*
X145304922Y-104283033D02*
X145304922Y-104449700D01*
X145304922Y-104449700D02*
X145271589Y-104516366D01*
X145271589Y-104516366D02*
X145238255Y-104549700D01*
X145238255Y-104549700D02*
X145171589Y-104583033D01*
X145171589Y-104583033D02*
X145004922Y-104583033D01*
X145004922Y-104583033D02*
X144938255Y-104549700D01*
X144938255Y-104549700D02*
X144904922Y-104516366D01*
X141661206Y-97912366D02*
X141627873Y-97945700D01*
X141627873Y-97945700D02*
X141527873Y-97979033D01*
X141527873Y-97979033D02*
X141461206Y-97979033D01*
X141461206Y-97979033D02*
X141361206Y-97945700D01*
X141361206Y-97945700D02*
X141294540Y-97879033D01*
X141294540Y-97879033D02*
X141261206Y-97812366D01*
X141261206Y-97812366D02*
X141227873Y-97679033D01*
X141227873Y-97679033D02*
X141227873Y-97579033D01*
X141227873Y-97579033D02*
X141261206Y-97445700D01*
X141261206Y-97445700D02*
X141294540Y-97379033D01*
X141294540Y-97379033D02*
X141361206Y-97312366D01*
X141361206Y-97312366D02*
X141461206Y-97279033D01*
X141461206Y-97279033D02*
X141527873Y-97279033D01*
X141527873Y-97279033D02*
X141627873Y-97312366D01*
X141627873Y-97312366D02*
X141661206Y-97345700D01*
X141927873Y-97345700D02*
X141961206Y-97312366D01*
X141961206Y-97312366D02*
X142027873Y-97279033D01*
X142027873Y-97279033D02*
X142194540Y-97279033D01*
X142194540Y-97279033D02*
X142261206Y-97312366D01*
X142261206Y-97312366D02*
X142294540Y-97345700D01*
X142294540Y-97345700D02*
X142327873Y-97412366D01*
X142327873Y-97412366D02*
X142327873Y-97479033D01*
X142327873Y-97479033D02*
X142294540Y-97579033D01*
X142294540Y-97579033D02*
X141894540Y-97979033D01*
X141894540Y-97979033D02*
X142327873Y-97979033D01*
X142761207Y-97279033D02*
X142827873Y-97279033D01*
X142827873Y-97279033D02*
X142894540Y-97312366D01*
X142894540Y-97312366D02*
X142927873Y-97345700D01*
X142927873Y-97345700D02*
X142961207Y-97412366D01*
X142961207Y-97412366D02*
X142994540Y-97545700D01*
X142994540Y-97545700D02*
X142994540Y-97712366D01*
X142994540Y-97712366D02*
X142961207Y-97845700D01*
X142961207Y-97845700D02*
X142927873Y-97912366D01*
X142927873Y-97912366D02*
X142894540Y-97945700D01*
X142894540Y-97945700D02*
X142827873Y-97979033D01*
X142827873Y-97979033D02*
X142761207Y-97979033D01*
X142761207Y-97979033D02*
X142694540Y-97945700D01*
X142694540Y-97945700D02*
X142661207Y-97912366D01*
X142661207Y-97912366D02*
X142627873Y-97845700D01*
X142627873Y-97845700D02*
X142594540Y-97712366D01*
X142594540Y-97712366D02*
X142594540Y-97545700D01*
X142594540Y-97545700D02*
X142627873Y-97412366D01*
X142627873Y-97412366D02*
X142661207Y-97345700D01*
X142661207Y-97345700D02*
X142694540Y-97312366D01*
X142694540Y-97312366D02*
X142761207Y-97279033D01*
X137455223Y-104516366D02*
X137421890Y-104549700D01*
X137421890Y-104549700D02*
X137321890Y-104583033D01*
X137321890Y-104583033D02*
X137255223Y-104583033D01*
X137255223Y-104583033D02*
X137155223Y-104549700D01*
X137155223Y-104549700D02*
X137088557Y-104483033D01*
X137088557Y-104483033D02*
X137055223Y-104416366D01*
X137055223Y-104416366D02*
X137021890Y-104283033D01*
X137021890Y-104283033D02*
X137021890Y-104183033D01*
X137021890Y-104183033D02*
X137055223Y-104049700D01*
X137055223Y-104049700D02*
X137088557Y-103983033D01*
X137088557Y-103983033D02*
X137155223Y-103916366D01*
X137155223Y-103916366D02*
X137255223Y-103883033D01*
X137255223Y-103883033D02*
X137321890Y-103883033D01*
X137321890Y-103883033D02*
X137421890Y-103916366D01*
X137421890Y-103916366D02*
X137455223Y-103949700D01*
X138121890Y-104583033D02*
X137721890Y-104583033D01*
X137921890Y-104583033D02*
X137921890Y-103883033D01*
X137921890Y-103883033D02*
X137855223Y-103983033D01*
X137855223Y-103983033D02*
X137788557Y-104049700D01*
X137788557Y-104049700D02*
X137721890Y-104083033D01*
X138755224Y-103883033D02*
X138421890Y-103883033D01*
X138421890Y-103883033D02*
X138388557Y-104216366D01*
X138388557Y-104216366D02*
X138421890Y-104183033D01*
X138421890Y-104183033D02*
X138488557Y-104149700D01*
X138488557Y-104149700D02*
X138655224Y-104149700D01*
X138655224Y-104149700D02*
X138721890Y-104183033D01*
X138721890Y-104183033D02*
X138755224Y-104216366D01*
X138755224Y-104216366D02*
X138788557Y-104283033D01*
X138788557Y-104283033D02*
X138788557Y-104449700D01*
X138788557Y-104449700D02*
X138755224Y-104516366D01*
X138755224Y-104516366D02*
X138721890Y-104549700D01*
X138721890Y-104549700D02*
X138655224Y-104583033D01*
X138655224Y-104583033D02*
X138488557Y-104583033D01*
X138488557Y-104583033D02*
X138421890Y-104549700D01*
X138421890Y-104549700D02*
X138388557Y-104516366D01*
X147086666Y-114043033D02*
X147086666Y-114543033D01*
X147086666Y-114543033D02*
X147053333Y-114643033D01*
X147053333Y-114643033D02*
X146986666Y-114709700D01*
X146986666Y-114709700D02*
X146886666Y-114743033D01*
X146886666Y-114743033D02*
X146820000Y-114743033D01*
X147786666Y-114743033D02*
X147386666Y-114743033D01*
X147586666Y-114743033D02*
X147586666Y-114043033D01*
X147586666Y-114043033D02*
X147519999Y-114143033D01*
X147519999Y-114143033D02*
X147453333Y-114209700D01*
X147453333Y-114209700D02*
X147386666Y-114243033D01*
X138871333Y-116460700D02*
X138804666Y-116427366D01*
X138804666Y-116427366D02*
X138738000Y-116360700D01*
X138738000Y-116360700D02*
X138638000Y-116260700D01*
X138638000Y-116260700D02*
X138571333Y-116227366D01*
X138571333Y-116227366D02*
X138504666Y-116227366D01*
X138538000Y-116394033D02*
X138471333Y-116360700D01*
X138471333Y-116360700D02*
X138404666Y-116294033D01*
X138404666Y-116294033D02*
X138371333Y-116160700D01*
X138371333Y-116160700D02*
X138371333Y-115927366D01*
X138371333Y-115927366D02*
X138404666Y-115794033D01*
X138404666Y-115794033D02*
X138471333Y-115727366D01*
X138471333Y-115727366D02*
X138538000Y-115694033D01*
X138538000Y-115694033D02*
X138671333Y-115694033D01*
X138671333Y-115694033D02*
X138738000Y-115727366D01*
X138738000Y-115727366D02*
X138804666Y-115794033D01*
X138804666Y-115794033D02*
X138838000Y-115927366D01*
X138838000Y-115927366D02*
X138838000Y-116160700D01*
X138838000Y-116160700D02*
X138804666Y-116294033D01*
X138804666Y-116294033D02*
X138738000Y-116360700D01*
X138738000Y-116360700D02*
X138671333Y-116394033D01*
X138671333Y-116394033D02*
X138538000Y-116394033D01*
X139504666Y-116394033D02*
X139104666Y-116394033D01*
X139304666Y-116394033D02*
X139304666Y-115694033D01*
X139304666Y-115694033D02*
X139237999Y-115794033D01*
X139237999Y-115794033D02*
X139171333Y-115860700D01*
X139171333Y-115860700D02*
X139104666Y-115894033D01*
X156779296Y-104516366D02*
X156745963Y-104549700D01*
X156745963Y-104549700D02*
X156645963Y-104583033D01*
X156645963Y-104583033D02*
X156579296Y-104583033D01*
X156579296Y-104583033D02*
X156479296Y-104549700D01*
X156479296Y-104549700D02*
X156412630Y-104483033D01*
X156412630Y-104483033D02*
X156379296Y-104416366D01*
X156379296Y-104416366D02*
X156345963Y-104283033D01*
X156345963Y-104283033D02*
X156345963Y-104183033D01*
X156345963Y-104183033D02*
X156379296Y-104049700D01*
X156379296Y-104049700D02*
X156412630Y-103983033D01*
X156412630Y-103983033D02*
X156479296Y-103916366D01*
X156479296Y-103916366D02*
X156579296Y-103883033D01*
X156579296Y-103883033D02*
X156645963Y-103883033D01*
X156645963Y-103883033D02*
X156745963Y-103916366D01*
X156745963Y-103916366D02*
X156779296Y-103949700D01*
X157445963Y-104583033D02*
X157045963Y-104583033D01*
X157245963Y-104583033D02*
X157245963Y-103883033D01*
X157245963Y-103883033D02*
X157179296Y-103983033D01*
X157179296Y-103983033D02*
X157112630Y-104049700D01*
X157112630Y-104049700D02*
X157045963Y-104083033D01*
X158045963Y-104116366D02*
X158045963Y-104583033D01*
X157879297Y-103849700D02*
X157712630Y-104349700D01*
X157712630Y-104349700D02*
X158145963Y-104349700D01*
X148882285Y-97979033D02*
X148648952Y-97645700D01*
X148482285Y-97979033D02*
X148482285Y-97279033D01*
X148482285Y-97279033D02*
X148748952Y-97279033D01*
X148748952Y-97279033D02*
X148815619Y-97312366D01*
X148815619Y-97312366D02*
X148848952Y-97345700D01*
X148848952Y-97345700D02*
X148882285Y-97412366D01*
X148882285Y-97412366D02*
X148882285Y-97512366D01*
X148882285Y-97512366D02*
X148848952Y-97579033D01*
X148848952Y-97579033D02*
X148815619Y-97612366D01*
X148815619Y-97612366D02*
X148748952Y-97645700D01*
X148748952Y-97645700D02*
X148482285Y-97645700D01*
X149148952Y-97345700D02*
X149182285Y-97312366D01*
X149182285Y-97312366D02*
X149248952Y-97279033D01*
X149248952Y-97279033D02*
X149415619Y-97279033D01*
X149415619Y-97279033D02*
X149482285Y-97312366D01*
X149482285Y-97312366D02*
X149515619Y-97345700D01*
X149515619Y-97345700D02*
X149548952Y-97412366D01*
X149548952Y-97412366D02*
X149548952Y-97479033D01*
X149548952Y-97479033D02*
X149515619Y-97579033D01*
X149515619Y-97579033D02*
X149115619Y-97979033D01*
X149115619Y-97979033D02*
X149548952Y-97979033D01*
X150148952Y-97512366D02*
X150148952Y-97979033D01*
X149982286Y-97245700D02*
X149815619Y-97745700D01*
X149815619Y-97745700D02*
X150248952Y-97745700D01*
X147041711Y-94169033D02*
X147041711Y-93469033D01*
X147041711Y-93469033D02*
X147208378Y-93469033D01*
X147208378Y-93469033D02*
X147308378Y-93502366D01*
X147308378Y-93502366D02*
X147375045Y-93569033D01*
X147375045Y-93569033D02*
X147408378Y-93635700D01*
X147408378Y-93635700D02*
X147441711Y-93769033D01*
X147441711Y-93769033D02*
X147441711Y-93869033D01*
X147441711Y-93869033D02*
X147408378Y-94002366D01*
X147408378Y-94002366D02*
X147375045Y-94069033D01*
X147375045Y-94069033D02*
X147308378Y-94135700D01*
X147308378Y-94135700D02*
X147208378Y-94169033D01*
X147208378Y-94169033D02*
X147041711Y-94169033D01*
X148108378Y-94169033D02*
X147708378Y-94169033D01*
X147908378Y-94169033D02*
X147908378Y-93469033D01*
X147908378Y-93469033D02*
X147841711Y-93569033D01*
X147841711Y-93569033D02*
X147775045Y-93635700D01*
X147775045Y-93635700D02*
X147708378Y-93669033D01*
X143000632Y-94169033D02*
X143000632Y-93469033D01*
X143000632Y-93469033D02*
X143167299Y-93469033D01*
X143167299Y-93469033D02*
X143267299Y-93502366D01*
X143267299Y-93502366D02*
X143333966Y-93569033D01*
X143333966Y-93569033D02*
X143367299Y-93635700D01*
X143367299Y-93635700D02*
X143400632Y-93769033D01*
X143400632Y-93769033D02*
X143400632Y-93869033D01*
X143400632Y-93869033D02*
X143367299Y-94002366D01*
X143367299Y-94002366D02*
X143333966Y-94069033D01*
X143333966Y-94069033D02*
X143267299Y-94135700D01*
X143267299Y-94135700D02*
X143167299Y-94169033D01*
X143167299Y-94169033D02*
X143000632Y-94169033D01*
X144033966Y-93469033D02*
X143700632Y-93469033D01*
X143700632Y-93469033D02*
X143667299Y-93802366D01*
X143667299Y-93802366D02*
X143700632Y-93769033D01*
X143700632Y-93769033D02*
X143767299Y-93735700D01*
X143767299Y-93735700D02*
X143933966Y-93735700D01*
X143933966Y-93735700D02*
X144000632Y-93769033D01*
X144000632Y-93769033D02*
X144033966Y-93802366D01*
X144033966Y-93802366D02*
X144067299Y-93869033D01*
X144067299Y-93869033D02*
X144067299Y-94035700D01*
X144067299Y-94035700D02*
X144033966Y-94102366D01*
X144033966Y-94102366D02*
X144000632Y-94135700D01*
X144000632Y-94135700D02*
X143933966Y-94169033D01*
X143933966Y-94169033D02*
X143767299Y-94169033D01*
X143767299Y-94169033D02*
X143700632Y-94135700D01*
X143700632Y-94135700D02*
X143667299Y-94102366D01*
X138899495Y-94169033D02*
X138899495Y-93469033D01*
X138899495Y-93469033D02*
X139066162Y-93469033D01*
X139066162Y-93469033D02*
X139166162Y-93502366D01*
X139166162Y-93502366D02*
X139232829Y-93569033D01*
X139232829Y-93569033D02*
X139266162Y-93635700D01*
X139266162Y-93635700D02*
X139299495Y-93769033D01*
X139299495Y-93769033D02*
X139299495Y-93869033D01*
X139299495Y-93869033D02*
X139266162Y-94002366D01*
X139266162Y-94002366D02*
X139232829Y-94069033D01*
X139232829Y-94069033D02*
X139166162Y-94135700D01*
X139166162Y-94135700D02*
X139066162Y-94169033D01*
X139066162Y-94169033D02*
X138899495Y-94169033D01*
X139899495Y-93469033D02*
X139766162Y-93469033D01*
X139766162Y-93469033D02*
X139699495Y-93502366D01*
X139699495Y-93502366D02*
X139666162Y-93535700D01*
X139666162Y-93535700D02*
X139599495Y-93635700D01*
X139599495Y-93635700D02*
X139566162Y-93769033D01*
X139566162Y-93769033D02*
X139566162Y-94035700D01*
X139566162Y-94035700D02*
X139599495Y-94102366D01*
X139599495Y-94102366D02*
X139632829Y-94135700D01*
X139632829Y-94135700D02*
X139699495Y-94169033D01*
X139699495Y-94169033D02*
X139832829Y-94169033D01*
X139832829Y-94169033D02*
X139899495Y-94135700D01*
X139899495Y-94135700D02*
X139932829Y-94102366D01*
X139932829Y-94102366D02*
X139966162Y-94035700D01*
X139966162Y-94035700D02*
X139966162Y-93869033D01*
X139966162Y-93869033D02*
X139932829Y-93802366D01*
X139932829Y-93802366D02*
X139899495Y-93769033D01*
X139899495Y-93769033D02*
X139832829Y-93735700D01*
X139832829Y-93735700D02*
X139699495Y-93735700D01*
X139699495Y-93735700D02*
X139632829Y-93769033D01*
X139632829Y-93769033D02*
X139599495Y-93802366D01*
X139599495Y-93802366D02*
X139566162Y-93869033D01*
X152493385Y-97979033D02*
X152260052Y-97645700D01*
X152093385Y-97979033D02*
X152093385Y-97279033D01*
X152093385Y-97279033D02*
X152360052Y-97279033D01*
X152360052Y-97279033D02*
X152426719Y-97312366D01*
X152426719Y-97312366D02*
X152460052Y-97345700D01*
X152460052Y-97345700D02*
X152493385Y-97412366D01*
X152493385Y-97412366D02*
X152493385Y-97512366D01*
X152493385Y-97512366D02*
X152460052Y-97579033D01*
X152460052Y-97579033D02*
X152426719Y-97612366D01*
X152426719Y-97612366D02*
X152360052Y-97645700D01*
X152360052Y-97645700D02*
X152093385Y-97645700D01*
X153160052Y-97979033D02*
X152760052Y-97979033D01*
X152960052Y-97979033D02*
X152960052Y-97279033D01*
X152960052Y-97279033D02*
X152893385Y-97379033D01*
X152893385Y-97379033D02*
X152826719Y-97445700D01*
X152826719Y-97445700D02*
X152760052Y-97479033D01*
X153393386Y-97279033D02*
X153860052Y-97279033D01*
X153860052Y-97279033D02*
X153560052Y-97979033D01*
X150411144Y-104583033D02*
X150177811Y-104249700D01*
X150011144Y-104583033D02*
X150011144Y-103883033D01*
X150011144Y-103883033D02*
X150277811Y-103883033D01*
X150277811Y-103883033D02*
X150344478Y-103916366D01*
X150344478Y-103916366D02*
X150377811Y-103949700D01*
X150377811Y-103949700D02*
X150411144Y-104016366D01*
X150411144Y-104016366D02*
X150411144Y-104116366D01*
X150411144Y-104116366D02*
X150377811Y-104183033D01*
X150377811Y-104183033D02*
X150344478Y-104216366D01*
X150344478Y-104216366D02*
X150277811Y-104249700D01*
X150277811Y-104249700D02*
X150011144Y-104249700D01*
X150677811Y-103949700D02*
X150711144Y-103916366D01*
X150711144Y-103916366D02*
X150777811Y-103883033D01*
X150777811Y-103883033D02*
X150944478Y-103883033D01*
X150944478Y-103883033D02*
X151011144Y-103916366D01*
X151011144Y-103916366D02*
X151044478Y-103949700D01*
X151044478Y-103949700D02*
X151077811Y-104016366D01*
X151077811Y-104016366D02*
X151077811Y-104083033D01*
X151077811Y-104083033D02*
X151044478Y-104183033D01*
X151044478Y-104183033D02*
X150644478Y-104583033D01*
X150644478Y-104583033D02*
X151077811Y-104583033D01*
X151677811Y-103883033D02*
X151544478Y-103883033D01*
X151544478Y-103883033D02*
X151477811Y-103916366D01*
X151477811Y-103916366D02*
X151444478Y-103949700D01*
X151444478Y-103949700D02*
X151377811Y-104049700D01*
X151377811Y-104049700D02*
X151344478Y-104183033D01*
X151344478Y-104183033D02*
X151344478Y-104449700D01*
X151344478Y-104449700D02*
X151377811Y-104516366D01*
X151377811Y-104516366D02*
X151411145Y-104549700D01*
X151411145Y-104549700D02*
X151477811Y-104583033D01*
X151477811Y-104583033D02*
X151611145Y-104583033D01*
X151611145Y-104583033D02*
X151677811Y-104549700D01*
X151677811Y-104549700D02*
X151711145Y-104516366D01*
X151711145Y-104516366D02*
X151744478Y-104449700D01*
X151744478Y-104449700D02*
X151744478Y-104283033D01*
X151744478Y-104283033D02*
X151711145Y-104216366D01*
X151711145Y-104216366D02*
X151677811Y-104183033D01*
X151677811Y-104183033D02*
X151611145Y-104149700D01*
X151611145Y-104149700D02*
X151477811Y-104149700D01*
X151477811Y-104149700D02*
X151411145Y-104183033D01*
X151411145Y-104183033D02*
X151377811Y-104216366D01*
X151377811Y-104216366D02*
X151344478Y-104283033D01*
D12*
%TO.C,J2*%
X132457000Y-73550000D02*
X133837000Y-73550000D01*
X132457000Y-74930000D02*
X132457000Y-73550000D01*
X132457000Y-76200000D02*
X132457000Y-122030000D01*
X132457000Y-76200000D02*
X135217000Y-76200000D01*
X132457000Y-122030000D02*
X135217000Y-122030000D01*
X135217000Y-76200000D02*
X135217000Y-122030000D01*
%TO.C,D3*%
X154058000Y-94527000D02*
X154058000Y-96227000D01*
X154058000Y-94527000D02*
X156718000Y-94527000D01*
X154058000Y-96227000D02*
X156718000Y-96227000D01*
%TO.C,SW1*%
X138815000Y-107548000D02*
X145115000Y-107548000D01*
X138815000Y-107798000D02*
X138815000Y-107548000D01*
X138815000Y-112298000D02*
X138815000Y-109698000D01*
X138815000Y-114448000D02*
X138815000Y-114198000D01*
X145115000Y-107548000D02*
X145115000Y-107798000D01*
X145115000Y-109698000D02*
X145115000Y-112298000D01*
X145115000Y-114198000D02*
X145115000Y-114448000D01*
X145115000Y-114448000D02*
X138815000Y-114448000D01*
%TO.C,J3*%
X159381000Y-73550000D02*
X160761000Y-73550000D01*
X159381000Y-74930000D02*
X159381000Y-73550000D01*
X159381000Y-76200000D02*
X159381000Y-122030000D01*
X159381000Y-76200000D02*
X162141000Y-76200000D01*
X159381000Y-122030000D02*
X162141000Y-122030000D01*
X162141000Y-76200000D02*
X162141000Y-122030000D01*
D13*
%TO.C,Q2*%
X154986000Y-118594000D02*
X154986000Y-118134000D01*
X155456000Y-116844000D02*
X156386000Y-116844000D01*
X155456000Y-119884000D02*
X156386000Y-119884000D01*
X156386000Y-116844000D02*
X156386000Y-117644000D01*
X156386000Y-119084000D02*
X156386000Y-119884000D01*
D14*
X153786000Y-117364000D02*
G75*
G02*
X153586000Y-117364000I-100000J0D01*
G01*
X153586000Y-117364000D02*
G75*
G02*
X153786000Y-117364000I100000J0D01*
G01*
D12*
%TO.C,D4*%
X149994000Y-94527000D02*
X149994000Y-96227000D01*
X149994000Y-94527000D02*
X152654000Y-94527000D01*
X149994000Y-96227000D02*
X152654000Y-96227000D01*
D13*
%TO.C,MOD1*%
X138511500Y-66371000D02*
X156511500Y-66371000D01*
X138511500Y-72871000D02*
X138511500Y-66371000D01*
X138511500Y-91221000D02*
X138511500Y-91871000D01*
X138511500Y-91871000D02*
X140961500Y-91871000D01*
X154061500Y-91871000D02*
X156511500Y-91871000D01*
X156511500Y-66371000D02*
X156511500Y-72871000D01*
X156511500Y-91871000D02*
X156511500Y-91221000D01*
D14*
X137611500Y-73871000D02*
G75*
G02*
X137411500Y-73871000I-100000J0D01*
G01*
X137411500Y-73871000D02*
G75*
G02*
X137611500Y-73871000I100000J0D01*
G01*
D12*
%TO.C,J1*%
X143429000Y-115808000D02*
X143429000Y-117878000D01*
X143429000Y-115808000D02*
X144299000Y-115808000D01*
X150299000Y-115808000D02*
X151169000Y-115808000D01*
X151169000Y-115808000D02*
X151169000Y-117878000D01*
X148599000Y-115468000D02*
X148259000Y-114998000D01*
X148939000Y-114998000D01*
X148599000Y-115468000D01*
G36*
X148599000Y-115468000D02*
G01*
X148259000Y-114998000D01*
X148939000Y-114998000D01*
X148599000Y-115468000D01*
G37*
D13*
%TO.C,Q1*%
X138238000Y-118594000D02*
X138238000Y-118134000D01*
X138708000Y-116844000D02*
X139638000Y-116844000D01*
X138708000Y-119884000D02*
X139638000Y-119884000D01*
X139638000Y-116844000D02*
X139638000Y-117644000D01*
X139638000Y-119084000D02*
X139638000Y-119884000D01*
D14*
X137038000Y-117364000D02*
G75*
G02*
X136838000Y-117364000I-100000J0D01*
G01*
X136838000Y-117364000D02*
G75*
G02*
X137038000Y-117364000I100000J0D01*
G01*
D12*
%TO.C,D1*%
X146063500Y-94642000D02*
X146063500Y-96112000D01*
X146063500Y-96112000D02*
X148348500Y-96112000D01*
X148348500Y-94642000D02*
X146063500Y-94642000D01*
%TO.C,D5*%
X141900000Y-94527000D02*
X141900000Y-96227000D01*
X141900000Y-94527000D02*
X144560000Y-94527000D01*
X141900000Y-96227000D02*
X144560000Y-96227000D01*
%TO.C,D6*%
X137802000Y-94527000D02*
X137802000Y-96227000D01*
X137802000Y-94527000D02*
X140462000Y-94527000D01*
X137802000Y-96227000D02*
X140462000Y-96227000D01*
%TO.C,SW2*%
X149483000Y-107548000D02*
X155783000Y-107548000D01*
X149483000Y-107798000D02*
X149483000Y-107548000D01*
X149483000Y-112298000D02*
X149483000Y-109698000D01*
X149483000Y-114448000D02*
X149483000Y-114198000D01*
X155783000Y-107548000D02*
X155783000Y-107798000D01*
X155783000Y-109698000D02*
X155783000Y-112298000D01*
X155783000Y-114198000D02*
X155783000Y-114448000D01*
X155783000Y-114448000D02*
X149483000Y-114448000D01*
%TD*%
M02*
